ISO-10303-21;
HEADER;
/* Generated by software containing ST-Developer
 * from STEP Tools, Inc. (www.steptools.com) 
 */

FILE_DESCRIPTION(
/* description */ (''),
/* implementation_level */ '2;1');

FILE_NAME(
/* name */ 'Motor Mount Clamp v1.step',
/* time_stamp */ '2025-06-29T00:30:45-07:00',
/* author */ (''),
/* organization */ (''),
/* preprocessor_version */ 'ST-DEVELOPER v20.1',
/* originating_system */ 'Autodesk Translation Framework v14.10.0.0',
/* authorisation */ '');

FILE_SCHEMA (('AUTOMOTIVE_DESIGN { 1 0 10303 214 3 1 1 }'));
ENDSEC;

DATA;
#10=MECHANICAL_DESIGN_GEOMETRIC_PRESENTATION_REPRESENTATION('',(#13),#867);
#11=SHAPE_REPRESENTATION_RELATIONSHIP('SRR','None',#874,#12);
#12=ADVANCED_BREP_SHAPE_REPRESENTATION('',(#14),#866);
#13=STYLED_ITEM('',(#883),#14);
#14=MANIFOLD_SOLID_BREP('Body2',#519);
#15=FACE_BOUND('',#66,.T.);
#16=FACE_BOUND('',#71,.T.);
#17=FACE_BOUND('',#74,.T.);
#18=FACE_BOUND('',#89,.T.);
#19=PLANE('',#539);
#20=PLANE('',#540);
#21=PLANE('',#544);
#22=PLANE('',#545);
#23=PLANE('',#546);
#24=PLANE('',#547);
#25=PLANE('',#548);
#26=PLANE('',#552);
#27=PLANE('',#553);
#28=PLANE('',#557);
#29=PLANE('',#561);
#30=PLANE('',#565);
#31=PLANE('',#566);
#32=PLANE('',#570);
#33=PLANE('',#571);
#34=PLANE('',#572);
#35=PLANE('',#573);
#36=PLANE('',#574);
#37=FACE_OUTER_BOUND('',#63,.T.);
#38=FACE_OUTER_BOUND('',#64,.T.);
#39=FACE_OUTER_BOUND('',#65,.T.);
#40=FACE_OUTER_BOUND('',#67,.T.);
#41=FACE_OUTER_BOUND('',#68,.T.);
#42=FACE_OUTER_BOUND('',#69,.T.);
#43=FACE_OUTER_BOUND('',#70,.T.);
#44=FACE_OUTER_BOUND('',#72,.T.);
#45=FACE_OUTER_BOUND('',#73,.T.);
#46=FACE_OUTER_BOUND('',#75,.T.);
#47=FACE_OUTER_BOUND('',#76,.T.);
#48=FACE_OUTER_BOUND('',#77,.T.);
#49=FACE_OUTER_BOUND('',#78,.T.);
#50=FACE_OUTER_BOUND('',#79,.T.);
#51=FACE_OUTER_BOUND('',#80,.T.);
#52=FACE_OUTER_BOUND('',#81,.T.);
#53=FACE_OUTER_BOUND('',#82,.T.);
#54=FACE_OUTER_BOUND('',#83,.T.);
#55=FACE_OUTER_BOUND('',#84,.T.);
#56=FACE_OUTER_BOUND('',#85,.T.);
#57=FACE_OUTER_BOUND('',#86,.T.);
#58=FACE_OUTER_BOUND('',#87,.T.);
#59=FACE_OUTER_BOUND('',#88,.T.);
#60=FACE_OUTER_BOUND('',#90,.T.);
#61=FACE_OUTER_BOUND('',#91,.T.);
#62=FACE_OUTER_BOUND('',#92,.T.);
#63=EDGE_LOOP('',(#341,#342,#343,#344));
#64=EDGE_LOOP('',(#345,#346,#347,#348));
#65=EDGE_LOOP('',(#349,#350,#351,#352));
#66=EDGE_LOOP('',(#353));
#67=EDGE_LOOP('',(#354,#355,#356,#357));
#68=EDGE_LOOP('',(#358,#359,#360,#361));
#69=EDGE_LOOP('',(#362,#363,#364,#365));
#70=EDGE_LOOP('',(#366,#367,#368,#369));
#71=EDGE_LOOP('',(#370));
#72=EDGE_LOOP('',(#371,#372,#373,#374));
#73=EDGE_LOOP('',(#375,#376,#377,#378));
#74=EDGE_LOOP('',(#379));
#75=EDGE_LOOP('',(#380,#381,#382,#383));
#76=EDGE_LOOP('',(#384,#385,#386,#387));
#77=EDGE_LOOP('',(#388,#389,#390,#391));
#78=EDGE_LOOP('',(#392,#393,#394,#395));
#79=EDGE_LOOP('',(#396,#397,#398,#399));
#80=EDGE_LOOP('',(#400,#401,#402,#403));
#81=EDGE_LOOP('',(#404,#405,#406,#407));
#82=EDGE_LOOP('',(#408,#409,#410,#411));
#83=EDGE_LOOP('',(#412,#413,#414,#415));
#84=EDGE_LOOP('',(#416,#417,#418,#419));
#85=EDGE_LOOP('',(#420,#421,#422,#423));
#86=EDGE_LOOP('',(#424,#425,#426,#427));
#87=EDGE_LOOP('',(#428,#429,#430,#431));
#88=EDGE_LOOP('',(#432,#433,#434,#435));
#89=EDGE_LOOP('',(#436));
#90=EDGE_LOOP('',(#437,#438,#439,#440));
#91=EDGE_LOOP('',(#441,#442,#443,#444,#445,#446,#447,#448,#449,#450,#451,
#452,#453,#454,#455,#456,#457,#458,#459,#460,#461,#462));
#92=EDGE_LOOP('',(#463,#464,#465,#466,#467,#468,#469,#470,#471,#472,#473,
#474,#475,#476,#477,#478,#479,#480,#481,#482,#483,#484));
#93=LINE('',#722,#149);
#94=LINE('',#728,#150);
#95=LINE('',#733,#151);
#96=LINE('',#735,#152);
#97=LINE('',#737,#153);
#98=LINE('',#738,#154);
#99=LINE('',#741,#155);
#100=LINE('',#743,#156);
#101=LINE('',#744,#157);
#102=LINE('',#750,#158);
#103=LINE('',#753,#159);
#104=LINE('',#755,#160);
#105=LINE('',#756,#161);
#106=LINE('',#759,#162);
#107=LINE('',#761,#163);
#108=LINE('',#762,#164);
#109=LINE('',#765,#165);
#110=LINE('',#767,#166);
#111=LINE('',#768,#167);
#112=LINE('',#771,#168);
#113=LINE('',#773,#169);
#114=LINE('',#774,#170);
#115=LINE('',#777,#171);
#116=LINE('',#779,#172);
#117=LINE('',#780,#173);
#118=LINE('',#786,#174);
#119=LINE('',#789,#175);
#120=LINE('',#791,#176);
#121=LINE('',#792,#177);
#122=LINE('',#795,#178);
#123=LINE('',#797,#179);
#124=LINE('',#798,#180);
#125=LINE('',#804,#181);
#126=LINE('',#807,#182);
#127=LINE('',#809,#183);
#128=LINE('',#810,#184);
#129=LINE('',#816,#185);
#130=LINE('',#819,#186);
#131=LINE('',#821,#187);
#132=LINE('',#822,#188);
#133=LINE('',#828,#189);
#134=LINE('',#831,#190);
#135=LINE('',#833,#191);
#136=LINE('',#834,#192);
#137=LINE('',#837,#193);
#138=LINE('',#839,#194);
#139=LINE('',#840,#195);
#140=LINE('',#846,#196);
#141=LINE('',#849,#197);
#142=LINE('',#851,#198);
#143=LINE('',#852,#199);
#144=LINE('',#855,#200);
#145=LINE('',#857,#201);
#146=LINE('',#858,#202);
#147=LINE('',#860,#203);
#148=LINE('',#861,#204);
#149=VECTOR('',#581,3.25);
#150=VECTOR('',#588,3.25);
#151=VECTOR('',#593,10.);
#152=VECTOR('',#594,10.);
#153=VECTOR('',#595,10.);
#154=VECTOR('',#596,10.);
#155=VECTOR('',#599,10.);
#156=VECTOR('',#600,10.);
#157=VECTOR('',#601,10.);
#158=VECTOR('',#608,10.);
#159=VECTOR('',#611,10.);
#160=VECTOR('',#612,10.);
#161=VECTOR('',#613,10.);
#162=VECTOR('',#616,10.);
#163=VECTOR('',#617,10.);
#164=VECTOR('',#618,10.);
#165=VECTOR('',#621,10.);
#166=VECTOR('',#622,10.);
#167=VECTOR('',#623,10.);
#168=VECTOR('',#626,10.);
#169=VECTOR('',#627,10.);
#170=VECTOR('',#628,10.);
#171=VECTOR('',#631,10.);
#172=VECTOR('',#632,10.);
#173=VECTOR('',#633,10.);
#174=VECTOR('',#640,10.);
#175=VECTOR('',#643,10.);
#176=VECTOR('',#644,10.);
#177=VECTOR('',#645,10.);
#178=VECTOR('',#648,10.);
#179=VECTOR('',#649,10.);
#180=VECTOR('',#650,10.);
#181=VECTOR('',#657,10.);
#182=VECTOR('',#660,10.);
#183=VECTOR('',#661,10.);
#184=VECTOR('',#662,10.);
#185=VECTOR('',#669,10.);
#186=VECTOR('',#672,10.);
#187=VECTOR('',#673,10.);
#188=VECTOR('',#674,10.);
#189=VECTOR('',#681,10.);
#190=VECTOR('',#684,10.);
#191=VECTOR('',#685,10.);
#192=VECTOR('',#686,10.);
#193=VECTOR('',#689,10.);
#194=VECTOR('',#690,10.);
#195=VECTOR('',#691,10.);
#196=VECTOR('',#698,10.);
#197=VECTOR('',#701,10.);
#198=VECTOR('',#702,10.);
#199=VECTOR('',#703,10.);
#200=VECTOR('',#706,10.);
#201=VECTOR('',#707,10.);
#202=VECTOR('',#708,10.);
#203=VECTOR('',#711,10.);
#204=VECTOR('',#712,10.);
#205=CIRCLE('',#534,3.25);
#206=CIRCLE('',#535,3.25);
#207=CIRCLE('',#537,3.25);
#208=CIRCLE('',#538,3.25);
#209=CIRCLE('',#542,33.999999538064);
#210=CIRCLE('',#543,33.999999538064);
#211=CIRCLE('',#550,39.9999996551248);
#212=CIRCLE('',#551,39.9999996551248);
#213=CIRCLE('',#555,39.9999996551248);
#214=CIRCLE('',#556,39.9999996551248);
#215=CIRCLE('',#559,39.9999996551248);
#216=CIRCLE('',#560,39.9999996551248);
#217=CIRCLE('',#563,39.9999996551248);
#218=CIRCLE('',#564,39.9999996551248);
#219=CIRCLE('',#568,39.9999996551248);
#220=CIRCLE('',#569,39.9999996551248);
#221=VERTEX_POINT('',#719);
#222=VERTEX_POINT('',#721);
#223=VERTEX_POINT('',#725);
#224=VERTEX_POINT('',#727);
#225=VERTEX_POINT('',#731);
#226=VERTEX_POINT('',#732);
#227=VERTEX_POINT('',#734);
#228=VERTEX_POINT('',#736);
#229=VERTEX_POINT('',#740);
#230=VERTEX_POINT('',#742);
#231=VERTEX_POINT('',#746);
#232=VERTEX_POINT('',#748);
#233=VERTEX_POINT('',#752);
#234=VERTEX_POINT('',#754);
#235=VERTEX_POINT('',#758);
#236=VERTEX_POINT('',#760);
#237=VERTEX_POINT('',#764);
#238=VERTEX_POINT('',#766);
#239=VERTEX_POINT('',#770);
#240=VERTEX_POINT('',#772);
#241=VERTEX_POINT('',#776);
#242=VERTEX_POINT('',#778);
#243=VERTEX_POINT('',#782);
#244=VERTEX_POINT('',#784);
#245=VERTEX_POINT('',#788);
#246=VERTEX_POINT('',#790);
#247=VERTEX_POINT('',#794);
#248=VERTEX_POINT('',#796);
#249=VERTEX_POINT('',#800);
#250=VERTEX_POINT('',#802);
#251=VERTEX_POINT('',#806);
#252=VERTEX_POINT('',#808);
#253=VERTEX_POINT('',#812);
#254=VERTEX_POINT('',#814);
#255=VERTEX_POINT('',#818);
#256=VERTEX_POINT('',#820);
#257=VERTEX_POINT('',#824);
#258=VERTEX_POINT('',#826);
#259=VERTEX_POINT('',#830);
#260=VERTEX_POINT('',#832);
#261=VERTEX_POINT('',#836);
#262=VERTEX_POINT('',#838);
#263=VERTEX_POINT('',#842);
#264=VERTEX_POINT('',#844);
#265=VERTEX_POINT('',#848);
#266=VERTEX_POINT('',#850);
#267=VERTEX_POINT('',#854);
#268=VERTEX_POINT('',#856);
#269=EDGE_CURVE('',#221,#221,#205,.T.);
#270=EDGE_CURVE('',#221,#222,#93,.T.);
#271=EDGE_CURVE('',#222,#222,#206,.T.);
#272=EDGE_CURVE('',#223,#223,#207,.T.);
#273=EDGE_CURVE('',#223,#224,#94,.T.);
#274=EDGE_CURVE('',#224,#224,#208,.T.);
#275=EDGE_CURVE('',#225,#226,#95,.T.);
#276=EDGE_CURVE('',#225,#227,#96,.T.);
#277=EDGE_CURVE('',#228,#227,#97,.T.);
#278=EDGE_CURVE('',#226,#228,#98,.T.);
#279=EDGE_CURVE('',#226,#229,#99,.T.);
#280=EDGE_CURVE('',#230,#228,#100,.T.);
#281=EDGE_CURVE('',#229,#230,#101,.T.);
#282=EDGE_CURVE('',#229,#231,#209,.T.);
#283=EDGE_CURVE('',#232,#230,#210,.T.);
#284=EDGE_CURVE('',#231,#232,#102,.T.);
#285=EDGE_CURVE('',#233,#231,#103,.T.);
#286=EDGE_CURVE('',#234,#232,#104,.T.);
#287=EDGE_CURVE('',#233,#234,#105,.T.);
#288=EDGE_CURVE('',#233,#235,#106,.T.);
#289=EDGE_CURVE('',#236,#234,#107,.T.);
#290=EDGE_CURVE('',#235,#236,#108,.T.);
#291=EDGE_CURVE('',#235,#237,#109,.T.);
#292=EDGE_CURVE('',#238,#236,#110,.T.);
#293=EDGE_CURVE('',#237,#238,#111,.T.);
#294=EDGE_CURVE('',#239,#237,#112,.T.);
#295=EDGE_CURVE('',#240,#238,#113,.T.);
#296=EDGE_CURVE('',#239,#240,#114,.T.);
#297=EDGE_CURVE('',#241,#239,#115,.T.);
#298=EDGE_CURVE('',#242,#240,#116,.T.);
#299=EDGE_CURVE('',#241,#242,#117,.T.);
#300=EDGE_CURVE('',#243,#241,#211,.T.);
#301=EDGE_CURVE('',#244,#242,#212,.T.);
#302=EDGE_CURVE('',#243,#244,#118,.T.);
#303=EDGE_CURVE('',#245,#243,#119,.T.);
#304=EDGE_CURVE('',#246,#244,#120,.T.);
#305=EDGE_CURVE('',#245,#246,#121,.T.);
#306=EDGE_CURVE('',#247,#245,#122,.T.);
#307=EDGE_CURVE('',#248,#246,#123,.T.);
#308=EDGE_CURVE('',#247,#248,#124,.T.);
#309=EDGE_CURVE('',#249,#247,#213,.T.);
#310=EDGE_CURVE('',#250,#248,#214,.T.);
#311=EDGE_CURVE('',#249,#250,#125,.T.);
#312=EDGE_CURVE('',#251,#249,#126,.T.);
#313=EDGE_CURVE('',#252,#250,#127,.T.);
#314=EDGE_CURVE('',#251,#252,#128,.T.);
#315=EDGE_CURVE('',#253,#251,#215,.T.);
#316=EDGE_CURVE('',#254,#252,#216,.T.);
#317=EDGE_CURVE('',#253,#254,#129,.T.);
#318=EDGE_CURVE('',#255,#253,#130,.T.);
#319=EDGE_CURVE('',#256,#254,#131,.T.);
#320=EDGE_CURVE('',#255,#256,#132,.T.);
#321=EDGE_CURVE('',#257,#255,#217,.T.);
#322=EDGE_CURVE('',#258,#256,#218,.T.);
#323=EDGE_CURVE('',#257,#258,#133,.T.);
#324=EDGE_CURVE('',#259,#257,#134,.T.);
#325=EDGE_CURVE('',#260,#258,#135,.T.);
#326=EDGE_CURVE('',#259,#260,#136,.T.);
#327=EDGE_CURVE('',#261,#259,#137,.T.);
#328=EDGE_CURVE('',#262,#260,#138,.T.);
#329=EDGE_CURVE('',#261,#262,#139,.T.);
#330=EDGE_CURVE('',#263,#261,#219,.T.);
#331=EDGE_CURVE('',#264,#262,#220,.T.);
#332=EDGE_CURVE('',#263,#264,#140,.T.);
#333=EDGE_CURVE('',#265,#263,#141,.T.);
#334=EDGE_CURVE('',#266,#264,#142,.T.);
#335=EDGE_CURVE('',#265,#266,#143,.T.);
#336=EDGE_CURVE('',#267,#265,#144,.T.);
#337=EDGE_CURVE('',#268,#266,#145,.T.);
#338=EDGE_CURVE('',#267,#268,#146,.T.);
#339=EDGE_CURVE('',#225,#267,#147,.T.);
#340=EDGE_CURVE('',#227,#268,#148,.T.);
#341=ORIENTED_EDGE('',*,*,#269,.F.);
#342=ORIENTED_EDGE('',*,*,#270,.T.);
#343=ORIENTED_EDGE('',*,*,#271,.F.);
#344=ORIENTED_EDGE('',*,*,#270,.F.);
#345=ORIENTED_EDGE('',*,*,#272,.F.);
#346=ORIENTED_EDGE('',*,*,#273,.T.);
#347=ORIENTED_EDGE('',*,*,#274,.F.);
#348=ORIENTED_EDGE('',*,*,#273,.F.);
#349=ORIENTED_EDGE('',*,*,#275,.F.);
#350=ORIENTED_EDGE('',*,*,#276,.T.);
#351=ORIENTED_EDGE('',*,*,#277,.F.);
#352=ORIENTED_EDGE('',*,*,#278,.F.);
#353=ORIENTED_EDGE('',*,*,#269,.T.);
#354=ORIENTED_EDGE('',*,*,#279,.F.);
#355=ORIENTED_EDGE('',*,*,#278,.T.);
#356=ORIENTED_EDGE('',*,*,#280,.F.);
#357=ORIENTED_EDGE('',*,*,#281,.F.);
#358=ORIENTED_EDGE('',*,*,#282,.F.);
#359=ORIENTED_EDGE('',*,*,#281,.T.);
#360=ORIENTED_EDGE('',*,*,#283,.F.);
#361=ORIENTED_EDGE('',*,*,#284,.F.);
#362=ORIENTED_EDGE('',*,*,#285,.T.);
#363=ORIENTED_EDGE('',*,*,#284,.T.);
#364=ORIENTED_EDGE('',*,*,#286,.F.);
#365=ORIENTED_EDGE('',*,*,#287,.F.);
#366=ORIENTED_EDGE('',*,*,#288,.F.);
#367=ORIENTED_EDGE('',*,*,#287,.T.);
#368=ORIENTED_EDGE('',*,*,#289,.F.);
#369=ORIENTED_EDGE('',*,*,#290,.F.);
#370=ORIENTED_EDGE('',*,*,#272,.T.);
#371=ORIENTED_EDGE('',*,*,#291,.F.);
#372=ORIENTED_EDGE('',*,*,#290,.T.);
#373=ORIENTED_EDGE('',*,*,#292,.F.);
#374=ORIENTED_EDGE('',*,*,#293,.F.);
#375=ORIENTED_EDGE('',*,*,#294,.T.);
#376=ORIENTED_EDGE('',*,*,#293,.T.);
#377=ORIENTED_EDGE('',*,*,#295,.F.);
#378=ORIENTED_EDGE('',*,*,#296,.F.);
#379=ORIENTED_EDGE('',*,*,#274,.T.);
#380=ORIENTED_EDGE('',*,*,#297,.T.);
#381=ORIENTED_EDGE('',*,*,#296,.T.);
#382=ORIENTED_EDGE('',*,*,#298,.F.);
#383=ORIENTED_EDGE('',*,*,#299,.F.);
#384=ORIENTED_EDGE('',*,*,#300,.T.);
#385=ORIENTED_EDGE('',*,*,#299,.T.);
#386=ORIENTED_EDGE('',*,*,#301,.F.);
#387=ORIENTED_EDGE('',*,*,#302,.F.);
#388=ORIENTED_EDGE('',*,*,#303,.T.);
#389=ORIENTED_EDGE('',*,*,#302,.T.);
#390=ORIENTED_EDGE('',*,*,#304,.F.);
#391=ORIENTED_EDGE('',*,*,#305,.F.);
#392=ORIENTED_EDGE('',*,*,#306,.T.);
#393=ORIENTED_EDGE('',*,*,#305,.T.);
#394=ORIENTED_EDGE('',*,*,#307,.F.);
#395=ORIENTED_EDGE('',*,*,#308,.F.);
#396=ORIENTED_EDGE('',*,*,#309,.T.);
#397=ORIENTED_EDGE('',*,*,#308,.T.);
#398=ORIENTED_EDGE('',*,*,#310,.F.);
#399=ORIENTED_EDGE('',*,*,#311,.F.);
#400=ORIENTED_EDGE('',*,*,#312,.T.);
#401=ORIENTED_EDGE('',*,*,#311,.T.);
#402=ORIENTED_EDGE('',*,*,#313,.F.);
#403=ORIENTED_EDGE('',*,*,#314,.F.);
#404=ORIENTED_EDGE('',*,*,#315,.T.);
#405=ORIENTED_EDGE('',*,*,#314,.T.);
#406=ORIENTED_EDGE('',*,*,#316,.F.);
#407=ORIENTED_EDGE('',*,*,#317,.F.);
#408=ORIENTED_EDGE('',*,*,#318,.T.);
#409=ORIENTED_EDGE('',*,*,#317,.T.);
#410=ORIENTED_EDGE('',*,*,#319,.F.);
#411=ORIENTED_EDGE('',*,*,#320,.F.);
#412=ORIENTED_EDGE('',*,*,#321,.T.);
#413=ORIENTED_EDGE('',*,*,#320,.T.);
#414=ORIENTED_EDGE('',*,*,#322,.F.);
#415=ORIENTED_EDGE('',*,*,#323,.F.);
#416=ORIENTED_EDGE('',*,*,#324,.T.);
#417=ORIENTED_EDGE('',*,*,#323,.T.);
#418=ORIENTED_EDGE('',*,*,#325,.F.);
#419=ORIENTED_EDGE('',*,*,#326,.F.);
#420=ORIENTED_EDGE('',*,*,#327,.T.);
#421=ORIENTED_EDGE('',*,*,#326,.T.);
#422=ORIENTED_EDGE('',*,*,#328,.F.);
#423=ORIENTED_EDGE('',*,*,#329,.F.);
#424=ORIENTED_EDGE('',*,*,#330,.T.);
#425=ORIENTED_EDGE('',*,*,#329,.T.);
#426=ORIENTED_EDGE('',*,*,#331,.F.);
#427=ORIENTED_EDGE('',*,*,#332,.F.);
#428=ORIENTED_EDGE('',*,*,#333,.T.);
#429=ORIENTED_EDGE('',*,*,#332,.T.);
#430=ORIENTED_EDGE('',*,*,#334,.F.);
#431=ORIENTED_EDGE('',*,*,#335,.F.);
#432=ORIENTED_EDGE('',*,*,#336,.T.);
#433=ORIENTED_EDGE('',*,*,#335,.T.);
#434=ORIENTED_EDGE('',*,*,#337,.F.);
#435=ORIENTED_EDGE('',*,*,#338,.F.);
#436=ORIENTED_EDGE('',*,*,#271,.T.);
#437=ORIENTED_EDGE('',*,*,#339,.T.);
#438=ORIENTED_EDGE('',*,*,#338,.T.);
#439=ORIENTED_EDGE('',*,*,#340,.F.);
#440=ORIENTED_EDGE('',*,*,#276,.F.);
#441=ORIENTED_EDGE('',*,*,#340,.T.);
#442=ORIENTED_EDGE('',*,*,#337,.T.);
#443=ORIENTED_EDGE('',*,*,#334,.T.);
#444=ORIENTED_EDGE('',*,*,#331,.T.);
#445=ORIENTED_EDGE('',*,*,#328,.T.);
#446=ORIENTED_EDGE('',*,*,#325,.T.);
#447=ORIENTED_EDGE('',*,*,#322,.T.);
#448=ORIENTED_EDGE('',*,*,#319,.T.);
#449=ORIENTED_EDGE('',*,*,#316,.T.);
#450=ORIENTED_EDGE('',*,*,#313,.T.);
#451=ORIENTED_EDGE('',*,*,#310,.T.);
#452=ORIENTED_EDGE('',*,*,#307,.T.);
#453=ORIENTED_EDGE('',*,*,#304,.T.);
#454=ORIENTED_EDGE('',*,*,#301,.T.);
#455=ORIENTED_EDGE('',*,*,#298,.T.);
#456=ORIENTED_EDGE('',*,*,#295,.T.);
#457=ORIENTED_EDGE('',*,*,#292,.T.);
#458=ORIENTED_EDGE('',*,*,#289,.T.);
#459=ORIENTED_EDGE('',*,*,#286,.T.);
#460=ORIENTED_EDGE('',*,*,#283,.T.);
#461=ORIENTED_EDGE('',*,*,#280,.T.);
#462=ORIENTED_EDGE('',*,*,#277,.T.);
#463=ORIENTED_EDGE('',*,*,#339,.F.);
#464=ORIENTED_EDGE('',*,*,#275,.T.);
#465=ORIENTED_EDGE('',*,*,#279,.T.);
#466=ORIENTED_EDGE('',*,*,#282,.T.);
#467=ORIENTED_EDGE('',*,*,#285,.F.);
#468=ORIENTED_EDGE('',*,*,#288,.T.);
#469=ORIENTED_EDGE('',*,*,#291,.T.);
#470=ORIENTED_EDGE('',*,*,#294,.F.);
#471=ORIENTED_EDGE('',*,*,#297,.F.);
#472=ORIENTED_EDGE('',*,*,#300,.F.);
#473=ORIENTED_EDGE('',*,*,#303,.F.);
#474=ORIENTED_EDGE('',*,*,#306,.F.);
#475=ORIENTED_EDGE('',*,*,#309,.F.);
#476=ORIENTED_EDGE('',*,*,#312,.F.);
#477=ORIENTED_EDGE('',*,*,#315,.F.);
#478=ORIENTED_EDGE('',*,*,#318,.F.);
#479=ORIENTED_EDGE('',*,*,#321,.F.);
#480=ORIENTED_EDGE('',*,*,#324,.F.);
#481=ORIENTED_EDGE('',*,*,#327,.F.);
#482=ORIENTED_EDGE('',*,*,#330,.F.);
#483=ORIENTED_EDGE('',*,*,#333,.F.);
#484=ORIENTED_EDGE('',*,*,#336,.F.);
#485=CYLINDRICAL_SURFACE('',#533,3.25);
#486=CYLINDRICAL_SURFACE('',#536,3.25);
#487=CYLINDRICAL_SURFACE('',#541,33.999999538064);
#488=CYLINDRICAL_SURFACE('',#549,39.9999996551248);
#489=CYLINDRICAL_SURFACE('',#554,39.9999996551248);
#490=CYLINDRICAL_SURFACE('',#558,39.9999996551248);
#491=CYLINDRICAL_SURFACE('',#562,39.9999996551248);
#492=CYLINDRICAL_SURFACE('',#567,39.9999996551248);
#493=ADVANCED_FACE('',(#37),#485,.F.);
#494=ADVANCED_FACE('',(#38),#486,.F.);
#495=ADVANCED_FACE('',(#39,#15),#19,.T.);
#496=ADVANCED_FACE('',(#40),#20,.T.);
#497=ADVANCED_FACE('',(#41),#487,.F.);
#498=ADVANCED_FACE('',(#42),#21,.T.);
#499=ADVANCED_FACE('',(#43,#16),#22,.T.);
#500=ADVANCED_FACE('',(#44),#23,.T.);
#501=ADVANCED_FACE('',(#45,#17),#24,.T.);
#502=ADVANCED_FACE('',(#46),#25,.T.);
#503=ADVANCED_FACE('',(#47),#488,.T.);
#504=ADVANCED_FACE('',(#48),#26,.T.);
#505=ADVANCED_FACE('',(#49),#27,.T.);
#506=ADVANCED_FACE('',(#50),#489,.T.);
#507=ADVANCED_FACE('',(#51),#28,.T.);
#508=ADVANCED_FACE('',(#52),#490,.T.);
#509=ADVANCED_FACE('',(#53),#29,.T.);
#510=ADVANCED_FACE('',(#54),#491,.T.);
#511=ADVANCED_FACE('',(#55),#30,.T.);
#512=ADVANCED_FACE('',(#56),#31,.T.);
#513=ADVANCED_FACE('',(#57),#492,.T.);
#514=ADVANCED_FACE('',(#58),#32,.T.);
#515=ADVANCED_FACE('',(#59,#18),#33,.T.);
#516=ADVANCED_FACE('',(#60),#34,.T.);
#517=ADVANCED_FACE('',(#61),#35,.T.);
#518=ADVANCED_FACE('',(#62),#36,.F.);
#519=CLOSED_SHELL('',(#493,#494,#495,#496,#497,#498,#499,#500,#501,#502,
#503,#504,#505,#506,#507,#508,#509,#510,#511,#512,#513,#514,#515,#516,#517,
#518));
#520=DERIVED_UNIT_ELEMENT(#522,1.);
#521=DERIVED_UNIT_ELEMENT(#869,-3.);
#522=(
MASS_UNIT()
NAMED_UNIT(*)
SI_UNIT(.KILO.,.GRAM.)
);
#523=DERIVED_UNIT((#520,#521));
#524=MEASURE_REPRESENTATION_ITEM('density measure',
POSITIVE_RATIO_MEASURE(7850.),#523);
#525=PROPERTY_DEFINITION_REPRESENTATION(#530,#527);
#526=PROPERTY_DEFINITION_REPRESENTATION(#531,#528);
#527=REPRESENTATION('material name',(#529),#866);
#528=REPRESENTATION('density',(#524),#866);
#529=DESCRIPTIVE_REPRESENTATION_ITEM('Steel','Steel');
#530=PROPERTY_DEFINITION('material property','material name',#876);
#531=PROPERTY_DEFINITION('material property','density of part',#876);
#532=AXIS2_PLACEMENT_3D('',#717,#575,#576);
#533=AXIS2_PLACEMENT_3D('',#718,#577,#578);
#534=AXIS2_PLACEMENT_3D('',#720,#579,#580);
#535=AXIS2_PLACEMENT_3D('',#723,#582,#583);
#536=AXIS2_PLACEMENT_3D('',#724,#584,#585);
#537=AXIS2_PLACEMENT_3D('',#726,#586,#587);
#538=AXIS2_PLACEMENT_3D('',#729,#589,#590);
#539=AXIS2_PLACEMENT_3D('',#730,#591,#592);
#540=AXIS2_PLACEMENT_3D('',#739,#597,#598);
#541=AXIS2_PLACEMENT_3D('',#745,#602,#603);
#542=AXIS2_PLACEMENT_3D('',#747,#604,#605);
#543=AXIS2_PLACEMENT_3D('',#749,#606,#607);
#544=AXIS2_PLACEMENT_3D('',#751,#609,#610);
#545=AXIS2_PLACEMENT_3D('',#757,#614,#615);
#546=AXIS2_PLACEMENT_3D('',#763,#619,#620);
#547=AXIS2_PLACEMENT_3D('',#769,#624,#625);
#548=AXIS2_PLACEMENT_3D('',#775,#629,#630);
#549=AXIS2_PLACEMENT_3D('',#781,#634,#635);
#550=AXIS2_PLACEMENT_3D('',#783,#636,#637);
#551=AXIS2_PLACEMENT_3D('',#785,#638,#639);
#552=AXIS2_PLACEMENT_3D('',#787,#641,#642);
#553=AXIS2_PLACEMENT_3D('',#793,#646,#647);
#554=AXIS2_PLACEMENT_3D('',#799,#651,#652);
#555=AXIS2_PLACEMENT_3D('',#801,#653,#654);
#556=AXIS2_PLACEMENT_3D('',#803,#655,#656);
#557=AXIS2_PLACEMENT_3D('',#805,#658,#659);
#558=AXIS2_PLACEMENT_3D('',#811,#663,#664);
#559=AXIS2_PLACEMENT_3D('',#813,#665,#666);
#560=AXIS2_PLACEMENT_3D('',#815,#667,#668);
#561=AXIS2_PLACEMENT_3D('',#817,#670,#671);
#562=AXIS2_PLACEMENT_3D('',#823,#675,#676);
#563=AXIS2_PLACEMENT_3D('',#825,#677,#678);
#564=AXIS2_PLACEMENT_3D('',#827,#679,#680);
#565=AXIS2_PLACEMENT_3D('',#829,#682,#683);
#566=AXIS2_PLACEMENT_3D('',#835,#687,#688);
#567=AXIS2_PLACEMENT_3D('',#841,#692,#693);
#568=AXIS2_PLACEMENT_3D('',#843,#694,#695);
#569=AXIS2_PLACEMENT_3D('',#845,#696,#697);
#570=AXIS2_PLACEMENT_3D('',#847,#699,#700);
#571=AXIS2_PLACEMENT_3D('',#853,#704,#705);
#572=AXIS2_PLACEMENT_3D('',#859,#709,#710);
#573=AXIS2_PLACEMENT_3D('',#862,#713,#714);
#574=AXIS2_PLACEMENT_3D('',#863,#715,#716);
#575=DIRECTION('axis',(0.,0.,1.));
#576=DIRECTION('refdir',(1.,0.,0.));
#577=DIRECTION('center_axis',(0.,0.,1.));
#578=DIRECTION('ref_axis',(1.,0.,0.));
#579=DIRECTION('center_axis',(0.,0.,1.));
#580=DIRECTION('ref_axis',(1.,0.,0.));
#581=DIRECTION('',(0.,0.,1.));
#582=DIRECTION('center_axis',(0.,0.,-1.));
#583=DIRECTION('ref_axis',(1.,0.,0.));
#584=DIRECTION('center_axis',(0.,0.,1.));
#585=DIRECTION('ref_axis',(1.,0.,0.));
#586=DIRECTION('center_axis',(0.,0.,1.));
#587=DIRECTION('ref_axis',(1.,0.,0.));
#588=DIRECTION('',(0.,0.,1.));
#589=DIRECTION('center_axis',(0.,0.,-1.));
#590=DIRECTION('ref_axis',(1.,0.,0.));
#591=DIRECTION('center_axis',(0.,0.,-1.));
#592=DIRECTION('ref_axis',(-1.,0.,0.));
#593=DIRECTION('',(1.,0.,0.));
#594=DIRECTION('',(0.,1.,0.));
#595=DIRECTION('',(-1.,0.,0.));
#596=DIRECTION('',(0.,1.,0.));
#597=DIRECTION('center_axis',(1.,0.,0.));
#598=DIRECTION('ref_axis',(0.,0.,-1.));
#599=DIRECTION('',(0.,0.,1.));
#600=DIRECTION('',(0.,0.,-1.));
#601=DIRECTION('',(0.,1.,0.));
#602=DIRECTION('center_axis',(0.,1.,0.));
#603=DIRECTION('ref_axis',(-1.,0.,0.));
#604=DIRECTION('center_axis',(0.,1.,0.));
#605=DIRECTION('ref_axis',(-1.,0.,0.));
#606=DIRECTION('center_axis',(0.,-1.,0.));
#607=DIRECTION('ref_axis',(-1.,0.,0.));
#608=DIRECTION('',(0.,1.,0.));
#609=DIRECTION('center_axis',(-1.,0.,0.));
#610=DIRECTION('ref_axis',(0.,0.,1.));
#611=DIRECTION('',(0.,0.,1.));
#612=DIRECTION('',(0.,0.,1.));
#613=DIRECTION('',(0.,1.,0.));
#614=DIRECTION('center_axis',(0.,0.,-1.));
#615=DIRECTION('ref_axis',(-1.,0.,0.));
#616=DIRECTION('',(1.,0.,0.));
#617=DIRECTION('',(-1.,0.,0.));
#618=DIRECTION('',(0.,1.,0.));
#619=DIRECTION('center_axis',(1.,0.,0.));
#620=DIRECTION('ref_axis',(0.,0.,-1.));
#621=DIRECTION('',(0.,0.,1.));
#622=DIRECTION('',(0.,0.,-1.));
#623=DIRECTION('',(0.,1.,0.));
#624=DIRECTION('center_axis',(0.,0.,1.));
#625=DIRECTION('ref_axis',(1.,0.,0.));
#626=DIRECTION('',(1.,0.,0.));
#627=DIRECTION('',(1.,0.,0.));
#628=DIRECTION('',(0.,1.,0.));
#629=DIRECTION('center_axis',(0.793353244987019,0.,0.608761553211573));
#630=DIRECTION('ref_axis',(0.608761553211573,0.,-0.793353244987019));
#631=DIRECTION('',(0.608761553211573,0.,-0.793353244987019));
#632=DIRECTION('',(0.608761553211573,0.,-0.793353244987019));
#633=DIRECTION('',(0.,1.,0.));
#634=DIRECTION('center_axis',(0.,1.,0.));
#635=DIRECTION('ref_axis',(-0.866025401295517,0.,0.50000000431094));
#636=DIRECTION('center_axis',(0.,1.,0.));
#637=DIRECTION('ref_axis',(-0.866025401295517,0.,0.50000000431094));
#638=DIRECTION('center_axis',(0.,1.,0.));
#639=DIRECTION('ref_axis',(-0.866025401295517,0.,0.50000000431094));
#640=DIRECTION('',(0.,1.,0.));
#641=DIRECTION('center_axis',(0.608761840968198,0.,0.793353024183441));
#642=DIRECTION('ref_axis',(0.793353024183441,0.,-0.608761840968198));
#643=DIRECTION('',(0.793353024183441,0.,-0.608761840968198));
#644=DIRECTION('',(0.793353024183441,0.,-0.608761840968198));
#645=DIRECTION('',(0.,1.,0.));
#646=DIRECTION('center_axis',(0.382683550897109,0.,0.923879483413708));
#647=DIRECTION('ref_axis',(0.923879483413708,0.,-0.382683550897109));
#648=DIRECTION('',(0.923879483413708,0.,-0.382683550897109));
#649=DIRECTION('',(0.923879483413708,0.,-0.382683550897109));
#650=DIRECTION('',(0.,1.,0.));
#651=DIRECTION('center_axis',(0.,1.,0.));
#652=DIRECTION('ref_axis',(-0.866025401295517,0.,0.50000000431094));
#653=DIRECTION('center_axis',(0.,1.,0.));
#654=DIRECTION('ref_axis',(-0.866025401295517,0.,0.50000000431094));
#655=DIRECTION('center_axis',(0.,1.,0.));
#656=DIRECTION('ref_axis',(-0.866025401295517,0.,0.50000000431094));
#657=DIRECTION('',(0.,1.,0.));
#658=DIRECTION('center_axis',(0.382683551025606,0.,0.923879483360483));
#659=DIRECTION('ref_axis',(0.923879483360482,0.,-0.382683551025606));
#660=DIRECTION('',(0.923879483360482,0.,-0.382683551025606));
#661=DIRECTION('',(0.923879483360482,0.,-0.382683551025606));
#662=DIRECTION('',(0.,1.,0.));
#663=DIRECTION('center_axis',(0.,1.,0.));
#664=DIRECTION('ref_axis',(-0.866025401295517,0.,0.50000000431094));
#665=DIRECTION('center_axis',(0.,1.,0.));
#666=DIRECTION('ref_axis',(-0.866025401295517,0.,0.50000000431094));
#667=DIRECTION('center_axis',(0.,1.,0.));
#668=DIRECTION('ref_axis',(-0.866025401295517,0.,0.50000000431094));
#669=DIRECTION('',(0.,1.,0.));
#670=DIRECTION('center_axis',(-0.382683631804324,0.,0.923879449900826));
#671=DIRECTION('ref_axis',(0.923879449900826,0.,0.382683631804324));
#672=DIRECTION('',(0.923879449900826,0.,0.382683631804324));
#673=DIRECTION('',(0.923879449900826,0.,0.382683631804324));
#674=DIRECTION('',(0.,1.,0.));
#675=DIRECTION('center_axis',(0.,1.,0.));
#676=DIRECTION('ref_axis',(-0.866025401295517,0.,0.50000000431094));
#677=DIRECTION('center_axis',(0.,1.,0.));
#678=DIRECTION('ref_axis',(-0.866025401295517,0.,0.50000000431094));
#679=DIRECTION('center_axis',(0.,1.,0.));
#680=DIRECTION('ref_axis',(-0.866025401295517,0.,0.50000000431094));
#681=DIRECTION('',(0.,1.,0.));
#682=DIRECTION('center_axis',(-0.38268363175619,0.,0.923879449920764));
#683=DIRECTION('ref_axis',(0.923879449920764,0.,0.38268363175619));
#684=DIRECTION('',(0.923879449920764,0.,0.38268363175619));
#685=DIRECTION('',(0.923879449920764,0.,0.38268363175619));
#686=DIRECTION('',(0.,1.,0.));
#687=DIRECTION('center_axis',(-0.608761689190091,0.,0.79335314064698));
#688=DIRECTION('ref_axis',(0.79335314064698,0.,0.608761689190091));
#689=DIRECTION('',(0.79335314064698,0.,0.608761689190091));
#690=DIRECTION('',(0.79335314064698,0.,0.608761689190091));
#691=DIRECTION('',(0.,1.,0.));
#692=DIRECTION('center_axis',(0.,1.,0.));
#693=DIRECTION('ref_axis',(-0.866025401295517,0.,0.50000000431094));
#694=DIRECTION('center_axis',(0.,1.,0.));
#695=DIRECTION('ref_axis',(-0.866025401295517,0.,0.50000000431094));
#696=DIRECTION('center_axis',(0.,1.,0.));
#697=DIRECTION('ref_axis',(-0.866025401295517,0.,0.50000000431094));
#698=DIRECTION('',(0.,1.,0.));
#699=DIRECTION('center_axis',(-0.793353231138679,0.,0.608761571259076));
#700=DIRECTION('ref_axis',(0.608761571259076,0.,0.793353231138678));
#701=DIRECTION('',(0.608761571259076,0.,0.793353231138679));
#702=DIRECTION('',(0.608761571259076,0.,0.793353231138679));
#703=DIRECTION('',(0.,1.,0.));
#704=DIRECTION('center_axis',(0.,0.,1.));
#705=DIRECTION('ref_axis',(1.,0.,0.));
#706=DIRECTION('',(1.,0.,0.));
#707=DIRECTION('',(1.,0.,0.));
#708=DIRECTION('',(0.,1.,0.));
#709=DIRECTION('center_axis',(-1.,0.,0.));
#710=DIRECTION('ref_axis',(0.,0.,1.));
#711=DIRECTION('',(0.,0.,1.));
#712=DIRECTION('',(0.,0.,1.));
#713=DIRECTION('center_axis',(0.,1.,0.));
#714=DIRECTION('ref_axis',(1.,0.,0.));
#715=DIRECTION('center_axis',(0.,1.,0.));
#716=DIRECTION('ref_axis',(1.,0.,0.));
#717=CARTESIAN_POINT('',(0.,0.,0.));
#718=CARTESIAN_POINT('Origin',(-7.01186051833692,9.98454316740554,0.));
#719=CARTESIAN_POINT('',(-10.2618605183369,9.98454316740554,38.935124874115));
#720=CARTESIAN_POINT('Origin',(-7.01186051833692,9.98454316740554,38.935124874115));
#721=CARTESIAN_POINT('',(-10.2618605183369,9.98454316740554,59.4351243972778));
#722=CARTESIAN_POINT('',(-10.2618605183369,9.98454316740554,0.));
#723=CARTESIAN_POINT('Origin',(-7.01186051833692,9.98454316740554,59.4351243972778));
#724=CARTESIAN_POINT('Origin',(71.0121394816631,9.98454316740554,0.));
#725=CARTESIAN_POINT('',(67.7621394816631,9.98454316740554,38.935124874115));
#726=CARTESIAN_POINT('Origin',(71.0121394816631,9.98454316740554,38.935124874115));
#727=CARTESIAN_POINT('',(67.7621394816631,9.98454316740554,59.4351243972778));
#728=CARTESIAN_POINT('',(67.7621394816631,9.98454316740554,0.));
#729=CARTESIAN_POINT('Origin',(71.0121394816631,9.98454316740554,59.4351243972778));
#730=CARTESIAN_POINT('Origin',(-2.00000002980232,0.,38.935124874115));
#731=CARTESIAN_POINT('',(-12.0000004768372,0.,38.935124874115));
#732=CARTESIAN_POINT('',(-2.00000002980232,0.,38.935124874115));
#733=CARTESIAN_POINT('',(-12.0000004768372,0.,38.935124874115));
#734=CARTESIAN_POINT('',(-12.0000004768372,20.,38.935124874115));
#735=CARTESIAN_POINT('',(-12.0000004768372,0.,38.935124874115));
#736=CARTESIAN_POINT('',(-2.00000002980232,20.,38.935124874115));
#737=CARTESIAN_POINT('',(-12.0000004768372,20.,38.935124874115));
#738=CARTESIAN_POINT('',(-2.00000002980232,0.,38.935124874115));
#739=CARTESIAN_POINT('Origin',(-2.00000002980232,0.,39.4351243972778));
#740=CARTESIAN_POINT('',(-2.00000002980232,0.,39.4351243972778));
#741=CARTESIAN_POINT('',(-2.00000002980232,0.,38.935124874115));
#742=CARTESIAN_POINT('',(-2.00000002980232,20.,39.4351243972778));
#743=CARTESIAN_POINT('',(-2.00000002980232,20.,38.935124874115));
#744=CARTESIAN_POINT('',(-2.00000002980232,0.,39.4351243972778));
#745=CARTESIAN_POINT('Origin',(31.9999995082617,0.,39.4351243972778));
#746=CARTESIAN_POINT('',(65.9999990463257,0.,39.4351243972778));
#747=CARTESIAN_POINT('Origin',(31.9999995082617,0.,39.4351243972778));
#748=CARTESIAN_POINT('',(65.9999990463257,20.,39.4351243972778));
#749=CARTESIAN_POINT('Origin',(31.9999995082617,20.,39.4351243972778));
#750=CARTESIAN_POINT('',(65.9999990463257,0.,39.4351243972778));
#751=CARTESIAN_POINT('Origin',(65.9999990463257,0.,38.935124874115));
#752=CARTESIAN_POINT('',(65.9999990463257,0.,38.935124874115));
#753=CARTESIAN_POINT('',(65.9999990463257,0.,38.935124874115));
#754=CARTESIAN_POINT('',(65.9999990463257,20.,38.935124874115));
#755=CARTESIAN_POINT('',(65.9999990463257,20.,38.935124874115));
#756=CARTESIAN_POINT('',(65.9999990463257,0.,38.935124874115));
#757=CARTESIAN_POINT('Origin',(75.9999990463257,0.,38.935124874115));
#758=CARTESIAN_POINT('',(75.9999990463257,0.,38.935124874115));
#759=CARTESIAN_POINT('',(65.9999990463257,0.,38.935124874115));
#760=CARTESIAN_POINT('',(75.9999990463257,20.,38.935124874115));
#761=CARTESIAN_POINT('',(65.9999990463257,20.,38.935124874115));
#762=CARTESIAN_POINT('',(75.9999990463257,0.,38.935124874115));
#763=CARTESIAN_POINT('Origin',(75.9999990463257,0.,59.4351243972778));
#764=CARTESIAN_POINT('',(75.9999990463257,0.,59.4351243972778));
#765=CARTESIAN_POINT('',(75.9999990463257,0.,38.935124874115));
#766=CARTESIAN_POINT('',(75.9999990463257,20.,59.4351243972778));
#767=CARTESIAN_POINT('',(75.9999990463257,20.,38.935124874115));
#768=CARTESIAN_POINT('',(75.9999990463257,0.,59.4351243972778));
#769=CARTESIAN_POINT('Origin',(66.6410160064697,0.,59.4351243972778));
#770=CARTESIAN_POINT('',(66.6410160064697,0.,59.4351243972778));
#771=CARTESIAN_POINT('',(66.6410160064697,0.,59.4351243972778));
#772=CARTESIAN_POINT('',(66.6410160064697,20.,59.4351243972778));
#773=CARTESIAN_POINT('',(66.6410160064697,20.,59.4351243972778));
#774=CARTESIAN_POINT('',(66.6410160064697,0.,59.4351243972778));
#775=CARTESIAN_POINT('Origin',(66.6409941423823,0.,59.4351528911021));
#776=CARTESIAN_POINT('',(66.6409957529112,0.,59.4351541269049));
#777=CARTESIAN_POINT('',(66.640992366319,0.,59.4351552057121));
#778=CARTESIAN_POINT('',(66.6409957529112,20.,59.4351541269049));
#779=CARTESIAN_POINT('',(66.640992366319,20.,59.4351552057121));
#780=CARTESIAN_POINT('',(66.6409957529112,0.,59.4351541269049));
#781=CARTESIAN_POINT('Origin',(31.9999995082617,0.,39.4351243972778));
#782=CARTESIAN_POINT('',(52.0000502314011,0.,74.0761085212831));
#783=CARTESIAN_POINT('Origin',(31.9999995082617,0.,39.4351243972778));
#784=CARTESIAN_POINT('',(52.0000502314011,20.,74.0761085212831));
#785=CARTESIAN_POINT('Origin',(31.9999995082617,20.,39.4351243972778));
#786=CARTESIAN_POINT('',(52.0000502314011,0.,74.0761085212831));
#787=CARTESIAN_POINT('Origin',(52.0000028610229,0.,74.0761423110962));
#788=CARTESIAN_POINT('',(52.0000028610229,0.,74.0761423110962));
#789=CARTESIAN_POINT('',(52.0000028610229,0.,74.0761423110962));
#790=CARTESIAN_POINT('',(52.0000028610229,20.,74.0761423110962));
#791=CARTESIAN_POINT('',(52.0000028610229,20.,74.0761423110962));
#792=CARTESIAN_POINT('',(52.0000028610229,0.,74.0761423110962));
#793=CARTESIAN_POINT('Origin',(51.9999491359101,0.,74.0761645647746));
#794=CARTESIAN_POINT('',(51.9999499127691,0.,74.0761664402774));
#795=CARTESIAN_POINT('',(51.9999464405045,0.,74.0761656812486));
#796=CARTESIAN_POINT('',(51.9999499127691,20.,74.0761664402774));
#797=CARTESIAN_POINT('',(51.9999464405045,20.,74.0761656812486));
#798=CARTESIAN_POINT('',(51.9999499127691,0.,74.0761664402774));
#799=CARTESIAN_POINT('Origin',(31.9999995082617,0.,39.4351243972778));
#800=CARTESIAN_POINT('',(42.3528246126819,0.,78.072138028832));
#801=CARTESIAN_POINT('Origin',(31.9999995082617,0.,39.4351243972778));
#802=CARTESIAN_POINT('',(42.3528246126819,20.,78.072138028832));
#803=CARTESIAN_POINT('Origin',(31.9999995082617,20.,39.4351243972778));
#804=CARTESIAN_POINT('',(42.3528246126819,0.,78.072138028832));
#805=CARTESIAN_POINT('Origin',(42.3527945913739,0.,78.0721482667811));
#806=CARTESIAN_POINT('',(42.3527945800601,0.,78.0721482394672));
#807=CARTESIAN_POINT('',(42.35276222229,0.,78.0721616744995));
#808=CARTESIAN_POINT('',(42.3527945800601,20.,78.0721482394672));
#809=CARTESIAN_POINT('',(42.35276222229,20.,78.0721616744995));
#810=CARTESIAN_POINT('',(42.3527945800601,0.,78.0721482394672));
#811=CARTESIAN_POINT('Origin',(31.9999995082617,0.,39.4351243972778));
#812=CARTESIAN_POINT('',(21.6472369267906,0.,78.0721588602757));
#813=CARTESIAN_POINT('Origin',(31.9999995082617,0.,39.4351243972778));
#814=CARTESIAN_POINT('',(21.6472369267906,20.,78.0721588602757));
#815=CARTESIAN_POINT('Origin',(31.9999995082617,20.,39.4351243972778));
#816=CARTESIAN_POINT('',(21.6472369267906,0.,78.0721588602757));
#817=CARTESIAN_POINT('Origin',(21.6472085878861,0.,78.0721491886461));
#818=CARTESIAN_POINT('',(21.6472085754218,0.,78.0721492187376));
#819=CARTESIAN_POINT('',(21.647177971317,0.,78.0721365068402));
#820=CARTESIAN_POINT('',(21.6472085754218,20.,78.0721492187376));
#821=CARTESIAN_POINT('',(21.647177971317,20.,78.0721365068402));
#822=CARTESIAN_POINT('',(21.6472085754218,0.,78.0721492187376));
#823=CARTESIAN_POINT('Origin',(31.9999995082617,0.,39.4351243972778));
#824=CARTESIAN_POINT('',(12.0000381315201,0.,74.0761601054739));
#825=CARTESIAN_POINT('Origin',(31.9999995082617,0.,39.4351243972778));
#826=CARTESIAN_POINT('',(12.0000381315201,20.,74.0761601054739));
#827=CARTESIAN_POINT('Origin',(31.9999995082617,20.,39.4351243972778));
#828=CARTESIAN_POINT('',(12.0000381315201,0.,74.0761601054739));
#829=CARTESIAN_POINT('Origin',(12.0000004768372,0.,74.0761423110962));
#830=CARTESIAN_POINT('',(12.0000004768372,0.,74.0761423110962));
#831=CARTESIAN_POINT('',(12.0000004768372,0.,74.0761423110962));
#832=CARTESIAN_POINT('',(12.0000004768372,20.,74.0761423110962));
#833=CARTESIAN_POINT('',(12.0000004768372,20.,74.0761423110962));
#834=CARTESIAN_POINT('',(12.0000004768372,0.,74.0761423110962));
#835=CARTESIAN_POINT('Origin',(11.9999674751085,0.,74.076116987962));
#836=CARTESIAN_POINT('',(11.9999662393056,0.,74.0761185984905));
#837=CARTESIAN_POINT('',(11.9999651604978,0.,74.0761152118974));
#838=CARTESIAN_POINT('',(11.9999662393056,20.,74.0761185984905));
#839=CARTESIAN_POINT('',(11.9999651604978,20.,74.0761152118974));
#840=CARTESIAN_POINT('',(11.9999662393056,0.,74.0761185984905));
#841=CARTESIAN_POINT('Origin',(31.9999995082617,0.,39.4351243972778));
#842=CARTESIAN_POINT('',(-2.64099900068296,0.,59.435150205039));
#843=CARTESIAN_POINT('Origin',(31.9999995082617,0.,39.4351243972778));
#844=CARTESIAN_POINT('',(-2.64099900068296,20.,59.435150205039));
#845=CARTESIAN_POINT('Origin',(31.9999995082617,20.,39.4351243972778));
#846=CARTESIAN_POINT('',(-2.64099900068296,0.,59.435150205039));
#847=CARTESIAN_POINT('Origin',(-2.64101624488831,0.,59.4351243972778));
#848=CARTESIAN_POINT('',(-2.64101624488831,0.,59.4351243972778));
#849=CARTESIAN_POINT('',(-2.64101624488831,0.,59.4351243972778));
#850=CARTESIAN_POINT('',(-2.64101624488831,20.,59.4351243972778));
#851=CARTESIAN_POINT('',(-2.64101624488831,20.,59.4351243972778));
#852=CARTESIAN_POINT('',(-2.64101624488831,0.,59.4351243972778));
#853=CARTESIAN_POINT('Origin',(-12.0000004768372,0.,59.4351243972778));
#854=CARTESIAN_POINT('',(-12.0000004768372,0.,59.4351243972778));
#855=CARTESIAN_POINT('',(-12.0000004768372,0.,59.4351243972778));
#856=CARTESIAN_POINT('',(-12.0000004768372,20.,59.4351243972778));
#857=CARTESIAN_POINT('',(-12.0000004768372,20.,59.4351243972778));
#858=CARTESIAN_POINT('',(-12.0000004768372,0.,59.4351243972778));
#859=CARTESIAN_POINT('Origin',(-12.0000004768372,0.,38.935124874115));
#860=CARTESIAN_POINT('',(-12.0000004768372,0.,38.935124874115));
#861=CARTESIAN_POINT('',(-12.0000004768372,20.,38.935124874115));
#862=CARTESIAN_POINT('Origin',(31.9999992847443,20.,59.1851244632588));
#863=CARTESIAN_POINT('Origin',(31.9999992847443,0.,59.1851244632588));
#864=UNCERTAINTY_MEASURE_WITH_UNIT(LENGTH_MEASURE(0.01),#868,
'DISTANCE_ACCURACY_VALUE',
'Maximum model space distance between geometric entities at asserted c
onnectivities');
#865=UNCERTAINTY_MEASURE_WITH_UNIT(LENGTH_MEASURE(0.01),#868,
'DISTANCE_ACCURACY_VALUE',
'Maximum model space distance between geometric entities at asserted c
onnectivities');
#866=(
GEOMETRIC_REPRESENTATION_CONTEXT(3)
GLOBAL_UNCERTAINTY_ASSIGNED_CONTEXT((#864))
GLOBAL_UNIT_ASSIGNED_CONTEXT((#868,#870,#871))
REPRESENTATION_CONTEXT('','3D')
);
#867=(
GEOMETRIC_REPRESENTATION_CONTEXT(3)
GLOBAL_UNCERTAINTY_ASSIGNED_CONTEXT((#865))
GLOBAL_UNIT_ASSIGNED_CONTEXT((#868,#870,#871))
REPRESENTATION_CONTEXT('','3D')
);
#868=(
LENGTH_UNIT()
NAMED_UNIT(*)
SI_UNIT(.MILLI.,.METRE.)
);
#869=(
LENGTH_UNIT()
NAMED_UNIT(*)
SI_UNIT($,.METRE.)
);
#870=(
NAMED_UNIT(*)
PLANE_ANGLE_UNIT()
SI_UNIT($,.RADIAN.)
);
#871=(
NAMED_UNIT(*)
SI_UNIT($,.STERADIAN.)
SOLID_ANGLE_UNIT()
);
#872=SHAPE_DEFINITION_REPRESENTATION(#873,#874);
#873=PRODUCT_DEFINITION_SHAPE('',$,#876);
#874=SHAPE_REPRESENTATION('',(#532),#866);
#875=PRODUCT_DEFINITION_CONTEXT('part definition',#880,'design');
#876=PRODUCT_DEFINITION('Motor Mount Clamp','Motor Mount Clamp v0',#877,
#875);
#877=PRODUCT_DEFINITION_FORMATION('',$,#882);
#878=PRODUCT_RELATED_PRODUCT_CATEGORY('Motor Mount Clamp v0',
'Motor Mount Clamp v0',(#882));
#879=APPLICATION_PROTOCOL_DEFINITION('international standard',
'automotive_design',2009,#880);
#880=APPLICATION_CONTEXT(
'Core Data for Automotive Mechanical Design Process');
#881=PRODUCT_CONTEXT('part definition',#880,'mechanical');
#882=PRODUCT('Motor Mount Clamp','Motor Mount Clamp v0',$,(#881));
#883=PRESENTATION_STYLE_ASSIGNMENT((#884));
#884=SURFACE_STYLE_USAGE(.BOTH.,#885);
#885=SURFACE_SIDE_STYLE('',(#886));
#886=SURFACE_STYLE_FILL_AREA(#887);
#887=FILL_AREA_STYLE('Steel - Satin',(#888));
#888=FILL_AREA_STYLE_COLOUR('Steel - Satin',#889);
#889=COLOUR_RGB('Steel - Satin',0.627450980392157,0.627450980392157,0.627450980392157);
ENDSEC;
END-ISO-10303-21;
