ISO-10303-21;
HEADER;
/* Generated by software containing ST-Developer
 * from STEP Tools, Inc. (www.steptools.com) 
 */

FILE_DESCRIPTION(
/* description */ (''),
/* implementation_level */ '2;1');

FILE_NAME(
/* name */ 'bearing_buffer_1mm_M3_Nuts.step',
/* time_stamp */ '2025-08-15T11:12:54-07:00',
/* author */ (''),
/* organization */ (''),
/* preprocessor_version */ 'ST-DEVELOPER v20.1',
/* originating_system */ 'Autodesk Translation Framework v14.10.0.0',
/* authorisation */ '');

FILE_SCHEMA (('AUTOMOTIVE_DESIGN { 1 0 10303 214 3 1 1 }'));
ENDSEC;

DATA;
#10=MECHANICAL_DESIGN_GEOMETRIC_PRESENTATION_REPRESENTATION('',(#13,#14,
#15,#16,#17),#1454);
#11=SHAPE_REPRESENTATION_RELATIONSHIP('SRR','None',#1461,#12);
#12=ADVANCED_BREP_SHAPE_REPRESENTATION('',(#18,#19,#20,#21,#22),#1453);
#13=STYLED_ITEM('',(#1470),#18);
#14=STYLED_ITEM('',(#1470),#19);
#15=STYLED_ITEM('',(#1470),#20);
#16=STYLED_ITEM('',(#1470),#21);
#17=STYLED_ITEM('',(#1470),#22);
#18=MANIFOLD_SOLID_BREP('Body2',#791);
#19=MANIFOLD_SOLID_BREP('Body8',#792);
#20=MANIFOLD_SOLID_BREP('Body9',#793);
#21=MANIFOLD_SOLID_BREP('Body10',#794);
#22=MANIFOLD_SOLID_BREP('Body11',#795);
#23=FACE_BOUND('',#147,.T.);
#24=FACE_BOUND('',#155,.T.);
#25=FACE_BOUND('',#163,.T.);
#26=FACE_BOUND('',#166,.T.);
#27=FACE_BOUND('',#169,.T.);
#28=FACE_BOUND('',#171,.T.);
#29=FACE_BOUND('',#172,.T.);
#30=FACE_BOUND('',#173,.T.);
#31=FACE_BOUND('',#175,.T.);
#32=FACE_BOUND('',#176,.T.);
#33=FACE_BOUND('',#177,.T.);
#34=FACE_BOUND('',#179,.T.);
#35=FACE_BOUND('',#181,.T.);
#36=FACE_BOUND('',#185,.T.);
#37=FACE_BOUND('',#187,.T.);
#38=FACE_BOUND('',#191,.T.);
#39=FACE_BOUND('',#193,.T.);
#40=FACE_BOUND('',#197,.T.);
#41=FACE_BOUND('',#199,.T.);
#42=FACE_BOUND('',#203,.T.);
#43=FACE_BOUND('',#205,.T.);
#44=ELLIPSE('',#816,4.76313972081442,4.125);
#45=ELLIPSE('',#819,4.76313972081441,4.125);
#46=ELLIPSE('',#821,4.76313972081441,4.125);
#47=ELLIPSE('',#823,4.76313972081442,4.125);
#48=ELLIPSE('',#827,4.76313972081441,4.125);
#49=ELLIPSE('',#830,4.76313972081442,4.125);
#50=ELLIPSE('',#832,4.76313972081442,4.125);
#51=ELLIPSE('',#834,4.76313972081441,4.125);
#52=ELLIPSE('',#838,4.76313972081441,4.125);
#53=ELLIPSE('',#841,4.76313972081442,4.125);
#54=ELLIPSE('',#843,4.76313972081442,4.125);
#55=ELLIPSE('',#845,4.76313972081441,4.125);
#56=PLANE('',#815);
#57=PLANE('',#817);
#58=PLANE('',#818);
#59=PLANE('',#820);
#60=PLANE('',#822);
#61=PLANE('',#824);
#62=PLANE('',#825);
#63=PLANE('',#826);
#64=PLANE('',#828);
#65=PLANE('',#829);
#66=PLANE('',#831);
#67=PLANE('',#833);
#68=PLANE('',#835);
#69=PLANE('',#836);
#70=PLANE('',#837);
#71=PLANE('',#839);
#72=PLANE('',#840);
#73=PLANE('',#842);
#74=PLANE('',#844);
#75=PLANE('',#846);
#76=PLANE('',#847);
#77=PLANE('',#851);
#78=PLANE('',#856);
#79=PLANE('',#862);
#80=PLANE('',#863);
#81=PLANE('',#870);
#82=PLANE('',#871);
#83=PLANE('',#878);
#84=PLANE('',#879);
#85=PLANE('',#886);
#86=PLANE('',#887);
#87=PLANE('',#894);
#88=PLANE('',#895);
#89=FACE_OUTER_BOUND('',#137,.T.);
#90=FACE_OUTER_BOUND('',#138,.T.);
#91=FACE_OUTER_BOUND('',#139,.T.);
#92=FACE_OUTER_BOUND('',#140,.T.);
#93=FACE_OUTER_BOUND('',#141,.T.);
#94=FACE_OUTER_BOUND('',#142,.T.);
#95=FACE_OUTER_BOUND('',#143,.T.);
#96=FACE_OUTER_BOUND('',#144,.T.);
#97=FACE_OUTER_BOUND('',#145,.T.);
#98=FACE_OUTER_BOUND('',#146,.T.);
#99=FACE_OUTER_BOUND('',#148,.T.);
#100=FACE_OUTER_BOUND('',#149,.T.);
#101=FACE_OUTER_BOUND('',#150,.T.);
#102=FACE_OUTER_BOUND('',#151,.T.);
#103=FACE_OUTER_BOUND('',#152,.T.);
#104=FACE_OUTER_BOUND('',#153,.T.);
#105=FACE_OUTER_BOUND('',#154,.T.);
#106=FACE_OUTER_BOUND('',#156,.T.);
#107=FACE_OUTER_BOUND('',#157,.T.);
#108=FACE_OUTER_BOUND('',#158,.T.);
#109=FACE_OUTER_BOUND('',#159,.T.);
#110=FACE_OUTER_BOUND('',#160,.T.);
#111=FACE_OUTER_BOUND('',#161,.T.);
#112=FACE_OUTER_BOUND('',#162,.T.);
#113=FACE_OUTER_BOUND('',#164,.T.);
#114=FACE_OUTER_BOUND('',#165,.T.);
#115=FACE_OUTER_BOUND('',#167,.T.);
#116=FACE_OUTER_BOUND('',#168,.T.);
#117=FACE_OUTER_BOUND('',#170,.T.);
#118=FACE_OUTER_BOUND('',#174,.T.);
#119=FACE_OUTER_BOUND('',#178,.T.);
#120=FACE_OUTER_BOUND('',#180,.T.);
#121=FACE_OUTER_BOUND('',#182,.T.);
#122=FACE_OUTER_BOUND('',#183,.T.);
#123=FACE_OUTER_BOUND('',#184,.T.);
#124=FACE_OUTER_BOUND('',#186,.T.);
#125=FACE_OUTER_BOUND('',#188,.T.);
#126=FACE_OUTER_BOUND('',#189,.T.);
#127=FACE_OUTER_BOUND('',#190,.T.);
#128=FACE_OUTER_BOUND('',#192,.T.);
#129=FACE_OUTER_BOUND('',#194,.T.);
#130=FACE_OUTER_BOUND('',#195,.T.);
#131=FACE_OUTER_BOUND('',#196,.T.);
#132=FACE_OUTER_BOUND('',#198,.T.);
#133=FACE_OUTER_BOUND('',#200,.T.);
#134=FACE_OUTER_BOUND('',#201,.T.);
#135=FACE_OUTER_BOUND('',#202,.T.);
#136=FACE_OUTER_BOUND('',#204,.T.);
#137=EDGE_LOOP('',(#524,#525,#526,#527,#528));
#138=EDGE_LOOP('',(#529,#530,#531,#532,#533));
#139=EDGE_LOOP('',(#534,#535,#536,#537,#538));
#140=EDGE_LOOP('',(#539,#540,#541,#542));
#141=EDGE_LOOP('',(#543,#544,#545,#546));
#142=EDGE_LOOP('',(#547,#548,#549,#550));
#143=EDGE_LOOP('',(#551,#552,#553,#554));
#144=EDGE_LOOP('',(#555,#556,#557,#558));
#145=EDGE_LOOP('',(#559,#560,#561,#562));
#146=EDGE_LOOP('',(#563,#564,#565,#566,#567,#568));
#147=EDGE_LOOP('',(#569));
#148=EDGE_LOOP('',(#570,#571,#572,#573));
#149=EDGE_LOOP('',(#574,#575,#576,#577));
#150=EDGE_LOOP('',(#578,#579,#580,#581));
#151=EDGE_LOOP('',(#582,#583,#584,#585));
#152=EDGE_LOOP('',(#586,#587,#588,#589));
#153=EDGE_LOOP('',(#590,#591,#592,#593));
#154=EDGE_LOOP('',(#594,#595,#596,#597,#598,#599));
#155=EDGE_LOOP('',(#600));
#156=EDGE_LOOP('',(#601,#602,#603,#604));
#157=EDGE_LOOP('',(#605,#606,#607,#608));
#158=EDGE_LOOP('',(#609,#610,#611,#612));
#159=EDGE_LOOP('',(#613,#614,#615,#616));
#160=EDGE_LOOP('',(#617,#618,#619,#620));
#161=EDGE_LOOP('',(#621,#622,#623,#624));
#162=EDGE_LOOP('',(#625,#626,#627,#628,#629,#630));
#163=EDGE_LOOP('',(#631));
#164=EDGE_LOOP('',(#632,#633,#634,#635));
#165=EDGE_LOOP('',(#636));
#166=EDGE_LOOP('',(#637));
#167=EDGE_LOOP('',(#638,#639,#640,#641));
#168=EDGE_LOOP('',(#642));
#169=EDGE_LOOP('',(#643));
#170=EDGE_LOOP('',(#644,#645,#646,#647));
#171=EDGE_LOOP('',(#648,#649,#650,#651,#652,#653));
#172=EDGE_LOOP('',(#654,#655,#656,#657,#658,#659));
#173=EDGE_LOOP('',(#660,#661,#662,#663,#664,#665));
#174=EDGE_LOOP('',(#666,#667,#668,#669));
#175=EDGE_LOOP('',(#670,#671));
#176=EDGE_LOOP('',(#672,#673));
#177=EDGE_LOOP('',(#674,#675));
#178=EDGE_LOOP('',(#676));
#179=EDGE_LOOP('',(#677));
#180=EDGE_LOOP('',(#678));
#181=EDGE_LOOP('',(#679));
#182=EDGE_LOOP('',(#680,#681,#682,#683));
#183=EDGE_LOOP('',(#684,#685,#686,#687));
#184=EDGE_LOOP('',(#688));
#185=EDGE_LOOP('',(#689));
#186=EDGE_LOOP('',(#690));
#187=EDGE_LOOP('',(#691));
#188=EDGE_LOOP('',(#692,#693,#694,#695));
#189=EDGE_LOOP('',(#696,#697,#698,#699));
#190=EDGE_LOOP('',(#700));
#191=EDGE_LOOP('',(#701));
#192=EDGE_LOOP('',(#702));
#193=EDGE_LOOP('',(#703));
#194=EDGE_LOOP('',(#704,#705,#706,#707));
#195=EDGE_LOOP('',(#708,#709,#710,#711));
#196=EDGE_LOOP('',(#712));
#197=EDGE_LOOP('',(#713));
#198=EDGE_LOOP('',(#714));
#199=EDGE_LOOP('',(#715));
#200=EDGE_LOOP('',(#716,#717,#718,#719));
#201=EDGE_LOOP('',(#720,#721,#722,#723));
#202=EDGE_LOOP('',(#724));
#203=EDGE_LOOP('',(#725));
#204=EDGE_LOOP('',(#726));
#205=EDGE_LOOP('',(#727));
#206=B_SPLINE_CURVE_WITH_KNOTS('',3,(#1136,#1137,#1138,#1139,#1140,#1141,
#1142,#1143,#1144,#1145),.UNSPECIFIED.,.F.,.F.,(4,2,2,2,4),(0.,0.0641908444658925,
0.128381688931785,0.192570119278852,0.25675854962592),.UNSPECIFIED.);
#207=B_SPLINE_CURVE_WITH_KNOTS('',3,(#1146,#1147,#1148,#1149,#1150,#1151,
#1152,#1153,#1154,#1155,#1156,#1157,#1158,#1159,#1160,#1161,#1162,#1163,
#1164,#1165,#1166,#1167,#1168,#1169,#1170,#1171),.UNSPECIFIED.,.F.,.F.,
(4,2,2,2,2,2,2,2,2,2,2,2,4),(0.25675854962592,0.320946979972987,0.385135410320054,
0.449326254785947,0.513517099251839,0.577707943717732,0.641898788183625,
0.706087218530692,0.770275648877759,0.834464079224827,0.898652509571894,
0.962843354037787,1.02703419850368),.UNSPECIFIED.);
#208=B_SPLINE_CURVE_WITH_KNOTS('',3,(#1178,#1179,#1180,#1181,#1182,#1183,
#1184,#1185,#1186,#1187),.UNSPECIFIED.,.F.,.F.,(4,2,2,2,4),(0.,0.064190844465893,
0.128381688931786,0.192570119278853,0.25675854962592),.UNSPECIFIED.);
#209=B_SPLINE_CURVE_WITH_KNOTS('',3,(#1188,#1189,#1190,#1191,#1192,#1193,
#1194,#1195,#1196,#1197,#1198,#1199,#1200,#1201,#1202,#1203,#1204,#1205,
#1206,#1207,#1208,#1209,#1210,#1211,#1212,#1213),.UNSPECIFIED.,.F.,.F.,
(4,2,2,2,2,2,2,2,2,2,2,2,4),(0.25675854962592,0.320946979972987,0.385135410320054,
0.449326254785947,0.51351709925184,0.577707943717733,0.641898788183626,
0.706087218530693,0.770275648877761,0.834464079224828,0.898652509571895,
0.962843354037788,1.02703419850368),.UNSPECIFIED.);
#210=B_SPLINE_CURVE_WITH_KNOTS('',3,(#1220,#1221,#1222,#1223,#1224,#1225,
#1226,#1227,#1228,#1229),.UNSPECIFIED.,.F.,.F.,(4,2,2,2,4),(0.,0.0641908444658928,
0.128381688931786,0.192570119278853,0.25675854962592),.UNSPECIFIED.);
#211=B_SPLINE_CURVE_WITH_KNOTS('',3,(#1230,#1231,#1232,#1233,#1234,#1235,
#1236,#1237,#1238,#1239,#1240,#1241,#1242,#1243,#1244,#1245,#1246,#1247,
#1248,#1249,#1250,#1251,#1252,#1253,#1254,#1255),.UNSPECIFIED.,.F.,.F.,
(4,2,2,2,2,2,2,2,2,2,2,2,4),(0.25675854962592,0.320946979972987,0.385135410320054,
0.449326254785947,0.51351709925184,0.577707943717733,0.641898788183626,
0.706087218530693,0.77027564887776,0.834464079224827,0.898652509571894,
0.962843354037787,1.02703419850368),.UNSPECIFIED.);
#212=LINE('',#1134,#269);
#213=LINE('',#1176,#270);
#214=LINE('',#1218,#271);
#215=LINE('',#1261,#272);
#216=LINE('',#1263,#273);
#217=LINE('',#1264,#274);
#218=LINE('',#1267,#275);
#219=LINE('',#1269,#276);
#220=LINE('',#1270,#277);
#221=LINE('',#1275,#278);
#222=LINE('',#1276,#279);
#223=LINE('',#1281,#280);
#224=LINE('',#1282,#281);
#225=LINE('',#1287,#282);
#226=LINE('',#1288,#283);
#227=LINE('',#1290,#284);
#228=LINE('',#1291,#285);
#229=LINE('',#1298,#286);
#230=LINE('',#1300,#287);
#231=LINE('',#1301,#288);
#232=LINE('',#1304,#289);
#233=LINE('',#1306,#290);
#234=LINE('',#1307,#291);
#235=LINE('',#1312,#292);
#236=LINE('',#1313,#293);
#237=LINE('',#1318,#294);
#238=LINE('',#1319,#295);
#239=LINE('',#1324,#296);
#240=LINE('',#1325,#297);
#241=LINE('',#1327,#298);
#242=LINE('',#1328,#299);
#243=LINE('',#1335,#300);
#244=LINE('',#1337,#301);
#245=LINE('',#1338,#302);
#246=LINE('',#1341,#303);
#247=LINE('',#1343,#304);
#248=LINE('',#1344,#305);
#249=LINE('',#1349,#306);
#250=LINE('',#1350,#307);
#251=LINE('',#1355,#308);
#252=LINE('',#1356,#309);
#253=LINE('',#1361,#310);
#254=LINE('',#1362,#311);
#255=LINE('',#1364,#312);
#256=LINE('',#1365,#313);
#257=LINE('',#1371,#314);
#258=LINE('',#1380,#315);
#259=LINE('',#1389,#316);
#260=LINE('',#1392,#317);
#261=LINE('',#1399,#318);
#262=LINE('',#1405,#319);
#263=LINE('',#1413,#320);
#264=LINE('',#1419,#321);
#265=LINE('',#1427,#322);
#266=LINE('',#1433,#323);
#267=LINE('',#1441,#324);
#268=LINE('',#1447,#325);
#269=VECTOR('',#902,1.7);
#270=VECTOR('',#907,1.7);
#271=VECTOR('',#912,1.7);
#272=VECTOR('',#917,10.);
#273=VECTOR('',#918,10.);
#274=VECTOR('',#919,10.);
#275=VECTOR('',#922,10.);
#276=VECTOR('',#923,10.);
#277=VECTOR('',#924,10.);
#278=VECTOR('',#929,10.);
#279=VECTOR('',#930,10.);
#280=VECTOR('',#935,10.);
#281=VECTOR('',#936,10.);
#282=VECTOR('',#941,10.);
#283=VECTOR('',#942,10.);
#284=VECTOR('',#945,10.);
#285=VECTOR('',#946,10.);
#286=VECTOR('',#953,10.);
#287=VECTOR('',#954,10.);
#288=VECTOR('',#955,10.);
#289=VECTOR('',#958,10.);
#290=VECTOR('',#959,10.);
#291=VECTOR('',#960,10.);
#292=VECTOR('',#965,10.);
#293=VECTOR('',#966,10.);
#294=VECTOR('',#971,10.);
#295=VECTOR('',#972,10.);
#296=VECTOR('',#977,10.);
#297=VECTOR('',#978,10.);
#298=VECTOR('',#981,10.);
#299=VECTOR('',#982,10.);
#300=VECTOR('',#989,10.);
#301=VECTOR('',#990,10.);
#302=VECTOR('',#991,10.);
#303=VECTOR('',#994,10.);
#304=VECTOR('',#995,10.);
#305=VECTOR('',#996,10.);
#306=VECTOR('',#1001,10.);
#307=VECTOR('',#1002,10.);
#308=VECTOR('',#1007,10.);
#309=VECTOR('',#1008,10.);
#310=VECTOR('',#1013,10.);
#311=VECTOR('',#1014,10.);
#312=VECTOR('',#1017,10.);
#313=VECTOR('',#1018,10.);
#314=VECTOR('',#1025,7.375);
#315=VECTOR('',#1036,7.375);
#316=VECTOR('',#1047,4.125);
#317=VECTOR('',#1052,9.375);
#318=VECTOR('',#1061,1.7);
#319=VECTOR('',#1068,3.);
#320=VECTOR('',#1079,1.7);
#321=VECTOR('',#1086,3.);
#322=VECTOR('',#1097,1.7);
#323=VECTOR('',#1104,3.);
#324=VECTOR('',#1115,1.7);
#325=VECTOR('',#1122,3.);
#326=CIRCLE('',#810,1.7);
#327=CIRCLE('',#812,1.7);
#328=CIRCLE('',#814,1.7);
#329=CIRCLE('',#849,7.375);
#330=CIRCLE('',#850,7.375);
#331=CIRCLE('',#852,9.375);
#332=CIRCLE('',#854,7.375);
#333=CIRCLE('',#855,7.375);
#334=CIRCLE('',#857,9.375);
#335=CIRCLE('',#859,4.125);
#336=CIRCLE('',#860,4.125);
#337=CIRCLE('',#865,1.70000053403516);
#338=CIRCLE('',#866,1.70000053403516);
#339=CIRCLE('',#868,3.00000094241498);
#340=CIRCLE('',#869,3.00000094241498);
#341=CIRCLE('',#873,1.70000053403516);
#342=CIRCLE('',#874,1.70000053403516);
#343=CIRCLE('',#876,3.00000094241498);
#344=CIRCLE('',#877,3.00000094241498);
#345=CIRCLE('',#881,1.70000053403516);
#346=CIRCLE('',#882,1.70000053403516);
#347=CIRCLE('',#884,3.00000094241498);
#348=CIRCLE('',#885,3.00000094241498);
#349=CIRCLE('',#889,1.70000053403516);
#350=CIRCLE('',#890,1.70000053403516);
#351=CIRCLE('',#892,3.00000094241498);
#352=CIRCLE('',#893,3.00000094241498);
#353=VERTEX_POINT('',#1131);
#354=VERTEX_POINT('',#1133);
#355=VERTEX_POINT('',#1135);
#356=VERTEX_POINT('',#1173);
#357=VERTEX_POINT('',#1175);
#358=VERTEX_POINT('',#1177);
#359=VERTEX_POINT('',#1215);
#360=VERTEX_POINT('',#1217);
#361=VERTEX_POINT('',#1219);
#362=VERTEX_POINT('',#1257);
#363=VERTEX_POINT('',#1258);
#364=VERTEX_POINT('',#1260);
#365=VERTEX_POINT('',#1262);
#366=VERTEX_POINT('',#1266);
#367=VERTEX_POINT('',#1268);
#368=VERTEX_POINT('',#1272);
#369=VERTEX_POINT('',#1274);
#370=VERTEX_POINT('',#1278);
#371=VERTEX_POINT('',#1280);
#372=VERTEX_POINT('',#1284);
#373=VERTEX_POINT('',#1286);
#374=VERTEX_POINT('',#1294);
#375=VERTEX_POINT('',#1295);
#376=VERTEX_POINT('',#1297);
#377=VERTEX_POINT('',#1299);
#378=VERTEX_POINT('',#1303);
#379=VERTEX_POINT('',#1305);
#380=VERTEX_POINT('',#1309);
#381=VERTEX_POINT('',#1311);
#382=VERTEX_POINT('',#1315);
#383=VERTEX_POINT('',#1317);
#384=VERTEX_POINT('',#1321);
#385=VERTEX_POINT('',#1323);
#386=VERTEX_POINT('',#1331);
#387=VERTEX_POINT('',#1332);
#388=VERTEX_POINT('',#1334);
#389=VERTEX_POINT('',#1336);
#390=VERTEX_POINT('',#1340);
#391=VERTEX_POINT('',#1342);
#392=VERTEX_POINT('',#1346);
#393=VERTEX_POINT('',#1348);
#394=VERTEX_POINT('',#1352);
#395=VERTEX_POINT('',#1354);
#396=VERTEX_POINT('',#1358);
#397=VERTEX_POINT('',#1360);
#398=VERTEX_POINT('',#1368);
#399=VERTEX_POINT('',#1370);
#400=VERTEX_POINT('',#1374);
#401=VERTEX_POINT('',#1377);
#402=VERTEX_POINT('',#1379);
#403=VERTEX_POINT('',#1383);
#404=VERTEX_POINT('',#1386);
#405=VERTEX_POINT('',#1388);
#406=VERTEX_POINT('',#1396);
#407=VERTEX_POINT('',#1398);
#408=VERTEX_POINT('',#1402);
#409=VERTEX_POINT('',#1404);
#410=VERTEX_POINT('',#1410);
#411=VERTEX_POINT('',#1412);
#412=VERTEX_POINT('',#1416);
#413=VERTEX_POINT('',#1418);
#414=VERTEX_POINT('',#1424);
#415=VERTEX_POINT('',#1426);
#416=VERTEX_POINT('',#1430);
#417=VERTEX_POINT('',#1432);
#418=VERTEX_POINT('',#1438);
#419=VERTEX_POINT('',#1440);
#420=VERTEX_POINT('',#1444);
#421=VERTEX_POINT('',#1446);
#422=EDGE_CURVE('',#353,#353,#326,.T.);
#423=EDGE_CURVE('',#353,#354,#212,.T.);
#424=EDGE_CURVE('',#355,#354,#206,.T.);
#425=EDGE_CURVE('',#354,#355,#207,.T.);
#426=EDGE_CURVE('',#356,#356,#327,.T.);
#427=EDGE_CURVE('',#356,#357,#213,.T.);
#428=EDGE_CURVE('',#358,#357,#208,.T.);
#429=EDGE_CURVE('',#357,#358,#209,.T.);
#430=EDGE_CURVE('',#359,#359,#328,.T.);
#431=EDGE_CURVE('',#359,#360,#214,.T.);
#432=EDGE_CURVE('',#361,#360,#210,.T.);
#433=EDGE_CURVE('',#360,#361,#211,.T.);
#434=EDGE_CURVE('',#362,#363,#44,.T.);
#435=EDGE_CURVE('',#362,#364,#215,.T.);
#436=EDGE_CURVE('',#364,#365,#216,.T.);
#437=EDGE_CURVE('',#363,#365,#217,.T.);
#438=EDGE_CURVE('',#363,#366,#218,.T.);
#439=EDGE_CURVE('',#365,#367,#219,.T.);
#440=EDGE_CURVE('',#366,#367,#220,.T.);
#441=EDGE_CURVE('',#366,#368,#45,.T.);
#442=EDGE_CURVE('',#367,#369,#221,.T.);
#443=EDGE_CURVE('',#368,#369,#222,.T.);
#444=EDGE_CURVE('',#368,#370,#46,.T.);
#445=EDGE_CURVE('',#369,#371,#223,.T.);
#446=EDGE_CURVE('',#370,#371,#224,.T.);
#447=EDGE_CURVE('',#372,#362,#47,.T.);
#448=EDGE_CURVE('',#372,#373,#225,.T.);
#449=EDGE_CURVE('',#373,#364,#226,.T.);
#450=EDGE_CURVE('',#370,#372,#227,.T.);
#451=EDGE_CURVE('',#371,#373,#228,.T.);
#452=EDGE_CURVE('',#374,#375,#48,.T.);
#453=EDGE_CURVE('',#374,#376,#229,.T.);
#454=EDGE_CURVE('',#376,#377,#230,.T.);
#455=EDGE_CURVE('',#375,#377,#231,.T.);
#456=EDGE_CURVE('',#375,#378,#232,.T.);
#457=EDGE_CURVE('',#377,#379,#233,.T.);
#458=EDGE_CURVE('',#378,#379,#234,.T.);
#459=EDGE_CURVE('',#378,#380,#49,.T.);
#460=EDGE_CURVE('',#379,#381,#235,.T.);
#461=EDGE_CURVE('',#380,#381,#236,.T.);
#462=EDGE_CURVE('',#380,#382,#50,.T.);
#463=EDGE_CURVE('',#381,#383,#237,.T.);
#464=EDGE_CURVE('',#382,#383,#238,.T.);
#465=EDGE_CURVE('',#384,#374,#51,.T.);
#466=EDGE_CURVE('',#384,#385,#239,.T.);
#467=EDGE_CURVE('',#385,#376,#240,.T.);
#468=EDGE_CURVE('',#382,#384,#241,.T.);
#469=EDGE_CURVE('',#383,#385,#242,.T.);
#470=EDGE_CURVE('',#386,#387,#52,.T.);
#471=EDGE_CURVE('',#386,#388,#243,.T.);
#472=EDGE_CURVE('',#388,#389,#244,.T.);
#473=EDGE_CURVE('',#387,#389,#245,.T.);
#474=EDGE_CURVE('',#387,#390,#246,.T.);
#475=EDGE_CURVE('',#389,#391,#247,.T.);
#476=EDGE_CURVE('',#390,#391,#248,.T.);
#477=EDGE_CURVE('',#390,#392,#53,.T.);
#478=EDGE_CURVE('',#391,#393,#249,.T.);
#479=EDGE_CURVE('',#392,#393,#250,.T.);
#480=EDGE_CURVE('',#392,#394,#54,.T.);
#481=EDGE_CURVE('',#393,#395,#251,.T.);
#482=EDGE_CURVE('',#394,#395,#252,.T.);
#483=EDGE_CURVE('',#396,#386,#55,.T.);
#484=EDGE_CURVE('',#396,#397,#253,.T.);
#485=EDGE_CURVE('',#397,#388,#254,.T.);
#486=EDGE_CURVE('',#394,#396,#255,.T.);
#487=EDGE_CURVE('',#395,#397,#256,.T.);
#488=EDGE_CURVE('',#398,#398,#329,.T.);
#489=EDGE_CURVE('',#398,#399,#257,.T.);
#490=EDGE_CURVE('',#399,#399,#330,.T.);
#491=EDGE_CURVE('',#400,#400,#331,.T.);
#492=EDGE_CURVE('',#401,#401,#332,.T.);
#493=EDGE_CURVE('',#401,#402,#258,.T.);
#494=EDGE_CURVE('',#402,#402,#333,.T.);
#495=EDGE_CURVE('',#403,#403,#334,.T.);
#496=EDGE_CURVE('',#404,#404,#335,.T.);
#497=EDGE_CURVE('',#404,#405,#259,.T.);
#498=EDGE_CURVE('',#405,#405,#336,.T.);
#499=EDGE_CURVE('',#400,#403,#260,.T.);
#500=EDGE_CURVE('',#406,#406,#337,.T.);
#501=EDGE_CURVE('',#406,#407,#261,.T.);
#502=EDGE_CURVE('',#407,#407,#338,.T.);
#503=EDGE_CURVE('',#408,#408,#339,.T.);
#504=EDGE_CURVE('',#408,#409,#262,.T.);
#505=EDGE_CURVE('',#409,#409,#340,.T.);
#506=EDGE_CURVE('',#410,#410,#341,.T.);
#507=EDGE_CURVE('',#410,#411,#263,.T.);
#508=EDGE_CURVE('',#411,#411,#342,.T.);
#509=EDGE_CURVE('',#412,#412,#343,.T.);
#510=EDGE_CURVE('',#412,#413,#264,.T.);
#511=EDGE_CURVE('',#413,#413,#344,.T.);
#512=EDGE_CURVE('',#414,#414,#345,.T.);
#513=EDGE_CURVE('',#414,#415,#265,.T.);
#514=EDGE_CURVE('',#415,#415,#346,.T.);
#515=EDGE_CURVE('',#416,#416,#347,.T.);
#516=EDGE_CURVE('',#416,#417,#266,.T.);
#517=EDGE_CURVE('',#417,#417,#348,.T.);
#518=EDGE_CURVE('',#418,#418,#349,.T.);
#519=EDGE_CURVE('',#418,#419,#267,.T.);
#520=EDGE_CURVE('',#419,#419,#350,.T.);
#521=EDGE_CURVE('',#420,#420,#351,.T.);
#522=EDGE_CURVE('',#420,#421,#268,.T.);
#523=EDGE_CURVE('',#421,#421,#352,.T.);
#524=ORIENTED_EDGE('',*,*,#422,.F.);
#525=ORIENTED_EDGE('',*,*,#423,.T.);
#526=ORIENTED_EDGE('',*,*,#424,.F.);
#527=ORIENTED_EDGE('',*,*,#425,.F.);
#528=ORIENTED_EDGE('',*,*,#423,.F.);
#529=ORIENTED_EDGE('',*,*,#426,.F.);
#530=ORIENTED_EDGE('',*,*,#427,.T.);
#531=ORIENTED_EDGE('',*,*,#428,.F.);
#532=ORIENTED_EDGE('',*,*,#429,.F.);
#533=ORIENTED_EDGE('',*,*,#427,.F.);
#534=ORIENTED_EDGE('',*,*,#430,.F.);
#535=ORIENTED_EDGE('',*,*,#431,.T.);
#536=ORIENTED_EDGE('',*,*,#432,.F.);
#537=ORIENTED_EDGE('',*,*,#433,.F.);
#538=ORIENTED_EDGE('',*,*,#431,.F.);
#539=ORIENTED_EDGE('',*,*,#434,.F.);
#540=ORIENTED_EDGE('',*,*,#435,.T.);
#541=ORIENTED_EDGE('',*,*,#436,.T.);
#542=ORIENTED_EDGE('',*,*,#437,.F.);
#543=ORIENTED_EDGE('',*,*,#438,.F.);
#544=ORIENTED_EDGE('',*,*,#437,.T.);
#545=ORIENTED_EDGE('',*,*,#439,.T.);
#546=ORIENTED_EDGE('',*,*,#440,.F.);
#547=ORIENTED_EDGE('',*,*,#441,.F.);
#548=ORIENTED_EDGE('',*,*,#440,.T.);
#549=ORIENTED_EDGE('',*,*,#442,.T.);
#550=ORIENTED_EDGE('',*,*,#443,.F.);
#551=ORIENTED_EDGE('',*,*,#444,.F.);
#552=ORIENTED_EDGE('',*,*,#443,.T.);
#553=ORIENTED_EDGE('',*,*,#445,.T.);
#554=ORIENTED_EDGE('',*,*,#446,.F.);
#555=ORIENTED_EDGE('',*,*,#447,.F.);
#556=ORIENTED_EDGE('',*,*,#448,.T.);
#557=ORIENTED_EDGE('',*,*,#449,.T.);
#558=ORIENTED_EDGE('',*,*,#435,.F.);
#559=ORIENTED_EDGE('',*,*,#450,.F.);
#560=ORIENTED_EDGE('',*,*,#446,.T.);
#561=ORIENTED_EDGE('',*,*,#451,.T.);
#562=ORIENTED_EDGE('',*,*,#448,.F.);
#563=ORIENTED_EDGE('',*,*,#451,.F.);
#564=ORIENTED_EDGE('',*,*,#445,.F.);
#565=ORIENTED_EDGE('',*,*,#442,.F.);
#566=ORIENTED_EDGE('',*,*,#439,.F.);
#567=ORIENTED_EDGE('',*,*,#436,.F.);
#568=ORIENTED_EDGE('',*,*,#449,.F.);
#569=ORIENTED_EDGE('',*,*,#426,.T.);
#570=ORIENTED_EDGE('',*,*,#452,.F.);
#571=ORIENTED_EDGE('',*,*,#453,.T.);
#572=ORIENTED_EDGE('',*,*,#454,.T.);
#573=ORIENTED_EDGE('',*,*,#455,.F.);
#574=ORIENTED_EDGE('',*,*,#456,.F.);
#575=ORIENTED_EDGE('',*,*,#455,.T.);
#576=ORIENTED_EDGE('',*,*,#457,.T.);
#577=ORIENTED_EDGE('',*,*,#458,.F.);
#578=ORIENTED_EDGE('',*,*,#459,.F.);
#579=ORIENTED_EDGE('',*,*,#458,.T.);
#580=ORIENTED_EDGE('',*,*,#460,.T.);
#581=ORIENTED_EDGE('',*,*,#461,.F.);
#582=ORIENTED_EDGE('',*,*,#462,.F.);
#583=ORIENTED_EDGE('',*,*,#461,.T.);
#584=ORIENTED_EDGE('',*,*,#463,.T.);
#585=ORIENTED_EDGE('',*,*,#464,.F.);
#586=ORIENTED_EDGE('',*,*,#465,.F.);
#587=ORIENTED_EDGE('',*,*,#466,.T.);
#588=ORIENTED_EDGE('',*,*,#467,.T.);
#589=ORIENTED_EDGE('',*,*,#453,.F.);
#590=ORIENTED_EDGE('',*,*,#468,.F.);
#591=ORIENTED_EDGE('',*,*,#464,.T.);
#592=ORIENTED_EDGE('',*,*,#469,.T.);
#593=ORIENTED_EDGE('',*,*,#466,.F.);
#594=ORIENTED_EDGE('',*,*,#469,.F.);
#595=ORIENTED_EDGE('',*,*,#463,.F.);
#596=ORIENTED_EDGE('',*,*,#460,.F.);
#597=ORIENTED_EDGE('',*,*,#457,.F.);
#598=ORIENTED_EDGE('',*,*,#454,.F.);
#599=ORIENTED_EDGE('',*,*,#467,.F.);
#600=ORIENTED_EDGE('',*,*,#422,.T.);
#601=ORIENTED_EDGE('',*,*,#470,.F.);
#602=ORIENTED_EDGE('',*,*,#471,.T.);
#603=ORIENTED_EDGE('',*,*,#472,.T.);
#604=ORIENTED_EDGE('',*,*,#473,.F.);
#605=ORIENTED_EDGE('',*,*,#474,.F.);
#606=ORIENTED_EDGE('',*,*,#473,.T.);
#607=ORIENTED_EDGE('',*,*,#475,.T.);
#608=ORIENTED_EDGE('',*,*,#476,.F.);
#609=ORIENTED_EDGE('',*,*,#477,.F.);
#610=ORIENTED_EDGE('',*,*,#476,.T.);
#611=ORIENTED_EDGE('',*,*,#478,.T.);
#612=ORIENTED_EDGE('',*,*,#479,.F.);
#613=ORIENTED_EDGE('',*,*,#480,.F.);
#614=ORIENTED_EDGE('',*,*,#479,.T.);
#615=ORIENTED_EDGE('',*,*,#481,.T.);
#616=ORIENTED_EDGE('',*,*,#482,.F.);
#617=ORIENTED_EDGE('',*,*,#483,.F.);
#618=ORIENTED_EDGE('',*,*,#484,.T.);
#619=ORIENTED_EDGE('',*,*,#485,.T.);
#620=ORIENTED_EDGE('',*,*,#471,.F.);
#621=ORIENTED_EDGE('',*,*,#486,.F.);
#622=ORIENTED_EDGE('',*,*,#482,.T.);
#623=ORIENTED_EDGE('',*,*,#487,.T.);
#624=ORIENTED_EDGE('',*,*,#484,.F.);
#625=ORIENTED_EDGE('',*,*,#487,.F.);
#626=ORIENTED_EDGE('',*,*,#481,.F.);
#627=ORIENTED_EDGE('',*,*,#478,.F.);
#628=ORIENTED_EDGE('',*,*,#475,.F.);
#629=ORIENTED_EDGE('',*,*,#472,.F.);
#630=ORIENTED_EDGE('',*,*,#485,.F.);
#631=ORIENTED_EDGE('',*,*,#430,.T.);
#632=ORIENTED_EDGE('',*,*,#488,.F.);
#633=ORIENTED_EDGE('',*,*,#489,.T.);
#634=ORIENTED_EDGE('',*,*,#490,.T.);
#635=ORIENTED_EDGE('',*,*,#489,.F.);
#636=ORIENTED_EDGE('',*,*,#491,.F.);
#637=ORIENTED_EDGE('',*,*,#490,.F.);
#638=ORIENTED_EDGE('',*,*,#492,.F.);
#639=ORIENTED_EDGE('',*,*,#493,.T.);
#640=ORIENTED_EDGE('',*,*,#494,.T.);
#641=ORIENTED_EDGE('',*,*,#493,.F.);
#642=ORIENTED_EDGE('',*,*,#495,.F.);
#643=ORIENTED_EDGE('',*,*,#494,.F.);
#644=ORIENTED_EDGE('',*,*,#496,.F.);
#645=ORIENTED_EDGE('',*,*,#497,.T.);
#646=ORIENTED_EDGE('',*,*,#498,.T.);
#647=ORIENTED_EDGE('',*,*,#497,.F.);
#648=ORIENTED_EDGE('',*,*,#444,.T.);
#649=ORIENTED_EDGE('',*,*,#450,.T.);
#650=ORIENTED_EDGE('',*,*,#447,.T.);
#651=ORIENTED_EDGE('',*,*,#434,.T.);
#652=ORIENTED_EDGE('',*,*,#438,.T.);
#653=ORIENTED_EDGE('',*,*,#441,.T.);
#654=ORIENTED_EDGE('',*,*,#462,.T.);
#655=ORIENTED_EDGE('',*,*,#468,.T.);
#656=ORIENTED_EDGE('',*,*,#465,.T.);
#657=ORIENTED_EDGE('',*,*,#452,.T.);
#658=ORIENTED_EDGE('',*,*,#456,.T.);
#659=ORIENTED_EDGE('',*,*,#459,.T.);
#660=ORIENTED_EDGE('',*,*,#480,.T.);
#661=ORIENTED_EDGE('',*,*,#486,.T.);
#662=ORIENTED_EDGE('',*,*,#483,.T.);
#663=ORIENTED_EDGE('',*,*,#470,.T.);
#664=ORIENTED_EDGE('',*,*,#474,.T.);
#665=ORIENTED_EDGE('',*,*,#477,.T.);
#666=ORIENTED_EDGE('',*,*,#491,.T.);
#667=ORIENTED_EDGE('',*,*,#499,.T.);
#668=ORIENTED_EDGE('',*,*,#495,.T.);
#669=ORIENTED_EDGE('',*,*,#499,.F.);
#670=ORIENTED_EDGE('',*,*,#424,.T.);
#671=ORIENTED_EDGE('',*,*,#425,.T.);
#672=ORIENTED_EDGE('',*,*,#428,.T.);
#673=ORIENTED_EDGE('',*,*,#429,.T.);
#674=ORIENTED_EDGE('',*,*,#432,.T.);
#675=ORIENTED_EDGE('',*,*,#433,.T.);
#676=ORIENTED_EDGE('',*,*,#488,.T.);
#677=ORIENTED_EDGE('',*,*,#496,.T.);
#678=ORIENTED_EDGE('',*,*,#492,.T.);
#679=ORIENTED_EDGE('',*,*,#498,.F.);
#680=ORIENTED_EDGE('',*,*,#500,.F.);
#681=ORIENTED_EDGE('',*,*,#501,.T.);
#682=ORIENTED_EDGE('',*,*,#502,.F.);
#683=ORIENTED_EDGE('',*,*,#501,.F.);
#684=ORIENTED_EDGE('',*,*,#503,.F.);
#685=ORIENTED_EDGE('',*,*,#504,.T.);
#686=ORIENTED_EDGE('',*,*,#505,.T.);
#687=ORIENTED_EDGE('',*,*,#504,.F.);
#688=ORIENTED_EDGE('',*,*,#505,.F.);
#689=ORIENTED_EDGE('',*,*,#500,.T.);
#690=ORIENTED_EDGE('',*,*,#503,.T.);
#691=ORIENTED_EDGE('',*,*,#502,.T.);
#692=ORIENTED_EDGE('',*,*,#506,.F.);
#693=ORIENTED_EDGE('',*,*,#507,.T.);
#694=ORIENTED_EDGE('',*,*,#508,.F.);
#695=ORIENTED_EDGE('',*,*,#507,.F.);
#696=ORIENTED_EDGE('',*,*,#509,.F.);
#697=ORIENTED_EDGE('',*,*,#510,.T.);
#698=ORIENTED_EDGE('',*,*,#511,.T.);
#699=ORIENTED_EDGE('',*,*,#510,.F.);
#700=ORIENTED_EDGE('',*,*,#511,.F.);
#701=ORIENTED_EDGE('',*,*,#506,.T.);
#702=ORIENTED_EDGE('',*,*,#509,.T.);
#703=ORIENTED_EDGE('',*,*,#508,.T.);
#704=ORIENTED_EDGE('',*,*,#512,.F.);
#705=ORIENTED_EDGE('',*,*,#513,.T.);
#706=ORIENTED_EDGE('',*,*,#514,.F.);
#707=ORIENTED_EDGE('',*,*,#513,.F.);
#708=ORIENTED_EDGE('',*,*,#515,.F.);
#709=ORIENTED_EDGE('',*,*,#516,.T.);
#710=ORIENTED_EDGE('',*,*,#517,.T.);
#711=ORIENTED_EDGE('',*,*,#516,.F.);
#712=ORIENTED_EDGE('',*,*,#517,.F.);
#713=ORIENTED_EDGE('',*,*,#512,.T.);
#714=ORIENTED_EDGE('',*,*,#515,.T.);
#715=ORIENTED_EDGE('',*,*,#514,.T.);
#716=ORIENTED_EDGE('',*,*,#518,.F.);
#717=ORIENTED_EDGE('',*,*,#519,.T.);
#718=ORIENTED_EDGE('',*,*,#520,.F.);
#719=ORIENTED_EDGE('',*,*,#519,.F.);
#720=ORIENTED_EDGE('',*,*,#521,.F.);
#721=ORIENTED_EDGE('',*,*,#522,.T.);
#722=ORIENTED_EDGE('',*,*,#523,.T.);
#723=ORIENTED_EDGE('',*,*,#522,.F.);
#724=ORIENTED_EDGE('',*,*,#523,.F.);
#725=ORIENTED_EDGE('',*,*,#518,.T.);
#726=ORIENTED_EDGE('',*,*,#521,.T.);
#727=ORIENTED_EDGE('',*,*,#520,.T.);
#728=CYLINDRICAL_SURFACE('',#809,1.7);
#729=CYLINDRICAL_SURFACE('',#811,1.7);
#730=CYLINDRICAL_SURFACE('',#813,1.7);
#731=CYLINDRICAL_SURFACE('',#848,7.375);
#732=CYLINDRICAL_SURFACE('',#853,7.375);
#733=CYLINDRICAL_SURFACE('',#858,4.125);
#734=CYLINDRICAL_SURFACE('',#861,9.375);
#735=CYLINDRICAL_SURFACE('',#864,1.7);
#736=CYLINDRICAL_SURFACE('',#867,3.);
#737=CYLINDRICAL_SURFACE('',#872,1.7);
#738=CYLINDRICAL_SURFACE('',#875,3.);
#739=CYLINDRICAL_SURFACE('',#880,1.7);
#740=CYLINDRICAL_SURFACE('',#883,3.);
#741=CYLINDRICAL_SURFACE('',#888,1.7);
#742=CYLINDRICAL_SURFACE('',#891,3.);
#743=ADVANCED_FACE('',(#89),#728,.F.);
#744=ADVANCED_FACE('',(#90),#729,.F.);
#745=ADVANCED_FACE('',(#91),#730,.F.);
#746=ADVANCED_FACE('',(#92),#56,.F.);
#747=ADVANCED_FACE('',(#93),#57,.F.);
#748=ADVANCED_FACE('',(#94),#58,.F.);
#749=ADVANCED_FACE('',(#95),#59,.F.);
#750=ADVANCED_FACE('',(#96),#60,.F.);
#751=ADVANCED_FACE('',(#97),#61,.F.);
#752=ADVANCED_FACE('',(#98,#23),#62,.F.);
#753=ADVANCED_FACE('',(#99),#63,.F.);
#754=ADVANCED_FACE('',(#100),#64,.F.);
#755=ADVANCED_FACE('',(#101),#65,.F.);
#756=ADVANCED_FACE('',(#102),#66,.F.);
#757=ADVANCED_FACE('',(#103),#67,.F.);
#758=ADVANCED_FACE('',(#104),#68,.F.);
#759=ADVANCED_FACE('',(#105,#24),#69,.F.);
#760=ADVANCED_FACE('',(#106),#70,.F.);
#761=ADVANCED_FACE('',(#107),#71,.F.);
#762=ADVANCED_FACE('',(#108),#72,.F.);
#763=ADVANCED_FACE('',(#109),#73,.F.);
#764=ADVANCED_FACE('',(#110),#74,.F.);
#765=ADVANCED_FACE('',(#111),#75,.F.);
#766=ADVANCED_FACE('',(#112,#25),#76,.F.);
#767=ADVANCED_FACE('',(#113),#731,.T.);
#768=ADVANCED_FACE('',(#114,#26),#77,.T.);
#769=ADVANCED_FACE('',(#115),#732,.T.);
#770=ADVANCED_FACE('',(#116,#27),#78,.F.);
#771=ADVANCED_FACE('',(#117,#28,#29,#30),#733,.F.);
#772=ADVANCED_FACE('',(#118,#31,#32,#33),#734,.T.);
#773=ADVANCED_FACE('',(#119,#34),#79,.T.);
#774=ADVANCED_FACE('',(#120,#35),#80,.F.);
#775=ADVANCED_FACE('',(#121),#735,.F.);
#776=ADVANCED_FACE('',(#122),#736,.T.);
#777=ADVANCED_FACE('',(#123,#36),#81,.T.);
#778=ADVANCED_FACE('',(#124,#37),#82,.F.);
#779=ADVANCED_FACE('',(#125),#737,.F.);
#780=ADVANCED_FACE('',(#126),#738,.T.);
#781=ADVANCED_FACE('',(#127,#38),#83,.T.);
#782=ADVANCED_FACE('',(#128,#39),#84,.F.);
#783=ADVANCED_FACE('',(#129),#739,.F.);
#784=ADVANCED_FACE('',(#130),#740,.T.);
#785=ADVANCED_FACE('',(#131,#40),#85,.T.);
#786=ADVANCED_FACE('',(#132,#41),#86,.F.);
#787=ADVANCED_FACE('',(#133),#741,.F.);
#788=ADVANCED_FACE('',(#134),#742,.T.);
#789=ADVANCED_FACE('',(#135,#42),#87,.T.);
#790=ADVANCED_FACE('',(#136,#43),#88,.F.);
#791=CLOSED_SHELL('',(#743,#744,#745,#746,#747,#748,#749,#750,#751,#752,
#753,#754,#755,#756,#757,#758,#759,#760,#761,#762,#763,#764,#765,#766,#767,
#768,#769,#770,#771,#772,#773,#774));
#792=CLOSED_SHELL('',(#775,#776,#777,#778));
#793=CLOSED_SHELL('',(#779,#780,#781,#782));
#794=CLOSED_SHELL('',(#783,#784,#785,#786));
#795=CLOSED_SHELL('',(#787,#788,#789,#790));
#796=DERIVED_UNIT_ELEMENT(#798,1.);
#797=DERIVED_UNIT_ELEMENT(#1456,-3.);
#798=(
MASS_UNIT()
NAMED_UNIT(*)
SI_UNIT(.KILO.,.GRAM.)
);
#799=DERIVED_UNIT((#796,#797));
#800=MEASURE_REPRESENTATION_ITEM('density measure',
POSITIVE_RATIO_MEASURE(7850.),#799);
#801=PROPERTY_DEFINITION_REPRESENTATION(#806,#803);
#802=PROPERTY_DEFINITION_REPRESENTATION(#807,#804);
#803=REPRESENTATION('material name',(#805),#1453);
#804=REPRESENTATION('density',(#800),#1453);
#805=DESCRIPTIVE_REPRESENTATION_ITEM('Steel','Steel');
#806=PROPERTY_DEFINITION('material property','material name',#1463);
#807=PROPERTY_DEFINITION('material property','density of part',#1463);
#808=AXIS2_PLACEMENT_3D('',#1129,#896,#897);
#809=AXIS2_PLACEMENT_3D('',#1130,#898,#899);
#810=AXIS2_PLACEMENT_3D('',#1132,#900,#901);
#811=AXIS2_PLACEMENT_3D('',#1172,#903,#904);
#812=AXIS2_PLACEMENT_3D('',#1174,#905,#906);
#813=AXIS2_PLACEMENT_3D('',#1214,#908,#909);
#814=AXIS2_PLACEMENT_3D('',#1216,#910,#911);
#815=AXIS2_PLACEMENT_3D('',#1256,#913,#914);
#816=AXIS2_PLACEMENT_3D('',#1259,#915,#916);
#817=AXIS2_PLACEMENT_3D('',#1265,#920,#921);
#818=AXIS2_PLACEMENT_3D('',#1271,#925,#926);
#819=AXIS2_PLACEMENT_3D('',#1273,#927,#928);
#820=AXIS2_PLACEMENT_3D('',#1277,#931,#932);
#821=AXIS2_PLACEMENT_3D('',#1279,#933,#934);
#822=AXIS2_PLACEMENT_3D('',#1283,#937,#938);
#823=AXIS2_PLACEMENT_3D('',#1285,#939,#940);
#824=AXIS2_PLACEMENT_3D('',#1289,#943,#944);
#825=AXIS2_PLACEMENT_3D('',#1292,#947,#948);
#826=AXIS2_PLACEMENT_3D('',#1293,#949,#950);
#827=AXIS2_PLACEMENT_3D('',#1296,#951,#952);
#828=AXIS2_PLACEMENT_3D('',#1302,#956,#957);
#829=AXIS2_PLACEMENT_3D('',#1308,#961,#962);
#830=AXIS2_PLACEMENT_3D('',#1310,#963,#964);
#831=AXIS2_PLACEMENT_3D('',#1314,#967,#968);
#832=AXIS2_PLACEMENT_3D('',#1316,#969,#970);
#833=AXIS2_PLACEMENT_3D('',#1320,#973,#974);
#834=AXIS2_PLACEMENT_3D('',#1322,#975,#976);
#835=AXIS2_PLACEMENT_3D('',#1326,#979,#980);
#836=AXIS2_PLACEMENT_3D('',#1329,#983,#984);
#837=AXIS2_PLACEMENT_3D('',#1330,#985,#986);
#838=AXIS2_PLACEMENT_3D('',#1333,#987,#988);
#839=AXIS2_PLACEMENT_3D('',#1339,#992,#993);
#840=AXIS2_PLACEMENT_3D('',#1345,#997,#998);
#841=AXIS2_PLACEMENT_3D('',#1347,#999,#1000);
#842=AXIS2_PLACEMENT_3D('',#1351,#1003,#1004);
#843=AXIS2_PLACEMENT_3D('',#1353,#1005,#1006);
#844=AXIS2_PLACEMENT_3D('',#1357,#1009,#1010);
#845=AXIS2_PLACEMENT_3D('',#1359,#1011,#1012);
#846=AXIS2_PLACEMENT_3D('',#1363,#1015,#1016);
#847=AXIS2_PLACEMENT_3D('',#1366,#1019,#1020);
#848=AXIS2_PLACEMENT_3D('',#1367,#1021,#1022);
#849=AXIS2_PLACEMENT_3D('',#1369,#1023,#1024);
#850=AXIS2_PLACEMENT_3D('',#1372,#1026,#1027);
#851=AXIS2_PLACEMENT_3D('',#1373,#1028,#1029);
#852=AXIS2_PLACEMENT_3D('',#1375,#1030,#1031);
#853=AXIS2_PLACEMENT_3D('',#1376,#1032,#1033);
#854=AXIS2_PLACEMENT_3D('',#1378,#1034,#1035);
#855=AXIS2_PLACEMENT_3D('',#1381,#1037,#1038);
#856=AXIS2_PLACEMENT_3D('',#1382,#1039,#1040);
#857=AXIS2_PLACEMENT_3D('',#1384,#1041,#1042);
#858=AXIS2_PLACEMENT_3D('',#1385,#1043,#1044);
#859=AXIS2_PLACEMENT_3D('',#1387,#1045,#1046);
#860=AXIS2_PLACEMENT_3D('',#1390,#1048,#1049);
#861=AXIS2_PLACEMENT_3D('',#1391,#1050,#1051);
#862=AXIS2_PLACEMENT_3D('',#1393,#1053,#1054);
#863=AXIS2_PLACEMENT_3D('',#1394,#1055,#1056);
#864=AXIS2_PLACEMENT_3D('',#1395,#1057,#1058);
#865=AXIS2_PLACEMENT_3D('',#1397,#1059,#1060);
#866=AXIS2_PLACEMENT_3D('',#1400,#1062,#1063);
#867=AXIS2_PLACEMENT_3D('',#1401,#1064,#1065);
#868=AXIS2_PLACEMENT_3D('',#1403,#1066,#1067);
#869=AXIS2_PLACEMENT_3D('',#1406,#1069,#1070);
#870=AXIS2_PLACEMENT_3D('',#1407,#1071,#1072);
#871=AXIS2_PLACEMENT_3D('',#1408,#1073,#1074);
#872=AXIS2_PLACEMENT_3D('',#1409,#1075,#1076);
#873=AXIS2_PLACEMENT_3D('',#1411,#1077,#1078);
#874=AXIS2_PLACEMENT_3D('',#1414,#1080,#1081);
#875=AXIS2_PLACEMENT_3D('',#1415,#1082,#1083);
#876=AXIS2_PLACEMENT_3D('',#1417,#1084,#1085);
#877=AXIS2_PLACEMENT_3D('',#1420,#1087,#1088);
#878=AXIS2_PLACEMENT_3D('',#1421,#1089,#1090);
#879=AXIS2_PLACEMENT_3D('',#1422,#1091,#1092);
#880=AXIS2_PLACEMENT_3D('',#1423,#1093,#1094);
#881=AXIS2_PLACEMENT_3D('',#1425,#1095,#1096);
#882=AXIS2_PLACEMENT_3D('',#1428,#1098,#1099);
#883=AXIS2_PLACEMENT_3D('',#1429,#1100,#1101);
#884=AXIS2_PLACEMENT_3D('',#1431,#1102,#1103);
#885=AXIS2_PLACEMENT_3D('',#1434,#1105,#1106);
#886=AXIS2_PLACEMENT_3D('',#1435,#1107,#1108);
#887=AXIS2_PLACEMENT_3D('',#1436,#1109,#1110);
#888=AXIS2_PLACEMENT_3D('',#1437,#1111,#1112);
#889=AXIS2_PLACEMENT_3D('',#1439,#1113,#1114);
#890=AXIS2_PLACEMENT_3D('',#1442,#1116,#1117);
#891=AXIS2_PLACEMENT_3D('',#1443,#1118,#1119);
#892=AXIS2_PLACEMENT_3D('',#1445,#1120,#1121);
#893=AXIS2_PLACEMENT_3D('',#1448,#1123,#1124);
#894=AXIS2_PLACEMENT_3D('',#1449,#1125,#1126);
#895=AXIS2_PLACEMENT_3D('',#1450,#1127,#1128);
#896=DIRECTION('axis',(0.,0.,1.));
#897=DIRECTION('refdir',(1.,0.,0.));
#898=DIRECTION('center_axis',(0.,-1.,0.));
#899=DIRECTION('ref_axis',(0.,0.,1.));
#900=DIRECTION('center_axis',(0.,-1.,0.));
#901=DIRECTION('ref_axis',(0.,0.,1.));
#902=DIRECTION('',(0.,-1.,0.));
#903=DIRECTION('center_axis',(0.,-1.,0.));
#904=DIRECTION('ref_axis',(0.,0.,1.));
#905=DIRECTION('center_axis',(0.,-1.,0.));
#906=DIRECTION('ref_axis',(0.,0.,1.));
#907=DIRECTION('',(0.,-1.,0.));
#908=DIRECTION('center_axis',(0.,-1.,0.));
#909=DIRECTION('ref_axis',(0.,0.,1.));
#910=DIRECTION('center_axis',(0.,-1.,0.));
#911=DIRECTION('ref_axis',(0.,0.,1.));
#912=DIRECTION('',(0.,-1.,0.));
#913=DIRECTION('center_axis',(0.500000000000002,0.,-0.866025403784437));
#914=DIRECTION('ref_axis',(0.866025403784437,0.,0.500000000000002));
#915=DIRECTION('center_axis',(-0.500000000000002,0.,0.866025403784437));
#916=DIRECTION('ref_axis',(0.866025403784437,0.,0.500000000000002));
#917=DIRECTION('',(0.,-1.,0.));
#918=DIRECTION('',(0.866025403784437,0.,0.500000000000002));
#919=DIRECTION('',(0.,-1.,0.));
#920=DIRECTION('center_axis',(1.,0.,6.95933930484267E-16));
#921=DIRECTION('ref_axis',(-6.95933930484267E-16,0.,1.));
#922=DIRECTION('',(0.,0.,1.));
#923=DIRECTION('',(-6.95933930484267E-16,0.,1.));
#924=DIRECTION('',(0.,-1.,0.));
#925=DIRECTION('center_axis',(0.5,0.,0.866025403784439));
#926=DIRECTION('ref_axis',(-0.866025403784438,0.,0.5));
#927=DIRECTION('center_axis',(-0.5,0.,-0.866025403784439));
#928=DIRECTION('ref_axis',(0.866025403784438,0.,-0.5));
#929=DIRECTION('',(-0.866025403784439,0.,0.5));
#930=DIRECTION('',(0.,-1.,0.));
#931=DIRECTION('center_axis',(-0.5,0.,0.866025403784439));
#932=DIRECTION('ref_axis',(-0.866025403784439,0.,-0.5));
#933=DIRECTION('center_axis',(0.5,0.,-0.866025403784439));
#934=DIRECTION('ref_axis',(0.866025403784438,0.,0.5));
#935=DIRECTION('',(-0.866025403784439,0.,-0.5));
#936=DIRECTION('',(0.,-1.,0.));
#937=DIRECTION('center_axis',(-0.500000000000002,0.,-0.866025403784437));
#938=DIRECTION('ref_axis',(0.866025403784437,0.,-0.500000000000002));
#939=DIRECTION('center_axis',(0.500000000000002,0.,0.866025403784437));
#940=DIRECTION('ref_axis',(0.866025403784437,0.,-0.500000000000002));
#941=DIRECTION('',(0.,-1.,0.));
#942=DIRECTION('',(0.866025403784437,0.,-0.500000000000002));
#943=DIRECTION('center_axis',(-1.,0.,-3.47966965242133E-16));
#944=DIRECTION('ref_axis',(3.47966965242133E-16,0.,-1.));
#945=DIRECTION('',(0.,0.,-1.));
#946=DIRECTION('',(3.47966965242133E-16,0.,-1.));
#947=DIRECTION('center_axis',(0.,-1.,0.));
#948=DIRECTION('ref_axis',(0.,0.,-1.));
#949=DIRECTION('center_axis',(-0.5,0.,0.866025403784439));
#950=DIRECTION('ref_axis',(-0.866025403784439,0.,-0.5));
#951=DIRECTION('center_axis',(0.5,0.,-0.866025403784439));
#952=DIRECTION('ref_axis',(0.866025403784438,0.,0.5));
#953=DIRECTION('',(0.,-1.,0.));
#954=DIRECTION('',(-0.866025403784439,0.,-0.5));
#955=DIRECTION('',(0.,-1.,0.));
#956=DIRECTION('center_axis',(-1.,0.,-3.47966965242133E-16));
#957=DIRECTION('ref_axis',(3.47966965242133E-16,0.,-1.));
#958=DIRECTION('',(0.,0.,-1.));
#959=DIRECTION('',(3.47966965242133E-16,0.,-1.));
#960=DIRECTION('',(0.,-1.,0.));
#961=DIRECTION('center_axis',(-0.500000000000002,0.,-0.866025403784437));
#962=DIRECTION('ref_axis',(0.866025403784437,0.,-0.500000000000002));
#963=DIRECTION('center_axis',(0.500000000000002,0.,0.866025403784437));
#964=DIRECTION('ref_axis',(0.866025403784437,0.,-0.500000000000002));
#965=DIRECTION('',(0.866025403784437,0.,-0.500000000000002));
#966=DIRECTION('',(0.,-1.,0.));
#967=DIRECTION('center_axis',(0.500000000000002,0.,-0.866025403784437));
#968=DIRECTION('ref_axis',(0.866025403784437,0.,0.500000000000002));
#969=DIRECTION('center_axis',(-0.500000000000002,0.,0.866025403784437));
#970=DIRECTION('ref_axis',(0.866025403784437,0.,0.500000000000002));
#971=DIRECTION('',(0.866025403784437,0.,0.500000000000002));
#972=DIRECTION('',(0.,-1.,0.));
#973=DIRECTION('center_axis',(0.5,0.,0.866025403784439));
#974=DIRECTION('ref_axis',(-0.866025403784438,0.,0.5));
#975=DIRECTION('center_axis',(-0.5,0.,-0.866025403784439));
#976=DIRECTION('ref_axis',(0.866025403784438,0.,-0.5));
#977=DIRECTION('',(0.,-1.,0.));
#978=DIRECTION('',(-0.866025403784439,0.,0.5));
#979=DIRECTION('center_axis',(1.,0.,6.95933930484267E-16));
#980=DIRECTION('ref_axis',(-6.95933930484267E-16,0.,1.));
#981=DIRECTION('',(0.,0.,1.));
#982=DIRECTION('',(-6.95933930484267E-16,0.,1.));
#983=DIRECTION('center_axis',(0.,-1.,0.));
#984=DIRECTION('ref_axis',(0.,0.,-1.));
#985=DIRECTION('center_axis',(-0.5,0.,0.866025403784439));
#986=DIRECTION('ref_axis',(-0.866025403784439,0.,-0.5));
#987=DIRECTION('center_axis',(0.5,0.,-0.866025403784439));
#988=DIRECTION('ref_axis',(0.866025403784438,0.,0.5));
#989=DIRECTION('',(0.,-1.,0.));
#990=DIRECTION('',(-0.866025403784439,0.,-0.5));
#991=DIRECTION('',(0.,-1.,0.));
#992=DIRECTION('center_axis',(-1.,0.,-3.47966965242133E-16));
#993=DIRECTION('ref_axis',(3.47966965242133E-16,0.,-1.));
#994=DIRECTION('',(0.,0.,-1.));
#995=DIRECTION('',(3.47966965242133E-16,0.,-1.));
#996=DIRECTION('',(0.,-1.,0.));
#997=DIRECTION('center_axis',(-0.500000000000002,0.,-0.866025403784437));
#998=DIRECTION('ref_axis',(0.866025403784437,0.,-0.500000000000002));
#999=DIRECTION('center_axis',(0.500000000000002,0.,0.866025403784437));
#1000=DIRECTION('ref_axis',(0.866025403784437,0.,-0.500000000000002));
#1001=DIRECTION('',(0.866025403784437,0.,-0.500000000000002));
#1002=DIRECTION('',(0.,-1.,0.));
#1003=DIRECTION('center_axis',(0.500000000000002,0.,-0.866025403784437));
#1004=DIRECTION('ref_axis',(0.866025403784437,0.,0.500000000000002));
#1005=DIRECTION('center_axis',(-0.500000000000002,0.,0.866025403784437));
#1006=DIRECTION('ref_axis',(0.866025403784437,0.,0.500000000000002));
#1007=DIRECTION('',(0.866025403784437,0.,0.500000000000002));
#1008=DIRECTION('',(0.,-1.,0.));
#1009=DIRECTION('center_axis',(0.5,0.,0.866025403784439));
#1010=DIRECTION('ref_axis',(-0.866025403784438,0.,0.5));
#1011=DIRECTION('center_axis',(-0.5,0.,-0.866025403784439));
#1012=DIRECTION('ref_axis',(0.866025403784438,0.,-0.5));
#1013=DIRECTION('',(0.,-1.,0.));
#1014=DIRECTION('',(-0.866025403784439,0.,0.5));
#1015=DIRECTION('center_axis',(1.,0.,6.95933930484267E-16));
#1016=DIRECTION('ref_axis',(-6.95933930484267E-16,0.,1.));
#1017=DIRECTION('',(0.,0.,1.));
#1018=DIRECTION('',(-6.95933930484267E-16,0.,1.));
#1019=DIRECTION('center_axis',(0.,-1.,0.));
#1020=DIRECTION('ref_axis',(0.,0.,-1.));
#1021=DIRECTION('center_axis',(0.,0.,-1.));
#1022=DIRECTION('ref_axis',(1.,0.,0.));
#1023=DIRECTION('center_axis',(0.,0.,1.));
#1024=DIRECTION('ref_axis',(1.,0.,0.));
#1025=DIRECTION('',(0.,0.,-1.));
#1026=DIRECTION('center_axis',(0.,0.,1.));
#1027=DIRECTION('ref_axis',(1.,0.,0.));
#1028=DIRECTION('center_axis',(0.,0.,1.));
#1029=DIRECTION('ref_axis',(1.,0.,0.));
#1030=DIRECTION('center_axis',(0.,0.,-1.));
#1031=DIRECTION('ref_axis',(1.,0.,0.));
#1032=DIRECTION('center_axis',(0.,0.,1.));
#1033=DIRECTION('ref_axis',(1.,0.,0.));
#1034=DIRECTION('center_axis',(0.,0.,-1.));
#1035=DIRECTION('ref_axis',(1.,0.,0.));
#1036=DIRECTION('',(0.,0.,1.));
#1037=DIRECTION('center_axis',(0.,0.,-1.));
#1038=DIRECTION('ref_axis',(1.,0.,0.));
#1039=DIRECTION('center_axis',(0.,0.,1.));
#1040=DIRECTION('ref_axis',(1.,0.,0.));
#1041=DIRECTION('center_axis',(0.,0.,1.));
#1042=DIRECTION('ref_axis',(1.,0.,0.));
#1043=DIRECTION('center_axis',(0.,0.,1.));
#1044=DIRECTION('ref_axis',(1.,0.,0.));
#1045=DIRECTION('center_axis',(0.,0.,-1.));
#1046=DIRECTION('ref_axis',(1.,0.,0.));
#1047=DIRECTION('',(0.,0.,-1.));
#1048=DIRECTION('center_axis',(0.,0.,-1.));
#1049=DIRECTION('ref_axis',(1.,0.,0.));
#1050=DIRECTION('center_axis',(0.,0.,1.));
#1051=DIRECTION('ref_axis',(1.,0.,0.));
#1052=DIRECTION('',(0.,0.,-1.));
#1053=DIRECTION('center_axis',(0.,0.,1.));
#1054=DIRECTION('ref_axis',(1.,0.,0.));
#1055=DIRECTION('center_axis',(0.,0.,1.));
#1056=DIRECTION('ref_axis',(1.,0.,0.));
#1057=DIRECTION('center_axis',(0.,-1.,0.));
#1058=DIRECTION('ref_axis',(0.,0.,1.));
#1059=DIRECTION('center_axis',(9.58552750971246E-6,-0.999999685861772,0.000792580894987872));
#1060=DIRECTION('ref_axis',(0.0120931801594098,0.000792638856880872,0.999926560661969));
#1061=DIRECTION('',(0.,-1.,0.));
#1062=DIRECTION('center_axis',(-9.58552750971246E-6,0.999999685861772,-0.000792580894987872));
#1063=DIRECTION('ref_axis',(0.0120931801594098,0.000792638856880872,0.999926560661969));
#1064=DIRECTION('center_axis',(0.,-1.,0.));
#1065=DIRECTION('ref_axis',(0.0120931839601895,0.,0.999926874777203));
#1066=DIRECTION('center_axis',(9.58552750971246E-6,-0.999999685861772,0.000792580894987872));
#1067=DIRECTION('ref_axis',(0.0120931801612581,0.000792638856880872,0.999926560661947));
#1068=DIRECTION('',(0.,1.,0.));
#1069=DIRECTION('center_axis',(9.58552750971246E-6,-0.999999685861772,0.000792580894987872));
#1070=DIRECTION('ref_axis',(0.0120931801612581,0.000792638856880872,0.999926560661947));
#1071=DIRECTION('center_axis',(-9.58552750971246E-6,0.999999685861772,-0.000792580894987872));
#1072=DIRECTION('ref_axis',(0.,0.000792580895024284,0.999999685907713));
#1073=DIRECTION('center_axis',(-9.58552750971246E-6,0.999999685861772,-0.000792580894987872));
#1074=DIRECTION('ref_axis',(0.,0.000792580895024284,0.999999685907713));
#1075=DIRECTION('center_axis',(0.,-1.,0.));
#1076=DIRECTION('ref_axis',(0.,0.,1.));
#1077=DIRECTION('center_axis',(9.58552750971246E-6,-0.999999685861772,0.000792580894987872));
#1078=DIRECTION('ref_axis',(0.0120931801594098,0.000792638856880872,0.999926560661969));
#1079=DIRECTION('',(0.,-1.,0.));
#1080=DIRECTION('center_axis',(-9.58552750971246E-6,0.999999685861772,-0.000792580894987872));
#1081=DIRECTION('ref_axis',(0.0120931801594098,0.000792638856880872,0.999926560661969));
#1082=DIRECTION('center_axis',(0.,-1.,0.));
#1083=DIRECTION('ref_axis',(0.0120931839601895,0.,0.999926874777203));
#1084=DIRECTION('center_axis',(9.58552750971246E-6,-0.999999685861772,0.000792580894987872));
#1085=DIRECTION('ref_axis',(0.0120931801612581,0.000792638856880872,0.999926560661947));
#1086=DIRECTION('',(0.,1.,0.));
#1087=DIRECTION('center_axis',(9.58552750971246E-6,-0.999999685861772,0.000792580894987872));
#1088=DIRECTION('ref_axis',(0.0120931801612581,0.000792638856880872,0.999926560661947));
#1089=DIRECTION('center_axis',(-9.58552750971246E-6,0.999999685861772,-0.000792580894987872));
#1090=DIRECTION('ref_axis',(0.,0.000792580895024284,0.999999685907713));
#1091=DIRECTION('center_axis',(-9.58552750971246E-6,0.999999685861772,-0.000792580894987872));
#1092=DIRECTION('ref_axis',(0.,0.000792580895024284,0.999999685907713));
#1093=DIRECTION('center_axis',(0.,-1.,0.));
#1094=DIRECTION('ref_axis',(0.,0.,1.));
#1095=DIRECTION('center_axis',(9.58552750971246E-6,-0.999999685861772,0.000792580894987872));
#1096=DIRECTION('ref_axis',(0.0120931801594098,0.000792638856880872,0.999926560661969));
#1097=DIRECTION('',(0.,-1.,0.));
#1098=DIRECTION('center_axis',(-9.58552750971246E-6,0.999999685861772,-0.000792580894987872));
#1099=DIRECTION('ref_axis',(0.0120931801594098,0.000792638856880872,0.999926560661969));
#1100=DIRECTION('center_axis',(0.,-1.,0.));
#1101=DIRECTION('ref_axis',(0.0120931839601895,0.,0.999926874777203));
#1102=DIRECTION('center_axis',(9.58552750971246E-6,-0.999999685861772,0.000792580894987872));
#1103=DIRECTION('ref_axis',(0.0120931801612581,0.000792638856880872,0.999926560661947));
#1104=DIRECTION('',(0.,1.,0.));
#1105=DIRECTION('center_axis',(9.58552750971246E-6,-0.999999685861772,0.000792580894987872));
#1106=DIRECTION('ref_axis',(0.0120931801612581,0.000792638856880872,0.999926560661947));
#1107=DIRECTION('center_axis',(-9.58552750971246E-6,0.999999685861772,-0.000792580894987872));
#1108=DIRECTION('ref_axis',(0.,0.000792580895024284,0.999999685907713));
#1109=DIRECTION('center_axis',(-9.58552750971246E-6,0.999999685861772,-0.000792580894987872));
#1110=DIRECTION('ref_axis',(0.,0.000792580895024284,0.999999685907713));
#1111=DIRECTION('center_axis',(0.,-1.,0.));
#1112=DIRECTION('ref_axis',(0.,0.,1.));
#1113=DIRECTION('center_axis',(9.58552750971246E-6,-0.999999685861772,0.000792580894987872));
#1114=DIRECTION('ref_axis',(0.0120931801594098,0.000792638856880872,0.999926560661969));
#1115=DIRECTION('',(0.,-1.,0.));
#1116=DIRECTION('center_axis',(-9.58552750971246E-6,0.999999685861772,-0.000792580894987872));
#1117=DIRECTION('ref_axis',(0.0120931801594098,0.000792638856880872,0.999926560661969));
#1118=DIRECTION('center_axis',(0.,-1.,0.));
#1119=DIRECTION('ref_axis',(0.0120931839601895,0.,0.999926874777203));
#1120=DIRECTION('center_axis',(9.58552750971246E-6,-0.999999685861772,0.000792580894987872));
#1121=DIRECTION('ref_axis',(0.0120931801612581,0.000792638856880872,0.999926560661947));
#1122=DIRECTION('',(0.,1.,0.));
#1123=DIRECTION('center_axis',(9.58552750971246E-6,-0.999999685861772,0.000792580894987872));
#1124=DIRECTION('ref_axis',(0.0120931801612581,0.000792638856880872,0.999926560661947));
#1125=DIRECTION('center_axis',(-9.58552750971246E-6,0.999999685861772,-0.000792580894987872));
#1126=DIRECTION('ref_axis',(0.,0.000792580895024284,0.999999685907713));
#1127=DIRECTION('center_axis',(-9.58552750971246E-6,0.999999685861772,-0.000792580894987872));
#1128=DIRECTION('ref_axis',(0.,0.000792580895024284,0.999999685907713));
#1129=CARTESIAN_POINT('',(0.,0.,0.));
#1130=CARTESIAN_POINT('Origin',(0.,-6.,40.));
#1131=CARTESIAN_POINT('',(2.0818995585505E-16,-7.,38.3));
#1132=CARTESIAN_POINT('Origin',(0.,-7.,40.));
#1133=CARTESIAN_POINT('',(2.0818995585505E-16,-10.3750000474975,38.3));
#1134=CARTESIAN_POINT('',(2.0818995585505E-16,-6.,38.3));
#1135=CARTESIAN_POINT('',(1.7,-10.2195784001121,40.));
#1136=CARTESIAN_POINT('Ctrl Pts',(1.7,-10.2195784001121,40.));
#1137=CARTESIAN_POINT('Ctrl Pts',(1.7,-10.2195784001121,39.786030518447));
#1138=CARTESIAN_POINT('Ctrl Pts',(1.65714101726114,-10.2277984673083,39.5581308677964));
#1139=CARTESIAN_POINT('Ctrl Pts',(1.48350468599997,-10.2572995329341,39.1394312002515));
#1140=CARTESIAN_POINT('Ctrl Pts',(1.3527524666075,-10.2781338561568,38.9485894105732));
#1141=CARTESIAN_POINT('Ctrl Pts',(1.05141625592878,-10.3170933886637,38.6472531998945));
#1142=CARTESIAN_POINT('Ctrl Pts',(0.860572044733796,-10.3377772116423,38.5164965378461));
#1143=CARTESIAN_POINT('Ctrl Pts',(0.441864016847817,-10.3669324588978,38.3428569832436));
#1144=CARTESIAN_POINT('Ctrl Pts',(0.213961434490224,-10.3750000474975,38.3));
#1145=CARTESIAN_POINT('Ctrl Pts',(-6.93889390390723E-17,-10.3750000474975,
38.3));
#1146=CARTESIAN_POINT('Ctrl Pts',(1.38777878078145E-16,-10.3750000474975,
38.3));
#1147=CARTESIAN_POINT('Ctrl Pts',(-0.213961434490224,-10.3750000474975,
38.3));
#1148=CARTESIAN_POINT('Ctrl Pts',(-0.441864016847817,-10.3669324588978,
38.3428569832436));
#1149=CARTESIAN_POINT('Ctrl Pts',(-0.860572044733796,-10.3377772116423,
38.5164965378461));
#1150=CARTESIAN_POINT('Ctrl Pts',(-1.05141625592878,-10.3170933886637,38.6472531998945));
#1151=CARTESIAN_POINT('Ctrl Pts',(-1.3527524666075,-10.2781338561568,38.9485894105732));
#1152=CARTESIAN_POINT('Ctrl Pts',(-1.48350468599997,-10.2572995329341,39.1394312002515));
#1153=CARTESIAN_POINT('Ctrl Pts',(-1.65714101726114,-10.2277984673083,39.5581308677964));
#1154=CARTESIAN_POINT('Ctrl Pts',(-1.7,-10.2195784001121,39.786030518447));
#1155=CARTESIAN_POINT('Ctrl Pts',(-1.7,-10.2195784001121,40.213969481553));
#1156=CARTESIAN_POINT('Ctrl Pts',(-1.65714101726114,-10.2277984673083,40.4418691322036));
#1157=CARTESIAN_POINT('Ctrl Pts',(-1.48350468599997,-10.2572995329341,40.8605687997485));
#1158=CARTESIAN_POINT('Ctrl Pts',(-1.3527524666075,-10.2781338561568,41.0514105894268));
#1159=CARTESIAN_POINT('Ctrl Pts',(-1.05141625592878,-10.3170933886637,41.3527468001055));
#1160=CARTESIAN_POINT('Ctrl Pts',(-0.860572044733795,-10.3377772116423,
41.4835034621539));
#1161=CARTESIAN_POINT('Ctrl Pts',(-0.441864016847815,-10.3669324588978,
41.6571430167564));
#1162=CARTESIAN_POINT('Ctrl Pts',(-0.213961434490224,-10.3750000474975,
41.7));
#1163=CARTESIAN_POINT('Ctrl Pts',(0.213961434490224,-10.3750000474975,41.7));
#1164=CARTESIAN_POINT('Ctrl Pts',(0.441864016847815,-10.3669324588978,41.6571430167564));
#1165=CARTESIAN_POINT('Ctrl Pts',(0.860572044733794,-10.3377772116423,41.4835034621539));
#1166=CARTESIAN_POINT('Ctrl Pts',(1.05141625592878,-10.3170933886637,41.3527468001055));
#1167=CARTESIAN_POINT('Ctrl Pts',(1.3527524666075,-10.2781338561568,41.0514105894268));
#1168=CARTESIAN_POINT('Ctrl Pts',(1.48350468599997,-10.2572995329341,40.8605687997485));
#1169=CARTESIAN_POINT('Ctrl Pts',(1.65714101726114,-10.2277984673083,40.4418691322036));
#1170=CARTESIAN_POINT('Ctrl Pts',(1.7,-10.2195784001121,40.213969481553));
#1171=CARTESIAN_POINT('Ctrl Pts',(1.7,-10.2195784001121,40.));
#1172=CARTESIAN_POINT('Origin',(0.,-6.,55.));
#1173=CARTESIAN_POINT('',(2.0818995585505E-16,-7.,53.3));
#1174=CARTESIAN_POINT('Origin',(0.,-7.,55.));
#1175=CARTESIAN_POINT('',(2.0818995585505E-16,-10.3750000474975,53.3));
#1176=CARTESIAN_POINT('',(2.0818995585505E-16,-6.,53.3));
#1177=CARTESIAN_POINT('',(1.7,-10.2195784001121,55.));
#1178=CARTESIAN_POINT('Ctrl Pts',(1.7,-10.2195784001121,55.));
#1179=CARTESIAN_POINT('Ctrl Pts',(1.7,-10.2195784001121,54.786030518447));
#1180=CARTESIAN_POINT('Ctrl Pts',(1.65714101726114,-10.2277984673083,54.5581308677964));
#1181=CARTESIAN_POINT('Ctrl Pts',(1.48350468599997,-10.2572995329341,54.1394312002515));
#1182=CARTESIAN_POINT('Ctrl Pts',(1.3527524666075,-10.2781338561568,53.9485894105732));
#1183=CARTESIAN_POINT('Ctrl Pts',(1.05141625592878,-10.3170933886637,53.6472531998945));
#1184=CARTESIAN_POINT('Ctrl Pts',(0.860572044733795,-10.3377772116423,53.5164965378461));
#1185=CARTESIAN_POINT('Ctrl Pts',(0.441864016847815,-10.3669324588978,53.3428569832436));
#1186=CARTESIAN_POINT('Ctrl Pts',(0.213961434490224,-10.3750000474975,53.3));
#1187=CARTESIAN_POINT('Ctrl Pts',(2.08166817117217E-16,-10.3750000474975,
53.3));
#1188=CARTESIAN_POINT('Ctrl Pts',(-3.46944695195361E-16,-10.3750000474975,
53.3));
#1189=CARTESIAN_POINT('Ctrl Pts',(-0.213961434490224,-10.3750000474975,
53.3));
#1190=CARTESIAN_POINT('Ctrl Pts',(-0.441864016847815,-10.3669324588978,
53.3428569832436));
#1191=CARTESIAN_POINT('Ctrl Pts',(-0.860572044733795,-10.3377772116423,
53.5164965378461));
#1192=CARTESIAN_POINT('Ctrl Pts',(-1.05141625592878,-10.3170933886637,53.6472531998945));
#1193=CARTESIAN_POINT('Ctrl Pts',(-1.3527524666075,-10.2781338561568,53.9485894105732));
#1194=CARTESIAN_POINT('Ctrl Pts',(-1.48350468599997,-10.2572995329341,54.1394312002515));
#1195=CARTESIAN_POINT('Ctrl Pts',(-1.65714101726114,-10.2277984673083,54.5581308677964));
#1196=CARTESIAN_POINT('Ctrl Pts',(-1.7,-10.2195784001121,54.786030518447));
#1197=CARTESIAN_POINT('Ctrl Pts',(-1.7,-10.2195784001121,55.213969481553));
#1198=CARTESIAN_POINT('Ctrl Pts',(-1.65714101726114,-10.2277984673083,55.4418691322036));
#1199=CARTESIAN_POINT('Ctrl Pts',(-1.48350468599997,-10.2572995329341,55.8605687997485));
#1200=CARTESIAN_POINT('Ctrl Pts',(-1.3527524666075,-10.2781338561568,56.0514105894268));
#1201=CARTESIAN_POINT('Ctrl Pts',(-1.05141625592878,-10.3170933886637,56.3527468001055));
#1202=CARTESIAN_POINT('Ctrl Pts',(-0.860572044733795,-10.3377772116423,
56.4835034621539));
#1203=CARTESIAN_POINT('Ctrl Pts',(-0.441864016847815,-10.3669324588978,
56.6571430167564));
#1204=CARTESIAN_POINT('Ctrl Pts',(-0.213961434490224,-10.3750000474975,
56.7));
#1205=CARTESIAN_POINT('Ctrl Pts',(0.213961434490224,-10.3750000474975,56.7));
#1206=CARTESIAN_POINT('Ctrl Pts',(0.441864016847815,-10.3669324588978,56.6571430167564));
#1207=CARTESIAN_POINT('Ctrl Pts',(0.860572044733795,-10.3377772116423,56.4835034621539));
#1208=CARTESIAN_POINT('Ctrl Pts',(1.05141625592878,-10.3170933886637,56.3527468001055));
#1209=CARTESIAN_POINT('Ctrl Pts',(1.3527524666075,-10.2781338561568,56.0514105894268));
#1210=CARTESIAN_POINT('Ctrl Pts',(1.48350468599997,-10.2572995329341,55.8605687997485));
#1211=CARTESIAN_POINT('Ctrl Pts',(1.65714101726114,-10.2277984673083,55.4418691322036));
#1212=CARTESIAN_POINT('Ctrl Pts',(1.7,-10.2195784001121,55.213969481553));
#1213=CARTESIAN_POINT('Ctrl Pts',(1.7,-10.2195784001121,55.));
#1214=CARTESIAN_POINT('Origin',(0.,-6.,25.));
#1215=CARTESIAN_POINT('',(2.0818995585505E-16,-7.,23.3));
#1216=CARTESIAN_POINT('Origin',(0.,-7.,25.));
#1217=CARTESIAN_POINT('',(2.0818995585505E-16,-10.3750000474975,23.3));
#1218=CARTESIAN_POINT('',(2.0818995585505E-16,-6.,23.3));
#1219=CARTESIAN_POINT('',(1.7,-10.2195784001121,25.));
#1220=CARTESIAN_POINT('Ctrl Pts',(1.7,-10.2195784001121,25.));
#1221=CARTESIAN_POINT('Ctrl Pts',(1.7,-10.2195784001121,24.786030518447));
#1222=CARTESIAN_POINT('Ctrl Pts',(1.65714101726114,-10.2277984673083,24.5581308677964));
#1223=CARTESIAN_POINT('Ctrl Pts',(1.48350468599997,-10.2572995329341,24.1394312002515));
#1224=CARTESIAN_POINT('Ctrl Pts',(1.3527524666075,-10.2781338561568,23.9485894105732));
#1225=CARTESIAN_POINT('Ctrl Pts',(1.05141625592878,-10.3170933886637,23.6472531998945));
#1226=CARTESIAN_POINT('Ctrl Pts',(0.860572044733793,-10.3377772116423,23.5164965378461));
#1227=CARTESIAN_POINT('Ctrl Pts',(0.441864016847813,-10.3669324588978,23.3428569832436));
#1228=CARTESIAN_POINT('Ctrl Pts',(0.213961434490224,-10.3750000474975,23.3));
#1229=CARTESIAN_POINT('Ctrl Pts',(-1.38777878078145E-16,-10.3750000474975,
23.3));
#1230=CARTESIAN_POINT('Ctrl Pts',(-4.85722573273506E-16,-10.3750000474975,
23.3));
#1231=CARTESIAN_POINT('Ctrl Pts',(-0.213961434490225,-10.3750000474975,
23.3));
#1232=CARTESIAN_POINT('Ctrl Pts',(-0.441864016847814,-10.3669324588978,
23.3428569832436));
#1233=CARTESIAN_POINT('Ctrl Pts',(-0.860572044733793,-10.3377772116423,
23.5164965378461));
#1234=CARTESIAN_POINT('Ctrl Pts',(-1.05141625592878,-10.3170933886637,23.6472531998945));
#1235=CARTESIAN_POINT('Ctrl Pts',(-1.3527524666075,-10.2781338561568,23.9485894105732));
#1236=CARTESIAN_POINT('Ctrl Pts',(-1.48350468599997,-10.2572995329341,24.1394312002515));
#1237=CARTESIAN_POINT('Ctrl Pts',(-1.65714101726114,-10.2277984673083,24.5581308677964));
#1238=CARTESIAN_POINT('Ctrl Pts',(-1.7,-10.2195784001121,24.786030518447));
#1239=CARTESIAN_POINT('Ctrl Pts',(-1.7,-10.2195784001121,25.213969481553));
#1240=CARTESIAN_POINT('Ctrl Pts',(-1.65714101726114,-10.2277984673083,25.4418691322036));
#1241=CARTESIAN_POINT('Ctrl Pts',(-1.48350468599997,-10.2572995329341,25.8605687997485));
#1242=CARTESIAN_POINT('Ctrl Pts',(-1.3527524666075,-10.2781338561568,26.0514105894268));
#1243=CARTESIAN_POINT('Ctrl Pts',(-1.05141625592878,-10.3170933886637,26.3527468001055));
#1244=CARTESIAN_POINT('Ctrl Pts',(-0.860572044733793,-10.3377772116423,
26.4835034621539));
#1245=CARTESIAN_POINT('Ctrl Pts',(-0.441864016847814,-10.3669324588978,
26.6571430167564));
#1246=CARTESIAN_POINT('Ctrl Pts',(-0.213961434490224,-10.3750000474975,
26.7));
#1247=CARTESIAN_POINT('Ctrl Pts',(0.213961434490224,-10.3750000474975,26.7));
#1248=CARTESIAN_POINT('Ctrl Pts',(0.441864016847814,-10.3669324588978,26.6571430167564));
#1249=CARTESIAN_POINT('Ctrl Pts',(0.860572044733793,-10.3377772116423,26.4835034621539));
#1250=CARTESIAN_POINT('Ctrl Pts',(1.05141625592878,-10.3170933886637,26.3527468001055));
#1251=CARTESIAN_POINT('Ctrl Pts',(1.3527524666075,-10.2781338561568,26.0514105894268));
#1252=CARTESIAN_POINT('Ctrl Pts',(1.48350468599997,-10.2572995329341,25.8605687997485));
#1253=CARTESIAN_POINT('Ctrl Pts',(1.65714101726114,-10.2277984673083,25.4418691322036));
#1254=CARTESIAN_POINT('Ctrl Pts',(1.7,-10.2195784001121,25.213969481553));
#1255=CARTESIAN_POINT('Ctrl Pts',(1.7,-10.2195784001121,25.));
#1256=CARTESIAN_POINT('Origin',(1.60982338570648E-14,0.,51.8094010767585));
#1257=CARTESIAN_POINT('',(1.60982338570648E-14,-4.12499004749745,51.8094010767585));
#1258=CARTESIAN_POINT('',(2.76313972081441,-3.06278025958473,53.4047005383793));
#1259=CARTESIAN_POINT('Origin',(0.,9.95250254876012E-6,51.8094010767585));
#1260=CARTESIAN_POINT('',(1.60982338570648E-14,-7.,51.8094010767585));
#1261=CARTESIAN_POINT('',(1.60982338570648E-14,0.,51.8094010767585));
#1262=CARTESIAN_POINT('',(2.76313972081441,-7.,53.4047005383793));
#1263=CARTESIAN_POINT('',(2.76313972081441,-7.,53.4047005383793));
#1264=CARTESIAN_POINT('',(2.76313972081441,0.,53.4047005383793));
#1265=CARTESIAN_POINT('Origin',(2.76313972081441,0.,53.4047005383793));
#1266=CARTESIAN_POINT('',(2.76313972081441,-3.06278025958473,56.5952994616207));
#1267=CARTESIAN_POINT('',(2.76313972081445,-3.0627802595847,0.));
#1268=CARTESIAN_POINT('',(2.76313972081441,-7.,56.5952994616207));
#1269=CARTESIAN_POINT('',(2.76313972081441,-7.,53.4047005383793));
#1270=CARTESIAN_POINT('',(2.76313972081441,0.,56.5952994616207));
#1271=CARTESIAN_POINT('Origin',(2.76313972081441,0.,56.5952994616207));
#1272=CARTESIAN_POINT('',(-1.66533453693773E-14,-4.12499004749745,58.1905989232415));
#1273=CARTESIAN_POINT('Origin',(0.,9.95250254876012E-6,58.1905989232415));
#1274=CARTESIAN_POINT('',(-1.66533453693773E-14,-7.,58.1905989232415));
#1275=CARTESIAN_POINT('',(2.76313972081441,-7.,56.5952994616207));
#1276=CARTESIAN_POINT('',(-1.66533453693773E-14,0.,58.1905989232415));
#1277=CARTESIAN_POINT('Origin',(-1.66533453693773E-14,0.,58.1905989232415));
#1278=CARTESIAN_POINT('',(-2.76313972081441,-3.06278025958473,56.5952994616207));
#1279=CARTESIAN_POINT('Origin',(0.,9.95250254876012E-6,58.1905989232415));
#1280=CARTESIAN_POINT('',(-2.76313972081441,-7.,56.5952994616207));
#1281=CARTESIAN_POINT('',(-2.76313972081441,-7.,56.5952994616207));
#1282=CARTESIAN_POINT('',(-2.76313972081441,0.,56.5952994616207));
#1283=CARTESIAN_POINT('Origin',(-2.76313972081441,0.,53.4047005383793));
#1284=CARTESIAN_POINT('',(-2.76313972081441,-3.06278025958473,53.4047005383793));
#1285=CARTESIAN_POINT('Origin',(0.,9.95250254876012E-6,51.8094010767585));
#1286=CARTESIAN_POINT('',(-2.76313972081441,-7.,53.4047005383793));
#1287=CARTESIAN_POINT('',(-2.76313972081441,0.,53.4047005383793));
#1288=CARTESIAN_POINT('',(-2.76313972081441,-7.,53.4047005383793));
#1289=CARTESIAN_POINT('Origin',(-2.76313972081441,0.,56.5952994616207));
#1290=CARTESIAN_POINT('',(-2.76313972081439,-3.06278025958475,0.));
#1291=CARTESIAN_POINT('',(-2.76313972081441,-7.,56.5952994616207));
#1292=CARTESIAN_POINT('Origin',(0.,-7.,55.));
#1293=CARTESIAN_POINT('Origin',(-1.66533453693773E-14,0.,43.1905989232415));
#1294=CARTESIAN_POINT('',(-1.66533453693773E-14,-4.12499004749745,43.1905989232415));
#1295=CARTESIAN_POINT('',(-2.76313972081441,-3.06278025958473,41.5952994616207));
#1296=CARTESIAN_POINT('Origin',(0.,9.95250254876012E-6,43.1905989232415));
#1297=CARTESIAN_POINT('',(-1.66533453693773E-14,-7.,43.1905989232415));
#1298=CARTESIAN_POINT('',(-1.66533453693773E-14,0.,43.1905989232415));
#1299=CARTESIAN_POINT('',(-2.76313972081441,-7.,41.5952994616207));
#1300=CARTESIAN_POINT('',(-2.76313972081441,-7.,41.5952994616207));
#1301=CARTESIAN_POINT('',(-2.76313972081441,0.,41.5952994616207));
#1302=CARTESIAN_POINT('Origin',(-2.76313972081441,0.,41.5952994616207));
#1303=CARTESIAN_POINT('',(-2.76313972081441,-3.06278025958473,38.4047005383793));
#1304=CARTESIAN_POINT('',(-2.7631397208144,-3.06278025958475,0.));
#1305=CARTESIAN_POINT('',(-2.76313972081441,-7.,38.4047005383793));
#1306=CARTESIAN_POINT('',(-2.76313972081441,-7.,41.5952994616207));
#1307=CARTESIAN_POINT('',(-2.76313972081441,0.,38.4047005383793));
#1308=CARTESIAN_POINT('Origin',(-2.76313972081441,0.,38.4047005383793));
#1309=CARTESIAN_POINT('',(1.60982338570648E-14,-4.12499004749745,36.8094010767585));
#1310=CARTESIAN_POINT('Origin',(0.,9.95250254876012E-6,36.8094010767585));
#1311=CARTESIAN_POINT('',(1.60982338570648E-14,-7.,36.8094010767585));
#1312=CARTESIAN_POINT('',(-2.76313972081441,-7.,38.4047005383793));
#1313=CARTESIAN_POINT('',(1.60982338570648E-14,0.,36.8094010767585));
#1314=CARTESIAN_POINT('Origin',(1.60982338570648E-14,0.,36.8094010767585));
#1315=CARTESIAN_POINT('',(2.76313972081441,-3.06278025958473,38.4047005383793));
#1316=CARTESIAN_POINT('Origin',(0.,9.95250254876012E-6,36.8094010767585));
#1317=CARTESIAN_POINT('',(2.76313972081441,-7.,38.4047005383793));
#1318=CARTESIAN_POINT('',(2.76313972081441,-7.,38.4047005383793));
#1319=CARTESIAN_POINT('',(2.76313972081441,0.,38.4047005383793));
#1320=CARTESIAN_POINT('Origin',(2.76313972081441,0.,41.5952994616207));
#1321=CARTESIAN_POINT('',(2.76313972081441,-3.06278025958473,41.5952994616207));
#1322=CARTESIAN_POINT('Origin',(0.,9.95250254876012E-6,43.1905989232415));
#1323=CARTESIAN_POINT('',(2.76313972081441,-7.,41.5952994616207));
#1324=CARTESIAN_POINT('',(2.76313972081441,0.,41.5952994616207));
#1325=CARTESIAN_POINT('',(2.76313972081441,-7.,41.5952994616207));
#1326=CARTESIAN_POINT('Origin',(2.76313972081441,0.,38.4047005383793));
#1327=CARTESIAN_POINT('',(2.76313972081444,-3.06278025958471,0.));
#1328=CARTESIAN_POINT('',(2.76313972081441,-7.,38.4047005383793));
#1329=CARTESIAN_POINT('Origin',(0.,-7.,40.));
#1330=CARTESIAN_POINT('Origin',(-1.66533453693773E-14,0.,28.1905989232415));
#1331=CARTESIAN_POINT('',(-1.66533453693773E-14,-4.12499004749745,28.1905989232415));
#1332=CARTESIAN_POINT('',(-2.76313972081441,-3.06278025958473,26.5952994616207));
#1333=CARTESIAN_POINT('Origin',(0.,9.95250254876012E-6,28.1905989232415));
#1334=CARTESIAN_POINT('',(-1.66533453693773E-14,-7.,28.1905989232415));
#1335=CARTESIAN_POINT('',(-1.66533453693773E-14,0.,28.1905989232415));
#1336=CARTESIAN_POINT('',(-2.76313972081441,-7.,26.5952994616207));
#1337=CARTESIAN_POINT('',(-2.76313972081441,-7.,26.5952994616207));
#1338=CARTESIAN_POINT('',(-2.76313972081441,0.,26.5952994616207));
#1339=CARTESIAN_POINT('Origin',(-2.76313972081441,0.,26.5952994616207));
#1340=CARTESIAN_POINT('',(-2.76313972081441,-3.06278025958473,23.4047005383793));
#1341=CARTESIAN_POINT('',(-2.7631397208144,-3.06278025958474,0.));
#1342=CARTESIAN_POINT('',(-2.76313972081441,-7.,23.4047005383793));
#1343=CARTESIAN_POINT('',(-2.76313972081441,-7.,26.5952994616207));
#1344=CARTESIAN_POINT('',(-2.76313972081441,0.,23.4047005383793));
#1345=CARTESIAN_POINT('Origin',(-2.76313972081441,0.,23.4047005383793));
#1346=CARTESIAN_POINT('',(1.60982338570648E-14,-4.12499004749745,21.8094010767585));
#1347=CARTESIAN_POINT('Origin',(0.,9.95250254876012E-6,21.8094010767585));
#1348=CARTESIAN_POINT('',(1.60982338570648E-14,-7.,21.8094010767585));
#1349=CARTESIAN_POINT('',(-2.76313972081441,-7.,23.4047005383793));
#1350=CARTESIAN_POINT('',(1.60982338570648E-14,0.,21.8094010767585));
#1351=CARTESIAN_POINT('Origin',(1.60982338570648E-14,0.,21.8094010767585));
#1352=CARTESIAN_POINT('',(2.76313972081441,-3.06278025958473,23.4047005383793));
#1353=CARTESIAN_POINT('Origin',(0.,9.95250254876012E-6,21.8094010767585));
#1354=CARTESIAN_POINT('',(2.76313972081441,-7.,23.4047005383793));
#1355=CARTESIAN_POINT('',(2.76313972081441,-7.,23.4047005383793));
#1356=CARTESIAN_POINT('',(2.76313972081441,0.,23.4047005383793));
#1357=CARTESIAN_POINT('Origin',(2.76313972081441,0.,26.5952994616207));
#1358=CARTESIAN_POINT('',(2.76313972081441,-3.06278025958473,26.5952994616207));
#1359=CARTESIAN_POINT('Origin',(0.,9.95250254876012E-6,28.1905989232415));
#1360=CARTESIAN_POINT('',(2.76313972081441,-7.,26.5952994616207));
#1361=CARTESIAN_POINT('',(2.76313972081441,0.,26.5952994616207));
#1362=CARTESIAN_POINT('',(2.76313972081441,-7.,26.5952994616207));
#1363=CARTESIAN_POINT('Origin',(2.76313972081441,0.,23.4047005383793));
#1364=CARTESIAN_POINT('',(2.76313972081443,-3.06278025958472,0.));
#1365=CARTESIAN_POINT('',(2.76313972081441,-7.,23.4047005383793));
#1366=CARTESIAN_POINT('Origin',(0.,-7.,25.));
#1367=CARTESIAN_POINT('Origin',(0.,-1.00000004749745,80.));
#1368=CARTESIAN_POINT('',(-7.375,-1.00000004749745,80.));
#1369=CARTESIAN_POINT('Origin',(0.,-1.00000004749745,80.));
#1370=CARTESIAN_POINT('',(-7.375,-1.00000004749745,60.));
#1371=CARTESIAN_POINT('',(-7.375,-1.00000004749745,80.));
#1372=CARTESIAN_POINT('Origin',(0.,-1.00000004749745,60.));
#1373=CARTESIAN_POINT('Origin',(0.,-1.00000004749745,60.));
#1374=CARTESIAN_POINT('',(-9.375,-1.00000004749745,60.));
#1375=CARTESIAN_POINT('Origin',(0.,-1.00000004749745,60.));
#1376=CARTESIAN_POINT('Origin',(0.,-1.00000004749745,0.));
#1377=CARTESIAN_POINT('',(-7.375,-1.00000004749745,0.));
#1378=CARTESIAN_POINT('Origin',(0.,-1.00000004749745,0.));
#1379=CARTESIAN_POINT('',(-7.375,-1.00000004749745,20.));
#1380=CARTESIAN_POINT('',(-7.375,-1.00000004749745,0.));
#1381=CARTESIAN_POINT('Origin',(0.,-1.00000004749745,20.));
#1382=CARTESIAN_POINT('Origin',(0.,-1.00000004749745,20.));
#1383=CARTESIAN_POINT('',(-9.375,-1.00000004749745,20.));
#1384=CARTESIAN_POINT('Origin',(0.,-1.00000004749745,20.));
#1385=CARTESIAN_POINT('Origin',(0.,9.95250254876012E-6,0.));
#1386=CARTESIAN_POINT('',(-4.125,9.95250254825496E-6,80.));
#1387=CARTESIAN_POINT('Origin',(0.,9.95250254876012E-6,80.));
#1388=CARTESIAN_POINT('',(-4.125,9.95250254825496E-6,0.));
#1389=CARTESIAN_POINT('',(-4.125,9.95250254825496E-6,0.));
#1390=CARTESIAN_POINT('Origin',(0.,9.95250254876012E-6,0.));
#1391=CARTESIAN_POINT('Origin',(0.,-1.00000004749745,0.));
#1392=CARTESIAN_POINT('',(-9.375,-1.00000004749745,0.));
#1393=CARTESIAN_POINT('Origin',(0.,-1.00000004749745,80.));
#1394=CARTESIAN_POINT('Origin',(0.,-1.00000004749745,0.));
#1395=CARTESIAN_POINT('Origin',(0.,-6.,55.));
#1396=CARTESIAN_POINT('',(2.02253807137716E-16,-8.37025604491482,53.3));
#1397=CARTESIAN_POINT('Origin',(0.,-8.36890865697007,55.));
#1398=CARTESIAN_POINT('',(2.0818995585505E-16,-9.87025614345007,53.3));
#1399=CARTESIAN_POINT('',(2.0818995585505E-16,-6.,53.3));
#1400=CARTESIAN_POINT('Origin',(0.,-9.86890865697007,55.));
#1401=CARTESIAN_POINT('Origin',(-1.11022302462516E-15,-8.36890865697007,
55.));
#1402=CARTESIAN_POINT('',(-0.0362795518805691,-9.87128657428771,52.0002193756684));
#1403=CARTESIAN_POINT('Origin',(-1.11022302462516E-15,-9.86890865697007,
55.));
#1404=CARTESIAN_POINT('',(-0.0362795518805691,-8.37128657428771,52.0002193756684));
#1405=CARTESIAN_POINT('',(-0.0362795518805691,-8.36890865697007,52.0002193756684));
#1406=CARTESIAN_POINT('Origin',(-1.11022302462516E-15,-8.36890865697007,
55.));
#1407=CARTESIAN_POINT('Origin',(-1.11022302462516E-15,-8.36890865697007,
55.));
#1408=CARTESIAN_POINT('Origin',(-1.11022302462516E-15,-9.86890865697007,
55.));
#1409=CARTESIAN_POINT('Origin',(0.,-6.,55.));
#1410=CARTESIAN_POINT('',(2.02253807137716E-16,-8.37025604491482,53.3));
#1411=CARTESIAN_POINT('Origin',(0.,-8.36890865697007,55.));
#1412=CARTESIAN_POINT('',(2.0818995585505E-16,-10.3702561434501,53.3));
#1413=CARTESIAN_POINT('',(2.0818995585505E-16,-6.,53.3));
#1414=CARTESIAN_POINT('Origin',(0.,-10.3689086569701,55.));
#1415=CARTESIAN_POINT('Origin',(-1.11022302462516E-15,-8.36890865697007,
55.));
#1416=CARTESIAN_POINT('',(-0.0362795518805691,-10.3712865742877,52.0002193756684));
#1417=CARTESIAN_POINT('Origin',(-1.11022302462516E-15,-10.3689086569701,
55.));
#1418=CARTESIAN_POINT('',(-0.0362795518805691,-8.37128657428771,52.0002193756684));
#1419=CARTESIAN_POINT('',(-0.0362795518805691,-8.36890865697007,52.0002193756684));
#1420=CARTESIAN_POINT('Origin',(-1.11022302462516E-15,-8.36890865697007,
55.));
#1421=CARTESIAN_POINT('Origin',(-1.11022302462516E-15,-8.38079737412959,
40.));
#1422=CARTESIAN_POINT('Origin',(-1.11022302462516E-15,-10.3807973741296,
40.));
#1423=CARTESIAN_POINT('Origin',(0.,-6.,40.));
#1424=CARTESIAN_POINT('',(2.01164591307075E-16,-8.38214476207433,38.3));
#1425=CARTESIAN_POINT('Origin',(0.,-8.38079737412959,40.));
#1426=CARTESIAN_POINT('',(2.0818995585505E-16,-10.3821448606096,38.3));
#1427=CARTESIAN_POINT('',(2.0818995585505E-16,-6.,38.3));
#1428=CARTESIAN_POINT('Origin',(0.,-10.3807973741296,40.));
#1429=CARTESIAN_POINT('Origin',(-1.11022302462516E-15,-8.38079737412959,
40.));
#1430=CARTESIAN_POINT('',(-0.0362795518805691,-10.3831752914472,37.0002193756684));
#1431=CARTESIAN_POINT('Origin',(-1.11022302462516E-15,-10.3807973741296,
40.));
#1432=CARTESIAN_POINT('',(-0.0362795518805691,-8.38317529144723,37.0002193756684));
#1433=CARTESIAN_POINT('',(-0.0362795518805691,-8.38079737412959,37.0002193756684));
#1434=CARTESIAN_POINT('Origin',(-1.11022302462516E-15,-8.38079737412959,
40.));
#1435=CARTESIAN_POINT('Origin',(-1.11022302462516E-15,-8.38079737412959,
40.));
#1436=CARTESIAN_POINT('Origin',(-1.11022302462516E-15,-10.3807973741296,
40.));
#1437=CARTESIAN_POINT('Origin',(0.,-6.,25.));
#1438=CARTESIAN_POINT('',(2.00075356344846E-16,-8.39403347923385,23.3));
#1439=CARTESIAN_POINT('Origin',(0.,-8.39268609128911,25.));
#1440=CARTESIAN_POINT('',(2.0818995585505E-16,-10.3940335777691,23.3));
#1441=CARTESIAN_POINT('',(2.0818995585505E-16,-6.,23.3));
#1442=CARTESIAN_POINT('Origin',(0.,-10.3926860912891,25.));
#1443=CARTESIAN_POINT('Origin',(-1.11022302462516E-15,-8.39268609128911,
25.));
#1444=CARTESIAN_POINT('',(-0.0362795518805691,-10.3950640086067,22.0002193756684));
#1445=CARTESIAN_POINT('Origin',(-1.11022302462516E-15,-10.3926860912891,
25.));
#1446=CARTESIAN_POINT('',(-0.0362795518805691,-8.39506400860675,22.0002193756684));
#1447=CARTESIAN_POINT('',(-0.0362795518805691,-8.39268609128911,22.0002193756684));
#1448=CARTESIAN_POINT('Origin',(-1.11022302462516E-15,-8.39268609128911,
25.));
#1449=CARTESIAN_POINT('Origin',(-1.11022302462516E-15,-8.38079737412959,
40.));
#1450=CARTESIAN_POINT('Origin',(-1.11022302462516E-15,-10.3807973741296,
40.));
#1451=UNCERTAINTY_MEASURE_WITH_UNIT(LENGTH_MEASURE(0.01),#1455,
'DISTANCE_ACCURACY_VALUE',
'Maximum model space distance between geometric entities at asserted c
onnectivities');
#1452=UNCERTAINTY_MEASURE_WITH_UNIT(LENGTH_MEASURE(0.01),#1455,
'DISTANCE_ACCURACY_VALUE',
'Maximum model space distance between geometric entities at asserted c
onnectivities');
#1453=(
GEOMETRIC_REPRESENTATION_CONTEXT(3)
GLOBAL_UNCERTAINTY_ASSIGNED_CONTEXT((#1451))
GLOBAL_UNIT_ASSIGNED_CONTEXT((#1455,#1457,#1458))
REPRESENTATION_CONTEXT('','3D')
);
#1454=(
GEOMETRIC_REPRESENTATION_CONTEXT(3)
GLOBAL_UNCERTAINTY_ASSIGNED_CONTEXT((#1452))
GLOBAL_UNIT_ASSIGNED_CONTEXT((#1455,#1457,#1458))
REPRESENTATION_CONTEXT('','3D')
);
#1455=(
LENGTH_UNIT()
NAMED_UNIT(*)
SI_UNIT(.MILLI.,.METRE.)
);
#1456=(
LENGTH_UNIT()
NAMED_UNIT(*)
SI_UNIT($,.METRE.)
);
#1457=(
NAMED_UNIT(*)
PLANE_ANGLE_UNIT()
SI_UNIT($,.RADIAN.)
);
#1458=(
NAMED_UNIT(*)
SI_UNIT($,.STERADIAN.)
SOLID_ANGLE_UNIT()
);
#1459=SHAPE_DEFINITION_REPRESENTATION(#1460,#1461);
#1460=PRODUCT_DEFINITION_SHAPE('',$,#1463);
#1461=SHAPE_REPRESENTATION('',(#808),#1453);
#1462=PRODUCT_DEFINITION_CONTEXT('part definition',#1467,'design');
#1463=PRODUCT_DEFINITION('bearing_buffer_2mm_M3_Nuts',
'bearing_buffer_2mm_M3_Nuts v11',#1464,#1462);
#1464=PRODUCT_DEFINITION_FORMATION('',$,#1469);
#1465=PRODUCT_RELATED_PRODUCT_CATEGORY('bearing_buffer_2mm_M3_Nuts v11',
'bearing_buffer_2mm_M3_Nuts v11',(#1469));
#1466=APPLICATION_PROTOCOL_DEFINITION('international standard',
'automotive_design',2009,#1467);
#1467=APPLICATION_CONTEXT(
'Core Data for Automotive Mechanical Design Process');
#1468=PRODUCT_CONTEXT('part definition',#1467,'mechanical');
#1469=PRODUCT('bearing_buffer_2mm_M3_Nuts',
'bearing_buffer_2mm_M3_Nuts v11',$,(#1468));
#1470=PRESENTATION_STYLE_ASSIGNMENT((#1471));
#1471=SURFACE_STYLE_USAGE(.BOTH.,#1472);
#1472=SURFACE_SIDE_STYLE('',(#1473));
#1473=SURFACE_STYLE_FILL_AREA(#1474);
#1474=FILL_AREA_STYLE('Steel - Satin',(#1475));
#1475=FILL_AREA_STYLE_COLOUR('Steel - Satin',#1476);
#1476=COLOUR_RGB('Steel - Satin',0.627450980392157,0.627450980392157,0.627450980392157);
ENDSEC;
END-ISO-10303-21;
