ISO-10303-21;
HEADER;
/* Generated by software containing ST-Developer
 * from STEP Tools, Inc. (www.steptools.com) 
 */

FILE_DESCRIPTION(
/* description */ (''),
/* implementation_level */ '2;1');

FILE_NAME(
/* name */ 'M15_Bearing_Mount v2.step',
/* time_stamp */ '2025-07-05T12:55:54-07:00',
/* author */ (''),
/* organization */ (''),
/* preprocessor_version */ 'ST-DEVELOPER v20.1',
/* originating_system */ 'Autodesk Translation Framework v14.10.0.0',
/* authorisation */ '');

FILE_SCHEMA (('AUTOMOTIVE_DESIGN { 1 0 10303 214 3 1 1 }'));
ENDSEC;

DATA;
#10=MECHANICAL_DESIGN_GEOMETRIC_PRESENTATION_REPRESENTATION('',(#17,#18),
#2102);
#11=ITEM_DEFINED_TRANSFORMATION($,$,#1310,#1399);
#12=(
REPRESENTATION_RELATIONSHIP($,$,#2113,#2112)
REPRESENTATION_RELATIONSHIP_WITH_TRANSFORMATION(#11)
SHAPE_REPRESENTATION_RELATIONSHIP()
);
#13=CONTEXT_DEPENDENT_SHAPE_REPRESENTATION(#12,#2111);
#14=NEXT_ASSEMBLY_USAGE_OCCURRENCE('Component1:1','Component1:1',
'Component1:1',#2115,#2116,'Component1:1');
#15=SHAPE_REPRESENTATION_RELATIONSHIP('SRR','None',#2113,#16);
#16=ADVANCED_BREP_SHAPE_REPRESENTATION('',(#19,#20),#2101);
#17=STYLED_ITEM('',(#2126),#19);
#18=STYLED_ITEM('',(#2126),#20);
#19=MANIFOLD_SOLID_BREP('Body1',#1295);
#20=MANIFOLD_SOLID_BREP('Body2',#1296);
#21=CYLINDRICAL_SURFACE('',#1332,20.3657034188509);
#22=CYLINDRICAL_SURFACE('',#1338,3.25);
#23=CYLINDRICAL_SURFACE('',#1345,3.25);
#24=CYLINDRICAL_SURFACE('',#1350,3.25);
#25=CYLINDRICAL_SURFACE('',#1353,3.25);
#26=CYLINDRICAL_SURFACE('',#1378,3.25);
#27=CYLINDRICAL_SURFACE('',#1379,3.25);
#28=CYLINDRICAL_SURFACE('',#1382,19.5);
#29=CYLINDRICAL_SURFACE('',#1387,3.25);
#30=CYLINDRICAL_SURFACE('',#1390,3.25);
#31=FACE_BOUND('',#144,.T.);
#32=FACE_BOUND('',#145,.T.);
#33=FACE_BOUND('',#147,.T.);
#34=FACE_BOUND('',#153,.T.);
#35=FACE_BOUND('',#165,.T.);
#36=FACE_BOUND('',#166,.T.);
#37=FACE_BOUND('',#174,.T.);
#38=FACE_BOUND('',#175,.T.);
#39=FACE_BOUND('',#177,.T.);
#40=FACE_BOUND('',#184,.T.);
#41=FACE_BOUND('',#192,.T.);
#42=FACE_BOUND('',#200,.T.);
#43=FACE_BOUND('',#209,.T.);
#44=FACE_BOUND('',#210,.T.);
#45=FACE_BOUND('',#218,.T.);
#46=FACE_BOUND('',#219,.T.);
#47=FACE_BOUND('',#221,.T.);
#48=FACE_BOUND('',#222,.T.);
#49=CIRCLE('',#1318,20.3657034188509);
#50=CIRCLE('',#1320,3.25);
#51=CIRCLE('',#1326,3.25);
#52=CIRCLE('',#1333,20.3657034188509);
#53=CIRCLE('',#1337,3.25);
#54=CIRCLE('',#1340,19.5);
#55=CIRCLE('',#1341,3.25);
#56=CIRCLE('',#1342,3.25);
#57=CIRCLE('',#1346,3.25);
#58=CIRCLE('',#1347,3.25);
#59=CIRCLE('',#1349,3.25);
#60=CIRCLE('',#1351,3.25);
#61=CIRCLE('',#1352,3.25);
#62=CIRCLE('',#1369,3.25);
#63=CIRCLE('',#1377,3.25);
#64=CIRCLE('',#1383,19.5);
#65=CIRCLE('',#1388,3.25);
#66=CIRCLE('',#1389,3.25);
#67=CIRCLE('',#1391,3.25);
#68=CIRCLE('',#1392,3.25);
#69=FACE_OUTER_BOUND('',#137,.T.);
#70=FACE_OUTER_BOUND('',#138,.T.);
#71=FACE_OUTER_BOUND('',#139,.T.);
#72=FACE_OUTER_BOUND('',#140,.T.);
#73=FACE_OUTER_BOUND('',#141,.T.);
#74=FACE_OUTER_BOUND('',#142,.T.);
#75=FACE_OUTER_BOUND('',#143,.T.);
#76=FACE_OUTER_BOUND('',#146,.T.);
#77=FACE_OUTER_BOUND('',#148,.T.);
#78=FACE_OUTER_BOUND('',#149,.T.);
#79=FACE_OUTER_BOUND('',#150,.T.);
#80=FACE_OUTER_BOUND('',#151,.T.);
#81=FACE_OUTER_BOUND('',#152,.T.);
#82=FACE_OUTER_BOUND('',#154,.T.);
#83=FACE_OUTER_BOUND('',#155,.T.);
#84=FACE_OUTER_BOUND('',#156,.T.);
#85=FACE_OUTER_BOUND('',#157,.T.);
#86=FACE_OUTER_BOUND('',#158,.T.);
#87=FACE_OUTER_BOUND('',#159,.T.);
#88=FACE_OUTER_BOUND('',#160,.T.);
#89=FACE_OUTER_BOUND('',#161,.T.);
#90=FACE_OUTER_BOUND('',#162,.T.);
#91=FACE_OUTER_BOUND('',#163,.T.);
#92=FACE_OUTER_BOUND('',#164,.T.);
#93=FACE_OUTER_BOUND('',#167,.T.);
#94=FACE_OUTER_BOUND('',#168,.T.);
#95=FACE_OUTER_BOUND('',#169,.T.);
#96=FACE_OUTER_BOUND('',#170,.T.);
#97=FACE_OUTER_BOUND('',#171,.T.);
#98=FACE_OUTER_BOUND('',#172,.T.);
#99=FACE_OUTER_BOUND('',#173,.T.);
#100=FACE_OUTER_BOUND('',#176,.T.);
#101=FACE_OUTER_BOUND('',#178,.T.);
#102=FACE_OUTER_BOUND('',#179,.T.);
#103=FACE_OUTER_BOUND('',#180,.T.);
#104=FACE_OUTER_BOUND('',#181,.T.);
#105=FACE_OUTER_BOUND('',#182,.T.);
#106=FACE_OUTER_BOUND('',#183,.T.);
#107=FACE_OUTER_BOUND('',#185,.T.);
#108=FACE_OUTER_BOUND('',#186,.T.);
#109=FACE_OUTER_BOUND('',#187,.T.);
#110=FACE_OUTER_BOUND('',#188,.T.);
#111=FACE_OUTER_BOUND('',#189,.T.);
#112=FACE_OUTER_BOUND('',#190,.T.);
#113=FACE_OUTER_BOUND('',#191,.T.);
#114=FACE_OUTER_BOUND('',#193,.T.);
#115=FACE_OUTER_BOUND('',#194,.T.);
#116=FACE_OUTER_BOUND('',#195,.T.);
#117=FACE_OUTER_BOUND('',#196,.T.);
#118=FACE_OUTER_BOUND('',#197,.T.);
#119=FACE_OUTER_BOUND('',#198,.T.);
#120=FACE_OUTER_BOUND('',#199,.T.);
#121=FACE_OUTER_BOUND('',#201,.T.);
#122=FACE_OUTER_BOUND('',#202,.T.);
#123=FACE_OUTER_BOUND('',#203,.T.);
#124=FACE_OUTER_BOUND('',#204,.T.);
#125=FACE_OUTER_BOUND('',#205,.T.);
#126=FACE_OUTER_BOUND('',#206,.T.);
#127=FACE_OUTER_BOUND('',#207,.T.);
#128=FACE_OUTER_BOUND('',#208,.T.);
#129=FACE_OUTER_BOUND('',#211,.T.);
#130=FACE_OUTER_BOUND('',#212,.T.);
#131=FACE_OUTER_BOUND('',#213,.T.);
#132=FACE_OUTER_BOUND('',#214,.T.);
#133=FACE_OUTER_BOUND('',#215,.T.);
#134=FACE_OUTER_BOUND('',#216,.T.);
#135=FACE_OUTER_BOUND('',#217,.T.);
#136=FACE_OUTER_BOUND('',#220,.T.);
#137=EDGE_LOOP('',(#821,#822,#823,#824));
#138=EDGE_LOOP('',(#825,#826,#827,#828));
#139=EDGE_LOOP('',(#829,#830,#831,#832,#833,#834));
#140=EDGE_LOOP('',(#835,#836,#837,#838,#839,#840));
#141=EDGE_LOOP('',(#841,#842,#843,#844));
#142=EDGE_LOOP('',(#845,#846,#847,#848));
#143=EDGE_LOOP('',(#849,#850,#851,#852,#853,#854,#855,#856));
#144=EDGE_LOOP('',(#857,#858,#859,#860));
#145=EDGE_LOOP('',(#861,#862,#863,#864));
#146=EDGE_LOOP('',(#865,#866,#867,#868,#869,#870,#871,#872,#873,#874));
#147=EDGE_LOOP('',(#875));
#148=EDGE_LOOP('',(#876,#877,#878,#879));
#149=EDGE_LOOP('',(#880,#881,#882,#883));
#150=EDGE_LOOP('',(#884,#885,#886,#887));
#151=EDGE_LOOP('',(#888,#889,#890,#891));
#152=EDGE_LOOP('',(#892,#893,#894,#895,#896,#897,#898,#899));
#153=EDGE_LOOP('',(#900));
#154=EDGE_LOOP('',(#901,#902,#903,#904));
#155=EDGE_LOOP('',(#905,#906,#907,#908));
#156=EDGE_LOOP('',(#909,#910,#911,#912));
#157=EDGE_LOOP('',(#913,#914,#915,#916));
#158=EDGE_LOOP('',(#917,#918,#919,#920));
#159=EDGE_LOOP('',(#921,#922,#923,#924));
#160=EDGE_LOOP('',(#925,#926,#927,#928));
#161=EDGE_LOOP('',(#929,#930,#931,#932));
#162=EDGE_LOOP('',(#933));
#163=EDGE_LOOP('',(#934,#935,#936,#937));
#164=EDGE_LOOP('',(#938,#939,#940,#941,#942,#943,#944,#945,#946,#947,#948,
#949,#950,#951));
#165=EDGE_LOOP('',(#952));
#166=EDGE_LOOP('',(#953));
#167=EDGE_LOOP('',(#954,#955,#956,#957));
#168=EDGE_LOOP('',(#958,#959,#960,#961));
#169=EDGE_LOOP('',(#962,#963,#964,#965));
#170=EDGE_LOOP('',(#966));
#171=EDGE_LOOP('',(#967,#968,#969,#970));
#172=EDGE_LOOP('',(#971,#972,#973,#974));
#173=EDGE_LOOP('',(#975,#976,#977,#978));
#174=EDGE_LOOP('',(#979));
#175=EDGE_LOOP('',(#980));
#176=EDGE_LOOP('',(#981,#982,#983,#984,#985,#986,#987,#988));
#177=EDGE_LOOP('',(#989));
#178=EDGE_LOOP('',(#990,#991,#992,#993));
#179=EDGE_LOOP('',(#994,#995,#996,#997));
#180=EDGE_LOOP('',(#998,#999,#1000,#1001));
#181=EDGE_LOOP('',(#1002,#1003,#1004,#1005));
#182=EDGE_LOOP('',(#1006,#1007,#1008,#1009));
#183=EDGE_LOOP('',(#1010,#1011,#1012,#1013,#1014,#1015,#1016,#1017,#1018,
#1019));
#184=EDGE_LOOP('',(#1020));
#185=EDGE_LOOP('',(#1021,#1022,#1023,#1024));
#186=EDGE_LOOP('',(#1025,#1026,#1027,#1028));
#187=EDGE_LOOP('',(#1029,#1030,#1031,#1032));
#188=EDGE_LOOP('',(#1033,#1034,#1035,#1036));
#189=EDGE_LOOP('',(#1037,#1038,#1039,#1040));
#190=EDGE_LOOP('',(#1041,#1042,#1043,#1044));
#191=EDGE_LOOP('',(#1045,#1046,#1047,#1048,#1049,#1050));
#192=EDGE_LOOP('',(#1051));
#193=EDGE_LOOP('',(#1052,#1053,#1054,#1055));
#194=EDGE_LOOP('',(#1056,#1057,#1058,#1059));
#195=EDGE_LOOP('',(#1060,#1061,#1062,#1063));
#196=EDGE_LOOP('',(#1064,#1065,#1066,#1067));
#197=EDGE_LOOP('',(#1068,#1069,#1070,#1071));
#198=EDGE_LOOP('',(#1072,#1073,#1074,#1075));
#199=EDGE_LOOP('',(#1076,#1077,#1078,#1079,#1080,#1081));
#200=EDGE_LOOP('',(#1082));
#201=EDGE_LOOP('',(#1083,#1084,#1085,#1086));
#202=EDGE_LOOP('',(#1087,#1088,#1089,#1090));
#203=EDGE_LOOP('',(#1091,#1092,#1093,#1094));
#204=EDGE_LOOP('',(#1095,#1096,#1097,#1098));
#205=EDGE_LOOP('',(#1099,#1100,#1101,#1102));
#206=EDGE_LOOP('',(#1103,#1104,#1105,#1106));
#207=EDGE_LOOP('',(#1107,#1108,#1109,#1110));
#208=EDGE_LOOP('',(#1111,#1112,#1113,#1114,#1115,#1116,#1117,#1118,#1119,
#1120));
#209=EDGE_LOOP('',(#1121,#1122,#1123,#1124,#1125,#1126));
#210=EDGE_LOOP('',(#1127,#1128,#1129,#1130,#1131,#1132));
#211=EDGE_LOOP('',(#1133,#1134,#1135,#1136));
#212=EDGE_LOOP('',(#1137,#1138,#1139,#1140));
#213=EDGE_LOOP('',(#1141,#1142,#1143,#1144));
#214=EDGE_LOOP('',(#1145,#1146,#1147,#1148));
#215=EDGE_LOOP('',(#1149,#1150,#1151,#1152));
#216=EDGE_LOOP('',(#1153,#1154,#1155,#1156));
#217=EDGE_LOOP('',(#1157,#1158,#1159,#1160));
#218=EDGE_LOOP('',(#1161));
#219=EDGE_LOOP('',(#1162));
#220=EDGE_LOOP('',(#1163,#1164,#1165,#1166));
#221=EDGE_LOOP('',(#1167));
#222=EDGE_LOOP('',(#1168));
#223=LINE('',#1741,#377);
#224=LINE('',#1743,#378);
#225=LINE('',#1745,#379);
#226=LINE('',#1746,#380);
#227=LINE('',#1750,#381);
#228=LINE('',#1752,#382);
#229=LINE('',#1754,#383);
#230=LINE('',#1755,#384);
#231=LINE('',#1757,#385);
#232=LINE('',#1759,#386);
#233=LINE('',#1761,#387);
#234=LINE('',#1762,#388);
#235=LINE('',#1766,#389);
#236=LINE('',#1768,#390);
#237=LINE('',#1770,#391);
#238=LINE('',#1772,#392);
#239=LINE('',#1774,#393);
#240=LINE('',#1775,#394);
#241=LINE('',#1778,#395);
#242=LINE('',#1780,#396);
#243=LINE('',#1781,#397);
#244=LINE('',#1785,#398);
#245=LINE('',#1786,#399);
#246=LINE('',#1787,#400);
#247=LINE('',#1790,#401);
#248=LINE('',#1793,#402);
#249=LINE('',#1794,#403);
#250=LINE('',#1797,#404);
#251=LINE('',#1799,#405);
#252=LINE('',#1801,#406);
#253=LINE('',#1802,#407);
#254=LINE('',#1805,#408);
#255=LINE('',#1807,#409);
#256=LINE('',#1809,#410);
#257=LINE('',#1810,#411);
#258=LINE('',#1814,#412);
#259=LINE('',#1816,#413);
#260=LINE('',#1818,#414);
#261=LINE('',#1820,#415);
#262=LINE('',#1822,#416);
#263=LINE('',#1824,#417);
#264=LINE('',#1825,#418);
#265=LINE('',#1827,#419);
#266=LINE('',#1828,#420);
#267=LINE('',#1833,#421);
#268=LINE('',#1835,#422);
#269=LINE('',#1836,#423);
#270=LINE('',#1839,#424);
#271=LINE('',#1840,#425);
#272=LINE('',#1842,#426);
#273=LINE('',#1845,#427);
#274=LINE('',#1846,#428);
#275=LINE('',#1850,#429);
#276=LINE('',#1851,#430);
#277=LINE('',#1853,#431);
#278=LINE('',#1855,#432);
#279=LINE('',#1857,#433);
#280=LINE('',#1859,#434);
#281=LINE('',#1860,#435);
#282=LINE('',#1865,#436);
#283=LINE('',#1867,#437);
#284=LINE('',#1868,#438);
#285=LINE('',#1871,#439);
#286=LINE('',#1872,#440);
#287=LINE('',#1874,#441);
#288=LINE('',#1877,#442);
#289=LINE('',#1878,#443);
#290=LINE('',#1881,#444);
#291=LINE('',#1882,#445);
#292=LINE('',#1886,#446);
#293=LINE('',#1888,#447);
#294=LINE('',#1891,#448);
#295=LINE('',#1892,#449);
#296=LINE('',#1897,#450);
#297=LINE('',#1900,#451);
#298=LINE('',#1902,#452);
#299=LINE('',#1906,#453);
#300=LINE('',#1907,#454);
#301=LINE('',#1914,#455);
#302=LINE('',#1915,#456);
#303=LINE('',#1918,#457);
#304=LINE('',#1919,#458);
#305=LINE('',#1924,#459);
#306=LINE('',#1933,#460);
#307=LINE('',#1936,#461);
#308=LINE('',#1938,#462);
#309=LINE('',#1940,#463);
#310=LINE('',#1944,#464);
#311=LINE('',#1945,#465);
#312=LINE('',#1948,#466);
#313=LINE('',#1949,#467);
#314=LINE('',#1952,#468);
#315=LINE('',#1953,#469);
#316=LINE('',#1955,#470);
#317=LINE('',#1960,#471);
#318=LINE('',#1962,#472);
#319=LINE('',#1964,#473);
#320=LINE('',#1965,#474);
#321=LINE('',#1968,#475);
#322=LINE('',#1970,#476);
#323=LINE('',#1971,#477);
#324=LINE('',#1974,#478);
#325=LINE('',#1976,#479);
#326=LINE('',#1977,#480);
#327=LINE('',#1980,#481);
#328=LINE('',#1982,#482);
#329=LINE('',#1983,#483);
#330=LINE('',#1986,#484);
#331=LINE('',#1988,#485);
#332=LINE('',#1989,#486);
#333=LINE('',#1991,#487);
#334=LINE('',#1992,#488);
#335=LINE('',#1999,#489);
#336=LINE('',#2001,#490);
#337=LINE('',#2003,#491);
#338=LINE('',#2004,#492);
#339=LINE('',#2007,#493);
#340=LINE('',#2009,#494);
#341=LINE('',#2010,#495);
#342=LINE('',#2013,#496);
#343=LINE('',#2015,#497);
#344=LINE('',#2016,#498);
#345=LINE('',#2019,#499);
#346=LINE('',#2021,#500);
#347=LINE('',#2022,#501);
#348=LINE('',#2025,#502);
#349=LINE('',#2027,#503);
#350=LINE('',#2028,#504);
#351=LINE('',#2030,#505);
#352=LINE('',#2031,#506);
#353=LINE('',#2036,#507);
#354=LINE('',#2038,#508);
#355=LINE('',#2041,#509);
#356=LINE('',#2042,#510);
#357=LINE('',#2045,#511);
#358=LINE('',#2046,#512);
#359=LINE('',#2050,#513);
#360=LINE('',#2053,#514);
#361=LINE('',#2054,#515);
#362=LINE('',#2056,#516);
#363=LINE('',#2062,#517);
#364=LINE('',#2068,#518);
#365=LINE('',#2073,#519);
#366=LINE('',#2075,#520);
#367=LINE('',#2077,#521);
#368=LINE('',#2078,#522);
#369=LINE('',#2081,#523);
#370=LINE('',#2083,#524);
#371=LINE('',#2084,#525);
#372=LINE('',#2087,#526);
#373=LINE('',#2089,#527);
#374=LINE('',#2090,#528);
#375=LINE('',#2092,#529);
#376=LINE('',#2093,#530);
#377=VECTOR('',#1406,10.);
#378=VECTOR('',#1407,10.);
#379=VECTOR('',#1408,10.);
#380=VECTOR('',#1409,10.);
#381=VECTOR('',#1412,10.);
#382=VECTOR('',#1413,10.);
#383=VECTOR('',#1414,10.);
#384=VECTOR('',#1415,10.);
#385=VECTOR('',#1418,10.);
#386=VECTOR('',#1419,10.);
#387=VECTOR('',#1420,10.);
#388=VECTOR('',#1421,10.);
#389=VECTOR('',#1424,10.);
#390=VECTOR('',#1425,10.);
#391=VECTOR('',#1426,10.);
#392=VECTOR('',#1427,10.);
#393=VECTOR('',#1428,10.);
#394=VECTOR('',#1429,10.);
#395=VECTOR('',#1432,10.);
#396=VECTOR('',#1433,10.);
#397=VECTOR('',#1434,10.);
#398=VECTOR('',#1437,10.);
#399=VECTOR('',#1438,10.);
#400=VECTOR('',#1439,10.);
#401=VECTOR('',#1442,10.);
#402=VECTOR('',#1445,10.);
#403=VECTOR('',#1446,10.);
#404=VECTOR('',#1447,10.);
#405=VECTOR('',#1448,10.);
#406=VECTOR('',#1449,10.);
#407=VECTOR('',#1450,10.);
#408=VECTOR('',#1451,10.);
#409=VECTOR('',#1452,10.);
#410=VECTOR('',#1453,10.);
#411=VECTOR('',#1454,10.);
#412=VECTOR('',#1457,10.);
#413=VECTOR('',#1458,10.);
#414=VECTOR('',#1459,10.);
#415=VECTOR('',#1460,10.);
#416=VECTOR('',#1461,10.);
#417=VECTOR('',#1462,10.);
#418=VECTOR('',#1463,10.);
#419=VECTOR('',#1464,10.);
#420=VECTOR('',#1465,10.);
#421=VECTOR('',#1470,10.);
#422=VECTOR('',#1471,10.);
#423=VECTOR('',#1472,10.);
#424=VECTOR('',#1475,10.);
#425=VECTOR('',#1476,10.);
#426=VECTOR('',#1479,10.);
#427=VECTOR('',#1482,10.);
#428=VECTOR('',#1483,10.);
#429=VECTOR('',#1486,10.);
#430=VECTOR('',#1487,10.);
#431=VECTOR('',#1488,10.);
#432=VECTOR('',#1489,10.);
#433=VECTOR('',#1490,10.);
#434=VECTOR('',#1491,10.);
#435=VECTOR('',#1492,10.);
#436=VECTOR('',#1497,10.);
#437=VECTOR('',#1498,10.);
#438=VECTOR('',#1499,10.);
#439=VECTOR('',#1502,10.);
#440=VECTOR('',#1503,10.);
#441=VECTOR('',#1506,10.);
#442=VECTOR('',#1509,10.);
#443=VECTOR('',#1510,10.);
#444=VECTOR('',#1513,10.);
#445=VECTOR('',#1514,10.);
#446=VECTOR('',#1519,10.);
#447=VECTOR('',#1522,10.);
#448=VECTOR('',#1525,10.);
#449=VECTOR('',#1526,10.);
#450=VECTOR('',#1533,3.25);
#451=VECTOR('',#1536,10.);
#452=VECTOR('',#1537,10.);
#453=VECTOR('',#1540,10.);
#454=VECTOR('',#1541,10.);
#455=VECTOR('',#1548,10.);
#456=VECTOR('',#1549,10.);
#457=VECTOR('',#1552,10.);
#458=VECTOR('',#1553,10.);
#459=VECTOR('',#1558,3.25);
#460=VECTOR('',#1569,3.25);
#461=VECTOR('',#1574,3.25);
#462=VECTOR('',#1577,10.);
#463=VECTOR('',#1580,10.);
#464=VECTOR('',#1585,10.);
#465=VECTOR('',#1586,10.);
#466=VECTOR('',#1589,10.);
#467=VECTOR('',#1590,10.);
#468=VECTOR('',#1593,10.);
#469=VECTOR('',#1594,10.);
#470=VECTOR('',#1597,10.);
#471=VECTOR('',#1602,10.);
#472=VECTOR('',#1603,10.);
#473=VECTOR('',#1604,10.);
#474=VECTOR('',#1605,10.);
#475=VECTOR('',#1608,10.);
#476=VECTOR('',#1609,10.);
#477=VECTOR('',#1610,10.);
#478=VECTOR('',#1613,10.);
#479=VECTOR('',#1614,10.);
#480=VECTOR('',#1615,10.);
#481=VECTOR('',#1618,10.);
#482=VECTOR('',#1619,10.);
#483=VECTOR('',#1620,10.);
#484=VECTOR('',#1623,10.);
#485=VECTOR('',#1624,10.);
#486=VECTOR('',#1625,10.);
#487=VECTOR('',#1628,10.);
#488=VECTOR('',#1629,10.);
#489=VECTOR('',#1636,10.);
#490=VECTOR('',#1637,10.);
#491=VECTOR('',#1638,10.);
#492=VECTOR('',#1639,10.);
#493=VECTOR('',#1642,10.);
#494=VECTOR('',#1643,10.);
#495=VECTOR('',#1644,10.);
#496=VECTOR('',#1647,10.);
#497=VECTOR('',#1648,10.);
#498=VECTOR('',#1649,10.);
#499=VECTOR('',#1652,10.);
#500=VECTOR('',#1653,10.);
#501=VECTOR('',#1654,10.);
#502=VECTOR('',#1657,10.);
#503=VECTOR('',#1658,10.);
#504=VECTOR('',#1659,10.);
#505=VECTOR('',#1662,10.);
#506=VECTOR('',#1663,10.);
#507=VECTOR('',#1670,3.25);
#508=VECTOR('',#1673,3.25);
#509=VECTOR('',#1676,10.);
#510=VECTOR('',#1677,10.);
#511=VECTOR('',#1680,10.);
#512=VECTOR('',#1681,10.);
#513=VECTOR('',#1686,10.);
#514=VECTOR('',#1689,10.);
#515=VECTOR('',#1690,10.);
#516=VECTOR('',#1693,10.);
#517=VECTOR('',#1700,3.25);
#518=VECTOR('',#1707,3.25);
#519=VECTOR('',#1712,10.);
#520=VECTOR('',#1713,10.);
#521=VECTOR('',#1714,10.);
#522=VECTOR('',#1715,10.);
#523=VECTOR('',#1718,10.);
#524=VECTOR('',#1719,10.);
#525=VECTOR('',#1720,10.);
#526=VECTOR('',#1723,10.);
#527=VECTOR('',#1724,10.);
#528=VECTOR('',#1725,10.);
#529=VECTOR('',#1728,10.);
#530=VECTOR('',#1729,10.);
#531=VERTEX_POINT('',#1739);
#532=VERTEX_POINT('',#1740);
#533=VERTEX_POINT('',#1742);
#534=VERTEX_POINT('',#1744);
#535=VERTEX_POINT('',#1748);
#536=VERTEX_POINT('',#1749);
#537=VERTEX_POINT('',#1751);
#538=VERTEX_POINT('',#1753);
#539=VERTEX_POINT('',#1758);
#540=VERTEX_POINT('',#1760);
#541=VERTEX_POINT('',#1764);
#542=VERTEX_POINT('',#1765);
#543=VERTEX_POINT('',#1767);
#544=VERTEX_POINT('',#1769);
#545=VERTEX_POINT('',#1771);
#546=VERTEX_POINT('',#1773);
#547=VERTEX_POINT('',#1777);
#548=VERTEX_POINT('',#1779);
#549=VERTEX_POINT('',#1783);
#550=VERTEX_POINT('',#1784);
#551=VERTEX_POINT('',#1789);
#552=VERTEX_POINT('',#1791);
#553=VERTEX_POINT('',#1795);
#554=VERTEX_POINT('',#1796);
#555=VERTEX_POINT('',#1798);
#556=VERTEX_POINT('',#1800);
#557=VERTEX_POINT('',#1803);
#558=VERTEX_POINT('',#1804);
#559=VERTEX_POINT('',#1806);
#560=VERTEX_POINT('',#1808);
#561=VERTEX_POINT('',#1812);
#562=VERTEX_POINT('',#1813);
#563=VERTEX_POINT('',#1815);
#564=VERTEX_POINT('',#1817);
#565=VERTEX_POINT('',#1819);
#566=VERTEX_POINT('',#1821);
#567=VERTEX_POINT('',#1823);
#568=VERTEX_POINT('',#1826);
#569=VERTEX_POINT('',#1829);
#570=VERTEX_POINT('',#1832);
#571=VERTEX_POINT('',#1834);
#572=VERTEX_POINT('',#1838);
#573=VERTEX_POINT('',#1844);
#574=VERTEX_POINT('',#1848);
#575=VERTEX_POINT('',#1849);
#576=VERTEX_POINT('',#1852);
#577=VERTEX_POINT('',#1854);
#578=VERTEX_POINT('',#1856);
#579=VERTEX_POINT('',#1858);
#580=VERTEX_POINT('',#1861);
#581=VERTEX_POINT('',#1864);
#582=VERTEX_POINT('',#1866);
#583=VERTEX_POINT('',#1870);
#584=VERTEX_POINT('',#1876);
#585=VERTEX_POINT('',#1880);
#586=VERTEX_POINT('',#1884);
#587=VERTEX_POINT('',#1890);
#588=VERTEX_POINT('',#1894);
#589=VERTEX_POINT('',#1899);
#590=VERTEX_POINT('',#1901);
#591=VERTEX_POINT('',#1903);
#592=VERTEX_POINT('',#1905);
#593=VERTEX_POINT('',#1908);
#594=VERTEX_POINT('',#1910);
#595=VERTEX_POINT('',#1913);
#596=VERTEX_POINT('',#1917);
#597=VERTEX_POINT('',#1921);
#598=VERTEX_POINT('',#1923);
#599=VERTEX_POINT('',#1927);
#600=VERTEX_POINT('',#1930);
#601=VERTEX_POINT('',#1932);
#602=VERTEX_POINT('',#1943);
#603=VERTEX_POINT('',#1947);
#604=VERTEX_POINT('',#1951);
#605=VERTEX_POINT('',#1958);
#606=VERTEX_POINT('',#1959);
#607=VERTEX_POINT('',#1961);
#608=VERTEX_POINT('',#1963);
#609=VERTEX_POINT('',#1967);
#610=VERTEX_POINT('',#1969);
#611=VERTEX_POINT('',#1973);
#612=VERTEX_POINT('',#1975);
#613=VERTEX_POINT('',#1979);
#614=VERTEX_POINT('',#1981);
#615=VERTEX_POINT('',#1985);
#616=VERTEX_POINT('',#1987);
#617=VERTEX_POINT('',#1994);
#618=VERTEX_POINT('',#1997);
#619=VERTEX_POINT('',#1998);
#620=VERTEX_POINT('',#2000);
#621=VERTEX_POINT('',#2002);
#622=VERTEX_POINT('',#2006);
#623=VERTEX_POINT('',#2008);
#624=VERTEX_POINT('',#2012);
#625=VERTEX_POINT('',#2014);
#626=VERTEX_POINT('',#2018);
#627=VERTEX_POINT('',#2020);
#628=VERTEX_POINT('',#2024);
#629=VERTEX_POINT('',#2026);
#630=VERTEX_POINT('',#2033);
#631=VERTEX_POINT('',#2040);
#632=VERTEX_POINT('',#2044);
#633=VERTEX_POINT('',#2048);
#634=VERTEX_POINT('',#2052);
#635=VERTEX_POINT('',#2059);
#636=VERTEX_POINT('',#2061);
#637=VERTEX_POINT('',#2065);
#638=VERTEX_POINT('',#2067);
#639=VERTEX_POINT('',#2071);
#640=VERTEX_POINT('',#2072);
#641=VERTEX_POINT('',#2074);
#642=VERTEX_POINT('',#2076);
#643=VERTEX_POINT('',#2080);
#644=VERTEX_POINT('',#2082);
#645=VERTEX_POINT('',#2086);
#646=VERTEX_POINT('',#2088);
#647=EDGE_CURVE('',#531,#532,#223,.T.);
#648=EDGE_CURVE('',#533,#531,#224,.T.);
#649=EDGE_CURVE('',#534,#533,#225,.T.);
#650=EDGE_CURVE('',#532,#534,#226,.T.);
#651=EDGE_CURVE('',#535,#536,#227,.T.);
#652=EDGE_CURVE('',#537,#535,#228,.T.);
#653=EDGE_CURVE('',#537,#538,#229,.T.);
#654=EDGE_CURVE('',#538,#536,#230,.T.);
#655=EDGE_CURVE('',#535,#531,#231,.T.);
#656=EDGE_CURVE('',#532,#539,#232,.T.);
#657=EDGE_CURVE('',#540,#539,#233,.T.);
#658=EDGE_CURVE('',#537,#540,#234,.T.);
#659=EDGE_CURVE('',#541,#542,#235,.T.);
#660=EDGE_CURVE('',#542,#543,#236,.T.);
#661=EDGE_CURVE('',#544,#543,#237,.T.);
#662=EDGE_CURVE('',#544,#545,#238,.T.);
#663=EDGE_CURVE('',#545,#546,#239,.T.);
#664=EDGE_CURVE('',#546,#541,#240,.T.);
#665=EDGE_CURVE('',#547,#543,#241,.T.);
#666=EDGE_CURVE('',#548,#547,#242,.T.);
#667=EDGE_CURVE('',#544,#548,#243,.T.);
#668=EDGE_CURVE('',#549,#550,#244,.T.);
#669=EDGE_CURVE('',#550,#542,#245,.T.);
#670=EDGE_CURVE('',#549,#541,#246,.T.);
#671=EDGE_CURVE('',#551,#534,#247,.T.);
#672=EDGE_CURVE('',#552,#551,#49,.T.);
#673=EDGE_CURVE('',#549,#552,#248,.T.);
#674=EDGE_CURVE('',#539,#546,#249,.T.);
#675=EDGE_CURVE('',#553,#554,#250,.T.);
#676=EDGE_CURVE('',#555,#554,#251,.T.);
#677=EDGE_CURVE('',#555,#556,#252,.T.);
#678=EDGE_CURVE('',#556,#553,#253,.T.);
#679=EDGE_CURVE('',#557,#558,#254,.T.);
#680=EDGE_CURVE('',#558,#559,#255,.T.);
#681=EDGE_CURVE('',#559,#560,#256,.T.);
#682=EDGE_CURVE('',#557,#560,#257,.T.);
#683=EDGE_CURVE('',#561,#562,#258,.T.);
#684=EDGE_CURVE('',#563,#561,#259,.T.);
#685=EDGE_CURVE('',#564,#563,#260,.T.);
#686=EDGE_CURVE('',#565,#564,#261,.T.);
#687=EDGE_CURVE('',#566,#565,#262,.T.);
#688=EDGE_CURVE('',#567,#566,#263,.T.);
#689=EDGE_CURVE('',#555,#567,#264,.T.);
#690=EDGE_CURVE('',#568,#554,#265,.T.);
#691=EDGE_CURVE('',#562,#568,#266,.T.);
#692=EDGE_CURVE('',#569,#569,#50,.T.);
#693=EDGE_CURVE('',#570,#562,#267,.T.);
#694=EDGE_CURVE('',#570,#571,#268,.T.);
#695=EDGE_CURVE('',#571,#561,#269,.T.);
#696=EDGE_CURVE('',#568,#572,#270,.T.);
#697=EDGE_CURVE('',#572,#570,#271,.T.);
#698=EDGE_CURVE('',#572,#553,#272,.T.);
#699=EDGE_CURVE('',#573,#567,#273,.T.);
#700=EDGE_CURVE('',#556,#573,#274,.T.);
#701=EDGE_CURVE('',#574,#575,#275,.T.);
#702=EDGE_CURVE('',#557,#574,#276,.T.);
#703=EDGE_CURVE('',#576,#560,#277,.T.);
#704=EDGE_CURVE('',#577,#576,#278,.T.);
#705=EDGE_CURVE('',#578,#577,#279,.T.);
#706=EDGE_CURVE('',#579,#578,#280,.T.);
#707=EDGE_CURVE('',#575,#579,#281,.T.);
#708=EDGE_CURVE('',#580,#580,#51,.T.);
#709=EDGE_CURVE('',#581,#577,#282,.T.);
#710=EDGE_CURVE('',#582,#581,#283,.T.);
#711=EDGE_CURVE('',#582,#578,#284,.T.);
#712=EDGE_CURVE('',#583,#576,#285,.T.);
#713=EDGE_CURVE('',#581,#583,#286,.T.);
#714=EDGE_CURVE('',#559,#583,#287,.T.);
#715=EDGE_CURVE('',#584,#574,#288,.T.);
#716=EDGE_CURVE('',#584,#558,#289,.T.);
#717=EDGE_CURVE('',#585,#533,#290,.T.);
#718=EDGE_CURVE('',#551,#585,#291,.T.);
#719=EDGE_CURVE('',#586,#585,#52,.T.);
#720=EDGE_CURVE('',#552,#586,#292,.T.);
#721=EDGE_CURVE('',#550,#586,#293,.T.);
#722=EDGE_CURVE('',#587,#582,#294,.T.);
#723=EDGE_CURVE('',#587,#579,#295,.T.);
#724=EDGE_CURVE('',#588,#588,#53,.T.);
#725=EDGE_CURVE('',#580,#588,#296,.T.);
#726=EDGE_CURVE('',#536,#589,#297,.T.);
#727=EDGE_CURVE('',#589,#590,#298,.T.);
#728=EDGE_CURVE('',#590,#591,#54,.T.);
#729=EDGE_CURVE('',#591,#592,#299,.T.);
#730=EDGE_CURVE('',#592,#547,#300,.T.);
#731=EDGE_CURVE('',#593,#593,#55,.T.);
#732=EDGE_CURVE('',#594,#594,#56,.T.);
#733=EDGE_CURVE('',#566,#595,#301,.T.);
#734=EDGE_CURVE('',#595,#573,#302,.T.);
#735=EDGE_CURVE('',#575,#596,#303,.T.);
#736=EDGE_CURVE('',#596,#584,#304,.T.);
#737=EDGE_CURVE('',#597,#597,#57,.T.);
#738=EDGE_CURVE('',#597,#598,#305,.T.);
#739=EDGE_CURVE('',#598,#598,#58,.T.);
#740=EDGE_CURVE('',#599,#599,#59,.T.);
#741=EDGE_CURVE('',#600,#600,#60,.T.);
#742=EDGE_CURVE('',#600,#601,#306,.T.);
#743=EDGE_CURVE('',#601,#601,#61,.T.);
#744=EDGE_CURVE('',#569,#599,#307,.T.);
#745=EDGE_CURVE('',#540,#545,#308,.T.);
#746=EDGE_CURVE('',#596,#587,#309,.T.);
#747=EDGE_CURVE('',#571,#602,#310,.T.);
#748=EDGE_CURVE('',#602,#563,#311,.T.);
#749=EDGE_CURVE('',#602,#603,#312,.T.);
#750=EDGE_CURVE('',#603,#564,#313,.T.);
#751=EDGE_CURVE('',#603,#604,#314,.T.);
#752=EDGE_CURVE('',#604,#565,#315,.T.);
#753=EDGE_CURVE('',#604,#595,#316,.T.);
#754=EDGE_CURVE('',#605,#606,#317,.T.);
#755=EDGE_CURVE('',#605,#607,#318,.T.);
#756=EDGE_CURVE('',#607,#608,#319,.T.);
#757=EDGE_CURVE('',#606,#608,#320,.T.);
#758=EDGE_CURVE('',#609,#605,#321,.T.);
#759=EDGE_CURVE('',#609,#610,#322,.T.);
#760=EDGE_CURVE('',#610,#607,#323,.T.);
#761=EDGE_CURVE('',#611,#609,#324,.T.);
#762=EDGE_CURVE('',#611,#612,#325,.T.);
#763=EDGE_CURVE('',#612,#610,#326,.T.);
#764=EDGE_CURVE('',#613,#611,#327,.T.);
#765=EDGE_CURVE('',#613,#614,#328,.T.);
#766=EDGE_CURVE('',#614,#612,#329,.T.);
#767=EDGE_CURVE('',#615,#613,#330,.T.);
#768=EDGE_CURVE('',#615,#616,#331,.T.);
#769=EDGE_CURVE('',#616,#614,#332,.T.);
#770=EDGE_CURVE('',#606,#615,#333,.T.);
#771=EDGE_CURVE('',#608,#616,#334,.T.);
#772=EDGE_CURVE('',#617,#617,#62,.T.);
#773=EDGE_CURVE('',#618,#619,#335,.T.);
#774=EDGE_CURVE('',#618,#620,#336,.T.);
#775=EDGE_CURVE('',#620,#621,#337,.T.);
#776=EDGE_CURVE('',#619,#621,#338,.T.);
#777=EDGE_CURVE('',#622,#618,#339,.T.);
#778=EDGE_CURVE('',#622,#623,#340,.T.);
#779=EDGE_CURVE('',#623,#620,#341,.T.);
#780=EDGE_CURVE('',#624,#622,#342,.T.);
#781=EDGE_CURVE('',#624,#625,#343,.T.);
#782=EDGE_CURVE('',#625,#623,#344,.T.);
#783=EDGE_CURVE('',#626,#624,#345,.T.);
#784=EDGE_CURVE('',#626,#627,#346,.T.);
#785=EDGE_CURVE('',#627,#625,#347,.T.);
#786=EDGE_CURVE('',#628,#626,#348,.T.);
#787=EDGE_CURVE('',#628,#629,#349,.T.);
#788=EDGE_CURVE('',#629,#627,#350,.T.);
#789=EDGE_CURVE('',#619,#628,#351,.T.);
#790=EDGE_CURVE('',#621,#629,#352,.T.);
#791=EDGE_CURVE('',#630,#630,#63,.T.);
#792=EDGE_CURVE('',#594,#617,#353,.T.);
#793=EDGE_CURVE('',#593,#630,#354,.T.);
#794=EDGE_CURVE('',#548,#631,#355,.T.);
#795=EDGE_CURVE('',#631,#592,#356,.T.);
#796=EDGE_CURVE('',#631,#632,#357,.T.);
#797=EDGE_CURVE('',#632,#591,#358,.T.);
#798=EDGE_CURVE('',#633,#632,#64,.T.);
#799=EDGE_CURVE('',#633,#590,#359,.T.);
#800=EDGE_CURVE('',#634,#633,#360,.T.);
#801=EDGE_CURVE('',#634,#589,#361,.T.);
#802=EDGE_CURVE('',#538,#634,#362,.T.);
#803=EDGE_CURVE('',#635,#635,#65,.T.);
#804=EDGE_CURVE('',#635,#636,#363,.T.);
#805=EDGE_CURVE('',#636,#636,#66,.T.);
#806=EDGE_CURVE('',#637,#637,#67,.T.);
#807=EDGE_CURVE('',#637,#638,#364,.T.);
#808=EDGE_CURVE('',#638,#638,#68,.T.);
#809=EDGE_CURVE('',#639,#640,#365,.T.);
#810=EDGE_CURVE('',#640,#641,#366,.T.);
#811=EDGE_CURVE('',#642,#641,#367,.T.);
#812=EDGE_CURVE('',#639,#642,#368,.T.);
#813=EDGE_CURVE('',#643,#639,#369,.T.);
#814=EDGE_CURVE('',#644,#642,#370,.T.);
#815=EDGE_CURVE('',#643,#644,#371,.T.);
#816=EDGE_CURVE('',#643,#645,#372,.T.);
#817=EDGE_CURVE('',#646,#644,#373,.T.);
#818=EDGE_CURVE('',#645,#646,#374,.T.);
#819=EDGE_CURVE('',#645,#640,#375,.T.);
#820=EDGE_CURVE('',#641,#646,#376,.T.);
#821=ORIENTED_EDGE('',*,*,#647,.F.);
#822=ORIENTED_EDGE('',*,*,#648,.F.);
#823=ORIENTED_EDGE('',*,*,#649,.F.);
#824=ORIENTED_EDGE('',*,*,#650,.F.);
#825=ORIENTED_EDGE('',*,*,#651,.F.);
#826=ORIENTED_EDGE('',*,*,#652,.F.);
#827=ORIENTED_EDGE('',*,*,#653,.T.);
#828=ORIENTED_EDGE('',*,*,#654,.T.);
#829=ORIENTED_EDGE('',*,*,#655,.T.);
#830=ORIENTED_EDGE('',*,*,#647,.T.);
#831=ORIENTED_EDGE('',*,*,#656,.T.);
#832=ORIENTED_EDGE('',*,*,#657,.F.);
#833=ORIENTED_EDGE('',*,*,#658,.F.);
#834=ORIENTED_EDGE('',*,*,#652,.T.);
#835=ORIENTED_EDGE('',*,*,#659,.T.);
#836=ORIENTED_EDGE('',*,*,#660,.T.);
#837=ORIENTED_EDGE('',*,*,#661,.F.);
#838=ORIENTED_EDGE('',*,*,#662,.T.);
#839=ORIENTED_EDGE('',*,*,#663,.T.);
#840=ORIENTED_EDGE('',*,*,#664,.T.);
#841=ORIENTED_EDGE('',*,*,#665,.F.);
#842=ORIENTED_EDGE('',*,*,#666,.F.);
#843=ORIENTED_EDGE('',*,*,#667,.F.);
#844=ORIENTED_EDGE('',*,*,#661,.T.);
#845=ORIENTED_EDGE('',*,*,#668,.T.);
#846=ORIENTED_EDGE('',*,*,#669,.T.);
#847=ORIENTED_EDGE('',*,*,#659,.F.);
#848=ORIENTED_EDGE('',*,*,#670,.F.);
#849=ORIENTED_EDGE('',*,*,#650,.T.);
#850=ORIENTED_EDGE('',*,*,#671,.F.);
#851=ORIENTED_EDGE('',*,*,#672,.F.);
#852=ORIENTED_EDGE('',*,*,#673,.F.);
#853=ORIENTED_EDGE('',*,*,#670,.T.);
#854=ORIENTED_EDGE('',*,*,#664,.F.);
#855=ORIENTED_EDGE('',*,*,#674,.F.);
#856=ORIENTED_EDGE('',*,*,#656,.F.);
#857=ORIENTED_EDGE('',*,*,#675,.T.);
#858=ORIENTED_EDGE('',*,*,#676,.F.);
#859=ORIENTED_EDGE('',*,*,#677,.T.);
#860=ORIENTED_EDGE('',*,*,#678,.T.);
#861=ORIENTED_EDGE('',*,*,#679,.T.);
#862=ORIENTED_EDGE('',*,*,#680,.T.);
#863=ORIENTED_EDGE('',*,*,#681,.T.);
#864=ORIENTED_EDGE('',*,*,#682,.F.);
#865=ORIENTED_EDGE('',*,*,#683,.F.);
#866=ORIENTED_EDGE('',*,*,#684,.F.);
#867=ORIENTED_EDGE('',*,*,#685,.F.);
#868=ORIENTED_EDGE('',*,*,#686,.F.);
#869=ORIENTED_EDGE('',*,*,#687,.F.);
#870=ORIENTED_EDGE('',*,*,#688,.F.);
#871=ORIENTED_EDGE('',*,*,#689,.F.);
#872=ORIENTED_EDGE('',*,*,#676,.T.);
#873=ORIENTED_EDGE('',*,*,#690,.F.);
#874=ORIENTED_EDGE('',*,*,#691,.F.);
#875=ORIENTED_EDGE('',*,*,#692,.T.);
#876=ORIENTED_EDGE('',*,*,#683,.T.);
#877=ORIENTED_EDGE('',*,*,#693,.F.);
#878=ORIENTED_EDGE('',*,*,#694,.T.);
#879=ORIENTED_EDGE('',*,*,#695,.T.);
#880=ORIENTED_EDGE('',*,*,#691,.T.);
#881=ORIENTED_EDGE('',*,*,#696,.T.);
#882=ORIENTED_EDGE('',*,*,#697,.T.);
#883=ORIENTED_EDGE('',*,*,#693,.T.);
#884=ORIENTED_EDGE('',*,*,#690,.T.);
#885=ORIENTED_EDGE('',*,*,#675,.F.);
#886=ORIENTED_EDGE('',*,*,#698,.F.);
#887=ORIENTED_EDGE('',*,*,#696,.F.);
#888=ORIENTED_EDGE('',*,*,#689,.T.);
#889=ORIENTED_EDGE('',*,*,#699,.F.);
#890=ORIENTED_EDGE('',*,*,#700,.F.);
#891=ORIENTED_EDGE('',*,*,#677,.F.);
#892=ORIENTED_EDGE('',*,*,#701,.F.);
#893=ORIENTED_EDGE('',*,*,#702,.F.);
#894=ORIENTED_EDGE('',*,*,#682,.T.);
#895=ORIENTED_EDGE('',*,*,#703,.F.);
#896=ORIENTED_EDGE('',*,*,#704,.F.);
#897=ORIENTED_EDGE('',*,*,#705,.F.);
#898=ORIENTED_EDGE('',*,*,#706,.F.);
#899=ORIENTED_EDGE('',*,*,#707,.F.);
#900=ORIENTED_EDGE('',*,*,#708,.T.);
#901=ORIENTED_EDGE('',*,*,#705,.T.);
#902=ORIENTED_EDGE('',*,*,#709,.F.);
#903=ORIENTED_EDGE('',*,*,#710,.F.);
#904=ORIENTED_EDGE('',*,*,#711,.T.);
#905=ORIENTED_EDGE('',*,*,#704,.T.);
#906=ORIENTED_EDGE('',*,*,#712,.F.);
#907=ORIENTED_EDGE('',*,*,#713,.F.);
#908=ORIENTED_EDGE('',*,*,#709,.T.);
#909=ORIENTED_EDGE('',*,*,#703,.T.);
#910=ORIENTED_EDGE('',*,*,#681,.F.);
#911=ORIENTED_EDGE('',*,*,#714,.T.);
#912=ORIENTED_EDGE('',*,*,#712,.T.);
#913=ORIENTED_EDGE('',*,*,#702,.T.);
#914=ORIENTED_EDGE('',*,*,#715,.F.);
#915=ORIENTED_EDGE('',*,*,#716,.T.);
#916=ORIENTED_EDGE('',*,*,#679,.F.);
#917=ORIENTED_EDGE('',*,*,#717,.F.);
#918=ORIENTED_EDGE('',*,*,#718,.F.);
#919=ORIENTED_EDGE('',*,*,#671,.T.);
#920=ORIENTED_EDGE('',*,*,#649,.T.);
#921=ORIENTED_EDGE('',*,*,#719,.F.);
#922=ORIENTED_EDGE('',*,*,#720,.F.);
#923=ORIENTED_EDGE('',*,*,#672,.T.);
#924=ORIENTED_EDGE('',*,*,#718,.T.);
#925=ORIENTED_EDGE('',*,*,#721,.F.);
#926=ORIENTED_EDGE('',*,*,#668,.F.);
#927=ORIENTED_EDGE('',*,*,#673,.T.);
#928=ORIENTED_EDGE('',*,*,#720,.T.);
#929=ORIENTED_EDGE('',*,*,#706,.T.);
#930=ORIENTED_EDGE('',*,*,#711,.F.);
#931=ORIENTED_EDGE('',*,*,#722,.F.);
#932=ORIENTED_EDGE('',*,*,#723,.T.);
#933=ORIENTED_EDGE('',*,*,#724,.F.);
#934=ORIENTED_EDGE('',*,*,#708,.F.);
#935=ORIENTED_EDGE('',*,*,#725,.T.);
#936=ORIENTED_EDGE('',*,*,#724,.T.);
#937=ORIENTED_EDGE('',*,*,#725,.F.);
#938=ORIENTED_EDGE('',*,*,#721,.T.);
#939=ORIENTED_EDGE('',*,*,#719,.T.);
#940=ORIENTED_EDGE('',*,*,#717,.T.);
#941=ORIENTED_EDGE('',*,*,#648,.T.);
#942=ORIENTED_EDGE('',*,*,#655,.F.);
#943=ORIENTED_EDGE('',*,*,#651,.T.);
#944=ORIENTED_EDGE('',*,*,#726,.T.);
#945=ORIENTED_EDGE('',*,*,#727,.T.);
#946=ORIENTED_EDGE('',*,*,#728,.T.);
#947=ORIENTED_EDGE('',*,*,#729,.T.);
#948=ORIENTED_EDGE('',*,*,#730,.T.);
#949=ORIENTED_EDGE('',*,*,#665,.T.);
#950=ORIENTED_EDGE('',*,*,#660,.F.);
#951=ORIENTED_EDGE('',*,*,#669,.F.);
#952=ORIENTED_EDGE('',*,*,#731,.T.);
#953=ORIENTED_EDGE('',*,*,#732,.T.);
#954=ORIENTED_EDGE('',*,*,#688,.T.);
#955=ORIENTED_EDGE('',*,*,#733,.T.);
#956=ORIENTED_EDGE('',*,*,#734,.T.);
#957=ORIENTED_EDGE('',*,*,#699,.T.);
#958=ORIENTED_EDGE('',*,*,#701,.T.);
#959=ORIENTED_EDGE('',*,*,#735,.T.);
#960=ORIENTED_EDGE('',*,*,#736,.T.);
#961=ORIENTED_EDGE('',*,*,#715,.T.);
#962=ORIENTED_EDGE('',*,*,#737,.F.);
#963=ORIENTED_EDGE('',*,*,#738,.T.);
#964=ORIENTED_EDGE('',*,*,#739,.F.);
#965=ORIENTED_EDGE('',*,*,#738,.F.);
#966=ORIENTED_EDGE('',*,*,#740,.F.);
#967=ORIENTED_EDGE('',*,*,#741,.F.);
#968=ORIENTED_EDGE('',*,*,#742,.T.);
#969=ORIENTED_EDGE('',*,*,#743,.F.);
#970=ORIENTED_EDGE('',*,*,#742,.F.);
#971=ORIENTED_EDGE('',*,*,#692,.F.);
#972=ORIENTED_EDGE('',*,*,#744,.T.);
#973=ORIENTED_EDGE('',*,*,#740,.T.);
#974=ORIENTED_EDGE('',*,*,#744,.F.);
#975=ORIENTED_EDGE('',*,*,#663,.F.);
#976=ORIENTED_EDGE('',*,*,#745,.F.);
#977=ORIENTED_EDGE('',*,*,#657,.T.);
#978=ORIENTED_EDGE('',*,*,#674,.T.);
#979=ORIENTED_EDGE('',*,*,#737,.T.);
#980=ORIENTED_EDGE('',*,*,#741,.T.);
#981=ORIENTED_EDGE('',*,*,#746,.T.);
#982=ORIENTED_EDGE('',*,*,#722,.T.);
#983=ORIENTED_EDGE('',*,*,#710,.T.);
#984=ORIENTED_EDGE('',*,*,#713,.T.);
#985=ORIENTED_EDGE('',*,*,#714,.F.);
#986=ORIENTED_EDGE('',*,*,#680,.F.);
#987=ORIENTED_EDGE('',*,*,#716,.F.);
#988=ORIENTED_EDGE('',*,*,#736,.F.);
#989=ORIENTED_EDGE('',*,*,#739,.T.);
#990=ORIENTED_EDGE('',*,*,#707,.T.);
#991=ORIENTED_EDGE('',*,*,#723,.F.);
#992=ORIENTED_EDGE('',*,*,#746,.F.);
#993=ORIENTED_EDGE('',*,*,#735,.F.);
#994=ORIENTED_EDGE('',*,*,#684,.T.);
#995=ORIENTED_EDGE('',*,*,#695,.F.);
#996=ORIENTED_EDGE('',*,*,#747,.T.);
#997=ORIENTED_EDGE('',*,*,#748,.T.);
#998=ORIENTED_EDGE('',*,*,#685,.T.);
#999=ORIENTED_EDGE('',*,*,#748,.F.);
#1000=ORIENTED_EDGE('',*,*,#749,.T.);
#1001=ORIENTED_EDGE('',*,*,#750,.T.);
#1002=ORIENTED_EDGE('',*,*,#686,.T.);
#1003=ORIENTED_EDGE('',*,*,#750,.F.);
#1004=ORIENTED_EDGE('',*,*,#751,.T.);
#1005=ORIENTED_EDGE('',*,*,#752,.T.);
#1006=ORIENTED_EDGE('',*,*,#687,.T.);
#1007=ORIENTED_EDGE('',*,*,#752,.F.);
#1008=ORIENTED_EDGE('',*,*,#753,.T.);
#1009=ORIENTED_EDGE('',*,*,#733,.F.);
#1010=ORIENTED_EDGE('',*,*,#697,.F.);
#1011=ORIENTED_EDGE('',*,*,#698,.T.);
#1012=ORIENTED_EDGE('',*,*,#678,.F.);
#1013=ORIENTED_EDGE('',*,*,#700,.T.);
#1014=ORIENTED_EDGE('',*,*,#734,.F.);
#1015=ORIENTED_EDGE('',*,*,#753,.F.);
#1016=ORIENTED_EDGE('',*,*,#751,.F.);
#1017=ORIENTED_EDGE('',*,*,#749,.F.);
#1018=ORIENTED_EDGE('',*,*,#747,.F.);
#1019=ORIENTED_EDGE('',*,*,#694,.F.);
#1020=ORIENTED_EDGE('',*,*,#743,.T.);
#1021=ORIENTED_EDGE('',*,*,#754,.F.);
#1022=ORIENTED_EDGE('',*,*,#755,.T.);
#1023=ORIENTED_EDGE('',*,*,#756,.T.);
#1024=ORIENTED_EDGE('',*,*,#757,.F.);
#1025=ORIENTED_EDGE('',*,*,#758,.F.);
#1026=ORIENTED_EDGE('',*,*,#759,.T.);
#1027=ORIENTED_EDGE('',*,*,#760,.T.);
#1028=ORIENTED_EDGE('',*,*,#755,.F.);
#1029=ORIENTED_EDGE('',*,*,#761,.F.);
#1030=ORIENTED_EDGE('',*,*,#762,.T.);
#1031=ORIENTED_EDGE('',*,*,#763,.T.);
#1032=ORIENTED_EDGE('',*,*,#759,.F.);
#1033=ORIENTED_EDGE('',*,*,#764,.F.);
#1034=ORIENTED_EDGE('',*,*,#765,.T.);
#1035=ORIENTED_EDGE('',*,*,#766,.T.);
#1036=ORIENTED_EDGE('',*,*,#762,.F.);
#1037=ORIENTED_EDGE('',*,*,#767,.F.);
#1038=ORIENTED_EDGE('',*,*,#768,.T.);
#1039=ORIENTED_EDGE('',*,*,#769,.T.);
#1040=ORIENTED_EDGE('',*,*,#765,.F.);
#1041=ORIENTED_EDGE('',*,*,#770,.F.);
#1042=ORIENTED_EDGE('',*,*,#757,.T.);
#1043=ORIENTED_EDGE('',*,*,#771,.T.);
#1044=ORIENTED_EDGE('',*,*,#768,.F.);
#1045=ORIENTED_EDGE('',*,*,#771,.F.);
#1046=ORIENTED_EDGE('',*,*,#756,.F.);
#1047=ORIENTED_EDGE('',*,*,#760,.F.);
#1048=ORIENTED_EDGE('',*,*,#763,.F.);
#1049=ORIENTED_EDGE('',*,*,#766,.F.);
#1050=ORIENTED_EDGE('',*,*,#769,.F.);
#1051=ORIENTED_EDGE('',*,*,#772,.F.);
#1052=ORIENTED_EDGE('',*,*,#773,.F.);
#1053=ORIENTED_EDGE('',*,*,#774,.T.);
#1054=ORIENTED_EDGE('',*,*,#775,.T.);
#1055=ORIENTED_EDGE('',*,*,#776,.F.);
#1056=ORIENTED_EDGE('',*,*,#777,.F.);
#1057=ORIENTED_EDGE('',*,*,#778,.T.);
#1058=ORIENTED_EDGE('',*,*,#779,.T.);
#1059=ORIENTED_EDGE('',*,*,#774,.F.);
#1060=ORIENTED_EDGE('',*,*,#780,.F.);
#1061=ORIENTED_EDGE('',*,*,#781,.T.);
#1062=ORIENTED_EDGE('',*,*,#782,.T.);
#1063=ORIENTED_EDGE('',*,*,#778,.F.);
#1064=ORIENTED_EDGE('',*,*,#783,.F.);
#1065=ORIENTED_EDGE('',*,*,#784,.T.);
#1066=ORIENTED_EDGE('',*,*,#785,.T.);
#1067=ORIENTED_EDGE('',*,*,#781,.F.);
#1068=ORIENTED_EDGE('',*,*,#786,.F.);
#1069=ORIENTED_EDGE('',*,*,#787,.T.);
#1070=ORIENTED_EDGE('',*,*,#788,.T.);
#1071=ORIENTED_EDGE('',*,*,#784,.F.);
#1072=ORIENTED_EDGE('',*,*,#789,.F.);
#1073=ORIENTED_EDGE('',*,*,#776,.T.);
#1074=ORIENTED_EDGE('',*,*,#790,.T.);
#1075=ORIENTED_EDGE('',*,*,#787,.F.);
#1076=ORIENTED_EDGE('',*,*,#790,.F.);
#1077=ORIENTED_EDGE('',*,*,#775,.F.);
#1078=ORIENTED_EDGE('',*,*,#779,.F.);
#1079=ORIENTED_EDGE('',*,*,#782,.F.);
#1080=ORIENTED_EDGE('',*,*,#785,.F.);
#1081=ORIENTED_EDGE('',*,*,#788,.F.);
#1082=ORIENTED_EDGE('',*,*,#791,.F.);
#1083=ORIENTED_EDGE('',*,*,#732,.F.);
#1084=ORIENTED_EDGE('',*,*,#792,.T.);
#1085=ORIENTED_EDGE('',*,*,#772,.T.);
#1086=ORIENTED_EDGE('',*,*,#792,.F.);
#1087=ORIENTED_EDGE('',*,*,#731,.F.);
#1088=ORIENTED_EDGE('',*,*,#793,.T.);
#1089=ORIENTED_EDGE('',*,*,#791,.T.);
#1090=ORIENTED_EDGE('',*,*,#793,.F.);
#1091=ORIENTED_EDGE('',*,*,#794,.F.);
#1092=ORIENTED_EDGE('',*,*,#666,.T.);
#1093=ORIENTED_EDGE('',*,*,#730,.F.);
#1094=ORIENTED_EDGE('',*,*,#795,.F.);
#1095=ORIENTED_EDGE('',*,*,#796,.F.);
#1096=ORIENTED_EDGE('',*,*,#795,.T.);
#1097=ORIENTED_EDGE('',*,*,#729,.F.);
#1098=ORIENTED_EDGE('',*,*,#797,.F.);
#1099=ORIENTED_EDGE('',*,*,#798,.T.);
#1100=ORIENTED_EDGE('',*,*,#797,.T.);
#1101=ORIENTED_EDGE('',*,*,#728,.F.);
#1102=ORIENTED_EDGE('',*,*,#799,.F.);
#1103=ORIENTED_EDGE('',*,*,#800,.T.);
#1104=ORIENTED_EDGE('',*,*,#799,.T.);
#1105=ORIENTED_EDGE('',*,*,#727,.F.);
#1106=ORIENTED_EDGE('',*,*,#801,.F.);
#1107=ORIENTED_EDGE('',*,*,#802,.T.);
#1108=ORIENTED_EDGE('',*,*,#801,.T.);
#1109=ORIENTED_EDGE('',*,*,#726,.F.);
#1110=ORIENTED_EDGE('',*,*,#654,.F.);
#1111=ORIENTED_EDGE('',*,*,#653,.F.);
#1112=ORIENTED_EDGE('',*,*,#658,.T.);
#1113=ORIENTED_EDGE('',*,*,#745,.T.);
#1114=ORIENTED_EDGE('',*,*,#662,.F.);
#1115=ORIENTED_EDGE('',*,*,#667,.T.);
#1116=ORIENTED_EDGE('',*,*,#794,.T.);
#1117=ORIENTED_EDGE('',*,*,#796,.T.);
#1118=ORIENTED_EDGE('',*,*,#798,.F.);
#1119=ORIENTED_EDGE('',*,*,#800,.F.);
#1120=ORIENTED_EDGE('',*,*,#802,.F.);
#1121=ORIENTED_EDGE('',*,*,#754,.T.);
#1122=ORIENTED_EDGE('',*,*,#770,.T.);
#1123=ORIENTED_EDGE('',*,*,#767,.T.);
#1124=ORIENTED_EDGE('',*,*,#764,.T.);
#1125=ORIENTED_EDGE('',*,*,#761,.T.);
#1126=ORIENTED_EDGE('',*,*,#758,.T.);
#1127=ORIENTED_EDGE('',*,*,#773,.T.);
#1128=ORIENTED_EDGE('',*,*,#789,.T.);
#1129=ORIENTED_EDGE('',*,*,#786,.T.);
#1130=ORIENTED_EDGE('',*,*,#783,.T.);
#1131=ORIENTED_EDGE('',*,*,#780,.T.);
#1132=ORIENTED_EDGE('',*,*,#777,.T.);
#1133=ORIENTED_EDGE('',*,*,#803,.F.);
#1134=ORIENTED_EDGE('',*,*,#804,.T.);
#1135=ORIENTED_EDGE('',*,*,#805,.T.);
#1136=ORIENTED_EDGE('',*,*,#804,.F.);
#1137=ORIENTED_EDGE('',*,*,#806,.F.);
#1138=ORIENTED_EDGE('',*,*,#807,.T.);
#1139=ORIENTED_EDGE('',*,*,#808,.T.);
#1140=ORIENTED_EDGE('',*,*,#807,.F.);
#1141=ORIENTED_EDGE('',*,*,#809,.T.);
#1142=ORIENTED_EDGE('',*,*,#810,.T.);
#1143=ORIENTED_EDGE('',*,*,#811,.F.);
#1144=ORIENTED_EDGE('',*,*,#812,.F.);
#1145=ORIENTED_EDGE('',*,*,#813,.T.);
#1146=ORIENTED_EDGE('',*,*,#812,.T.);
#1147=ORIENTED_EDGE('',*,*,#814,.F.);
#1148=ORIENTED_EDGE('',*,*,#815,.F.);
#1149=ORIENTED_EDGE('',*,*,#816,.F.);
#1150=ORIENTED_EDGE('',*,*,#815,.T.);
#1151=ORIENTED_EDGE('',*,*,#817,.F.);
#1152=ORIENTED_EDGE('',*,*,#818,.F.);
#1153=ORIENTED_EDGE('',*,*,#819,.F.);
#1154=ORIENTED_EDGE('',*,*,#818,.T.);
#1155=ORIENTED_EDGE('',*,*,#820,.F.);
#1156=ORIENTED_EDGE('',*,*,#810,.F.);
#1157=ORIENTED_EDGE('',*,*,#820,.T.);
#1158=ORIENTED_EDGE('',*,*,#817,.T.);
#1159=ORIENTED_EDGE('',*,*,#814,.T.);
#1160=ORIENTED_EDGE('',*,*,#811,.T.);
#1161=ORIENTED_EDGE('',*,*,#806,.T.);
#1162=ORIENTED_EDGE('',*,*,#803,.T.);
#1163=ORIENTED_EDGE('',*,*,#819,.T.);
#1164=ORIENTED_EDGE('',*,*,#809,.F.);
#1165=ORIENTED_EDGE('',*,*,#813,.F.);
#1166=ORIENTED_EDGE('',*,*,#816,.T.);
#1167=ORIENTED_EDGE('',*,*,#808,.F.);
#1168=ORIENTED_EDGE('',*,*,#805,.F.);
#1169=PLANE('',#1311);
#1170=PLANE('',#1312);
#1171=PLANE('',#1313);
#1172=PLANE('',#1314);
#1173=PLANE('',#1315);
#1174=PLANE('',#1316);
#1175=PLANE('',#1317);
#1176=PLANE('',#1319);
#1177=PLANE('',#1321);
#1178=PLANE('',#1322);
#1179=PLANE('',#1323);
#1180=PLANE('',#1324);
#1181=PLANE('',#1325);
#1182=PLANE('',#1327);
#1183=PLANE('',#1328);
#1184=PLANE('',#1329);
#1185=PLANE('',#1330);
#1186=PLANE('',#1331);
#1187=PLANE('',#1334);
#1188=PLANE('',#1335);
#1189=PLANE('',#1336);
#1190=PLANE('',#1339);
#1191=PLANE('',#1343);
#1192=PLANE('',#1344);
#1193=PLANE('',#1348);
#1194=PLANE('',#1354);
#1195=PLANE('',#1355);
#1196=PLANE('',#1356);
#1197=PLANE('',#1357);
#1198=PLANE('',#1358);
#1199=PLANE('',#1359);
#1200=PLANE('',#1360);
#1201=PLANE('',#1361);
#1202=PLANE('',#1362);
#1203=PLANE('',#1363);
#1204=PLANE('',#1364);
#1205=PLANE('',#1365);
#1206=PLANE('',#1366);
#1207=PLANE('',#1367);
#1208=PLANE('',#1368);
#1209=PLANE('',#1370);
#1210=PLANE('',#1371);
#1211=PLANE('',#1372);
#1212=PLANE('',#1373);
#1213=PLANE('',#1374);
#1214=PLANE('',#1375);
#1215=PLANE('',#1376);
#1216=PLANE('',#1380);
#1217=PLANE('',#1381);
#1218=PLANE('',#1384);
#1219=PLANE('',#1385);
#1220=PLANE('',#1386);
#1221=PLANE('',#1393);
#1222=PLANE('',#1394);
#1223=PLANE('',#1395);
#1224=PLANE('',#1396);
#1225=PLANE('',#1397);
#1226=PLANE('',#1398);
#1227=ADVANCED_FACE('',(#69),#1169,.F.);
#1228=ADVANCED_FACE('',(#70),#1170,.T.);
#1229=ADVANCED_FACE('',(#71),#1171,.T.);
#1230=ADVANCED_FACE('',(#72),#1172,.T.);
#1231=ADVANCED_FACE('',(#73),#1173,.T.);
#1232=ADVANCED_FACE('',(#74),#1174,.F.);
#1233=ADVANCED_FACE('',(#75,#31,#32),#1175,.T.);
#1234=ADVANCED_FACE('',(#76,#33),#1176,.F.);
#1235=ADVANCED_FACE('',(#77),#1177,.F.);
#1236=ADVANCED_FACE('',(#78),#1178,.F.);
#1237=ADVANCED_FACE('',(#79),#1179,.F.);
#1238=ADVANCED_FACE('',(#80),#1180,.F.);
#1239=ADVANCED_FACE('',(#81,#34),#1181,.F.);
#1240=ADVANCED_FACE('',(#82),#1182,.F.);
#1241=ADVANCED_FACE('',(#83),#1183,.F.);
#1242=ADVANCED_FACE('',(#84),#1184,.F.);
#1243=ADVANCED_FACE('',(#85),#1185,.F.);
#1244=ADVANCED_FACE('',(#86),#1186,.T.);
#1245=ADVANCED_FACE('',(#87),#21,.F.);
#1246=ADVANCED_FACE('',(#88),#1187,.T.);
#1247=ADVANCED_FACE('',(#89),#1188,.F.);
#1248=ADVANCED_FACE('',(#90),#1189,.F.);
#1249=ADVANCED_FACE('',(#91),#22,.F.);
#1250=ADVANCED_FACE('',(#92,#35,#36),#1190,.F.);
#1251=ADVANCED_FACE('',(#93),#1191,.F.);
#1252=ADVANCED_FACE('',(#94),#1192,.F.);
#1253=ADVANCED_FACE('',(#95),#23,.F.);
#1254=ADVANCED_FACE('',(#96),#1193,.F.);
#1255=ADVANCED_FACE('',(#97),#24,.F.);
#1256=ADVANCED_FACE('',(#98),#25,.F.);
#1257=ADVANCED_FACE('',(#99,#37,#38),#1194,.T.);
#1258=ADVANCED_FACE('',(#100,#39),#1195,.T.);
#1259=ADVANCED_FACE('',(#101),#1196,.F.);
#1260=ADVANCED_FACE('',(#102),#1197,.F.);
#1261=ADVANCED_FACE('',(#103),#1198,.F.);
#1262=ADVANCED_FACE('',(#104),#1199,.F.);
#1263=ADVANCED_FACE('',(#105),#1200,.F.);
#1264=ADVANCED_FACE('',(#106,#40),#1201,.T.);
#1265=ADVANCED_FACE('',(#107),#1202,.F.);
#1266=ADVANCED_FACE('',(#108),#1203,.F.);
#1267=ADVANCED_FACE('',(#109),#1204,.F.);
#1268=ADVANCED_FACE('',(#110),#1205,.F.);
#1269=ADVANCED_FACE('',(#111),#1206,.F.);
#1270=ADVANCED_FACE('',(#112),#1207,.F.);
#1271=ADVANCED_FACE('',(#113,#41),#1208,.T.);
#1272=ADVANCED_FACE('',(#114),#1209,.F.);
#1273=ADVANCED_FACE('',(#115),#1210,.F.);
#1274=ADVANCED_FACE('',(#116),#1211,.F.);
#1275=ADVANCED_FACE('',(#117),#1212,.F.);
#1276=ADVANCED_FACE('',(#118),#1213,.F.);
#1277=ADVANCED_FACE('',(#119),#1214,.F.);
#1278=ADVANCED_FACE('',(#120,#42),#1215,.T.);
#1279=ADVANCED_FACE('',(#121),#26,.F.);
#1280=ADVANCED_FACE('',(#122),#27,.F.);
#1281=ADVANCED_FACE('',(#123),#1216,.T.);
#1282=ADVANCED_FACE('',(#124),#1217,.T.);
#1283=ADVANCED_FACE('',(#125),#28,.F.);
#1284=ADVANCED_FACE('',(#126),#1218,.T.);
#1285=ADVANCED_FACE('',(#127),#1219,.T.);
#1286=ADVANCED_FACE('',(#128,#43,#44),#1220,.T.);
#1287=ADVANCED_FACE('',(#129),#29,.F.);
#1288=ADVANCED_FACE('',(#130),#30,.F.);
#1289=ADVANCED_FACE('',(#131),#1221,.T.);
#1290=ADVANCED_FACE('',(#132),#1222,.T.);
#1291=ADVANCED_FACE('',(#133),#1223,.T.);
#1292=ADVANCED_FACE('',(#134),#1224,.T.);
#1293=ADVANCED_FACE('',(#135,#45,#46),#1225,.T.);
#1294=ADVANCED_FACE('',(#136,#47,#48),#1226,.F.);
#1295=CLOSED_SHELL('',(#1227,#1228,#1229,#1230,#1231,#1232,#1233,#1234,
#1235,#1236,#1237,#1238,#1239,#1240,#1241,#1242,#1243,#1244,#1245,#1246,
#1247,#1248,#1249,#1250,#1251,#1252,#1253,#1254,#1255,#1256,#1257,#1258,
#1259,#1260,#1261,#1262,#1263,#1264,#1265,#1266,#1267,#1268,#1269,#1270,
#1271,#1272,#1273,#1274,#1275,#1276,#1277,#1278,#1279,#1280,#1281,#1282,
#1283,#1284,#1285,#1286));
#1296=CLOSED_SHELL('',(#1287,#1288,#1289,#1290,#1291,#1292,#1293,#1294));
#1297=DERIVED_UNIT_ELEMENT(#1299,1.);
#1298=DERIVED_UNIT_ELEMENT(#2104,-3.);
#1299=(
MASS_UNIT()
NAMED_UNIT(*)
SI_UNIT(.KILO.,.GRAM.)
);
#1300=DERIVED_UNIT((#1297,#1298));
#1301=MEASURE_REPRESENTATION_ITEM('density measure',
POSITIVE_RATIO_MEASURE(7850.),#1300);
#1302=PROPERTY_DEFINITION_REPRESENTATION(#1307,#1304);
#1303=PROPERTY_DEFINITION_REPRESENTATION(#1308,#1305);
#1304=REPRESENTATION('material name',(#1306),#2101);
#1305=REPRESENTATION('density',(#1301),#2101);
#1306=DESCRIPTIVE_REPRESENTATION_ITEM('Steel','Steel');
#1307=PROPERTY_DEFINITION('material property','material name',#2116);
#1308=PROPERTY_DEFINITION('material property','density of part',#2116);
#1309=AXIS2_PLACEMENT_3D('',#1736,#1400,#1401);
#1310=AXIS2_PLACEMENT_3D('',#1737,#1402,#1403);
#1311=AXIS2_PLACEMENT_3D('',#1738,#1404,#1405);
#1312=AXIS2_PLACEMENT_3D('',#1747,#1410,#1411);
#1313=AXIS2_PLACEMENT_3D('',#1756,#1416,#1417);
#1314=AXIS2_PLACEMENT_3D('',#1763,#1422,#1423);
#1315=AXIS2_PLACEMENT_3D('',#1776,#1430,#1431);
#1316=AXIS2_PLACEMENT_3D('',#1782,#1435,#1436);
#1317=AXIS2_PLACEMENT_3D('',#1788,#1440,#1441);
#1318=AXIS2_PLACEMENT_3D('',#1792,#1443,#1444);
#1319=AXIS2_PLACEMENT_3D('',#1811,#1455,#1456);
#1320=AXIS2_PLACEMENT_3D('',#1830,#1466,#1467);
#1321=AXIS2_PLACEMENT_3D('',#1831,#1468,#1469);
#1322=AXIS2_PLACEMENT_3D('',#1837,#1473,#1474);
#1323=AXIS2_PLACEMENT_3D('',#1841,#1477,#1478);
#1324=AXIS2_PLACEMENT_3D('',#1843,#1480,#1481);
#1325=AXIS2_PLACEMENT_3D('',#1847,#1484,#1485);
#1326=AXIS2_PLACEMENT_3D('',#1862,#1493,#1494);
#1327=AXIS2_PLACEMENT_3D('',#1863,#1495,#1496);
#1328=AXIS2_PLACEMENT_3D('',#1869,#1500,#1501);
#1329=AXIS2_PLACEMENT_3D('',#1873,#1504,#1505);
#1330=AXIS2_PLACEMENT_3D('',#1875,#1507,#1508);
#1331=AXIS2_PLACEMENT_3D('',#1879,#1511,#1512);
#1332=AXIS2_PLACEMENT_3D('',#1883,#1515,#1516);
#1333=AXIS2_PLACEMENT_3D('',#1885,#1517,#1518);
#1334=AXIS2_PLACEMENT_3D('',#1887,#1520,#1521);
#1335=AXIS2_PLACEMENT_3D('',#1889,#1523,#1524);
#1336=AXIS2_PLACEMENT_3D('',#1893,#1527,#1528);
#1337=AXIS2_PLACEMENT_3D('',#1895,#1529,#1530);
#1338=AXIS2_PLACEMENT_3D('',#1896,#1531,#1532);
#1339=AXIS2_PLACEMENT_3D('',#1898,#1534,#1535);
#1340=AXIS2_PLACEMENT_3D('',#1904,#1538,#1539);
#1341=AXIS2_PLACEMENT_3D('',#1909,#1542,#1543);
#1342=AXIS2_PLACEMENT_3D('',#1911,#1544,#1545);
#1343=AXIS2_PLACEMENT_3D('',#1912,#1546,#1547);
#1344=AXIS2_PLACEMENT_3D('',#1916,#1550,#1551);
#1345=AXIS2_PLACEMENT_3D('',#1920,#1554,#1555);
#1346=AXIS2_PLACEMENT_3D('',#1922,#1556,#1557);
#1347=AXIS2_PLACEMENT_3D('',#1925,#1559,#1560);
#1348=AXIS2_PLACEMENT_3D('',#1926,#1561,#1562);
#1349=AXIS2_PLACEMENT_3D('',#1928,#1563,#1564);
#1350=AXIS2_PLACEMENT_3D('',#1929,#1565,#1566);
#1351=AXIS2_PLACEMENT_3D('',#1931,#1567,#1568);
#1352=AXIS2_PLACEMENT_3D('',#1934,#1570,#1571);
#1353=AXIS2_PLACEMENT_3D('',#1935,#1572,#1573);
#1354=AXIS2_PLACEMENT_3D('',#1937,#1575,#1576);
#1355=AXIS2_PLACEMENT_3D('',#1939,#1578,#1579);
#1356=AXIS2_PLACEMENT_3D('',#1941,#1581,#1582);
#1357=AXIS2_PLACEMENT_3D('',#1942,#1583,#1584);
#1358=AXIS2_PLACEMENT_3D('',#1946,#1587,#1588);
#1359=AXIS2_PLACEMENT_3D('',#1950,#1591,#1592);
#1360=AXIS2_PLACEMENT_3D('',#1954,#1595,#1596);
#1361=AXIS2_PLACEMENT_3D('',#1956,#1598,#1599);
#1362=AXIS2_PLACEMENT_3D('',#1957,#1600,#1601);
#1363=AXIS2_PLACEMENT_3D('',#1966,#1606,#1607);
#1364=AXIS2_PLACEMENT_3D('',#1972,#1611,#1612);
#1365=AXIS2_PLACEMENT_3D('',#1978,#1616,#1617);
#1366=AXIS2_PLACEMENT_3D('',#1984,#1621,#1622);
#1367=AXIS2_PLACEMENT_3D('',#1990,#1626,#1627);
#1368=AXIS2_PLACEMENT_3D('',#1993,#1630,#1631);
#1369=AXIS2_PLACEMENT_3D('',#1995,#1632,#1633);
#1370=AXIS2_PLACEMENT_3D('',#1996,#1634,#1635);
#1371=AXIS2_PLACEMENT_3D('',#2005,#1640,#1641);
#1372=AXIS2_PLACEMENT_3D('',#2011,#1645,#1646);
#1373=AXIS2_PLACEMENT_3D('',#2017,#1650,#1651);
#1374=AXIS2_PLACEMENT_3D('',#2023,#1655,#1656);
#1375=AXIS2_PLACEMENT_3D('',#2029,#1660,#1661);
#1376=AXIS2_PLACEMENT_3D('',#2032,#1664,#1665);
#1377=AXIS2_PLACEMENT_3D('',#2034,#1666,#1667);
#1378=AXIS2_PLACEMENT_3D('',#2035,#1668,#1669);
#1379=AXIS2_PLACEMENT_3D('',#2037,#1671,#1672);
#1380=AXIS2_PLACEMENT_3D('',#2039,#1674,#1675);
#1381=AXIS2_PLACEMENT_3D('',#2043,#1678,#1679);
#1382=AXIS2_PLACEMENT_3D('',#2047,#1682,#1683);
#1383=AXIS2_PLACEMENT_3D('',#2049,#1684,#1685);
#1384=AXIS2_PLACEMENT_3D('',#2051,#1687,#1688);
#1385=AXIS2_PLACEMENT_3D('',#2055,#1691,#1692);
#1386=AXIS2_PLACEMENT_3D('',#2057,#1694,#1695);
#1387=AXIS2_PLACEMENT_3D('',#2058,#1696,#1697);
#1388=AXIS2_PLACEMENT_3D('',#2060,#1698,#1699);
#1389=AXIS2_PLACEMENT_3D('',#2063,#1701,#1702);
#1390=AXIS2_PLACEMENT_3D('',#2064,#1703,#1704);
#1391=AXIS2_PLACEMENT_3D('',#2066,#1705,#1706);
#1392=AXIS2_PLACEMENT_3D('',#2069,#1708,#1709);
#1393=AXIS2_PLACEMENT_3D('',#2070,#1710,#1711);
#1394=AXIS2_PLACEMENT_3D('',#2079,#1716,#1717);
#1395=AXIS2_PLACEMENT_3D('',#2085,#1721,#1722);
#1396=AXIS2_PLACEMENT_3D('',#2091,#1726,#1727);
#1397=AXIS2_PLACEMENT_3D('',#2094,#1730,#1731);
#1398=AXIS2_PLACEMENT_3D('',#2095,#1732,#1733);
#1399=AXIS2_PLACEMENT_3D('',#2096,#1734,#1735);
#1400=DIRECTION('axis',(0.,0.,1.));
#1401=DIRECTION('refdir',(1.,0.,0.));
#1402=DIRECTION('axis',(0.,0.,1.));
#1403=DIRECTION('refdir',(1.,0.,0.));
#1404=DIRECTION('center_axis',(0.,0.,-1.));
#1405=DIRECTION('ref_axis',(0.,1.,0.));
#1406=DIRECTION('',(0.,-1.,0.));
#1407=DIRECTION('',(1.,0.,0.));
#1408=DIRECTION('',(0.,1.,0.));
#1409=DIRECTION('',(-1.,0.,0.));
#1410=DIRECTION('center_axis',(0.,0.,1.));
#1411=DIRECTION('ref_axis',(-1.,0.,0.));
#1412=DIRECTION('',(-1.,0.,0.));
#1413=DIRECTION('',(0.,-1.,0.));
#1414=DIRECTION('',(-1.,0.,0.));
#1415=DIRECTION('',(0.,-1.,0.));
#1416=DIRECTION('center_axis',(1.,0.,0.));
#1417=DIRECTION('ref_axis',(0.,0.,1.));
#1418=DIRECTION('',(0.,0.,-1.));
#1419=DIRECTION('',(0.,-1.22464679914735E-16,-1.));
#1420=DIRECTION('',(0.,-1.,0.));
#1421=DIRECTION('',(0.,0.,-1.));
#1422=DIRECTION('center_axis',(-1.,0.,0.));
#1423=DIRECTION('ref_axis',(0.,0.,-1.));
#1424=DIRECTION('',(0.,1.,0.));
#1425=DIRECTION('',(0.,0.,1.));
#1426=DIRECTION('',(0.,-1.,0.));
#1427=DIRECTION('',(0.,0.,-1.));
#1428=DIRECTION('',(0.,-1.,0.));
#1429=DIRECTION('',(0.,1.22464679914735E-16,1.));
#1430=DIRECTION('center_axis',(0.,0.,1.));
#1431=DIRECTION('ref_axis',(-1.,0.,0.));
#1432=DIRECTION('',(-1.,0.,0.));
#1433=DIRECTION('',(0.,-1.,0.));
#1434=DIRECTION('',(1.,0.,0.));
#1435=DIRECTION('center_axis',(0.,0.,-1.));
#1436=DIRECTION('ref_axis',(0.,-1.,0.));
#1437=DIRECTION('',(0.,1.,0.));
#1438=DIRECTION('',(-1.,0.,0.));
#1439=DIRECTION('',(-1.,0.,0.));
#1440=DIRECTION('center_axis',(0.,-1.,1.22464679914735E-16));
#1441=DIRECTION('ref_axis',(0.,-1.22464679914735E-16,-1.));
#1442=DIRECTION('',(0.947647722272385,3.91051401016089E-17,0.319317701469807));
#1443=DIRECTION('center_axis',(0.,-1.,1.22464679914735E-16));
#1444=DIRECTION('ref_axis',(0.85290071103014,0.,-0.52207315303919));
#1445=DIRECTION('',(0.947647722272385,-3.91051401016089E-17,-0.319317701469807));
#1446=DIRECTION('',(-1.,0.,0.));
#1447=DIRECTION('',(0.,1.22464679914735E-16,1.));
#1448=DIRECTION('',(-1.,-1.46987141181044E-32,-1.20024109223478E-16));
#1449=DIRECTION('',(0.,-1.22464679914735E-16,-1.));
#1450=DIRECTION('',(-1.,-1.46987141181044E-32,-1.20024109223478E-16));
#1451=DIRECTION('',(0.,-1.22464679914735E-16,-1.));
#1452=DIRECTION('',(-1.,-1.46987141181044E-32,-1.20024109223478E-16));
#1453=DIRECTION('',(0.,1.22464679914735E-16,1.));
#1454=DIRECTION('',(-1.,-1.46987141181044E-32,-1.20024109223478E-16));
#1455=DIRECTION('center_axis',(-1.20024109223478E-16,0.,1.));
#1456=DIRECTION('ref_axis',(1.,0.,1.20024109223478E-16));
#1457=DIRECTION('',(0.477402559171747,-0.87868469686018,5.72998169055974E-17));
#1458=DIRECTION('',(-0.522261989811671,-0.852785092504526,-6.26840301084268E-17));
#1459=DIRECTION('',(-0.999664548983418,0.0258996043556541,-1.19983847014024E-16));
#1460=DIRECTION('',(-0.477402559171747,0.87868469686018,-5.72998169055974E-17));
#1461=DIRECTION('',(0.522261989811671,0.852785092504526,6.26840301084268E-17));
#1462=DIRECTION('',(-1.,0.,-1.20024109223478E-16));
#1463=DIRECTION('',(0.,1.,0.));
#1464=DIRECTION('',(0.,-1.,0.));
#1465=DIRECTION('',(-1.,0.,-1.20024109223478E-16));
#1466=DIRECTION('center_axis',(-1.20024109223478E-16,0.,1.));
#1467=DIRECTION('ref_axis',(1.,0.,1.20024109223478E-16));
#1468=DIRECTION('center_axis',(-0.87868469686018,-0.477402559171747,0.));
#1469=DIRECTION('ref_axis',(0.477402559171747,-0.87868469686018,5.72998169055974E-17));
#1470=DIRECTION('',(0.,0.,1.));
#1471=DIRECTION('',(-0.477402559171747,0.87868469686018,-5.72998169055974E-17));
#1472=DIRECTION('',(0.,0.,1.));
#1473=DIRECTION('center_axis',(0.,1.,0.));
#1474=DIRECTION('ref_axis',(1.,0.,0.));
#1475=DIRECTION('',(0.,0.,-1.));
#1476=DIRECTION('',(1.,0.,1.20024109223478E-16));
#1477=DIRECTION('center_axis',(-1.,0.,0.));
#1478=DIRECTION('ref_axis',(0.,-1.,0.));
#1479=DIRECTION('',(0.,-1.,0.));
#1480=DIRECTION('center_axis',(1.,0.,0.));
#1481=DIRECTION('ref_axis',(0.,1.,0.));
#1482=DIRECTION('',(0.,0.,1.));
#1483=DIRECTION('',(0.,1.,0.));
#1484=DIRECTION('center_axis',(-1.20024109223478E-16,0.,1.));
#1485=DIRECTION('ref_axis',(1.,0.,1.20024109223478E-16));
#1486=DIRECTION('',(-1.,0.,-1.20024109223478E-16));
#1487=DIRECTION('',(0.,1.,0.));
#1488=DIRECTION('',(0.,-1.,0.));
#1489=DIRECTION('',(-0.477402559171747,-0.87868469686018,-5.72998169055974E-17));
#1490=DIRECTION('',(-0.999664548983418,-0.0258996043556539,-1.19983847014024E-16));
#1491=DIRECTION('',(-0.522261989811671,0.852785092504526,-6.26840301084268E-17));
#1492=DIRECTION('',(0.477402559171747,0.87868469686018,5.72998169055974E-17));
#1493=DIRECTION('center_axis',(-1.20024109223478E-16,0.,1.));
#1494=DIRECTION('ref_axis',(1.,0.,1.20024109223478E-16));
#1495=DIRECTION('center_axis',(-0.0258996043556539,0.999664548983418,0.));
#1496=DIRECTION('ref_axis',(-0.999664548983418,-0.0258996043556539,-1.19983847014024E-16));
#1497=DIRECTION('',(0.,0.,1.));
#1498=DIRECTION('',(-0.999664548983418,-0.0258996043556539,-1.19983847014024E-16));
#1499=DIRECTION('',(0.,0.,1.));
#1500=DIRECTION('center_axis',(-0.87868469686018,0.477402559171747,0.));
#1501=DIRECTION('ref_axis',(-0.477402559171747,-0.87868469686018,-5.72998169055974E-17));
#1502=DIRECTION('',(0.,0.,1.));
#1503=DIRECTION('',(-0.477402559171747,-0.87868469686018,-5.72998169055974E-17));
#1504=DIRECTION('center_axis',(-1.,0.,0.));
#1505=DIRECTION('ref_axis',(0.,-1.,0.));
#1506=DIRECTION('',(0.,1.,0.));
#1507=DIRECTION('center_axis',(1.,0.,0.));
#1508=DIRECTION('ref_axis',(0.,1.,0.));
#1509=DIRECTION('',(0.,0.,1.));
#1510=DIRECTION('',(0.,-1.,0.));
#1511=DIRECTION('center_axis',(-0.319317701469807,0.,0.947647722272385));
#1512=DIRECTION('ref_axis',(0.947647722272385,3.91051401016089E-17,0.319317701469807));
#1513=DIRECTION('',(0.947647722272385,0.,0.319317701469807));
#1514=DIRECTION('',(0.,1.,0.));
#1515=DIRECTION('center_axis',(0.,1.,0.));
#1516=DIRECTION('ref_axis',(0.85290071103014,0.,-0.52207315303919));
#1517=DIRECTION('center_axis',(0.,-1.,0.));
#1518=DIRECTION('ref_axis',(0.85290071103014,0.,-0.52207315303919));
#1519=DIRECTION('',(0.,1.,0.));
#1520=DIRECTION('center_axis',(0.319317701469807,0.,0.947647722272385));
#1521=DIRECTION('ref_axis',(0.947647722272385,-3.91051401016089E-17,-0.319317701469807));
#1522=DIRECTION('',(0.947647722272385,0.,-0.319317701469807));
#1523=DIRECTION('center_axis',(0.852785092504526,0.522261989811671,0.));
#1524=DIRECTION('ref_axis',(-0.522261989811671,0.852785092504526,-6.26840301084268E-17));
#1525=DIRECTION('',(-0.522261989811671,0.852785092504526,-6.26840301084268E-17));
#1526=DIRECTION('',(0.,0.,1.));
#1527=DIRECTION('center_axis',(-1.20024109223478E-16,0.,1.));
#1528=DIRECTION('ref_axis',(1.,0.,1.20024109223478E-16));
#1529=DIRECTION('center_axis',(-1.20024109223478E-16,0.,1.));
#1530=DIRECTION('ref_axis',(1.,0.,1.20024109223478E-16));
#1531=DIRECTION('center_axis',(0.,0.,1.));
#1532=DIRECTION('ref_axis',(1.,0.,0.));
#1533=DIRECTION('',(0.,0.,1.));
#1534=DIRECTION('center_axis',(0.,1.,0.));
#1535=DIRECTION('ref_axis',(1.,0.,0.));
#1536=DIRECTION('',(-0.956535465673254,0.,0.291616019637555));
#1537=DIRECTION('',(0.,0.,-1.));
#1538=DIRECTION('center_axis',(0.,1.,0.));
#1539=DIRECTION('ref_axis',(5.60748384356424E-16,0.,-1.));
#1540=DIRECTION('',(0.,0.,1.));
#1541=DIRECTION('',(-0.956535465673254,0.,-0.291616019637554));
#1542=DIRECTION('center_axis',(0.,1.,0.));
#1543=DIRECTION('ref_axis',(1.,0.,0.));
#1544=DIRECTION('center_axis',(0.,1.,0.));
#1545=DIRECTION('ref_axis',(1.,0.,0.));
#1546=DIRECTION('center_axis',(0.,1.,0.));
#1547=DIRECTION('ref_axis',(1.,0.,0.));
#1548=DIRECTION('',(0.,0.,-1.));
#1549=DIRECTION('',(1.,0.,1.20024109223478E-16));
#1550=DIRECTION('center_axis',(0.,1.,0.));
#1551=DIRECTION('ref_axis',(1.,0.,0.));
#1552=DIRECTION('',(0.,0.,-1.));
#1553=DIRECTION('',(1.,0.,1.20024109223478E-16));
#1554=DIRECTION('center_axis',(0.,0.,1.));
#1555=DIRECTION('ref_axis',(1.,0.,0.));
#1556=DIRECTION('center_axis',(-1.20024109223478E-16,0.,1.));
#1557=DIRECTION('ref_axis',(1.,0.,0.));
#1558=DIRECTION('',(0.,0.,1.));
#1559=DIRECTION('center_axis',(1.20024109223478E-16,0.,-1.));
#1560=DIRECTION('ref_axis',(1.,0.,1.20024109223478E-16));
#1561=DIRECTION('center_axis',(-1.20024109223478E-16,0.,1.));
#1562=DIRECTION('ref_axis',(1.,0.,1.20024109223478E-16));
#1563=DIRECTION('center_axis',(-1.20024109223478E-16,0.,1.));
#1564=DIRECTION('ref_axis',(1.,0.,1.20024109223478E-16));
#1565=DIRECTION('center_axis',(0.,0.,1.));
#1566=DIRECTION('ref_axis',(1.,0.,0.));
#1567=DIRECTION('center_axis',(-1.20024109223478E-16,0.,1.));
#1568=DIRECTION('ref_axis',(1.,0.,0.));
#1569=DIRECTION('',(0.,0.,1.));
#1570=DIRECTION('center_axis',(1.20024109223478E-16,0.,-1.));
#1571=DIRECTION('ref_axis',(1.,0.,1.20024109223478E-16));
#1572=DIRECTION('center_axis',(0.,0.,1.));
#1573=DIRECTION('ref_axis',(1.,0.,0.));
#1574=DIRECTION('',(0.,0.,1.));
#1575=DIRECTION('center_axis',(1.20024109223478E-16,0.,-1.));
#1576=DIRECTION('ref_axis',(1.,0.,1.20024109223478E-16));
#1577=DIRECTION('',(-1.,0.,-1.20024109223478E-16));
#1578=DIRECTION('center_axis',(-1.20024109223478E-16,0.,1.));
#1579=DIRECTION('ref_axis',(1.,0.,1.20024109223478E-16));
#1580=DIRECTION('',(0.477402559171747,0.87868469686018,5.72998169055974E-17));
#1581=DIRECTION('center_axis',(0.87868469686018,-0.477402559171747,0.));
#1582=DIRECTION('ref_axis',(0.477402559171747,0.87868469686018,5.72998169055974E-17));
#1583=DIRECTION('center_axis',(-0.852785092504526,0.522261989811671,0.));
#1584=DIRECTION('ref_axis',(-0.522261989811671,-0.852785092504526,-6.26840301084268E-17));
#1585=DIRECTION('',(0.522261989811671,0.852785092504526,6.26840301084268E-17));
#1586=DIRECTION('',(0.,0.,1.));
#1587=DIRECTION('center_axis',(0.0258996043556541,0.999664548983418,0.));
#1588=DIRECTION('ref_axis',(-0.999664548983418,0.0258996043556541,-1.19983847014024E-16));
#1589=DIRECTION('',(0.999664548983418,-0.0258996043556541,1.19983847014024E-16));
#1590=DIRECTION('',(0.,0.,1.));
#1591=DIRECTION('center_axis',(0.87868469686018,0.477402559171747,0.));
#1592=DIRECTION('ref_axis',(-0.477402559171747,0.87868469686018,-5.72998169055974E-17));
#1593=DIRECTION('',(0.477402559171747,-0.87868469686018,5.72998169055974E-17));
#1594=DIRECTION('',(0.,0.,1.));
#1595=DIRECTION('center_axis',(0.852785092504526,-0.522261989811671,0.));
#1596=DIRECTION('ref_axis',(0.522261989811671,0.852785092504526,6.26840301084268E-17));
#1597=DIRECTION('',(-0.522261989811671,-0.852785092504526,-6.26840301084268E-17));
#1598=DIRECTION('center_axis',(-1.20024109223478E-16,0.,1.));
#1599=DIRECTION('ref_axis',(1.,0.,1.20024109223478E-16));
#1600=DIRECTION('center_axis',(-0.500000000000001,0.,0.866025403784438));
#1601=DIRECTION('ref_axis',(-0.866025403784438,0.,-0.500000000000001));
#1602=DIRECTION('',(-0.866025403784438,0.,-0.500000000000001));
#1603=DIRECTION('',(0.,-1.,0.));
#1604=DIRECTION('',(-0.866025403784438,0.,-0.500000000000001));
#1605=DIRECTION('',(0.,-1.,0.));
#1606=DIRECTION('center_axis',(0.499999999999999,0.,0.866025403784439));
#1607=DIRECTION('ref_axis',(-0.866025403784439,0.,0.499999999999999));
#1608=DIRECTION('',(-0.866025403784439,0.,0.499999999999999));
#1609=DIRECTION('',(0.,-1.,0.));
#1610=DIRECTION('',(-0.866025403784439,0.,0.499999999999999));
#1611=DIRECTION('center_axis',(1.,0.,1.53837014910685E-15));
#1612=DIRECTION('ref_axis',(-1.53837014910685E-15,0.,1.));
#1613=DIRECTION('',(-1.53837014910685E-15,0.,1.));
#1614=DIRECTION('',(0.,-1.,0.));
#1615=DIRECTION('',(-1.53837014910685E-15,0.,1.));
#1616=DIRECTION('center_axis',(0.500000000000001,0.,-0.866025403784438));
#1617=DIRECTION('ref_axis',(0.866025403784438,0.,0.500000000000001));
#1618=DIRECTION('',(0.866025403784438,0.,0.500000000000001));
#1619=DIRECTION('',(0.,-1.,0.));
#1620=DIRECTION('',(0.866025403784438,0.,0.500000000000001));
#1621=DIRECTION('center_axis',(-0.499999999999999,0.,-0.86602540378444));
#1622=DIRECTION('ref_axis',(0.866025403784439,0.,-0.499999999999998));
#1623=DIRECTION('',(0.866025403784439,0.,-0.499999999999998));
#1624=DIRECTION('',(0.,-1.,0.));
#1625=DIRECTION('',(0.866025403784439,0.,-0.499999999999998));
#1626=DIRECTION('center_axis',(-1.,0.,-7.69185074553425E-16));
#1627=DIRECTION('ref_axis',(7.69185074553425E-16,0.,-1.));
#1628=DIRECTION('',(7.69185074553425E-16,0.,-1.));
#1629=DIRECTION('',(7.69185074553425E-16,0.,-1.));
#1630=DIRECTION('center_axis',(0.,1.,0.));
#1631=DIRECTION('ref_axis',(1.,0.,0.));
#1632=DIRECTION('center_axis',(0.,1.,0.));
#1633=DIRECTION('ref_axis',(1.,0.,0.));
#1634=DIRECTION('center_axis',(0.499999999999999,0.,-0.86602540378444));
#1635=DIRECTION('ref_axis',(0.866025403784439,0.,0.499999999999998));
#1636=DIRECTION('',(0.866025403784439,0.,0.499999999999998));
#1637=DIRECTION('',(0.,-1.,0.));
#1638=DIRECTION('',(0.866025403784439,0.,0.499999999999998));
#1639=DIRECTION('',(0.,-1.,0.));
#1640=DIRECTION('center_axis',(-0.500000000000001,0.,-0.866025403784438));
#1641=DIRECTION('ref_axis',(0.866025403784438,0.,-0.500000000000001));
#1642=DIRECTION('',(0.866025403784438,0.,-0.500000000000001));
#1643=DIRECTION('',(0.,-1.,0.));
#1644=DIRECTION('',(0.866025403784438,0.,-0.500000000000001));
#1645=DIRECTION('center_axis',(-1.,0.,1.53837014910685E-15));
#1646=DIRECTION('ref_axis',(-1.53837014910685E-15,0.,-1.));
#1647=DIRECTION('',(-1.53837014910685E-15,0.,-1.));
#1648=DIRECTION('',(0.,-1.,0.));
#1649=DIRECTION('',(-1.53837014910685E-15,0.,-1.));
#1650=DIRECTION('center_axis',(-0.499999999999999,0.,0.866025403784439));
#1651=DIRECTION('ref_axis',(-0.866025403784439,0.,-0.499999999999999));
#1652=DIRECTION('',(-0.866025403784439,0.,-0.499999999999999));
#1653=DIRECTION('',(0.,-1.,0.));
#1654=DIRECTION('',(-0.866025403784439,0.,-0.499999999999999));
#1655=DIRECTION('center_axis',(0.500000000000001,0.,0.866025403784438));
#1656=DIRECTION('ref_axis',(-0.866025403784438,0.,0.500000000000001));
#1657=DIRECTION('',(-0.866025403784438,0.,0.500000000000001));
#1658=DIRECTION('',(0.,-1.,0.));
#1659=DIRECTION('',(-0.866025403784438,0.,0.500000000000001));
#1660=DIRECTION('center_axis',(1.,0.,-7.69185074553425E-16));
#1661=DIRECTION('ref_axis',(7.69185074553425E-16,0.,1.));
#1662=DIRECTION('',(7.69185074553425E-16,0.,1.));
#1663=DIRECTION('',(7.69185074553425E-16,0.,1.));
#1664=DIRECTION('center_axis',(0.,1.,0.));
#1665=DIRECTION('ref_axis',(1.,0.,0.));
#1666=DIRECTION('center_axis',(0.,1.,0.));
#1667=DIRECTION('ref_axis',(1.,0.,0.));
#1668=DIRECTION('center_axis',(0.,-1.,0.));
#1669=DIRECTION('ref_axis',(1.,0.,0.));
#1670=DIRECTION('',(0.,1.,0.));
#1671=DIRECTION('center_axis',(0.,-1.,0.));
#1672=DIRECTION('ref_axis',(1.,0.,0.));
#1673=DIRECTION('',(0.,1.,0.));
#1674=DIRECTION('center_axis',(-0.291616019637554,0.,0.956535465673254));
#1675=DIRECTION('ref_axis',(-0.956535465673254,0.,-0.291616019637554));
#1676=DIRECTION('',(0.956535465673254,0.,0.291616019637554));
#1677=DIRECTION('',(0.,-1.,0.));
#1678=DIRECTION('center_axis',(1.,0.,0.));
#1679=DIRECTION('ref_axis',(0.,0.,1.));
#1680=DIRECTION('',(0.,0.,-1.));
#1681=DIRECTION('',(0.,-1.,0.));
#1682=DIRECTION('center_axis',(0.,-1.,0.));
#1683=DIRECTION('ref_axis',(5.60748384356424E-16,0.,-1.));
#1684=DIRECTION('center_axis',(0.,1.,0.));
#1685=DIRECTION('ref_axis',(5.60748384356424E-16,0.,-1.));
#1686=DIRECTION('',(0.,-1.,0.));
#1687=DIRECTION('center_axis',(-1.,0.,0.));
#1688=DIRECTION('ref_axis',(0.,0.,-1.));
#1689=DIRECTION('',(0.,0.,-1.));
#1690=DIRECTION('',(0.,-1.,0.));
#1691=DIRECTION('center_axis',(0.291616019637555,0.,0.956535465673254));
#1692=DIRECTION('ref_axis',(-0.956535465673254,0.,0.291616019637555));
#1693=DIRECTION('',(-0.956535465673254,0.,0.291616019637555));
#1694=DIRECTION('center_axis',(0.,1.,0.));
#1695=DIRECTION('ref_axis',(1.,0.,0.));
#1696=DIRECTION('center_axis',(0.,0.,-1.));
#1697=DIRECTION('ref_axis',(1.,0.,0.));
#1698=DIRECTION('center_axis',(-1.20024109223478E-16,0.,1.));
#1699=DIRECTION('ref_axis',(1.,0.,0.));
#1700=DIRECTION('',(0.,0.,1.));
#1701=DIRECTION('center_axis',(-1.20024109223478E-16,0.,1.));
#1702=DIRECTION('ref_axis',(1.,0.,0.));
#1703=DIRECTION('center_axis',(0.,0.,-1.));
#1704=DIRECTION('ref_axis',(1.,0.,0.));
#1705=DIRECTION('center_axis',(-1.20024109223478E-16,0.,1.));
#1706=DIRECTION('ref_axis',(1.,0.,0.));
#1707=DIRECTION('',(0.,0.,1.));
#1708=DIRECTION('center_axis',(-1.20024109223478E-16,0.,1.));
#1709=DIRECTION('ref_axis',(1.,0.,0.));
#1710=DIRECTION('center_axis',(0.,-1.,0.));
#1711=DIRECTION('ref_axis',(-1.,0.,0.));
#1712=DIRECTION('',(-1.,0.,0.));
#1713=DIRECTION('',(0.,0.,-1.));
#1714=DIRECTION('',(-1.,0.,0.));
#1715=DIRECTION('',(0.,0.,-1.));
#1716=DIRECTION('center_axis',(1.,0.,0.));
#1717=DIRECTION('ref_axis',(0.,-1.,0.));
#1718=DIRECTION('',(0.,-1.,0.));
#1719=DIRECTION('',(0.,-1.,0.));
#1720=DIRECTION('',(0.,0.,-1.));
#1721=DIRECTION('center_axis',(0.,1.,0.));
#1722=DIRECTION('ref_axis',(1.,0.,1.20024109223478E-16));
#1723=DIRECTION('',(-1.,0.,-1.20024109223478E-16));
#1724=DIRECTION('',(1.,0.,1.20024109223478E-16));
#1725=DIRECTION('',(0.,0.,-1.));
#1726=DIRECTION('center_axis',(-1.,0.,0.));
#1727=DIRECTION('ref_axis',(0.,1.,0.));
#1728=DIRECTION('',(0.,-1.,0.));
#1729=DIRECTION('',(0.,1.,0.));
#1730=DIRECTION('center_axis',(1.20024109223478E-16,0.,-1.));
#1731=DIRECTION('ref_axis',(1.,0.,1.20024109223478E-16));
#1732=DIRECTION('center_axis',(1.20024109223478E-16,0.,-1.));
#1733=DIRECTION('ref_axis',(1.,0.,1.20024109223478E-16));
#1734=DIRECTION('',(0.,0.,1.));
#1735=DIRECTION('',(1.,0.,0.));
#1736=CARTESIAN_POINT('',(0.,0.,0.));
#1737=CARTESIAN_POINT('',(0.,0.,0.));
#1738=CARTESIAN_POINT('Origin',(34.4999995231628,-12.9499995708466,16.774030540756));
#1739=CARTESIAN_POINT('',(37.0000004768372,-6.7,16.774030540756));
#1740=CARTESIAN_POINT('',(37.0000004768372,-12.9499995708466,16.774030540756));
#1741=CARTESIAN_POINT('',(37.0000004768372,-6.47499978542329,16.774030540756));
#1742=CARTESIAN_POINT('',(34.4999995231628,-6.7,16.774030540756));
#1743=CARTESIAN_POINT('',(34.4999995231628,-6.7,16.774030540756));
#1744=CARTESIAN_POINT('',(34.4999995231628,-12.9499995708466,16.774030540756));
#1745=CARTESIAN_POINT('',(34.4999995231628,-12.9499995708466,16.774030540756));
#1746=CARTESIAN_POINT('',(17.2499997615814,-12.9499995708466,16.774030540756));
#1747=CARTESIAN_POINT('Origin',(37.0000004768372,0.,27.7685935497284));
#1748=CARTESIAN_POINT('',(37.0000004768372,-6.7,27.7685935497284));
#1749=CARTESIAN_POINT('',(32.9999995231629,-6.7,27.7685935497284));
#1750=CARTESIAN_POINT('',(37.0000004768372,-6.7,27.7685935497284));
#1751=CARTESIAN_POINT('',(37.0000004768372,0.,27.7685935497284));
#1752=CARTESIAN_POINT('',(37.0000004768372,0.,27.7685935497284));
#1753=CARTESIAN_POINT('',(32.9999995231629,0.,27.7685935497284));
#1754=CARTESIAN_POINT('',(37.0000004768372,0.,27.7685935497284));
#1755=CARTESIAN_POINT('',(32.9999995231629,0.,27.7685935497284));
#1756=CARTESIAN_POINT('Origin',(37.0000004768372,0.,-5.05909013748169));
#1757=CARTESIAN_POINT('',(37.0000004768372,-6.7,5.85747020163713));
#1758=CARTESIAN_POINT('',(37.0000004768372,-12.9499995708466,-5.05909013748169));
#1759=CARTESIAN_POINT('',(37.0000004768372,-12.9499995708466,3.14783078432083));
#1760=CARTESIAN_POINT('',(37.0000004768372,0.,-5.05909013748169));
#1761=CARTESIAN_POINT('',(37.0000004768372,0.,-5.05909013748169));
#1762=CARTESIAN_POINT('',(37.0000004768372,0.,27.7685935497284));
#1763=CARTESIAN_POINT('Origin',(-37.0000004768372,0.,27.7685935497284));
#1764=CARTESIAN_POINT('',(-36.9999995231628,-12.9499995708466,16.774030540756));
#1765=CARTESIAN_POINT('',(-36.9999995231628,-6.7,16.774030540756));
#1766=CARTESIAN_POINT('',(-37.0000004768372,-3.35,16.774030540756));
#1767=CARTESIAN_POINT('',(-36.9999995231628,-6.7,27.7685935497284));
#1768=CARTESIAN_POINT('',(-37.0000004768372,-6.7,27.7685935497284));
#1769=CARTESIAN_POINT('',(-37.0000004768372,0.,27.7685935497284));
#1770=CARTESIAN_POINT('',(-37.0000004768372,0.,27.7685935497284));
#1771=CARTESIAN_POINT('',(-37.0000004768372,0.,-5.05909013748169));
#1772=CARTESIAN_POINT('',(-37.0000004768372,0.,27.7685935497284));
#1773=CARTESIAN_POINT('',(-37.0000004768372,-12.9499995708466,-5.05909013748169));
#1774=CARTESIAN_POINT('',(-37.0000004768372,0.,-5.05909013748169));
#1775=CARTESIAN_POINT('',(-37.0000004768372,-12.9499995708466,19.5616726279259));
#1776=CARTESIAN_POINT('Origin',(-32.9999995231628,0.,27.7685935497284));
#1777=CARTESIAN_POINT('',(-32.9999995231628,-6.7,27.7685935497284));
#1778=CARTESIAN_POINT('',(-37.0000004768372,-6.7,27.7685935497284));
#1779=CARTESIAN_POINT('',(-32.9999995231628,0.,27.7685935497284));
#1780=CARTESIAN_POINT('',(-32.9999995231628,0.,27.7685935497284));
#1781=CARTESIAN_POINT('',(-37.0000004768372,0.,27.7685935497284));
#1782=CARTESIAN_POINT('Origin',(-34.4999995231628,-6.7,16.774030540756));
#1783=CARTESIAN_POINT('',(-34.4999995231628,-12.9499995708466,16.774030540756));
#1784=CARTESIAN_POINT('',(-34.4999995231628,-6.7,16.774030540756));
#1785=CARTESIAN_POINT('',(-34.4999995231628,-12.9499995708466,16.774030540756));
#1786=CARTESIAN_POINT('',(-34.4999995231628,-6.7,16.774030540756));
#1787=CARTESIAN_POINT('',(-17.2499997615814,-12.9499995708466,16.774030540756));
#1788=CARTESIAN_POINT('Origin',(0.,-12.9499995708466,11.3547517061234));
#1789=CARTESIAN_POINT('',(17.3699229265669,-12.9499995708466,11.0019102092574));
#1790=CARTESIAN_POINT('',(18.1889364278641,-12.9499995708466,11.2778835509965));
#1791=CARTESIAN_POINT('',(-17.3699229265669,-12.9499995708466,11.0019102092574));
#1792=CARTESIAN_POINT('Origin',(3.05311331771918E-15,-12.9499995708466,
21.6342972069979));
#1793=CARTESIAN_POINT('',(-9.62389812956608,-12.9499995708466,8.39182338524718));
#1794=CARTESIAN_POINT('',(-18.5000002384186,-12.9499995708466,-5.05909013748169));
#1795=CARTESIAN_POINT('',(19.22843440798,-12.9499995708466,0.940909862518307));
#1796=CARTESIAN_POINT('',(19.22843440798,-12.9499995708466,6.14090986251831));
#1797=CARTESIAN_POINT('',(19.22843440798,-12.9499995708466,6.14783078432083));
#1798=CARTESIAN_POINT('',(30.7715663370781,-12.9499995708466,6.14090986251831));
#1799=CARTESIAN_POINT('',(12.5000001862645,-12.9499995708466,6.14090986251831));
#1800=CARTESIAN_POINT('',(30.7715663370781,-12.9499995708466,0.940909862518308));
#1801=CARTESIAN_POINT('',(30.7715663370781,-12.9499995708466,6.14783078432083));
#1802=CARTESIAN_POINT('',(12.5000001862645,-12.9499995708466,0.940909862518305));
#1803=CARTESIAN_POINT('',(-19.22843440798,-12.9499995708466,6.1409098625183));
#1804=CARTESIAN_POINT('',(-19.22843440798,-12.9499995708466,0.940909862518302));
#1805=CARTESIAN_POINT('',(-19.22843440798,-12.9499995708466,6.14783078432083));
#1806=CARTESIAN_POINT('',(-30.7715663370781,-12.9499995708466,0.940909862518301));
#1807=CARTESIAN_POINT('',(-12.5000001862645,-12.9499995708466,0.940909862518303));
#1808=CARTESIAN_POINT('',(-30.7715663370781,-12.9499995708466,6.1409098625183));
#1809=CARTESIAN_POINT('',(-30.7715663370781,-12.9499995708466,6.14783078432083));
#1810=CARTESIAN_POINT('',(-12.5000001862645,-12.9499995708466,6.1409098625183));
#1811=CARTESIAN_POINT('Origin',(25.000000372529,-7.26322156091386,6.14090986251831));
#1812=CARTESIAN_POINT('',(19.22843440798,-6.32546863903939,6.14090986251831));
#1813=CARTESIAN_POINT('',(19.4319229071556,-6.7,6.14090986251831));
#1814=CARTESIAN_POINT('',(20.08282971462,-7.89802845588713,6.14090986251831));
#1815=CARTESIAN_POINT('',(22.2437154120328,-1.4019116118555,6.14090986251831));
#1816=CARTESIAN_POINT('',(21.3143672062356,-2.9194149169217,6.14090986251831));
#1817=CARTESIAN_POINT('',(28.0152813765818,-1.55144304732192,6.14090986251831));
#1818=CARTESIAN_POINT('',(26.5825937737126,-1.51432455380597,6.14090986251831));
#1819=CARTESIAN_POINT('',(30.7715663370781,-6.62453150997222,6.14090986251831));
#1820=CARTESIAN_POINT('',(30.24781916347,-5.66054709549481,6.14090986251831));
#1821=CARTESIAN_POINT('',(30.7253479825167,-6.7,6.14090986251831));
#1822=CARTESIAN_POINT('',(29.8191089540002,-8.17976906005231,6.14090986251831));
#1823=CARTESIAN_POINT('',(30.7715663370781,-6.7,6.14090986251831));
#1824=CARTESIAN_POINT('',(12.5000001862645,-6.7,6.14090986251831));
#1825=CARTESIAN_POINT('',(30.7715663370781,-10.193876535443,6.14090986251831));
#1826=CARTESIAN_POINT('',(19.22843440798,-6.7,6.14090986251831));
#1827=CARTESIAN_POINT('',(19.22843440798,-6.98161078045693,6.14090986251831));
#1828=CARTESIAN_POINT('',(12.5000001862645,-6.7,6.14090986251831));
#1829=CARTESIAN_POINT('',(21.750000372529,-6.47500007450581,6.14090986251831));
#1830=CARTESIAN_POINT('Origin',(25.000000372529,-6.47500007450581,6.14090986251831));
#1831=CARTESIAN_POINT('Origin',(19.22843440798,-6.32546863903939,0.940909862518306));
#1832=CARTESIAN_POINT('',(19.4319229071556,-6.7,0.940909862518307));
#1833=CARTESIAN_POINT('',(19.4319229071556,-6.7,7.17675656080246));
#1834=CARTESIAN_POINT('',(19.22843440798,-6.32546863903939,0.940909862518307));
#1835=CARTESIAN_POINT('',(21.9847193684762,-11.3985571016897,0.940909862518307));
#1836=CARTESIAN_POINT('',(19.22843440798,-6.32546863903939,0.940909862518307));
#1837=CARTESIAN_POINT('Origin',(8.88178419700125E-15,-6.7,13.4126032590866));
#1838=CARTESIAN_POINT('',(19.22843440798,-6.7,0.940909862518307));
#1839=CARTESIAN_POINT('',(19.22843440798,-6.7,7.17675656080246));
#1840=CARTESIAN_POINT('',(12.5000001862645,-6.7,0.940909862518305));
#1841=CARTESIAN_POINT('Origin',(19.22843440798,-6.7,0.940909862518307));
#1842=CARTESIAN_POINT('',(19.22843440798,-6.62453150997222,0.940909862518307));
#1843=CARTESIAN_POINT('Origin',(30.7715663370781,-13.1245315099722,0.940909862518308));
#1844=CARTESIAN_POINT('',(30.7715663370781,-6.7,0.940909862518308));
#1845=CARTESIAN_POINT('',(30.7715663370781,-6.7,7.17675656080246));
#1846=CARTESIAN_POINT('',(30.7715663370781,-13.1245315099722,0.940909862518308));
#1847=CARTESIAN_POINT('Origin',(-25.000000372529,-7.26322156091386,6.1409098625183));
#1848=CARTESIAN_POINT('',(-19.22843440798,-6.7,6.1409098625183));
#1849=CARTESIAN_POINT('',(-19.4319229071556,-6.7,6.1409098625183));
#1850=CARTESIAN_POINT('',(-12.5000001862645,-6.7,6.1409098625183));
#1851=CARTESIAN_POINT('',(-19.22843440798,-10.193876535443,6.1409098625183));
#1852=CARTESIAN_POINT('',(-30.7715663370781,-6.62453150997222,6.1409098625183));
#1853=CARTESIAN_POINT('',(-30.7715663370781,-6.94387653544304,6.1409098625183));
#1854=CARTESIAN_POINT('',(-28.0152813765818,-1.55144304732192,6.1409098625183));
#1855=CARTESIAN_POINT('',(-28.8696766832219,-3.12400286416966,6.1409098625183));
#1856=CARTESIAN_POINT('',(-22.2437154120328,-1.40191161185551,6.1409098625183));
#1857=CARTESIAN_POINT('',(-23.696810791438,-1.43955883607276,6.1409098625183));
#1858=CARTESIAN_POINT('',(-19.22843440798,-6.32546863903939,6.1409098625183));
#1859=CARTESIAN_POINT('',(-19.8067267042092,-5.38119343051364,6.1409098625183));
#1860=CARTESIAN_POINT('',(-20.1845739642079,-8.08529413636743,6.1409098625183));
#1861=CARTESIAN_POINT('',(-28.250000372529,-6.47500007450581,6.1409098625183));
#1862=CARTESIAN_POINT('Origin',(-25.000000372529,-6.47500007450581,6.1409098625183));
#1863=CARTESIAN_POINT('Origin',(-22.2437154120328,-1.40191161185551,0.940909862518302));
#1864=CARTESIAN_POINT('',(-28.0152813765818,-1.55144304732192,0.940909862518301));
#1865=CARTESIAN_POINT('',(-28.0152813765818,-1.55144304732192,0.940909862518301));
#1866=CARTESIAN_POINT('',(-22.2437154120328,-1.40191161185551,0.940909862518302));
#1867=CARTESIAN_POINT('',(-22.2437154120328,-1.40191161185551,0.940909862518302));
#1868=CARTESIAN_POINT('',(-22.2437154120328,-1.40191161185551,0.940909862518302));
#1869=CARTESIAN_POINT('Origin',(-28.0152813765818,-1.55144304732192,0.940909862518301));
#1870=CARTESIAN_POINT('',(-30.7715663370781,-6.62453150997222,0.940909862518301));
#1871=CARTESIAN_POINT('',(-30.7715663370781,-6.62453150997222,0.940909862518301));
#1872=CARTESIAN_POINT('',(-28.0152813765818,-1.55144304732192,0.940909862518301));
#1873=CARTESIAN_POINT('Origin',(-30.7715663370781,-6.62453150997222,0.940909862518301));
#1874=CARTESIAN_POINT('',(-30.7715663370781,-13.1245315099722,0.940909862518301));
#1875=CARTESIAN_POINT('Origin',(-19.22843440798,-13.1245315099722,0.940909862518302));
#1876=CARTESIAN_POINT('',(-19.22843440798,-6.7,0.940909862518302));
#1877=CARTESIAN_POINT('',(-19.22843440798,-6.7,7.17675656080245));
#1878=CARTESIAN_POINT('',(-19.22843440798,-6.62453150997222,0.940909862518302));
#1879=CARTESIAN_POINT('Origin',(17.3699229265669,-12.9499995708466,11.0019102092574));
#1880=CARTESIAN_POINT('',(17.3699229265669,-6.7,11.0019102092574));
#1881=CARTESIAN_POINT('',(9.93525178203904,-6.7,8.49673656164726));
#1882=CARTESIAN_POINT('',(17.3699229265669,-12.9499995708466,11.0019102092574));
#1883=CARTESIAN_POINT('Origin',(3.05311331771918E-15,-12.9499995708466,
21.6342972069979));
#1884=CARTESIAN_POINT('',(-17.3699229265669,-6.7,11.0019102092574));
#1885=CARTESIAN_POINT('Origin',(3.05311331771918E-15,-6.7,21.6342972069979));
#1886=CARTESIAN_POINT('',(-17.3699229265669,-12.9499995708466,11.0019102092574));
#1887=CARTESIAN_POINT('Origin',(-34.4999995231628,-12.9499995708466,16.774030540756));
#1888=CARTESIAN_POINT('',(-18.500290080337,-6.7,11.3827967273965));
#1889=CARTESIAN_POINT('Origin',(-19.22843440798,-6.32546863903939,0.940909862518302));
#1890=CARTESIAN_POINT('',(-19.22843440798,-6.32546863903939,0.940909862518302));
#1891=CARTESIAN_POINT('',(-19.22843440798,-6.32546863903939,0.940909862518302));
#1892=CARTESIAN_POINT('',(-19.22843440798,-6.32546863903939,0.940909862518302));
#1893=CARTESIAN_POINT('Origin',(-25.000000372529,-6.47500007450581,9.9409098625183));
#1894=CARTESIAN_POINT('',(-28.250000372529,-6.47500007450581,9.9409098625183));
#1895=CARTESIAN_POINT('Origin',(-25.000000372529,-6.47500007450581,9.9409098625183));
#1896=CARTESIAN_POINT('Origin',(-25.000000372529,-6.47500007450581,-5.0590901374817));
#1897=CARTESIAN_POINT('',(-28.250000372529,-6.47500007450581,-5.0590901374817));
#1898=CARTESIAN_POINT('Origin',(8.88178419700125E-15,-6.7,13.4126032590866));
#1899=CARTESIAN_POINT('',(19.5000004768372,-6.7,31.8842966556549));
#1900=CARTESIAN_POINT('',(32.9999995231629,-6.7,27.7685935497284));
#1901=CARTESIAN_POINT('',(19.5000004768372,-6.7,21.7685928344726));
#1902=CARTESIAN_POINT('',(19.5000004768372,-6.7,31.8842966556549));
#1903=CARTESIAN_POINT('',(-19.5000004768372,-6.7,21.7685928344727));
#1904=CARTESIAN_POINT('Origin',(1.03816894248857E-14,-6.7,21.7685928344726));
#1905=CARTESIAN_POINT('',(-19.5000004768372,-6.7,31.8842966556549));
#1906=CARTESIAN_POINT('',(-19.5000004768372,-6.7,31.8842966556549));
#1907=CARTESIAN_POINT('',(-32.9999995231628,-6.7,27.7685935497284));
#1908=CARTESIAN_POINT('',(-29.7500009536743,-6.7,22.2685932815075));
#1909=CARTESIAN_POINT('Origin',(-26.5000009536743,-6.7,22.2685932815075));
#1910=CARTESIAN_POINT('',(23.2500009536743,-6.7,22.2685932815075));
#1911=CARTESIAN_POINT('Origin',(26.5000009536743,-6.7,22.2685932815075));
#1912=CARTESIAN_POINT('Origin',(8.88178419700125E-15,-6.7,13.4126032590866));
#1913=CARTESIAN_POINT('',(30.7253479825167,-6.7,0.940909862518308));
#1914=CARTESIAN_POINT('',(30.7253479825167,-6.7,7.17675656080246));
#1915=CARTESIAN_POINT('',(12.5000001862645,-6.7,0.940909862518305));
#1916=CARTESIAN_POINT('Origin',(8.88178419700125E-15,-6.7,13.4126032590866));
#1917=CARTESIAN_POINT('',(-19.4319229071556,-6.7,0.940909862518302));
#1918=CARTESIAN_POINT('',(-19.4319229071556,-6.7,7.17675656080245));
#1919=CARTESIAN_POINT('',(-12.5000001862645,-6.7,0.940909862518303));
#1920=CARTESIAN_POINT('Origin',(-25.000000372529,-6.47500007450581,-5.0590901374817));
#1921=CARTESIAN_POINT('',(-28.250000372529,-6.47500007450581,-5.0590901374817));
#1922=CARTESIAN_POINT('Origin',(-25.000000372529,-6.47500007450581,-5.0590901374817));
#1923=CARTESIAN_POINT('',(-28.250000372529,-6.47500007450581,0.940909862518301));
#1924=CARTESIAN_POINT('',(-28.250000372529,-6.47500007450581,-5.0590901374817));
#1925=CARTESIAN_POINT('Origin',(-25.000000372529,-6.47500007450581,0.940909862518301));
#1926=CARTESIAN_POINT('Origin',(25.000000372529,-6.47500007450581,9.94090986251831));
#1927=CARTESIAN_POINT('',(21.750000372529,-6.47500007450581,9.94090986251831));
#1928=CARTESIAN_POINT('Origin',(25.000000372529,-6.47500007450581,9.94090986251831));
#1929=CARTESIAN_POINT('Origin',(25.000000372529,-6.47500007450581,-5.05909013748169));
#1930=CARTESIAN_POINT('',(21.750000372529,-6.47500007450581,-5.0590901374817));
#1931=CARTESIAN_POINT('Origin',(25.000000372529,-6.47500007450581,-5.0590901374817));
#1932=CARTESIAN_POINT('',(21.750000372529,-6.47500007450581,0.940909862518308));
#1933=CARTESIAN_POINT('',(21.750000372529,-6.47500007450581,-5.05909013748169));
#1934=CARTESIAN_POINT('Origin',(25.000000372529,-6.47500007450581,0.940909862518308));
#1935=CARTESIAN_POINT('Origin',(25.000000372529,-6.47500007450581,-5.05909013748169));
#1936=CARTESIAN_POINT('',(21.750000372529,-6.47500007450581,-5.05909013748169));
#1937=CARTESIAN_POINT('Origin',(-37.0000004768372,0.,-5.0590901374817));
#1938=CARTESIAN_POINT('',(37.0000004768372,0.,-5.05909013748169));
#1939=CARTESIAN_POINT('Origin',(-25.000000372529,-7.26322156091386,0.940909862518301));
#1940=CARTESIAN_POINT('',(-21.9847193684762,-11.3985571016897,0.940909862518302));
#1941=CARTESIAN_POINT('Origin',(-19.4319229071556,-6.7,0.940909862518302));
#1942=CARTESIAN_POINT('Origin',(22.2437154120328,-1.4019116118555,0.940909862518307));
#1943=CARTESIAN_POINT('',(22.2437154120328,-1.4019116118555,0.940909862518307));
#1944=CARTESIAN_POINT('',(19.22843440798,-6.32546863903939,0.940909862518307));
#1945=CARTESIAN_POINT('',(22.2437154120328,-1.4019116118555,0.940909862518307));
#1946=CARTESIAN_POINT('Origin',(28.0152813765818,-1.55144304732192,0.940909862518307));
#1947=CARTESIAN_POINT('',(28.0152813765818,-1.55144304732192,0.940909862518308));
#1948=CARTESIAN_POINT('',(22.2437154120328,-1.4019116118555,0.940909862518307));
#1949=CARTESIAN_POINT('',(28.0152813765818,-1.55144304732192,0.940909862518308));
#1950=CARTESIAN_POINT('Origin',(30.7715663370781,-6.62453150997222,0.940909862518308));
#1951=CARTESIAN_POINT('',(30.7715663370781,-6.62453150997222,0.940909862518308));
#1952=CARTESIAN_POINT('',(28.0152813765818,-1.55144304732192,0.940909862518308));
#1953=CARTESIAN_POINT('',(30.7715663370781,-6.62453150997222,0.940909862518308));
#1954=CARTESIAN_POINT('Origin',(30.7253479825167,-6.7,0.940909862518308));
#1955=CARTESIAN_POINT('',(30.7715663370781,-6.62453150997222,0.940909862518308));
#1956=CARTESIAN_POINT('Origin',(25.000000372529,-7.26322156091386,0.940909862518308));
#1957=CARTESIAN_POINT('Origin',(26.5000009536743,0.,28.0420959734037));
#1958=CARTESIAN_POINT('',(26.5000009536743,0.,28.0420959734037));
#1959=CARTESIAN_POINT('',(21.5000009536743,0.,25.1553446274556));
#1960=CARTESIAN_POINT('',(13.395122512277,0.,20.4759908775656));
#1961=CARTESIAN_POINT('',(26.5000009536743,-3.,28.0420959734037));
#1962=CARTESIAN_POINT('',(26.5000009536743,0.,28.0420959734037));
#1963=CARTESIAN_POINT('',(21.5000009536743,-3.,25.1553446274556));
#1964=CARTESIAN_POINT('',(21.5000009536743,-3.,25.1553446274556));
#1965=CARTESIAN_POINT('',(21.5000009536743,0.,25.1553446274556));
#1966=CARTESIAN_POINT('Origin',(31.5000009536743,0.,25.1553446274556));
#1967=CARTESIAN_POINT('',(31.5000009536743,0.,25.1553446274556));
#1968=CARTESIAN_POINT('',(22.2298786798159,0.,30.5074522176885));
#1969=CARTESIAN_POINT('',(31.5000009536743,-3.,25.1553446274556));
#1970=CARTESIAN_POINT('',(31.5000009536743,0.,25.1553446274556));
#1971=CARTESIAN_POINT('',(26.5000009536743,-3.,28.0420959734037));
#1972=CARTESIAN_POINT('Origin',(31.5000009536743,0.,19.3818419355594));
#1973=CARTESIAN_POINT('',(31.5000009536743,0.,19.3818419355594));
#1974=CARTESIAN_POINT('',(31.5000009536743,0.,16.397222597323));
#1975=CARTESIAN_POINT('',(31.5000009536743,-3.,19.3818419355594));
#1976=CARTESIAN_POINT('',(31.5000009536743,0.,19.3818419355594));
#1977=CARTESIAN_POINT('',(31.5000009536743,-3.,25.1553446274556));
#1978=CARTESIAN_POINT('Origin',(26.5000009536743,0.,16.4950905896112));
#1979=CARTESIAN_POINT('',(26.5000009536743,0.,16.4950905896112));
#1980=CARTESIAN_POINT('',(15.895122512277,0.,10.3723611667472));
#1981=CARTESIAN_POINT('',(26.5000009536743,-3.,16.4950905896112));
#1982=CARTESIAN_POINT('',(26.5000009536743,0.,16.4950905896112));
#1983=CARTESIAN_POINT('',(31.5000009536743,-3.,19.3818419355594));
#1984=CARTESIAN_POINT('Origin',(21.5000009536743,0.,19.3818419355594));
#1985=CARTESIAN_POINT('',(21.5000009536743,0.,19.3818419355594));
#1986=CARTESIAN_POINT('',(14.7298786798159,0.,23.2905738528182));
#1987=CARTESIAN_POINT('',(21.5000009536743,-3.,19.3818419355594));
#1988=CARTESIAN_POINT('',(21.5000009536743,0.,19.3818419355594));
#1989=CARTESIAN_POINT('',(26.5000009536743,-3.,16.4950905896112));
#1990=CARTESIAN_POINT('Origin',(21.5000009536743,0.,25.1553446274556));
#1991=CARTESIAN_POINT('',(21.5000009536743,0.,19.2839739432711));
#1992=CARTESIAN_POINT('',(21.5000009536743,-3.,19.3818419355594));
#1993=CARTESIAN_POINT('Origin',(26.5000009536743,-3.,22.2685932815075));
#1994=CARTESIAN_POINT('',(23.2500009536743,-3.,22.2685932815075));
#1995=CARTESIAN_POINT('Origin',(26.5000009536743,-3.,22.2685932815075));
#1996=CARTESIAN_POINT('Origin',(-26.5000009536743,0.,16.4950905896112));
#1997=CARTESIAN_POINT('',(-26.5000009536743,0.,16.4950905896112));
#1998=CARTESIAN_POINT('',(-21.5000009536743,0.,19.3818419355594));
#1999=CARTESIAN_POINT('',(-17.2298786798159,0.,21.8471981798441));
#2000=CARTESIAN_POINT('',(-26.5000009536743,-3.,16.4950905896112));
#2001=CARTESIAN_POINT('',(-26.5000009536743,0.,16.4950905896112));
#2002=CARTESIAN_POINT('',(-21.5000009536743,-3.,19.3818419355594));
#2003=CARTESIAN_POINT('',(-26.5000009536743,-3.,16.4950905896112));
#2004=CARTESIAN_POINT('',(-21.5000009536743,0.,19.3818419355594));
#2005=CARTESIAN_POINT('Origin',(-31.5000009536743,0.,19.3818419355594));
#2006=CARTESIAN_POINT('',(-31.5000009536743,0.,19.3818419355594));
#2007=CARTESIAN_POINT('',(-18.395122512277,0.,11.8157368397213));
#2008=CARTESIAN_POINT('',(-31.5000009536743,-3.,19.3818419355594));
#2009=CARTESIAN_POINT('',(-31.5000009536743,0.,19.3818419355594));
#2010=CARTESIAN_POINT('',(-31.5000009536743,-3.,19.3818419355594));
#2011=CARTESIAN_POINT('Origin',(-31.5000009536743,0.,25.1553446274556));
#2012=CARTESIAN_POINT('',(-31.5000009536743,0.,25.1553446274556));
#2013=CARTESIAN_POINT('',(-31.5000009536743,0.,19.2839739432711));
#2014=CARTESIAN_POINT('',(-31.5000009536743,-3.,25.1553446274556));
#2015=CARTESIAN_POINT('',(-31.5000009536743,0.,25.1553446274556));
#2016=CARTESIAN_POINT('',(-31.5000009536743,-3.,25.1553446274556));
#2017=CARTESIAN_POINT('Origin',(-26.5000009536743,0.,28.0420959734037));
#2018=CARTESIAN_POINT('',(-26.5000009536743,0.,28.0420959734037));
#2019=CARTESIAN_POINT('',(-19.7298786798159,0.,31.9508278906626));
#2020=CARTESIAN_POINT('',(-26.5000009536743,-3.,28.0420959734037));
#2021=CARTESIAN_POINT('',(-26.5000009536743,0.,28.0420959734037));
#2022=CARTESIAN_POINT('',(-26.5000009536743,-3.,28.0420959734037));
#2023=CARTESIAN_POINT('Origin',(-21.5000009536743,0.,25.1553446274556));
#2024=CARTESIAN_POINT('',(-21.5000009536743,0.,25.1553446274556));
#2025=CARTESIAN_POINT('',(-10.8951225122769,0.,19.0326152045916));
#2026=CARTESIAN_POINT('',(-21.5000009536743,-3.,25.1553446274556));
#2027=CARTESIAN_POINT('',(-21.5000009536743,0.,25.1553446274556));
#2028=CARTESIAN_POINT('',(-21.5000009536743,-3.,25.1553446274556));
#2029=CARTESIAN_POINT('Origin',(-21.5000009536743,0.,19.3818419355594));
#2030=CARTESIAN_POINT('',(-21.5000009536743,0.,16.397222597323));
#2031=CARTESIAN_POINT('',(-21.5000009536743,-3.,19.3818419355594));
#2032=CARTESIAN_POINT('Origin',(-26.5000009536743,-3.,22.2685932815075));
#2033=CARTESIAN_POINT('',(-29.7500009536743,-3.,22.2685932815075));
#2034=CARTESIAN_POINT('Origin',(-26.5000009536743,-3.,22.2685932815075));
#2035=CARTESIAN_POINT('Origin',(26.5000009536743,0.,22.2685932815075));
#2036=CARTESIAN_POINT('',(23.2500009536743,0.,22.2685932815075));
#2037=CARTESIAN_POINT('Origin',(-26.5000009536743,0.,22.2685932815075));
#2038=CARTESIAN_POINT('',(-29.7500009536743,0.,22.2685932815075));
#2039=CARTESIAN_POINT('Origin',(-19.5000004768372,0.,31.8842966556549));
#2040=CARTESIAN_POINT('',(-19.5000004768372,0.,31.8842966556549));
#2041=CARTESIAN_POINT('',(-32.9999995231628,0.,27.7685935497284));
#2042=CARTESIAN_POINT('',(-19.5000004768372,0.,31.8842966556549));
#2043=CARTESIAN_POINT('Origin',(-19.5000004768372,0.,21.7685928344727));
#2044=CARTESIAN_POINT('',(-19.5000004768372,0.,21.7685928344727));
#2045=CARTESIAN_POINT('',(-19.5000004768372,0.,31.8842966556549));
#2046=CARTESIAN_POINT('',(-19.5000004768372,0.,21.7685928344727));
#2047=CARTESIAN_POINT('Origin',(1.03816894248857E-14,0.,21.7685928344726));
#2048=CARTESIAN_POINT('',(19.5000004768372,0.,21.7685928344726));
#2049=CARTESIAN_POINT('Origin',(1.03816894248857E-14,0.,21.7685928344726));
#2050=CARTESIAN_POINT('',(19.5000004768372,0.,21.7685928344726));
#2051=CARTESIAN_POINT('Origin',(19.5000004768372,0.,31.8842966556549));
#2052=CARTESIAN_POINT('',(19.5000004768372,0.,31.8842966556549));
#2053=CARTESIAN_POINT('',(19.5000004768372,0.,31.8842966556549));
#2054=CARTESIAN_POINT('',(19.5000004768372,0.,31.8842966556549));
#2055=CARTESIAN_POINT('Origin',(32.9999995231629,0.,27.7685935497284));
#2056=CARTESIAN_POINT('',(32.9999995231629,0.,27.7685935497284));
#2057=CARTESIAN_POINT('Origin',(8.88178419700125E-15,0.,13.4126032590866));
#2058=CARTESIAN_POINT('Origin',(25.000000372529,-6.47500007450581,-12.0590901374817));
#2059=CARTESIAN_POINT('',(21.750000372529,-6.47500007450581,-15.0590901374817));
#2060=CARTESIAN_POINT('Origin',(25.000000372529,-6.47500007450581,-15.0590901374817));
#2061=CARTESIAN_POINT('',(21.750000372529,-6.47500007450581,-12.0590901374817));
#2062=CARTESIAN_POINT('',(21.750000372529,-6.47500007450581,-12.0590901374817));
#2063=CARTESIAN_POINT('Origin',(25.000000372529,-6.47500007450581,-12.0590901374817));
#2064=CARTESIAN_POINT('Origin',(-25.000000372529,-6.47500007450581,-12.0590901374817));
#2065=CARTESIAN_POINT('',(-28.250000372529,-6.47500007450581,-15.0590901374817));
#2066=CARTESIAN_POINT('Origin',(-25.000000372529,-6.47500007450581,-15.0590901374817));
#2067=CARTESIAN_POINT('',(-28.250000372529,-6.47500007450581,-12.0590901374817));
#2068=CARTESIAN_POINT('',(-28.250000372529,-6.47500007450581,-12.0590901374817));
#2069=CARTESIAN_POINT('Origin',(-25.000000372529,-6.47500007450581,-12.0590901374817));
#2070=CARTESIAN_POINT('Origin',(37.0000004768372,-12.9499995708466,-12.0590901374817));
#2071=CARTESIAN_POINT('',(37.0000004768372,-12.9499995708466,-12.0590901374817));
#2072=CARTESIAN_POINT('',(-37.0000004768372,-12.9499995708466,-12.0590901374817));
#2073=CARTESIAN_POINT('',(-18.5000002384186,-12.9499995708466,-12.0590901374817));
#2074=CARTESIAN_POINT('',(-37.0000004768372,-12.9499995708466,-15.0590901374817));
#2075=CARTESIAN_POINT('',(-37.0000004768372,-12.9499995708466,-12.0590901374817));
#2076=CARTESIAN_POINT('',(37.0000004768372,-12.9499995708466,-15.0590901374817));
#2077=CARTESIAN_POINT('',(-18.5000002384186,-12.9499995708466,-15.0590901374817));
#2078=CARTESIAN_POINT('',(37.0000004768372,-12.9499995708466,-12.0590901374817));
#2079=CARTESIAN_POINT('Origin',(37.0000004768372,0.,-12.0590901374817));
#2080=CARTESIAN_POINT('',(37.0000004768372,0.,-12.0590901374817));
#2081=CARTESIAN_POINT('',(37.0000004768372,0.,-12.0590901374817));
#2082=CARTESIAN_POINT('',(37.0000004768372,0.,-15.0590901374817));
#2083=CARTESIAN_POINT('',(37.0000004768372,0.,-15.0590901374817));
#2084=CARTESIAN_POINT('',(37.0000004768372,0.,-12.0590901374817));
#2085=CARTESIAN_POINT('Origin',(-37.0000004768372,0.,-12.0590901374817));
#2086=CARTESIAN_POINT('',(-37.0000004768372,0.,-12.0590901374817));
#2087=CARTESIAN_POINT('',(37.0000004768372,0.,-12.0590901374817));
#2088=CARTESIAN_POINT('',(-37.0000004768372,0.,-15.0590901374817));
#2089=CARTESIAN_POINT('',(37.0000004768372,0.,-15.0590901374817));
#2090=CARTESIAN_POINT('',(-37.0000004768372,0.,-12.0590901374817));
#2091=CARTESIAN_POINT('Origin',(-37.0000004768372,-12.9499995708466,-12.0590901374817));
#2092=CARTESIAN_POINT('',(-37.0000004768372,0.,-12.0590901374817));
#2093=CARTESIAN_POINT('',(-37.0000004768372,0.,-15.0590901374817));
#2094=CARTESIAN_POINT('Origin',(-37.0000004768372,0.,-15.0590901374817));
#2095=CARTESIAN_POINT('Origin',(-37.0000004768372,0.,-12.0590901374817));
#2096=CARTESIAN_POINT('',(0.,0.,0.));
#2097=UNCERTAINTY_MEASURE_WITH_UNIT(LENGTH_MEASURE(0.01),#2103,
'DISTANCE_ACCURACY_VALUE',
'Maximum model space distance between geometric entities at asserted c
onnectivities');
#2098=UNCERTAINTY_MEASURE_WITH_UNIT(LENGTH_MEASURE(0.01),#2103,
'DISTANCE_ACCURACY_VALUE',
'Maximum model space distance between geometric entities at asserted c
onnectivities');
#2099=UNCERTAINTY_MEASURE_WITH_UNIT(LENGTH_MEASURE(0.01),#2103,
'DISTANCE_ACCURACY_VALUE',
'Maximum model space distance between geometric entities at asserted c
onnectivities');
#2100=(
GEOMETRIC_REPRESENTATION_CONTEXT(3)
GLOBAL_UNCERTAINTY_ASSIGNED_CONTEXT((#2097))
GLOBAL_UNIT_ASSIGNED_CONTEXT((#2103,#2105,#2106))
REPRESENTATION_CONTEXT('','3D')
);
#2101=(
GEOMETRIC_REPRESENTATION_CONTEXT(3)
GLOBAL_UNCERTAINTY_ASSIGNED_CONTEXT((#2098))
GLOBAL_UNIT_ASSIGNED_CONTEXT((#2103,#2105,#2106))
REPRESENTATION_CONTEXT('','3D')
);
#2102=(
GEOMETRIC_REPRESENTATION_CONTEXT(3)
GLOBAL_UNCERTAINTY_ASSIGNED_CONTEXT((#2099))
GLOBAL_UNIT_ASSIGNED_CONTEXT((#2103,#2105,#2106))
REPRESENTATION_CONTEXT('','3D')
);
#2103=(
LENGTH_UNIT()
NAMED_UNIT(*)
SI_UNIT(.MILLI.,.METRE.)
);
#2104=(
LENGTH_UNIT()
NAMED_UNIT(*)
SI_UNIT($,.METRE.)
);
#2105=(
NAMED_UNIT(*)
PLANE_ANGLE_UNIT()
SI_UNIT($,.RADIAN.)
);
#2106=(
NAMED_UNIT(*)
SI_UNIT($,.STERADIAN.)
SOLID_ANGLE_UNIT()
);
#2107=SHAPE_DEFINITION_REPRESENTATION(#2109,#2112);
#2108=SHAPE_DEFINITION_REPRESENTATION(#2110,#2113);
#2109=PRODUCT_DEFINITION_SHAPE('',$,#2115);
#2110=PRODUCT_DEFINITION_SHAPE('',$,#2116);
#2111=PRODUCT_DEFINITION_SHAPE($,$,#14);
#2112=SHAPE_REPRESENTATION('',(#1309,#1399),#2100);
#2113=SHAPE_REPRESENTATION('',(#1310),#2101);
#2114=PRODUCT_DEFINITION_CONTEXT('part definition',#2122,'design');
#2115=PRODUCT_DEFINITION('M15_Bearing_Mount','M15_Bearing_Mount v6',#2117,
#2114);
#2116=PRODUCT_DEFINITION('Component1','Component1',#2118,#2114);
#2117=PRODUCT_DEFINITION_FORMATION('',$,#2124);
#2118=PRODUCT_DEFINITION_FORMATION('',$,#2125);
#2119=PRODUCT_RELATED_PRODUCT_CATEGORY('M15_Bearing_Mount v6',
'M15_Bearing_Mount v6',(#2124));
#2120=PRODUCT_RELATED_PRODUCT_CATEGORY('Component1','Component1',(#2125));
#2121=APPLICATION_PROTOCOL_DEFINITION('international standard',
'automotive_design',2009,#2122);
#2122=APPLICATION_CONTEXT(
'Core Data for Automotive Mechanical Design Process');
#2123=PRODUCT_CONTEXT('part definition',#2122,'mechanical');
#2124=PRODUCT('M15_Bearing_Mount','M15_Bearing_Mount v6',$,(#2123));
#2125=PRODUCT('Component1','Component1',$,(#2123));
#2126=PRESENTATION_STYLE_ASSIGNMENT((#2127));
#2127=SURFACE_STYLE_USAGE(.BOTH.,#2128);
#2128=SURFACE_SIDE_STYLE('',(#2129));
#2129=SURFACE_STYLE_FILL_AREA(#2130);
#2130=FILL_AREA_STYLE('Steel - Satin',(#2131));
#2131=FILL_AREA_STYLE_COLOUR('Steel - Satin',#2132);
#2132=COLOUR_RGB('Steel - Satin',0.627450980392157,0.627450980392157,0.627450980392157);
ENDSEC;
END-ISO-10303-21;
