ISO-10303-21;
HEADER;
/* Generated by software containing ST-Developer
 * from STEP Tools, Inc. (www.steptools.com) 
 */

FILE_DESCRIPTION(
/* description */ (''),
/* implementation_level */ '2;1');

FILE_NAME(
/* name */ 'M8_Bearing_Mount v2.step',
/* time_stamp */ '2025-07-05T13:32:32-07:00',
/* author */ (''),
/* organization */ (''),
/* preprocessor_version */ 'ST-DEVELOPER v20.1',
/* originating_system */ 'Autodesk Translation Framework v14.10.0.0',
/* authorisation */ '');

FILE_SCHEMA (('AUTOMOTIVE_DESIGN { 1 0 10303 214 3 1 1 }'));
ENDSEC;

DATA;
#10=MECHANICAL_DESIGN_GEOMETRIC_PRESENTATION_REPRESENTATION('',(#13),#2088);
#11=SHAPE_REPRESENTATION_RELATIONSHIP('SRR','None',#2095,#12);
#12=ADVANCED_BREP_SHAPE_REPRESENTATION('',(#14),#2087);
#13=STYLED_ITEM('',(#2104),#14);
#14=MANIFOLD_SOLID_BREP('Body6',#1300);
#15=CYLINDRICAL_SURFACE('',#1333,3.25);
#16=CYLINDRICAL_SURFACE('',#1335,3.25);
#17=CYLINDRICAL_SURFACE('',#1337,3.25);
#18=CYLINDRICAL_SURFACE('',#1340,3.25);
#19=CYLINDRICAL_SURFACE('',#1369,13.0000007152551);
#20=CYLINDRICAL_SURFACE('',#1373,2.625);
#21=CYLINDRICAL_SURFACE('',#1379,2.625);
#22=FACE_BOUND('',#118,.T.);
#23=FACE_BOUND('',#120,.T.);
#24=FACE_BOUND('',#122,.T.);
#25=FACE_BOUND('',#123,.T.);
#26=FACE_BOUND('',#130,.T.);
#27=FACE_BOUND('',#137,.T.);
#28=FACE_BOUND('',#145,.T.);
#29=FACE_BOUND('',#146,.T.);
#30=FACE_BOUND('',#174,.T.);
#31=FACE_BOUND('',#180,.T.);
#32=FACE_BOUND('',#192,.T.);
#33=FACE_BOUND('',#193,.T.);
#34=FACE_BOUND('',#196,.T.);
#35=FACE_BOUND('',#197,.T.);
#36=CIRCLE('',#1315,3.25);
#37=CIRCLE('',#1317,3.25);
#38=CIRCLE('',#1325,3.25);
#39=CIRCLE('',#1332,3.25);
#40=CIRCLE('',#1334,3.25);
#41=CIRCLE('',#1336,3.25);
#42=CIRCLE('',#1338,3.25);
#43=CIRCLE('',#1341,3.25);
#44=CIRCLE('',#1344,13.0000007152551);
#45=CIRCLE('',#1345,2.625);
#46=CIRCLE('',#1346,2.625);
#47=CIRCLE('',#1370,13.0000007152551);
#48=CIRCLE('',#1374,2.625);
#49=CIRCLE('',#1380,2.625);
#50=FACE_OUTER_BOUND('',#117,.T.);
#51=FACE_OUTER_BOUND('',#119,.T.);
#52=FACE_OUTER_BOUND('',#121,.T.);
#53=FACE_OUTER_BOUND('',#124,.T.);
#54=FACE_OUTER_BOUND('',#125,.T.);
#55=FACE_OUTER_BOUND('',#126,.T.);
#56=FACE_OUTER_BOUND('',#127,.T.);
#57=FACE_OUTER_BOUND('',#128,.T.);
#58=FACE_OUTER_BOUND('',#129,.T.);
#59=FACE_OUTER_BOUND('',#131,.T.);
#60=FACE_OUTER_BOUND('',#132,.T.);
#61=FACE_OUTER_BOUND('',#133,.T.);
#62=FACE_OUTER_BOUND('',#134,.T.);
#63=FACE_OUTER_BOUND('',#135,.T.);
#64=FACE_OUTER_BOUND('',#136,.T.);
#65=FACE_OUTER_BOUND('',#138,.T.);
#66=FACE_OUTER_BOUND('',#139,.T.);
#67=FACE_OUTER_BOUND('',#140,.T.);
#68=FACE_OUTER_BOUND('',#141,.T.);
#69=FACE_OUTER_BOUND('',#142,.T.);
#70=FACE_OUTER_BOUND('',#143,.T.);
#71=FACE_OUTER_BOUND('',#144,.T.);
#72=FACE_OUTER_BOUND('',#147,.T.);
#73=FACE_OUTER_BOUND('',#148,.T.);
#74=FACE_OUTER_BOUND('',#149,.T.);
#75=FACE_OUTER_BOUND('',#150,.T.);
#76=FACE_OUTER_BOUND('',#151,.T.);
#77=FACE_OUTER_BOUND('',#152,.T.);
#78=FACE_OUTER_BOUND('',#153,.T.);
#79=FACE_OUTER_BOUND('',#154,.T.);
#80=FACE_OUTER_BOUND('',#155,.T.);
#81=FACE_OUTER_BOUND('',#156,.T.);
#82=FACE_OUTER_BOUND('',#157,.T.);
#83=FACE_OUTER_BOUND('',#158,.T.);
#84=FACE_OUTER_BOUND('',#159,.T.);
#85=FACE_OUTER_BOUND('',#160,.T.);
#86=FACE_OUTER_BOUND('',#161,.T.);
#87=FACE_OUTER_BOUND('',#162,.T.);
#88=FACE_OUTER_BOUND('',#163,.T.);
#89=FACE_OUTER_BOUND('',#164,.T.);
#90=FACE_OUTER_BOUND('',#165,.T.);
#91=FACE_OUTER_BOUND('',#166,.T.);
#92=FACE_OUTER_BOUND('',#167,.T.);
#93=FACE_OUTER_BOUND('',#168,.T.);
#94=FACE_OUTER_BOUND('',#169,.T.);
#95=FACE_OUTER_BOUND('',#170,.T.);
#96=FACE_OUTER_BOUND('',#171,.T.);
#97=FACE_OUTER_BOUND('',#172,.T.);
#98=FACE_OUTER_BOUND('',#173,.T.);
#99=FACE_OUTER_BOUND('',#175,.T.);
#100=FACE_OUTER_BOUND('',#176,.T.);
#101=FACE_OUTER_BOUND('',#177,.T.);
#102=FACE_OUTER_BOUND('',#178,.T.);
#103=FACE_OUTER_BOUND('',#179,.T.);
#104=FACE_OUTER_BOUND('',#181,.T.);
#105=FACE_OUTER_BOUND('',#182,.T.);
#106=FACE_OUTER_BOUND('',#183,.T.);
#107=FACE_OUTER_BOUND('',#184,.T.);
#108=FACE_OUTER_BOUND('',#185,.T.);
#109=FACE_OUTER_BOUND('',#186,.T.);
#110=FACE_OUTER_BOUND('',#187,.T.);
#111=FACE_OUTER_BOUND('',#188,.T.);
#112=FACE_OUTER_BOUND('',#189,.T.);
#113=FACE_OUTER_BOUND('',#190,.T.);
#114=FACE_OUTER_BOUND('',#191,.T.);
#115=FACE_OUTER_BOUND('',#194,.T.);
#116=FACE_OUTER_BOUND('',#195,.T.);
#117=EDGE_LOOP('',(#819,#820,#821,#822,#823,#824));
#118=EDGE_LOOP('',(#825));
#119=EDGE_LOOP('',(#826,#827,#828,#829,#830,#831));
#120=EDGE_LOOP('',(#832));
#121=EDGE_LOOP('',(#833,#834,#835,#836,#837,#838,#839,#840,#841,#842,#843,
#844,#845,#846,#847,#848,#849,#850,#851,#852,#853,#854,#855,#856,#857));
#122=EDGE_LOOP('',(#858,#859,#860,#861));
#123=EDGE_LOOP('',(#862,#863,#864,#865));
#124=EDGE_LOOP('',(#866,#867,#868,#869));
#125=EDGE_LOOP('',(#870,#871,#872,#873));
#126=EDGE_LOOP('',(#874,#875,#876,#877));
#127=EDGE_LOOP('',(#878,#879,#880,#881));
#128=EDGE_LOOP('',(#882,#883,#884,#885));
#129=EDGE_LOOP('',(#886,#887,#888,#889,#890,#891));
#130=EDGE_LOOP('',(#892));
#131=EDGE_LOOP('',(#893,#894,#895,#896));
#132=EDGE_LOOP('',(#897,#898,#899,#900));
#133=EDGE_LOOP('',(#901,#902,#903,#904));
#134=EDGE_LOOP('',(#905,#906,#907,#908));
#135=EDGE_LOOP('',(#909,#910,#911,#912));
#136=EDGE_LOOP('',(#913,#914,#915,#916,#917,#918));
#137=EDGE_LOOP('',(#919));
#138=EDGE_LOOP('',(#920,#921,#922,#923));
#139=EDGE_LOOP('',(#924,#925,#926,#927));
#140=EDGE_LOOP('',(#928,#929,#930,#931));
#141=EDGE_LOOP('',(#932));
#142=EDGE_LOOP('',(#933,#934,#935,#936));
#143=EDGE_LOOP('',(#937));
#144=EDGE_LOOP('',(#938,#939,#940,#941,#942,#943,#944,#945,#946,#947,#948,
#949,#950,#951,#952,#953,#954,#955,#956,#957,#958,#959,#960,#961,#962));
#145=EDGE_LOOP('',(#963));
#146=EDGE_LOOP('',(#964));
#147=EDGE_LOOP('',(#965,#966,#967,#968));
#148=EDGE_LOOP('',(#969,#970,#971,#972));
#149=EDGE_LOOP('',(#973,#974,#975,#976));
#150=EDGE_LOOP('',(#977,#978,#979,#980));
#151=EDGE_LOOP('',(#981,#982,#983,#984));
#152=EDGE_LOOP('',(#985,#986,#987,#988));
#153=EDGE_LOOP('',(#989,#990,#991,#992));
#154=EDGE_LOOP('',(#993,#994,#995,#996));
#155=EDGE_LOOP('',(#997,#998,#999,#1000));
#156=EDGE_LOOP('',(#1001,#1002,#1003,#1004));
#157=EDGE_LOOP('',(#1005,#1006,#1007,#1008));
#158=EDGE_LOOP('',(#1009,#1010,#1011,#1012));
#159=EDGE_LOOP('',(#1013,#1014,#1015,#1016));
#160=EDGE_LOOP('',(#1017,#1018,#1019,#1020));
#161=EDGE_LOOP('',(#1021,#1022,#1023,#1024));
#162=EDGE_LOOP('',(#1025,#1026,#1027,#1028));
#163=EDGE_LOOP('',(#1029,#1030,#1031,#1032));
#164=EDGE_LOOP('',(#1033,#1034,#1035,#1036));
#165=EDGE_LOOP('',(#1037,#1038,#1039,#1040));
#166=EDGE_LOOP('',(#1041,#1042,#1043,#1044));
#167=EDGE_LOOP('',(#1045,#1046,#1047,#1048,#1049,#1050));
#168=EDGE_LOOP('',(#1051,#1052,#1053,#1054));
#169=EDGE_LOOP('',(#1055,#1056,#1057,#1058));
#170=EDGE_LOOP('',(#1059,#1060,#1061,#1062));
#171=EDGE_LOOP('',(#1063,#1064,#1065,#1066,#1067,#1068));
#172=EDGE_LOOP('',(#1069,#1070,#1071,#1072));
#173=EDGE_LOOP('',(#1073,#1074,#1075,#1076,#1077,#1078));
#174=EDGE_LOOP('',(#1079));
#175=EDGE_LOOP('',(#1080,#1081,#1082,#1083));
#176=EDGE_LOOP('',(#1084,#1085,#1086,#1087));
#177=EDGE_LOOP('',(#1088,#1089,#1090,#1091));
#178=EDGE_LOOP('',(#1092,#1093,#1094,#1095));
#179=EDGE_LOOP('',(#1096,#1097,#1098,#1099,#1100,#1101));
#180=EDGE_LOOP('',(#1102));
#181=EDGE_LOOP('',(#1103,#1104,#1105,#1106));
#182=EDGE_LOOP('',(#1107,#1108,#1109,#1110));
#183=EDGE_LOOP('',(#1111,#1112,#1113,#1114));
#184=EDGE_LOOP('',(#1115,#1116,#1117,#1118));
#185=EDGE_LOOP('',(#1119,#1120,#1121,#1122));
#186=EDGE_LOOP('',(#1123,#1124,#1125,#1126));
#187=EDGE_LOOP('',(#1127,#1128,#1129,#1130));
#188=EDGE_LOOP('',(#1131,#1132,#1133,#1134));
#189=EDGE_LOOP('',(#1135,#1136,#1137,#1138));
#190=EDGE_LOOP('',(#1139,#1140,#1141,#1142));
#191=EDGE_LOOP('',(#1143,#1144,#1145,#1146));
#192=EDGE_LOOP('',(#1147));
#193=EDGE_LOOP('',(#1148));
#194=EDGE_LOOP('',(#1149,#1150,#1151,#1152));
#195=EDGE_LOOP('',(#1153,#1154,#1155,#1156,#1157,#1158,#1159,#1160));
#196=EDGE_LOOP('',(#1161,#1162,#1163,#1164,#1165,#1166));
#197=EDGE_LOOP('',(#1167,#1168,#1169,#1170,#1171,#1172));
#198=LINE('',#1726,#361);
#199=LINE('',#1728,#362);
#200=LINE('',#1730,#363);
#201=LINE('',#1732,#364);
#202=LINE('',#1734,#365);
#203=LINE('',#1735,#366);
#204=LINE('',#1741,#367);
#205=LINE('',#1743,#368);
#206=LINE('',#1745,#369);
#207=LINE('',#1747,#370);
#208=LINE('',#1749,#371);
#209=LINE('',#1750,#372);
#210=LINE('',#1756,#373);
#211=LINE('',#1758,#374);
#212=LINE('',#1760,#375);
#213=LINE('',#1762,#376);
#214=LINE('',#1764,#377);
#215=LINE('',#1766,#378);
#216=LINE('',#1768,#379);
#217=LINE('',#1770,#380);
#218=LINE('',#1772,#381);
#219=LINE('',#1774,#382);
#220=LINE('',#1776,#383);
#221=LINE('',#1778,#384);
#222=LINE('',#1780,#385);
#223=LINE('',#1782,#386);
#224=LINE('',#1784,#387);
#225=LINE('',#1786,#388);
#226=LINE('',#1788,#389);
#227=LINE('',#1790,#390);
#228=LINE('',#1792,#391);
#229=LINE('',#1794,#392);
#230=LINE('',#1796,#393);
#231=LINE('',#1798,#394);
#232=LINE('',#1800,#395);
#233=LINE('',#1802,#396);
#234=LINE('',#1803,#397);
#235=LINE('',#1805,#398);
#236=LINE('',#1807,#399);
#237=LINE('',#1808,#400);
#238=LINE('',#1810,#401);
#239=LINE('',#1812,#402);
#240=LINE('',#1813,#403);
#241=LINE('',#1816,#404);
#242=LINE('',#1817,#405);
#243=LINE('',#1820,#406);
#244=LINE('',#1821,#407);
#245=LINE('',#1824,#408);
#246=LINE('',#1825,#409);
#247=LINE('',#1828,#410);
#248=LINE('',#1829,#411);
#249=LINE('',#1831,#412);
#250=LINE('',#1838,#413);
#251=LINE('',#1839,#414);
#252=LINE('',#1840,#415);
#253=LINE('',#1843,#416);
#254=LINE('',#1844,#417);
#255=LINE('',#1846,#418);
#256=LINE('',#1849,#419);
#257=LINE('',#1850,#420);
#258=LINE('',#1852,#421);
#259=LINE('',#1858,#422);
#260=LINE('',#1862,#423);
#261=LINE('',#1867,#424);
#262=LINE('',#1872,#425);
#263=LINE('',#1877,#426);
#264=LINE('',#1879,#427);
#265=LINE('',#1881,#428);
#266=LINE('',#1883,#429);
#267=LINE('',#1885,#430);
#268=LINE('',#1887,#431);
#269=LINE('',#1889,#432);
#270=LINE('',#1891,#433);
#271=LINE('',#1893,#434);
#272=LINE('',#1895,#435);
#273=LINE('',#1897,#436);
#274=LINE('',#1899,#437);
#275=LINE('',#1901,#438);
#276=LINE('',#1903,#439);
#277=LINE('',#1905,#440);
#278=LINE('',#1907,#441);
#279=LINE('',#1909,#442);
#280=LINE('',#1911,#443);
#281=LINE('',#1913,#444);
#282=LINE('',#1915,#445);
#283=LINE('',#1917,#446);
#284=LINE('',#1919,#447);
#285=LINE('',#1921,#448);
#286=LINE('',#1923,#449);
#287=LINE('',#1930,#450);
#288=LINE('',#1931,#451);
#289=LINE('',#1933,#452);
#290=LINE('',#1935,#453);
#291=LINE('',#1937,#454);
#292=LINE('',#1939,#455);
#293=LINE('',#1941,#456);
#294=LINE('',#1943,#457);
#295=LINE('',#1945,#458);
#296=LINE('',#1947,#459);
#297=LINE('',#1949,#460);
#298=LINE('',#1951,#461);
#299=LINE('',#1953,#462);
#300=LINE('',#1955,#463);
#301=LINE('',#1957,#464);
#302=LINE('',#1959,#465);
#303=LINE('',#1961,#466);
#304=LINE('',#1963,#467);
#305=LINE('',#1965,#468);
#306=LINE('',#1967,#469);
#307=LINE('',#1969,#470);
#308=LINE('',#1972,#471);
#309=LINE('',#1974,#472);
#310=LINE('',#1975,#473);
#311=LINE('',#1978,#474);
#312=LINE('',#1979,#475);
#313=LINE('',#1982,#476);
#314=LINE('',#1986,#477);
#315=LINE('',#1987,#478);
#316=LINE('',#1990,#479);
#317=LINE('',#1991,#480);
#318=LINE('',#1994,#481);
#319=LINE('',#1999,#482);
#320=LINE('',#2001,#483);
#321=LINE('',#2003,#484);
#322=LINE('',#2005,#485);
#323=LINE('',#2007,#486);
#324=LINE('',#2008,#487);
#325=LINE('',#2011,#488);
#326=LINE('',#2013,#489);
#327=LINE('',#2014,#490);
#328=LINE('',#2017,#491);
#329=LINE('',#2018,#492);
#330=LINE('',#2021,#493);
#331=LINE('',#2022,#494);
#332=LINE('',#2025,#495);
#333=LINE('',#2030,#496);
#334=LINE('',#2032,#497);
#335=LINE('',#2034,#498);
#336=LINE('',#2036,#499);
#337=LINE('',#2038,#500);
#338=LINE('',#2039,#501);
#339=LINE('',#2042,#502);
#340=LINE('',#2044,#503);
#341=LINE('',#2045,#504);
#342=LINE('',#2048,#505);
#343=LINE('',#2049,#506);
#344=LINE('',#2052,#507);
#345=LINE('',#2053,#508);
#346=LINE('',#2056,#509);
#347=LINE('',#2057,#510);
#348=LINE('',#2060,#511);
#349=LINE('',#2061,#512);
#350=LINE('',#2063,#513);
#351=LINE('',#2066,#514);
#352=LINE('',#2067,#515);
#353=LINE('',#2070,#516);
#354=LINE('',#2071,#517);
#355=LINE('',#2073,#518);
#356=LINE('',#2076,#519);
#357=LINE('',#2077,#520);
#358=LINE('',#2080,#521);
#359=LINE('',#2081,#522);
#360=LINE('',#2083,#523);
#361=VECTOR('',#1399,10.);
#362=VECTOR('',#1400,10.);
#363=VECTOR('',#1401,10.);
#364=VECTOR('',#1402,10.);
#365=VECTOR('',#1403,10.);
#366=VECTOR('',#1404,10.);
#367=VECTOR('',#1409,10.);
#368=VECTOR('',#1410,10.);
#369=VECTOR('',#1411,10.);
#370=VECTOR('',#1412,10.);
#371=VECTOR('',#1413,10.);
#372=VECTOR('',#1414,10.);
#373=VECTOR('',#1419,10.);
#374=VECTOR('',#1420,10.);
#375=VECTOR('',#1421,10.);
#376=VECTOR('',#1422,10.);
#377=VECTOR('',#1423,10.);
#378=VECTOR('',#1424,10.);
#379=VECTOR('',#1425,10.);
#380=VECTOR('',#1426,10.);
#381=VECTOR('',#1427,10.);
#382=VECTOR('',#1428,10.);
#383=VECTOR('',#1429,10.);
#384=VECTOR('',#1430,10.);
#385=VECTOR('',#1431,10.);
#386=VECTOR('',#1432,10.);
#387=VECTOR('',#1433,10.);
#388=VECTOR('',#1434,10.);
#389=VECTOR('',#1435,10.);
#390=VECTOR('',#1436,10.);
#391=VECTOR('',#1437,10.);
#392=VECTOR('',#1438,10.);
#393=VECTOR('',#1439,10.);
#394=VECTOR('',#1440,10.);
#395=VECTOR('',#1441,10.);
#396=VECTOR('',#1442,10.);
#397=VECTOR('',#1443,10.);
#398=VECTOR('',#1444,10.);
#399=VECTOR('',#1445,10.);
#400=VECTOR('',#1446,10.);
#401=VECTOR('',#1447,10.);
#402=VECTOR('',#1448,10.);
#403=VECTOR('',#1449,10.);
#404=VECTOR('',#1452,10.);
#405=VECTOR('',#1453,10.);
#406=VECTOR('',#1456,10.);
#407=VECTOR('',#1457,10.);
#408=VECTOR('',#1460,10.);
#409=VECTOR('',#1461,10.);
#410=VECTOR('',#1464,10.);
#411=VECTOR('',#1465,10.);
#412=VECTOR('',#1468,10.);
#413=VECTOR('',#1475,10.);
#414=VECTOR('',#1476,10.);
#415=VECTOR('',#1477,10.);
#416=VECTOR('',#1480,10.);
#417=VECTOR('',#1481,10.);
#418=VECTOR('',#1484,10.);
#419=VECTOR('',#1487,10.);
#420=VECTOR('',#1488,10.);
#421=VECTOR('',#1491,10.);
#422=VECTOR('',#1498,3.25);
#423=VECTOR('',#1503,3.25);
#424=VECTOR('',#1510,3.25);
#425=VECTOR('',#1517,3.25);
#426=VECTOR('',#1522,10.);
#427=VECTOR('',#1523,10.);
#428=VECTOR('',#1524,10.);
#429=VECTOR('',#1525,10.);
#430=VECTOR('',#1526,10.);
#431=VECTOR('',#1527,10.);
#432=VECTOR('',#1528,10.);
#433=VECTOR('',#1529,10.);
#434=VECTOR('',#1530,10.);
#435=VECTOR('',#1531,10.);
#436=VECTOR('',#1532,10.);
#437=VECTOR('',#1533,10.);
#438=VECTOR('',#1534,10.);
#439=VECTOR('',#1535,10.);
#440=VECTOR('',#1536,10.);
#441=VECTOR('',#1537,10.);
#442=VECTOR('',#1538,10.);
#443=VECTOR('',#1539,10.);
#444=VECTOR('',#1540,10.);
#445=VECTOR('',#1541,10.);
#446=VECTOR('',#1542,10.);
#447=VECTOR('',#1543,10.);
#448=VECTOR('',#1544,10.);
#449=VECTOR('',#1545,10.);
#450=VECTOR('',#1554,10.);
#451=VECTOR('',#1555,10.);
#452=VECTOR('',#1558,10.);
#453=VECTOR('',#1561,10.);
#454=VECTOR('',#1564,10.);
#455=VECTOR('',#1567,10.);
#456=VECTOR('',#1570,10.);
#457=VECTOR('',#1573,10.);
#458=VECTOR('',#1576,10.);
#459=VECTOR('',#1579,10.);
#460=VECTOR('',#1582,10.);
#461=VECTOR('',#1585,10.);
#462=VECTOR('',#1588,10.);
#463=VECTOR('',#1591,10.);
#464=VECTOR('',#1594,10.);
#465=VECTOR('',#1597,10.);
#466=VECTOR('',#1600,10.);
#467=VECTOR('',#1603,10.);
#468=VECTOR('',#1606,10.);
#469=VECTOR('',#1609,10.);
#470=VECTOR('',#1612,10.);
#471=VECTOR('',#1615,10.);
#472=VECTOR('',#1616,10.);
#473=VECTOR('',#1617,10.);
#474=VECTOR('',#1620,10.);
#475=VECTOR('',#1621,10.);
#476=VECTOR('',#1624,10.);
#477=VECTOR('',#1629,10.);
#478=VECTOR('',#1630,10.);
#479=VECTOR('',#1633,10.);
#480=VECTOR('',#1634,10.);
#481=VECTOR('',#1637,2.625);
#482=VECTOR('',#1642,10.);
#483=VECTOR('',#1643,10.);
#484=VECTOR('',#1644,10.);
#485=VECTOR('',#1645,10.);
#486=VECTOR('',#1646,10.);
#487=VECTOR('',#1647,10.);
#488=VECTOR('',#1650,10.);
#489=VECTOR('',#1651,10.);
#490=VECTOR('',#1652,10.);
#491=VECTOR('',#1655,10.);
#492=VECTOR('',#1656,10.);
#493=VECTOR('',#1659,10.);
#494=VECTOR('',#1660,10.);
#495=VECTOR('',#1663,2.625);
#496=VECTOR('',#1668,10.);
#497=VECTOR('',#1669,10.);
#498=VECTOR('',#1670,10.);
#499=VECTOR('',#1671,10.);
#500=VECTOR('',#1672,10.);
#501=VECTOR('',#1673,10.);
#502=VECTOR('',#1676,10.);
#503=VECTOR('',#1677,10.);
#504=VECTOR('',#1678,10.);
#505=VECTOR('',#1681,10.);
#506=VECTOR('',#1682,10.);
#507=VECTOR('',#1685,10.);
#508=VECTOR('',#1686,10.);
#509=VECTOR('',#1689,10.);
#510=VECTOR('',#1690,10.);
#511=VECTOR('',#1693,10.);
#512=VECTOR('',#1694,10.);
#513=VECTOR('',#1697,10.);
#514=VECTOR('',#1700,10.);
#515=VECTOR('',#1701,10.);
#516=VECTOR('',#1704,10.);
#517=VECTOR('',#1705,10.);
#518=VECTOR('',#1708,10.);
#519=VECTOR('',#1711,10.);
#520=VECTOR('',#1712,10.);
#521=VECTOR('',#1715,10.);
#522=VECTOR('',#1716,10.);
#523=VECTOR('',#1719,10.);
#524=VERTEX_POINT('',#1724);
#525=VERTEX_POINT('',#1725);
#526=VERTEX_POINT('',#1727);
#527=VERTEX_POINT('',#1729);
#528=VERTEX_POINT('',#1731);
#529=VERTEX_POINT('',#1733);
#530=VERTEX_POINT('',#1736);
#531=VERTEX_POINT('',#1739);
#532=VERTEX_POINT('',#1740);
#533=VERTEX_POINT('',#1742);
#534=VERTEX_POINT('',#1744);
#535=VERTEX_POINT('',#1746);
#536=VERTEX_POINT('',#1748);
#537=VERTEX_POINT('',#1751);
#538=VERTEX_POINT('',#1754);
#539=VERTEX_POINT('',#1755);
#540=VERTEX_POINT('',#1757);
#541=VERTEX_POINT('',#1759);
#542=VERTEX_POINT('',#1761);
#543=VERTEX_POINT('',#1763);
#544=VERTEX_POINT('',#1765);
#545=VERTEX_POINT('',#1767);
#546=VERTEX_POINT('',#1769);
#547=VERTEX_POINT('',#1771);
#548=VERTEX_POINT('',#1773);
#549=VERTEX_POINT('',#1775);
#550=VERTEX_POINT('',#1777);
#551=VERTEX_POINT('',#1779);
#552=VERTEX_POINT('',#1781);
#553=VERTEX_POINT('',#1783);
#554=VERTEX_POINT('',#1785);
#555=VERTEX_POINT('',#1787);
#556=VERTEX_POINT('',#1789);
#557=VERTEX_POINT('',#1791);
#558=VERTEX_POINT('',#1793);
#559=VERTEX_POINT('',#1795);
#560=VERTEX_POINT('',#1797);
#561=VERTEX_POINT('',#1799);
#562=VERTEX_POINT('',#1801);
#563=VERTEX_POINT('',#1804);
#564=VERTEX_POINT('',#1806);
#565=VERTEX_POINT('',#1809);
#566=VERTEX_POINT('',#1811);
#567=VERTEX_POINT('',#1815);
#568=VERTEX_POINT('',#1819);
#569=VERTEX_POINT('',#1823);
#570=VERTEX_POINT('',#1827);
#571=VERTEX_POINT('',#1833);
#572=VERTEX_POINT('',#1836);
#573=VERTEX_POINT('',#1837);
#574=VERTEX_POINT('',#1842);
#575=VERTEX_POINT('',#1848);
#576=VERTEX_POINT('',#1854);
#577=VERTEX_POINT('',#1857);
#578=VERTEX_POINT('',#1861);
#579=VERTEX_POINT('',#1865);
#580=VERTEX_POINT('',#1870);
#581=VERTEX_POINT('',#1875);
#582=VERTEX_POINT('',#1876);
#583=VERTEX_POINT('',#1878);
#584=VERTEX_POINT('',#1880);
#585=VERTEX_POINT('',#1882);
#586=VERTEX_POINT('',#1884);
#587=VERTEX_POINT('',#1886);
#588=VERTEX_POINT('',#1888);
#589=VERTEX_POINT('',#1890);
#590=VERTEX_POINT('',#1892);
#591=VERTEX_POINT('',#1894);
#592=VERTEX_POINT('',#1896);
#593=VERTEX_POINT('',#1898);
#594=VERTEX_POINT('',#1900);
#595=VERTEX_POINT('',#1902);
#596=VERTEX_POINT('',#1904);
#597=VERTEX_POINT('',#1906);
#598=VERTEX_POINT('',#1908);
#599=VERTEX_POINT('',#1910);
#600=VERTEX_POINT('',#1912);
#601=VERTEX_POINT('',#1914);
#602=VERTEX_POINT('',#1916);
#603=VERTEX_POINT('',#1918);
#604=VERTEX_POINT('',#1920);
#605=VERTEX_POINT('',#1922);
#606=VERTEX_POINT('',#1925);
#607=VERTEX_POINT('',#1927);
#608=VERTEX_POINT('',#1971);
#609=VERTEX_POINT('',#1973);
#610=VERTEX_POINT('',#1977);
#611=VERTEX_POINT('',#1981);
#612=VERTEX_POINT('',#1985);
#613=VERTEX_POINT('',#1989);
#614=VERTEX_POINT('',#1993);
#615=VERTEX_POINT('',#1997);
#616=VERTEX_POINT('',#1998);
#617=VERTEX_POINT('',#2000);
#618=VERTEX_POINT('',#2002);
#619=VERTEX_POINT('',#2004);
#620=VERTEX_POINT('',#2006);
#621=VERTEX_POINT('',#2010);
#622=VERTEX_POINT('',#2012);
#623=VERTEX_POINT('',#2016);
#624=VERTEX_POINT('',#2020);
#625=VERTEX_POINT('',#2024);
#626=VERTEX_POINT('',#2028);
#627=VERTEX_POINT('',#2029);
#628=VERTEX_POINT('',#2031);
#629=VERTEX_POINT('',#2033);
#630=VERTEX_POINT('',#2035);
#631=VERTEX_POINT('',#2037);
#632=VERTEX_POINT('',#2041);
#633=VERTEX_POINT('',#2043);
#634=VERTEX_POINT('',#2047);
#635=VERTEX_POINT('',#2051);
#636=VERTEX_POINT('',#2055);
#637=VERTEX_POINT('',#2059);
#638=VERTEX_POINT('',#2065);
#639=VERTEX_POINT('',#2069);
#640=VERTEX_POINT('',#2075);
#641=VERTEX_POINT('',#2079);
#642=EDGE_CURVE('',#524,#525,#198,.T.);
#643=EDGE_CURVE('',#526,#524,#199,.T.);
#644=EDGE_CURVE('',#527,#526,#200,.T.);
#645=EDGE_CURVE('',#528,#527,#201,.T.);
#646=EDGE_CURVE('',#529,#528,#202,.T.);
#647=EDGE_CURVE('',#525,#529,#203,.T.);
#648=EDGE_CURVE('',#530,#530,#36,.T.);
#649=EDGE_CURVE('',#531,#532,#204,.T.);
#650=EDGE_CURVE('',#533,#531,#205,.T.);
#651=EDGE_CURVE('',#534,#533,#206,.T.);
#652=EDGE_CURVE('',#535,#534,#207,.T.);
#653=EDGE_CURVE('',#536,#535,#208,.T.);
#654=EDGE_CURVE('',#532,#536,#209,.T.);
#655=EDGE_CURVE('',#537,#537,#37,.T.);
#656=EDGE_CURVE('',#538,#539,#210,.T.);
#657=EDGE_CURVE('',#539,#540,#211,.T.);
#658=EDGE_CURVE('',#540,#541,#212,.T.);
#659=EDGE_CURVE('',#541,#542,#213,.T.);
#660=EDGE_CURVE('',#542,#543,#214,.T.);
#661=EDGE_CURVE('',#543,#544,#215,.T.);
#662=EDGE_CURVE('',#544,#545,#216,.T.);
#663=EDGE_CURVE('',#545,#546,#217,.T.);
#664=EDGE_CURVE('',#546,#547,#218,.T.);
#665=EDGE_CURVE('',#547,#548,#219,.T.);
#666=EDGE_CURVE('',#548,#549,#220,.T.);
#667=EDGE_CURVE('',#549,#550,#221,.T.);
#668=EDGE_CURVE('',#550,#551,#222,.T.);
#669=EDGE_CURVE('',#551,#552,#223,.T.);
#670=EDGE_CURVE('',#552,#553,#224,.T.);
#671=EDGE_CURVE('',#553,#554,#225,.T.);
#672=EDGE_CURVE('',#554,#555,#226,.T.);
#673=EDGE_CURVE('',#555,#556,#227,.T.);
#674=EDGE_CURVE('',#556,#557,#228,.T.);
#675=EDGE_CURVE('',#557,#558,#229,.T.);
#676=EDGE_CURVE('',#558,#559,#230,.T.);
#677=EDGE_CURVE('',#559,#560,#231,.T.);
#678=EDGE_CURVE('',#560,#561,#232,.T.);
#679=EDGE_CURVE('',#561,#562,#233,.T.);
#680=EDGE_CURVE('',#562,#538,#234,.T.);
#681=EDGE_CURVE('',#563,#536,#235,.T.);
#682=EDGE_CURVE('',#535,#564,#236,.T.);
#683=EDGE_CURVE('',#564,#563,#237,.T.);
#684=EDGE_CURVE('',#524,#565,#238,.T.);
#685=EDGE_CURVE('',#565,#566,#239,.T.);
#686=EDGE_CURVE('',#566,#526,#240,.T.);
#687=EDGE_CURVE('',#566,#567,#241,.T.);
#688=EDGE_CURVE('',#567,#527,#242,.T.);
#689=EDGE_CURVE('',#568,#567,#243,.T.);
#690=EDGE_CURVE('',#568,#528,#244,.T.);
#691=EDGE_CURVE('',#569,#568,#245,.T.);
#692=EDGE_CURVE('',#569,#529,#246,.T.);
#693=EDGE_CURVE('',#570,#569,#247,.T.);
#694=EDGE_CURVE('',#570,#525,#248,.T.);
#695=EDGE_CURVE('',#570,#565,#249,.T.);
#696=EDGE_CURVE('',#571,#571,#38,.T.);
#697=EDGE_CURVE('',#572,#573,#250,.T.);
#698=EDGE_CURVE('',#573,#533,#251,.T.);
#699=EDGE_CURVE('',#572,#531,#252,.T.);
#700=EDGE_CURVE('',#573,#574,#253,.T.);
#701=EDGE_CURVE('',#574,#534,#254,.T.);
#702=EDGE_CURVE('',#574,#564,#255,.T.);
#703=EDGE_CURVE('',#563,#575,#256,.T.);
#704=EDGE_CURVE('',#575,#532,#257,.T.);
#705=EDGE_CURVE('',#575,#572,#258,.T.);
#706=EDGE_CURVE('',#576,#576,#39,.T.);
#707=EDGE_CURVE('',#530,#577,#259,.T.);
#708=EDGE_CURVE('',#577,#577,#40,.T.);
#709=EDGE_CURVE('',#537,#578,#260,.T.);
#710=EDGE_CURVE('',#578,#578,#41,.T.);
#711=EDGE_CURVE('',#579,#579,#42,.T.);
#712=EDGE_CURVE('',#579,#576,#261,.T.);
#713=EDGE_CURVE('',#580,#580,#43,.T.);
#714=EDGE_CURVE('',#580,#571,#262,.T.);
#715=EDGE_CURVE('',#581,#582,#263,.T.);
#716=EDGE_CURVE('',#583,#581,#264,.T.);
#717=EDGE_CURVE('',#583,#584,#265,.T.);
#718=EDGE_CURVE('',#584,#585,#266,.T.);
#719=EDGE_CURVE('',#585,#586,#267,.T.);
#720=EDGE_CURVE('',#586,#587,#268,.T.);
#721=EDGE_CURVE('',#587,#588,#269,.T.);
#722=EDGE_CURVE('',#588,#589,#270,.T.);
#723=EDGE_CURVE('',#589,#590,#271,.T.);
#724=EDGE_CURVE('',#590,#591,#272,.T.);
#725=EDGE_CURVE('',#591,#592,#273,.T.);
#726=EDGE_CURVE('',#592,#593,#274,.T.);
#727=EDGE_CURVE('',#593,#594,#275,.T.);
#728=EDGE_CURVE('',#594,#595,#276,.T.);
#729=EDGE_CURVE('',#595,#596,#277,.T.);
#730=EDGE_CURVE('',#596,#597,#278,.T.);
#731=EDGE_CURVE('',#597,#598,#279,.T.);
#732=EDGE_CURVE('',#598,#599,#280,.T.);
#733=EDGE_CURVE('',#599,#600,#281,.T.);
#734=EDGE_CURVE('',#600,#601,#282,.T.);
#735=EDGE_CURVE('',#601,#602,#283,.T.);
#736=EDGE_CURVE('',#602,#603,#284,.T.);
#737=EDGE_CURVE('',#604,#603,#285,.T.);
#738=EDGE_CURVE('',#605,#604,#286,.T.);
#739=EDGE_CURVE('',#582,#605,#44,.T.);
#740=EDGE_CURVE('',#606,#606,#45,.T.);
#741=EDGE_CURVE('',#607,#607,#46,.T.);
#742=EDGE_CURVE('',#602,#545,#287,.T.);
#743=EDGE_CURVE('',#603,#544,#288,.T.);
#744=EDGE_CURVE('',#601,#546,#289,.T.);
#745=EDGE_CURVE('',#600,#547,#290,.T.);
#746=EDGE_CURVE('',#599,#548,#291,.T.);
#747=EDGE_CURVE('',#598,#549,#292,.T.);
#748=EDGE_CURVE('',#597,#550,#293,.T.);
#749=EDGE_CURVE('',#596,#551,#294,.T.);
#750=EDGE_CURVE('',#595,#552,#295,.T.);
#751=EDGE_CURVE('',#594,#553,#296,.T.);
#752=EDGE_CURVE('',#593,#554,#297,.T.);
#753=EDGE_CURVE('',#592,#555,#298,.T.);
#754=EDGE_CURVE('',#591,#556,#299,.T.);
#755=EDGE_CURVE('',#590,#557,#300,.T.);
#756=EDGE_CURVE('',#589,#558,#301,.T.);
#757=EDGE_CURVE('',#588,#559,#302,.T.);
#758=EDGE_CURVE('',#587,#560,#303,.T.);
#759=EDGE_CURVE('',#586,#561,#304,.T.);
#760=EDGE_CURVE('',#585,#562,#305,.T.);
#761=EDGE_CURVE('',#584,#538,#306,.T.);
#762=EDGE_CURVE('',#539,#583,#307,.T.);
#763=EDGE_CURVE('',#608,#581,#308,.T.);
#764=EDGE_CURVE('',#608,#609,#309,.T.);
#765=EDGE_CURVE('',#609,#540,#310,.T.);
#766=EDGE_CURVE('',#610,#582,#311,.T.);
#767=EDGE_CURVE('',#608,#610,#312,.T.);
#768=EDGE_CURVE('',#611,#605,#313,.T.);
#769=EDGE_CURVE('',#611,#610,#47,.T.);
#770=EDGE_CURVE('',#612,#604,#314,.T.);
#771=EDGE_CURVE('',#611,#612,#315,.T.);
#772=EDGE_CURVE('',#613,#543,#316,.T.);
#773=EDGE_CURVE('',#613,#612,#317,.T.);
#774=EDGE_CURVE('',#607,#614,#318,.T.);
#775=EDGE_CURVE('',#614,#614,#48,.T.);
#776=EDGE_CURVE('',#615,#616,#319,.T.);
#777=EDGE_CURVE('',#617,#615,#320,.T.);
#778=EDGE_CURVE('',#618,#617,#321,.T.);
#779=EDGE_CURVE('',#619,#618,#322,.T.);
#780=EDGE_CURVE('',#620,#619,#323,.T.);
#781=EDGE_CURVE('',#616,#620,#324,.T.);
#782=EDGE_CURVE('',#621,#617,#325,.T.);
#783=EDGE_CURVE('',#622,#621,#326,.T.);
#784=EDGE_CURVE('',#622,#618,#327,.T.);
#785=EDGE_CURVE('',#623,#615,#328,.T.);
#786=EDGE_CURVE('',#621,#623,#329,.T.);
#787=EDGE_CURVE('',#624,#616,#330,.T.);
#788=EDGE_CURVE('',#623,#624,#331,.T.);
#789=EDGE_CURVE('',#606,#625,#332,.T.);
#790=EDGE_CURVE('',#625,#625,#49,.T.);
#791=EDGE_CURVE('',#626,#627,#333,.T.);
#792=EDGE_CURVE('',#628,#626,#334,.T.);
#793=EDGE_CURVE('',#629,#628,#335,.T.);
#794=EDGE_CURVE('',#630,#629,#336,.T.);
#795=EDGE_CURVE('',#631,#630,#337,.T.);
#796=EDGE_CURVE('',#627,#631,#338,.T.);
#797=EDGE_CURVE('',#632,#628,#339,.T.);
#798=EDGE_CURVE('',#633,#632,#340,.T.);
#799=EDGE_CURVE('',#633,#629,#341,.T.);
#800=EDGE_CURVE('',#634,#626,#342,.T.);
#801=EDGE_CURVE('',#632,#634,#343,.T.);
#802=EDGE_CURVE('',#635,#627,#344,.T.);
#803=EDGE_CURVE('',#634,#635,#345,.T.);
#804=EDGE_CURVE('',#636,#631,#346,.T.);
#805=EDGE_CURVE('',#635,#636,#347,.T.);
#806=EDGE_CURVE('',#637,#630,#348,.T.);
#807=EDGE_CURVE('',#636,#637,#349,.T.);
#808=EDGE_CURVE('',#637,#633,#350,.T.);
#809=EDGE_CURVE('',#638,#620,#351,.T.);
#810=EDGE_CURVE('',#624,#638,#352,.T.);
#811=EDGE_CURVE('',#639,#619,#353,.T.);
#812=EDGE_CURVE('',#638,#639,#354,.T.);
#813=EDGE_CURVE('',#639,#622,#355,.T.);
#814=EDGE_CURVE('',#640,#613,#356,.T.);
#815=EDGE_CURVE('',#640,#542,#357,.T.);
#816=EDGE_CURVE('',#641,#640,#358,.T.);
#817=EDGE_CURVE('',#641,#541,#359,.T.);
#818=EDGE_CURVE('',#609,#641,#360,.T.);
#819=ORIENTED_EDGE('',*,*,#642,.F.);
#820=ORIENTED_EDGE('',*,*,#643,.F.);
#821=ORIENTED_EDGE('',*,*,#644,.F.);
#822=ORIENTED_EDGE('',*,*,#645,.F.);
#823=ORIENTED_EDGE('',*,*,#646,.F.);
#824=ORIENTED_EDGE('',*,*,#647,.F.);
#825=ORIENTED_EDGE('',*,*,#648,.F.);
#826=ORIENTED_EDGE('',*,*,#649,.F.);
#827=ORIENTED_EDGE('',*,*,#650,.F.);
#828=ORIENTED_EDGE('',*,*,#651,.F.);
#829=ORIENTED_EDGE('',*,*,#652,.F.);
#830=ORIENTED_EDGE('',*,*,#653,.F.);
#831=ORIENTED_EDGE('',*,*,#654,.F.);
#832=ORIENTED_EDGE('',*,*,#655,.F.);
#833=ORIENTED_EDGE('',*,*,#656,.T.);
#834=ORIENTED_EDGE('',*,*,#657,.T.);
#835=ORIENTED_EDGE('',*,*,#658,.T.);
#836=ORIENTED_EDGE('',*,*,#659,.T.);
#837=ORIENTED_EDGE('',*,*,#660,.T.);
#838=ORIENTED_EDGE('',*,*,#661,.T.);
#839=ORIENTED_EDGE('',*,*,#662,.T.);
#840=ORIENTED_EDGE('',*,*,#663,.T.);
#841=ORIENTED_EDGE('',*,*,#664,.T.);
#842=ORIENTED_EDGE('',*,*,#665,.T.);
#843=ORIENTED_EDGE('',*,*,#666,.T.);
#844=ORIENTED_EDGE('',*,*,#667,.T.);
#845=ORIENTED_EDGE('',*,*,#668,.T.);
#846=ORIENTED_EDGE('',*,*,#669,.T.);
#847=ORIENTED_EDGE('',*,*,#670,.T.);
#848=ORIENTED_EDGE('',*,*,#671,.T.);
#849=ORIENTED_EDGE('',*,*,#672,.T.);
#850=ORIENTED_EDGE('',*,*,#673,.T.);
#851=ORIENTED_EDGE('',*,*,#674,.T.);
#852=ORIENTED_EDGE('',*,*,#675,.T.);
#853=ORIENTED_EDGE('',*,*,#676,.T.);
#854=ORIENTED_EDGE('',*,*,#677,.T.);
#855=ORIENTED_EDGE('',*,*,#678,.T.);
#856=ORIENTED_EDGE('',*,*,#679,.T.);
#857=ORIENTED_EDGE('',*,*,#680,.T.);
#858=ORIENTED_EDGE('',*,*,#681,.T.);
#859=ORIENTED_EDGE('',*,*,#653,.T.);
#860=ORIENTED_EDGE('',*,*,#682,.T.);
#861=ORIENTED_EDGE('',*,*,#683,.T.);
#862=ORIENTED_EDGE('',*,*,#684,.T.);
#863=ORIENTED_EDGE('',*,*,#685,.T.);
#864=ORIENTED_EDGE('',*,*,#686,.T.);
#865=ORIENTED_EDGE('',*,*,#643,.T.);
#866=ORIENTED_EDGE('',*,*,#687,.T.);
#867=ORIENTED_EDGE('',*,*,#688,.T.);
#868=ORIENTED_EDGE('',*,*,#644,.T.);
#869=ORIENTED_EDGE('',*,*,#686,.F.);
#870=ORIENTED_EDGE('',*,*,#689,.F.);
#871=ORIENTED_EDGE('',*,*,#690,.T.);
#872=ORIENTED_EDGE('',*,*,#645,.T.);
#873=ORIENTED_EDGE('',*,*,#688,.F.);
#874=ORIENTED_EDGE('',*,*,#691,.F.);
#875=ORIENTED_EDGE('',*,*,#692,.T.);
#876=ORIENTED_EDGE('',*,*,#646,.T.);
#877=ORIENTED_EDGE('',*,*,#690,.F.);
#878=ORIENTED_EDGE('',*,*,#693,.F.);
#879=ORIENTED_EDGE('',*,*,#694,.T.);
#880=ORIENTED_EDGE('',*,*,#647,.T.);
#881=ORIENTED_EDGE('',*,*,#692,.F.);
#882=ORIENTED_EDGE('',*,*,#695,.T.);
#883=ORIENTED_EDGE('',*,*,#684,.F.);
#884=ORIENTED_EDGE('',*,*,#642,.T.);
#885=ORIENTED_EDGE('',*,*,#694,.F.);
#886=ORIENTED_EDGE('',*,*,#695,.F.);
#887=ORIENTED_EDGE('',*,*,#693,.T.);
#888=ORIENTED_EDGE('',*,*,#691,.T.);
#889=ORIENTED_EDGE('',*,*,#689,.T.);
#890=ORIENTED_EDGE('',*,*,#687,.F.);
#891=ORIENTED_EDGE('',*,*,#685,.F.);
#892=ORIENTED_EDGE('',*,*,#696,.F.);
#893=ORIENTED_EDGE('',*,*,#697,.T.);
#894=ORIENTED_EDGE('',*,*,#698,.T.);
#895=ORIENTED_EDGE('',*,*,#650,.T.);
#896=ORIENTED_EDGE('',*,*,#699,.F.);
#897=ORIENTED_EDGE('',*,*,#700,.T.);
#898=ORIENTED_EDGE('',*,*,#701,.T.);
#899=ORIENTED_EDGE('',*,*,#651,.T.);
#900=ORIENTED_EDGE('',*,*,#698,.F.);
#901=ORIENTED_EDGE('',*,*,#702,.T.);
#902=ORIENTED_EDGE('',*,*,#682,.F.);
#903=ORIENTED_EDGE('',*,*,#652,.T.);
#904=ORIENTED_EDGE('',*,*,#701,.F.);
#905=ORIENTED_EDGE('',*,*,#703,.T.);
#906=ORIENTED_EDGE('',*,*,#704,.T.);
#907=ORIENTED_EDGE('',*,*,#654,.T.);
#908=ORIENTED_EDGE('',*,*,#681,.F.);
#909=ORIENTED_EDGE('',*,*,#705,.T.);
#910=ORIENTED_EDGE('',*,*,#699,.T.);
#911=ORIENTED_EDGE('',*,*,#649,.T.);
#912=ORIENTED_EDGE('',*,*,#704,.F.);
#913=ORIENTED_EDGE('',*,*,#705,.F.);
#914=ORIENTED_EDGE('',*,*,#703,.F.);
#915=ORIENTED_EDGE('',*,*,#683,.F.);
#916=ORIENTED_EDGE('',*,*,#702,.F.);
#917=ORIENTED_EDGE('',*,*,#700,.F.);
#918=ORIENTED_EDGE('',*,*,#697,.F.);
#919=ORIENTED_EDGE('',*,*,#706,.F.);
#920=ORIENTED_EDGE('',*,*,#648,.T.);
#921=ORIENTED_EDGE('',*,*,#707,.T.);
#922=ORIENTED_EDGE('',*,*,#708,.T.);
#923=ORIENTED_EDGE('',*,*,#707,.F.);
#924=ORIENTED_EDGE('',*,*,#655,.T.);
#925=ORIENTED_EDGE('',*,*,#709,.T.);
#926=ORIENTED_EDGE('',*,*,#710,.T.);
#927=ORIENTED_EDGE('',*,*,#709,.F.);
#928=ORIENTED_EDGE('',*,*,#711,.F.);
#929=ORIENTED_EDGE('',*,*,#712,.T.);
#930=ORIENTED_EDGE('',*,*,#706,.T.);
#931=ORIENTED_EDGE('',*,*,#712,.F.);
#932=ORIENTED_EDGE('',*,*,#710,.F.);
#933=ORIENTED_EDGE('',*,*,#713,.F.);
#934=ORIENTED_EDGE('',*,*,#714,.T.);
#935=ORIENTED_EDGE('',*,*,#696,.T.);
#936=ORIENTED_EDGE('',*,*,#714,.F.);
#937=ORIENTED_EDGE('',*,*,#708,.F.);
#938=ORIENTED_EDGE('',*,*,#715,.F.);
#939=ORIENTED_EDGE('',*,*,#716,.F.);
#940=ORIENTED_EDGE('',*,*,#717,.T.);
#941=ORIENTED_EDGE('',*,*,#718,.T.);
#942=ORIENTED_EDGE('',*,*,#719,.T.);
#943=ORIENTED_EDGE('',*,*,#720,.T.);
#944=ORIENTED_EDGE('',*,*,#721,.T.);
#945=ORIENTED_EDGE('',*,*,#722,.T.);
#946=ORIENTED_EDGE('',*,*,#723,.T.);
#947=ORIENTED_EDGE('',*,*,#724,.T.);
#948=ORIENTED_EDGE('',*,*,#725,.T.);
#949=ORIENTED_EDGE('',*,*,#726,.T.);
#950=ORIENTED_EDGE('',*,*,#727,.T.);
#951=ORIENTED_EDGE('',*,*,#728,.T.);
#952=ORIENTED_EDGE('',*,*,#729,.T.);
#953=ORIENTED_EDGE('',*,*,#730,.T.);
#954=ORIENTED_EDGE('',*,*,#731,.T.);
#955=ORIENTED_EDGE('',*,*,#732,.T.);
#956=ORIENTED_EDGE('',*,*,#733,.T.);
#957=ORIENTED_EDGE('',*,*,#734,.T.);
#958=ORIENTED_EDGE('',*,*,#735,.T.);
#959=ORIENTED_EDGE('',*,*,#736,.T.);
#960=ORIENTED_EDGE('',*,*,#737,.F.);
#961=ORIENTED_EDGE('',*,*,#738,.F.);
#962=ORIENTED_EDGE('',*,*,#739,.F.);
#963=ORIENTED_EDGE('',*,*,#740,.F.);
#964=ORIENTED_EDGE('',*,*,#741,.F.);
#965=ORIENTED_EDGE('',*,*,#736,.F.);
#966=ORIENTED_EDGE('',*,*,#742,.T.);
#967=ORIENTED_EDGE('',*,*,#662,.F.);
#968=ORIENTED_EDGE('',*,*,#743,.F.);
#969=ORIENTED_EDGE('',*,*,#735,.F.);
#970=ORIENTED_EDGE('',*,*,#744,.T.);
#971=ORIENTED_EDGE('',*,*,#663,.F.);
#972=ORIENTED_EDGE('',*,*,#742,.F.);
#973=ORIENTED_EDGE('',*,*,#734,.F.);
#974=ORIENTED_EDGE('',*,*,#745,.T.);
#975=ORIENTED_EDGE('',*,*,#664,.F.);
#976=ORIENTED_EDGE('',*,*,#744,.F.);
#977=ORIENTED_EDGE('',*,*,#733,.F.);
#978=ORIENTED_EDGE('',*,*,#746,.T.);
#979=ORIENTED_EDGE('',*,*,#665,.F.);
#980=ORIENTED_EDGE('',*,*,#745,.F.);
#981=ORIENTED_EDGE('',*,*,#732,.F.);
#982=ORIENTED_EDGE('',*,*,#747,.T.);
#983=ORIENTED_EDGE('',*,*,#666,.F.);
#984=ORIENTED_EDGE('',*,*,#746,.F.);
#985=ORIENTED_EDGE('',*,*,#731,.F.);
#986=ORIENTED_EDGE('',*,*,#748,.T.);
#987=ORIENTED_EDGE('',*,*,#667,.F.);
#988=ORIENTED_EDGE('',*,*,#747,.F.);
#989=ORIENTED_EDGE('',*,*,#730,.F.);
#990=ORIENTED_EDGE('',*,*,#749,.T.);
#991=ORIENTED_EDGE('',*,*,#668,.F.);
#992=ORIENTED_EDGE('',*,*,#748,.F.);
#993=ORIENTED_EDGE('',*,*,#729,.F.);
#994=ORIENTED_EDGE('',*,*,#750,.T.);
#995=ORIENTED_EDGE('',*,*,#669,.F.);
#996=ORIENTED_EDGE('',*,*,#749,.F.);
#997=ORIENTED_EDGE('',*,*,#728,.F.);
#998=ORIENTED_EDGE('',*,*,#751,.T.);
#999=ORIENTED_EDGE('',*,*,#670,.F.);
#1000=ORIENTED_EDGE('',*,*,#750,.F.);
#1001=ORIENTED_EDGE('',*,*,#727,.F.);
#1002=ORIENTED_EDGE('',*,*,#752,.T.);
#1003=ORIENTED_EDGE('',*,*,#671,.F.);
#1004=ORIENTED_EDGE('',*,*,#751,.F.);
#1005=ORIENTED_EDGE('',*,*,#726,.F.);
#1006=ORIENTED_EDGE('',*,*,#753,.T.);
#1007=ORIENTED_EDGE('',*,*,#672,.F.);
#1008=ORIENTED_EDGE('',*,*,#752,.F.);
#1009=ORIENTED_EDGE('',*,*,#725,.F.);
#1010=ORIENTED_EDGE('',*,*,#754,.T.);
#1011=ORIENTED_EDGE('',*,*,#673,.F.);
#1012=ORIENTED_EDGE('',*,*,#753,.F.);
#1013=ORIENTED_EDGE('',*,*,#724,.F.);
#1014=ORIENTED_EDGE('',*,*,#755,.T.);
#1015=ORIENTED_EDGE('',*,*,#674,.F.);
#1016=ORIENTED_EDGE('',*,*,#754,.F.);
#1017=ORIENTED_EDGE('',*,*,#723,.F.);
#1018=ORIENTED_EDGE('',*,*,#756,.T.);
#1019=ORIENTED_EDGE('',*,*,#675,.F.);
#1020=ORIENTED_EDGE('',*,*,#755,.F.);
#1021=ORIENTED_EDGE('',*,*,#722,.F.);
#1022=ORIENTED_EDGE('',*,*,#757,.T.);
#1023=ORIENTED_EDGE('',*,*,#676,.F.);
#1024=ORIENTED_EDGE('',*,*,#756,.F.);
#1025=ORIENTED_EDGE('',*,*,#721,.F.);
#1026=ORIENTED_EDGE('',*,*,#758,.T.);
#1027=ORIENTED_EDGE('',*,*,#677,.F.);
#1028=ORIENTED_EDGE('',*,*,#757,.F.);
#1029=ORIENTED_EDGE('',*,*,#720,.F.);
#1030=ORIENTED_EDGE('',*,*,#759,.T.);
#1031=ORIENTED_EDGE('',*,*,#678,.F.);
#1032=ORIENTED_EDGE('',*,*,#758,.F.);
#1033=ORIENTED_EDGE('',*,*,#719,.F.);
#1034=ORIENTED_EDGE('',*,*,#760,.T.);
#1035=ORIENTED_EDGE('',*,*,#679,.F.);
#1036=ORIENTED_EDGE('',*,*,#759,.F.);
#1037=ORIENTED_EDGE('',*,*,#718,.F.);
#1038=ORIENTED_EDGE('',*,*,#761,.T.);
#1039=ORIENTED_EDGE('',*,*,#680,.F.);
#1040=ORIENTED_EDGE('',*,*,#760,.F.);
#1041=ORIENTED_EDGE('',*,*,#717,.F.);
#1042=ORIENTED_EDGE('',*,*,#762,.F.);
#1043=ORIENTED_EDGE('',*,*,#656,.F.);
#1044=ORIENTED_EDGE('',*,*,#761,.F.);
#1045=ORIENTED_EDGE('',*,*,#762,.T.);
#1046=ORIENTED_EDGE('',*,*,#716,.T.);
#1047=ORIENTED_EDGE('',*,*,#763,.F.);
#1048=ORIENTED_EDGE('',*,*,#764,.T.);
#1049=ORIENTED_EDGE('',*,*,#765,.T.);
#1050=ORIENTED_EDGE('',*,*,#657,.F.);
#1051=ORIENTED_EDGE('',*,*,#715,.T.);
#1052=ORIENTED_EDGE('',*,*,#766,.F.);
#1053=ORIENTED_EDGE('',*,*,#767,.F.);
#1054=ORIENTED_EDGE('',*,*,#763,.T.);
#1055=ORIENTED_EDGE('',*,*,#739,.T.);
#1056=ORIENTED_EDGE('',*,*,#768,.F.);
#1057=ORIENTED_EDGE('',*,*,#769,.T.);
#1058=ORIENTED_EDGE('',*,*,#766,.T.);
#1059=ORIENTED_EDGE('',*,*,#738,.T.);
#1060=ORIENTED_EDGE('',*,*,#770,.F.);
#1061=ORIENTED_EDGE('',*,*,#771,.F.);
#1062=ORIENTED_EDGE('',*,*,#768,.T.);
#1063=ORIENTED_EDGE('',*,*,#737,.T.);
#1064=ORIENTED_EDGE('',*,*,#743,.T.);
#1065=ORIENTED_EDGE('',*,*,#661,.F.);
#1066=ORIENTED_EDGE('',*,*,#772,.F.);
#1067=ORIENTED_EDGE('',*,*,#773,.T.);
#1068=ORIENTED_EDGE('',*,*,#770,.T.);
#1069=ORIENTED_EDGE('',*,*,#741,.T.);
#1070=ORIENTED_EDGE('',*,*,#774,.T.);
#1071=ORIENTED_EDGE('',*,*,#775,.F.);
#1072=ORIENTED_EDGE('',*,*,#774,.F.);
#1073=ORIENTED_EDGE('',*,*,#776,.F.);
#1074=ORIENTED_EDGE('',*,*,#777,.F.);
#1075=ORIENTED_EDGE('',*,*,#778,.F.);
#1076=ORIENTED_EDGE('',*,*,#779,.F.);
#1077=ORIENTED_EDGE('',*,*,#780,.F.);
#1078=ORIENTED_EDGE('',*,*,#781,.F.);
#1079=ORIENTED_EDGE('',*,*,#775,.T.);
#1080=ORIENTED_EDGE('',*,*,#778,.T.);
#1081=ORIENTED_EDGE('',*,*,#782,.F.);
#1082=ORIENTED_EDGE('',*,*,#783,.F.);
#1083=ORIENTED_EDGE('',*,*,#784,.T.);
#1084=ORIENTED_EDGE('',*,*,#777,.T.);
#1085=ORIENTED_EDGE('',*,*,#785,.F.);
#1086=ORIENTED_EDGE('',*,*,#786,.F.);
#1087=ORIENTED_EDGE('',*,*,#782,.T.);
#1088=ORIENTED_EDGE('',*,*,#776,.T.);
#1089=ORIENTED_EDGE('',*,*,#787,.F.);
#1090=ORIENTED_EDGE('',*,*,#788,.F.);
#1091=ORIENTED_EDGE('',*,*,#785,.T.);
#1092=ORIENTED_EDGE('',*,*,#740,.T.);
#1093=ORIENTED_EDGE('',*,*,#789,.T.);
#1094=ORIENTED_EDGE('',*,*,#790,.F.);
#1095=ORIENTED_EDGE('',*,*,#789,.F.);
#1096=ORIENTED_EDGE('',*,*,#791,.F.);
#1097=ORIENTED_EDGE('',*,*,#792,.F.);
#1098=ORIENTED_EDGE('',*,*,#793,.F.);
#1099=ORIENTED_EDGE('',*,*,#794,.F.);
#1100=ORIENTED_EDGE('',*,*,#795,.F.);
#1101=ORIENTED_EDGE('',*,*,#796,.F.);
#1102=ORIENTED_EDGE('',*,*,#790,.T.);
#1103=ORIENTED_EDGE('',*,*,#793,.T.);
#1104=ORIENTED_EDGE('',*,*,#797,.F.);
#1105=ORIENTED_EDGE('',*,*,#798,.F.);
#1106=ORIENTED_EDGE('',*,*,#799,.T.);
#1107=ORIENTED_EDGE('',*,*,#792,.T.);
#1108=ORIENTED_EDGE('',*,*,#800,.F.);
#1109=ORIENTED_EDGE('',*,*,#801,.F.);
#1110=ORIENTED_EDGE('',*,*,#797,.T.);
#1111=ORIENTED_EDGE('',*,*,#791,.T.);
#1112=ORIENTED_EDGE('',*,*,#802,.F.);
#1113=ORIENTED_EDGE('',*,*,#803,.F.);
#1114=ORIENTED_EDGE('',*,*,#800,.T.);
#1115=ORIENTED_EDGE('',*,*,#796,.T.);
#1116=ORIENTED_EDGE('',*,*,#804,.F.);
#1117=ORIENTED_EDGE('',*,*,#805,.F.);
#1118=ORIENTED_EDGE('',*,*,#802,.T.);
#1119=ORIENTED_EDGE('',*,*,#795,.T.);
#1120=ORIENTED_EDGE('',*,*,#806,.F.);
#1121=ORIENTED_EDGE('',*,*,#807,.F.);
#1122=ORIENTED_EDGE('',*,*,#804,.T.);
#1123=ORIENTED_EDGE('',*,*,#794,.T.);
#1124=ORIENTED_EDGE('',*,*,#799,.F.);
#1125=ORIENTED_EDGE('',*,*,#808,.F.);
#1126=ORIENTED_EDGE('',*,*,#806,.T.);
#1127=ORIENTED_EDGE('',*,*,#781,.T.);
#1128=ORIENTED_EDGE('',*,*,#809,.F.);
#1129=ORIENTED_EDGE('',*,*,#810,.F.);
#1130=ORIENTED_EDGE('',*,*,#787,.T.);
#1131=ORIENTED_EDGE('',*,*,#780,.T.);
#1132=ORIENTED_EDGE('',*,*,#811,.F.);
#1133=ORIENTED_EDGE('',*,*,#812,.F.);
#1134=ORIENTED_EDGE('',*,*,#809,.T.);
#1135=ORIENTED_EDGE('',*,*,#779,.T.);
#1136=ORIENTED_EDGE('',*,*,#784,.F.);
#1137=ORIENTED_EDGE('',*,*,#813,.F.);
#1138=ORIENTED_EDGE('',*,*,#811,.T.);
#1139=ORIENTED_EDGE('',*,*,#814,.T.);
#1140=ORIENTED_EDGE('',*,*,#772,.T.);
#1141=ORIENTED_EDGE('',*,*,#660,.F.);
#1142=ORIENTED_EDGE('',*,*,#815,.F.);
#1143=ORIENTED_EDGE('',*,*,#816,.T.);
#1144=ORIENTED_EDGE('',*,*,#815,.T.);
#1145=ORIENTED_EDGE('',*,*,#659,.F.);
#1146=ORIENTED_EDGE('',*,*,#817,.F.);
#1147=ORIENTED_EDGE('',*,*,#711,.T.);
#1148=ORIENTED_EDGE('',*,*,#713,.T.);
#1149=ORIENTED_EDGE('',*,*,#818,.T.);
#1150=ORIENTED_EDGE('',*,*,#817,.T.);
#1151=ORIENTED_EDGE('',*,*,#658,.F.);
#1152=ORIENTED_EDGE('',*,*,#765,.F.);
#1153=ORIENTED_EDGE('',*,*,#771,.T.);
#1154=ORIENTED_EDGE('',*,*,#773,.F.);
#1155=ORIENTED_EDGE('',*,*,#814,.F.);
#1156=ORIENTED_EDGE('',*,*,#816,.F.);
#1157=ORIENTED_EDGE('',*,*,#818,.F.);
#1158=ORIENTED_EDGE('',*,*,#764,.F.);
#1159=ORIENTED_EDGE('',*,*,#767,.T.);
#1160=ORIENTED_EDGE('',*,*,#769,.F.);
#1161=ORIENTED_EDGE('',*,*,#788,.T.);
#1162=ORIENTED_EDGE('',*,*,#810,.T.);
#1163=ORIENTED_EDGE('',*,*,#812,.T.);
#1164=ORIENTED_EDGE('',*,*,#813,.T.);
#1165=ORIENTED_EDGE('',*,*,#783,.T.);
#1166=ORIENTED_EDGE('',*,*,#786,.T.);
#1167=ORIENTED_EDGE('',*,*,#803,.T.);
#1168=ORIENTED_EDGE('',*,*,#805,.T.);
#1169=ORIENTED_EDGE('',*,*,#807,.T.);
#1170=ORIENTED_EDGE('',*,*,#808,.T.);
#1171=ORIENTED_EDGE('',*,*,#798,.T.);
#1172=ORIENTED_EDGE('',*,*,#801,.T.);
#1173=PLANE('',#1314);
#1174=PLANE('',#1316);
#1175=PLANE('',#1318);
#1176=PLANE('',#1319);
#1177=PLANE('',#1320);
#1178=PLANE('',#1321);
#1179=PLANE('',#1322);
#1180=PLANE('',#1323);
#1181=PLANE('',#1324);
#1182=PLANE('',#1326);
#1183=PLANE('',#1327);
#1184=PLANE('',#1328);
#1185=PLANE('',#1329);
#1186=PLANE('',#1330);
#1187=PLANE('',#1331);
#1188=PLANE('',#1339);
#1189=PLANE('',#1342);
#1190=PLANE('',#1343);
#1191=PLANE('',#1347);
#1192=PLANE('',#1348);
#1193=PLANE('',#1349);
#1194=PLANE('',#1350);
#1195=PLANE('',#1351);
#1196=PLANE('',#1352);
#1197=PLANE('',#1353);
#1198=PLANE('',#1354);
#1199=PLANE('',#1355);
#1200=PLANE('',#1356);
#1201=PLANE('',#1357);
#1202=PLANE('',#1358);
#1203=PLANE('',#1359);
#1204=PLANE('',#1360);
#1205=PLANE('',#1361);
#1206=PLANE('',#1362);
#1207=PLANE('',#1363);
#1208=PLANE('',#1364);
#1209=PLANE('',#1365);
#1210=PLANE('',#1366);
#1211=PLANE('',#1367);
#1212=PLANE('',#1368);
#1213=PLANE('',#1371);
#1214=PLANE('',#1372);
#1215=PLANE('',#1375);
#1216=PLANE('',#1376);
#1217=PLANE('',#1377);
#1218=PLANE('',#1378);
#1219=PLANE('',#1381);
#1220=PLANE('',#1382);
#1221=PLANE('',#1383);
#1222=PLANE('',#1384);
#1223=PLANE('',#1385);
#1224=PLANE('',#1386);
#1225=PLANE('',#1387);
#1226=PLANE('',#1388);
#1227=PLANE('',#1389);
#1228=PLANE('',#1390);
#1229=PLANE('',#1391);
#1230=PLANE('',#1392);
#1231=PLANE('',#1393);
#1232=PLANE('',#1394);
#1233=ADVANCED_FACE('',(#50,#22),#1173,.T.);
#1234=ADVANCED_FACE('',(#51,#23),#1174,.T.);
#1235=ADVANCED_FACE('',(#52,#24,#25),#1175,.F.);
#1236=ADVANCED_FACE('',(#53),#1176,.F.);
#1237=ADVANCED_FACE('',(#54),#1177,.F.);
#1238=ADVANCED_FACE('',(#55),#1178,.F.);
#1239=ADVANCED_FACE('',(#56),#1179,.F.);
#1240=ADVANCED_FACE('',(#57),#1180,.F.);
#1241=ADVANCED_FACE('',(#58,#26),#1181,.F.);
#1242=ADVANCED_FACE('',(#59),#1182,.F.);
#1243=ADVANCED_FACE('',(#60),#1183,.F.);
#1244=ADVANCED_FACE('',(#61),#1184,.F.);
#1245=ADVANCED_FACE('',(#62),#1185,.F.);
#1246=ADVANCED_FACE('',(#63),#1186,.F.);
#1247=ADVANCED_FACE('',(#64,#27),#1187,.F.);
#1248=ADVANCED_FACE('',(#65),#15,.F.);
#1249=ADVANCED_FACE('',(#66),#16,.F.);
#1250=ADVANCED_FACE('',(#67),#17,.F.);
#1251=ADVANCED_FACE('',(#68),#1188,.T.);
#1252=ADVANCED_FACE('',(#69),#18,.F.);
#1253=ADVANCED_FACE('',(#70),#1189,.T.);
#1254=ADVANCED_FACE('',(#71,#28,#29),#1190,.F.);
#1255=ADVANCED_FACE('',(#72),#1191,.F.);
#1256=ADVANCED_FACE('',(#73),#1192,.F.);
#1257=ADVANCED_FACE('',(#74),#1193,.F.);
#1258=ADVANCED_FACE('',(#75),#1194,.F.);
#1259=ADVANCED_FACE('',(#76),#1195,.F.);
#1260=ADVANCED_FACE('',(#77),#1196,.F.);
#1261=ADVANCED_FACE('',(#78),#1197,.F.);
#1262=ADVANCED_FACE('',(#79),#1198,.F.);
#1263=ADVANCED_FACE('',(#80),#1199,.F.);
#1264=ADVANCED_FACE('',(#81),#1200,.F.);
#1265=ADVANCED_FACE('',(#82),#1201,.F.);
#1266=ADVANCED_FACE('',(#83),#1202,.F.);
#1267=ADVANCED_FACE('',(#84),#1203,.F.);
#1268=ADVANCED_FACE('',(#85),#1204,.F.);
#1269=ADVANCED_FACE('',(#86),#1205,.F.);
#1270=ADVANCED_FACE('',(#87),#1206,.F.);
#1271=ADVANCED_FACE('',(#88),#1207,.F.);
#1272=ADVANCED_FACE('',(#89),#1208,.F.);
#1273=ADVANCED_FACE('',(#90),#1209,.F.);
#1274=ADVANCED_FACE('',(#91),#1210,.F.);
#1275=ADVANCED_FACE('',(#92),#1211,.T.);
#1276=ADVANCED_FACE('',(#93),#1212,.T.);
#1277=ADVANCED_FACE('',(#94),#19,.F.);
#1278=ADVANCED_FACE('',(#95),#1213,.T.);
#1279=ADVANCED_FACE('',(#96),#1214,.T.);
#1280=ADVANCED_FACE('',(#97),#20,.F.);
#1281=ADVANCED_FACE('',(#98,#30),#1215,.T.);
#1282=ADVANCED_FACE('',(#99),#1216,.T.);
#1283=ADVANCED_FACE('',(#100),#1217,.T.);
#1284=ADVANCED_FACE('',(#101),#1218,.T.);
#1285=ADVANCED_FACE('',(#102),#21,.F.);
#1286=ADVANCED_FACE('',(#103,#31),#1219,.T.);
#1287=ADVANCED_FACE('',(#104),#1220,.T.);
#1288=ADVANCED_FACE('',(#105),#1221,.T.);
#1289=ADVANCED_FACE('',(#106),#1222,.T.);
#1290=ADVANCED_FACE('',(#107),#1223,.T.);
#1291=ADVANCED_FACE('',(#108),#1224,.T.);
#1292=ADVANCED_FACE('',(#109),#1225,.T.);
#1293=ADVANCED_FACE('',(#110),#1226,.T.);
#1294=ADVANCED_FACE('',(#111),#1227,.T.);
#1295=ADVANCED_FACE('',(#112),#1228,.T.);
#1296=ADVANCED_FACE('',(#113),#1229,.T.);
#1297=ADVANCED_FACE('',(#114,#32,#33),#1230,.T.);
#1298=ADVANCED_FACE('',(#115),#1231,.T.);
#1299=ADVANCED_FACE('',(#116,#34,#35),#1232,.T.);
#1300=CLOSED_SHELL('',(#1233,#1234,#1235,#1236,#1237,#1238,#1239,#1240,
#1241,#1242,#1243,#1244,#1245,#1246,#1247,#1248,#1249,#1250,#1251,#1252,
#1253,#1254,#1255,#1256,#1257,#1258,#1259,#1260,#1261,#1262,#1263,#1264,
#1265,#1266,#1267,#1268,#1269,#1270,#1271,#1272,#1273,#1274,#1275,#1276,
#1277,#1278,#1279,#1280,#1281,#1282,#1283,#1284,#1285,#1286,#1287,#1288,
#1289,#1290,#1291,#1292,#1293,#1294,#1295,#1296,#1297,#1298,#1299));
#1301=DERIVED_UNIT_ELEMENT(#1303,1.);
#1302=DERIVED_UNIT_ELEMENT(#2090,-3.);
#1303=(
MASS_UNIT()
NAMED_UNIT(*)
SI_UNIT(.KILO.,.GRAM.)
);
#1304=DERIVED_UNIT((#1301,#1302));
#1305=MEASURE_REPRESENTATION_ITEM('density measure',
POSITIVE_RATIO_MEASURE(7850.),#1304);
#1306=PROPERTY_DEFINITION_REPRESENTATION(#1311,#1308);
#1307=PROPERTY_DEFINITION_REPRESENTATION(#1312,#1309);
#1308=REPRESENTATION('material name',(#1310),#2087);
#1309=REPRESENTATION('density',(#1305),#2087);
#1310=DESCRIPTIVE_REPRESENTATION_ITEM('Steel','Steel');
#1311=PROPERTY_DEFINITION('material property','material name',#2097);
#1312=PROPERTY_DEFINITION('material property','density of part',#2097);
#1313=AXIS2_PLACEMENT_3D('',#1722,#1395,#1396);
#1314=AXIS2_PLACEMENT_3D('',#1723,#1397,#1398);
#1315=AXIS2_PLACEMENT_3D('',#1737,#1405,#1406);
#1316=AXIS2_PLACEMENT_3D('',#1738,#1407,#1408);
#1317=AXIS2_PLACEMENT_3D('',#1752,#1415,#1416);
#1318=AXIS2_PLACEMENT_3D('',#1753,#1417,#1418);
#1319=AXIS2_PLACEMENT_3D('',#1814,#1450,#1451);
#1320=AXIS2_PLACEMENT_3D('',#1818,#1454,#1455);
#1321=AXIS2_PLACEMENT_3D('',#1822,#1458,#1459);
#1322=AXIS2_PLACEMENT_3D('',#1826,#1462,#1463);
#1323=AXIS2_PLACEMENT_3D('',#1830,#1466,#1467);
#1324=AXIS2_PLACEMENT_3D('',#1832,#1469,#1470);
#1325=AXIS2_PLACEMENT_3D('',#1834,#1471,#1472);
#1326=AXIS2_PLACEMENT_3D('',#1835,#1473,#1474);
#1327=AXIS2_PLACEMENT_3D('',#1841,#1478,#1479);
#1328=AXIS2_PLACEMENT_3D('',#1845,#1482,#1483);
#1329=AXIS2_PLACEMENT_3D('',#1847,#1485,#1486);
#1330=AXIS2_PLACEMENT_3D('',#1851,#1489,#1490);
#1331=AXIS2_PLACEMENT_3D('',#1853,#1492,#1493);
#1332=AXIS2_PLACEMENT_3D('',#1855,#1494,#1495);
#1333=AXIS2_PLACEMENT_3D('',#1856,#1496,#1497);
#1334=AXIS2_PLACEMENT_3D('',#1859,#1499,#1500);
#1335=AXIS2_PLACEMENT_3D('',#1860,#1501,#1502);
#1336=AXIS2_PLACEMENT_3D('',#1863,#1504,#1505);
#1337=AXIS2_PLACEMENT_3D('',#1864,#1506,#1507);
#1338=AXIS2_PLACEMENT_3D('',#1866,#1508,#1509);
#1339=AXIS2_PLACEMENT_3D('',#1868,#1511,#1512);
#1340=AXIS2_PLACEMENT_3D('',#1869,#1513,#1514);
#1341=AXIS2_PLACEMENT_3D('',#1871,#1515,#1516);
#1342=AXIS2_PLACEMENT_3D('',#1873,#1518,#1519);
#1343=AXIS2_PLACEMENT_3D('',#1874,#1520,#1521);
#1344=AXIS2_PLACEMENT_3D('',#1924,#1546,#1547);
#1345=AXIS2_PLACEMENT_3D('',#1926,#1548,#1549);
#1346=AXIS2_PLACEMENT_3D('',#1928,#1550,#1551);
#1347=AXIS2_PLACEMENT_3D('',#1929,#1552,#1553);
#1348=AXIS2_PLACEMENT_3D('',#1932,#1556,#1557);
#1349=AXIS2_PLACEMENT_3D('',#1934,#1559,#1560);
#1350=AXIS2_PLACEMENT_3D('',#1936,#1562,#1563);
#1351=AXIS2_PLACEMENT_3D('',#1938,#1565,#1566);
#1352=AXIS2_PLACEMENT_3D('',#1940,#1568,#1569);
#1353=AXIS2_PLACEMENT_3D('',#1942,#1571,#1572);
#1354=AXIS2_PLACEMENT_3D('',#1944,#1574,#1575);
#1355=AXIS2_PLACEMENT_3D('',#1946,#1577,#1578);
#1356=AXIS2_PLACEMENT_3D('',#1948,#1580,#1581);
#1357=AXIS2_PLACEMENT_3D('',#1950,#1583,#1584);
#1358=AXIS2_PLACEMENT_3D('',#1952,#1586,#1587);
#1359=AXIS2_PLACEMENT_3D('',#1954,#1589,#1590);
#1360=AXIS2_PLACEMENT_3D('',#1956,#1592,#1593);
#1361=AXIS2_PLACEMENT_3D('',#1958,#1595,#1596);
#1362=AXIS2_PLACEMENT_3D('',#1960,#1598,#1599);
#1363=AXIS2_PLACEMENT_3D('',#1962,#1601,#1602);
#1364=AXIS2_PLACEMENT_3D('',#1964,#1604,#1605);
#1365=AXIS2_PLACEMENT_3D('',#1966,#1607,#1608);
#1366=AXIS2_PLACEMENT_3D('',#1968,#1610,#1611);
#1367=AXIS2_PLACEMENT_3D('',#1970,#1613,#1614);
#1368=AXIS2_PLACEMENT_3D('',#1976,#1618,#1619);
#1369=AXIS2_PLACEMENT_3D('',#1980,#1622,#1623);
#1370=AXIS2_PLACEMENT_3D('',#1983,#1625,#1626);
#1371=AXIS2_PLACEMENT_3D('',#1984,#1627,#1628);
#1372=AXIS2_PLACEMENT_3D('',#1988,#1631,#1632);
#1373=AXIS2_PLACEMENT_3D('',#1992,#1635,#1636);
#1374=AXIS2_PLACEMENT_3D('',#1995,#1638,#1639);
#1375=AXIS2_PLACEMENT_3D('',#1996,#1640,#1641);
#1376=AXIS2_PLACEMENT_3D('',#2009,#1648,#1649);
#1377=AXIS2_PLACEMENT_3D('',#2015,#1653,#1654);
#1378=AXIS2_PLACEMENT_3D('',#2019,#1657,#1658);
#1379=AXIS2_PLACEMENT_3D('',#2023,#1661,#1662);
#1380=AXIS2_PLACEMENT_3D('',#2026,#1664,#1665);
#1381=AXIS2_PLACEMENT_3D('',#2027,#1666,#1667);
#1382=AXIS2_PLACEMENT_3D('',#2040,#1674,#1675);
#1383=AXIS2_PLACEMENT_3D('',#2046,#1679,#1680);
#1384=AXIS2_PLACEMENT_3D('',#2050,#1683,#1684);
#1385=AXIS2_PLACEMENT_3D('',#2054,#1687,#1688);
#1386=AXIS2_PLACEMENT_3D('',#2058,#1691,#1692);
#1387=AXIS2_PLACEMENT_3D('',#2062,#1695,#1696);
#1388=AXIS2_PLACEMENT_3D('',#2064,#1698,#1699);
#1389=AXIS2_PLACEMENT_3D('',#2068,#1702,#1703);
#1390=AXIS2_PLACEMENT_3D('',#2072,#1706,#1707);
#1391=AXIS2_PLACEMENT_3D('',#2074,#1709,#1710);
#1392=AXIS2_PLACEMENT_3D('',#2078,#1713,#1714);
#1393=AXIS2_PLACEMENT_3D('',#2082,#1717,#1718);
#1394=AXIS2_PLACEMENT_3D('',#2084,#1720,#1721);
#1395=DIRECTION('axis',(0.,0.,1.));
#1396=DIRECTION('refdir',(1.,0.,0.));
#1397=DIRECTION('center_axis',(0.,0.,-1.));
#1398=DIRECTION('ref_axis',(1.,0.,0.));
#1399=DIRECTION('',(0.,1.,0.));
#1400=DIRECTION('',(1.,0.,0.));
#1401=DIRECTION('',(0.,-1.,0.));
#1402=DIRECTION('',(-0.5,-0.866025403784439,0.));
#1403=DIRECTION('',(-1.,-3.84592531545837E-16,0.));
#1404=DIRECTION('',(-0.5,0.866025403784439,0.));
#1405=DIRECTION('center_axis',(0.,0.,-1.));
#1406=DIRECTION('ref_axis',(1.,0.,0.));
#1407=DIRECTION('center_axis',(0.,0.,-1.));
#1408=DIRECTION('ref_axis',(1.,0.,0.));
#1409=DIRECTION('',(-0.5,-0.866025403784439,0.));
#1410=DIRECTION('',(-1.,3.84592531545837E-16,0.));
#1411=DIRECTION('',(-0.5,0.866025403784439,0.));
#1412=DIRECTION('',(0.,1.,0.));
#1413=DIRECTION('',(1.,0.,0.));
#1414=DIRECTION('',(0.,-1.,0.));
#1415=DIRECTION('center_axis',(0.,0.,-1.));
#1416=DIRECTION('ref_axis',(1.,0.,0.));
#1417=DIRECTION('center_axis',(0.,1.,0.));
#1418=DIRECTION('ref_axis',(-1.,0.,0.));
#1419=DIRECTION('',(0.,0.,1.));
#1420=DIRECTION('',(-1.,0.,0.));
#1421=DIRECTION('',(0.,0.,-1.));
#1422=DIRECTION('',(1.,0.,0.));
#1423=DIRECTION('',(0.,0.,1.));
#1424=DIRECTION('',(-1.,0.,0.));
#1425=DIRECTION('',(0.,0.,-1.));
#1426=DIRECTION('',(-0.130524882653909,0.,-0.991445033780584));
#1427=DIRECTION('',(-0.38268445163704,0.,-0.923879110314363));
#1428=DIRECTION('',(-0.608760868259766,0.,-0.793353770568727));
#1429=DIRECTION('',(-0.793353642281388,0.,-0.608761035447289));
#1430=DIRECTION('',(-0.8916747583638,0.,-0.452676623316093));
#1431=DIRECTION('',(-0.896872741400937,0.,-0.442288690486167));
#1432=DIRECTION('',(-0.946930200280883,0.,-0.321439256774909));
#1433=DIRECTION('',(-0.980785337009349,0.,-0.195090037437736));
#1434=DIRECTION('',(-0.997858910039798,0.,-0.0654033306046869));
#1435=DIRECTION('',(-0.997858910039805,0.,0.0654033306045814));
#1436=DIRECTION('',(-0.980785337009349,0.,0.195090037437735));
#1437=DIRECTION('',(-0.946930200280883,0.,0.321439256774909));
#1438=DIRECTION('',(-0.896872741400937,0.,0.442288690486167));
#1439=DIRECTION('',(-0.8916747583638,0.,0.452676623316093));
#1440=DIRECTION('',(-0.793353642281388,0.,0.608761035447289));
#1441=DIRECTION('',(-0.608760868259767,0.,0.793353770568726));
#1442=DIRECTION('',(-0.382684451637039,0.,0.923879110314363));
#1443=DIRECTION('',(-0.130524882655194,0.,0.991445033780415));
#1444=DIRECTION('',(0.,0.,1.));
#1445=DIRECTION('',(0.,0.,-1.));
#1446=DIRECTION('',(-1.,0.,0.));
#1447=DIRECTION('',(0.,0.,-1.));
#1448=DIRECTION('',(-1.,0.,0.));
#1449=DIRECTION('',(0.,0.,1.));
#1450=DIRECTION('center_axis',(-1.,0.,0.));
#1451=DIRECTION('ref_axis',(0.,-1.,0.));
#1452=DIRECTION('',(0.,1.,0.));
#1453=DIRECTION('',(0.,0.,1.));
#1454=DIRECTION('center_axis',(-0.866025403784439,0.5,0.));
#1455=DIRECTION('ref_axis',(-0.5,-0.866025403784439,0.));
#1456=DIRECTION('',(-0.5,-0.866025403784439,0.));
#1457=DIRECTION('',(0.,0.,1.));
#1458=DIRECTION('center_axis',(-3.84592531545837E-16,1.,0.));
#1459=DIRECTION('ref_axis',(-1.,-3.84592531545837E-16,0.));
#1460=DIRECTION('',(-1.,-3.84592531545837E-16,0.));
#1461=DIRECTION('',(0.,0.,1.));
#1462=DIRECTION('center_axis',(0.866025403784439,0.5,0.));
#1463=DIRECTION('ref_axis',(-0.5,0.866025403784439,0.));
#1464=DIRECTION('',(-0.5,0.866025403784439,0.));
#1465=DIRECTION('',(0.,0.,1.));
#1466=DIRECTION('center_axis',(1.,0.,0.));
#1467=DIRECTION('ref_axis',(0.,1.,0.));
#1468=DIRECTION('',(0.,-1.,0.));
#1469=DIRECTION('center_axis',(0.,0.,-1.));
#1470=DIRECTION('ref_axis',(1.,0.,0.));
#1471=DIRECTION('center_axis',(0.,0.,1.));
#1472=DIRECTION('ref_axis',(1.,0.,0.));
#1473=DIRECTION('center_axis',(3.84592531545837E-16,1.,0.));
#1474=DIRECTION('ref_axis',(-1.,3.84592531545837E-16,0.));
#1475=DIRECTION('',(1.,-3.84592531545837E-16,0.));
#1476=DIRECTION('',(0.,0.,1.));
#1477=DIRECTION('',(0.,0.,1.));
#1478=DIRECTION('center_axis',(0.866025403784439,0.5,0.));
#1479=DIRECTION('ref_axis',(-0.5,0.866025403784439,0.));
#1480=DIRECTION('',(0.5,-0.866025403784439,0.));
#1481=DIRECTION('',(0.,0.,1.));
#1482=DIRECTION('center_axis',(1.,0.,0.));
#1483=DIRECTION('ref_axis',(0.,1.,0.));
#1484=DIRECTION('',(0.,-1.,0.));
#1485=DIRECTION('center_axis',(-1.,0.,0.));
#1486=DIRECTION('ref_axis',(0.,-1.,0.));
#1487=DIRECTION('',(0.,1.,0.));
#1488=DIRECTION('',(0.,0.,1.));
#1489=DIRECTION('center_axis',(-0.866025403784439,0.5,0.));
#1490=DIRECTION('ref_axis',(-0.5,-0.866025403784439,0.));
#1491=DIRECTION('',(0.5,0.866025403784439,0.));
#1492=DIRECTION('center_axis',(0.,0.,-1.));
#1493=DIRECTION('ref_axis',(1.,0.,0.));
#1494=DIRECTION('center_axis',(0.,0.,1.));
#1495=DIRECTION('ref_axis',(1.,0.,0.));
#1496=DIRECTION('center_axis',(0.,0.,1.));
#1497=DIRECTION('ref_axis',(1.,0.,0.));
#1498=DIRECTION('',(0.,0.,1.));
#1499=DIRECTION('center_axis',(0.,0.,1.));
#1500=DIRECTION('ref_axis',(1.,0.,0.));
#1501=DIRECTION('center_axis',(0.,0.,1.));
#1502=DIRECTION('ref_axis',(1.,0.,0.));
#1503=DIRECTION('',(0.,0.,1.));
#1504=DIRECTION('center_axis',(0.,0.,1.));
#1505=DIRECTION('ref_axis',(1.,0.,0.));
#1506=DIRECTION('center_axis',(0.,0.,1.));
#1507=DIRECTION('ref_axis',(1.,0.,0.));
#1508=DIRECTION('center_axis',(0.,0.,1.));
#1509=DIRECTION('ref_axis',(1.,0.,0.));
#1510=DIRECTION('',(0.,0.,1.));
#1511=DIRECTION('center_axis',(0.,0.,-1.));
#1512=DIRECTION('ref_axis',(1.,0.,0.));
#1513=DIRECTION('center_axis',(0.,0.,1.));
#1514=DIRECTION('ref_axis',(1.,0.,0.));
#1515=DIRECTION('center_axis',(0.,0.,1.));
#1516=DIRECTION('ref_axis',(1.,0.,0.));
#1517=DIRECTION('',(0.,0.,1.));
#1518=DIRECTION('center_axis',(0.,0.,-1.));
#1519=DIRECTION('ref_axis',(1.,0.,0.));
#1520=DIRECTION('center_axis',(0.,1.,0.));
#1521=DIRECTION('ref_axis',(-1.,0.,0.));
#1522=DIRECTION('',(0.,0.,-1.));
#1523=DIRECTION('',(1.,0.,0.));
#1524=DIRECTION('',(0.,0.,-1.));
#1525=DIRECTION('',(0.130524882655194,0.,-0.991445033780415));
#1526=DIRECTION('',(0.382684451637039,0.,-0.923879110314363));
#1527=DIRECTION('',(0.608760868259767,0.,-0.793353770568726));
#1528=DIRECTION('',(0.793353642281388,0.,-0.608761035447289));
#1529=DIRECTION('',(0.8916747583638,0.,-0.452676623316093));
#1530=DIRECTION('',(0.896872741400937,0.,-0.442288690486167));
#1531=DIRECTION('',(0.946930200280883,0.,-0.321439256774909));
#1532=DIRECTION('',(0.980785337009349,0.,-0.195090037437735));
#1533=DIRECTION('',(0.997858910039805,0.,-0.0654033306045814));
#1534=DIRECTION('',(0.997858910039798,0.,0.0654033306046869));
#1535=DIRECTION('',(0.980785337009349,0.,0.195090037437736));
#1536=DIRECTION('',(0.946930200280883,0.,0.321439256774909));
#1537=DIRECTION('',(0.896872741400937,0.,0.442288690486167));
#1538=DIRECTION('',(0.8916747583638,0.,0.452676623316093));
#1539=DIRECTION('',(0.793353642281388,0.,0.608761035447289));
#1540=DIRECTION('',(0.608760868259766,0.,0.793353770568727));
#1541=DIRECTION('',(0.38268445163704,0.,0.923879110314362));
#1542=DIRECTION('',(0.130524882653909,0.,0.991445033780584));
#1543=DIRECTION('',(0.,0.,1.));
#1544=DIRECTION('',(1.,0.,0.));
#1545=DIRECTION('',(0.,0.,1.));
#1546=DIRECTION('center_axis',(0.,-1.,0.));
#1547=DIRECTION('ref_axis',(1.,0.,2.00592546271596E-8));
#1548=DIRECTION('center_axis',(0.,-1.,0.));
#1549=DIRECTION('ref_axis',(-1.,0.,0.));
#1550=DIRECTION('center_axis',(0.,-1.,0.));
#1551=DIRECTION('ref_axis',(-1.,0.,0.));
#1552=DIRECTION('center_axis',(1.,0.,0.));
#1553=DIRECTION('ref_axis',(0.,0.,1.));
#1554=DIRECTION('',(0.,-1.,0.));
#1555=DIRECTION('',(0.,-1.,0.));
#1556=DIRECTION('center_axis',(0.991445033780584,0.,-0.130524882653909));
#1557=DIRECTION('ref_axis',(0.130524882653909,0.,0.991445033780584));
#1558=DIRECTION('',(0.,-1.,0.));
#1559=DIRECTION('center_axis',(0.923879110314363,0.,-0.38268445163704));
#1560=DIRECTION('ref_axis',(0.38268445163704,0.,0.923879110314363));
#1561=DIRECTION('',(0.,-1.,0.));
#1562=DIRECTION('center_axis',(0.793353770568727,0.,-0.608760868259766));
#1563=DIRECTION('ref_axis',(0.608760868259766,0.,0.793353770568727));
#1564=DIRECTION('',(0.,-1.,0.));
#1565=DIRECTION('center_axis',(0.608761035447289,0.,-0.793353642281388));
#1566=DIRECTION('ref_axis',(0.793353642281388,0.,0.608761035447289));
#1567=DIRECTION('',(0.,-1.,0.));
#1568=DIRECTION('center_axis',(0.452676623316093,0.,-0.8916747583638));
#1569=DIRECTION('ref_axis',(0.8916747583638,0.,0.452676623316093));
#1570=DIRECTION('',(0.,-1.,0.));
#1571=DIRECTION('center_axis',(0.442288690486167,0.,-0.896872741400937));
#1572=DIRECTION('ref_axis',(0.896872741400937,0.,0.442288690486167));
#1573=DIRECTION('',(0.,-1.,0.));
#1574=DIRECTION('center_axis',(0.321439256774909,0.,-0.946930200280883));
#1575=DIRECTION('ref_axis',(0.946930200280883,0.,0.321439256774909));
#1576=DIRECTION('',(0.,-1.,0.));
#1577=DIRECTION('center_axis',(0.195090037437736,0.,-0.980785337009349));
#1578=DIRECTION('ref_axis',(0.980785337009349,0.,0.195090037437736));
#1579=DIRECTION('',(0.,-1.,0.));
#1580=DIRECTION('center_axis',(0.0654033306046869,0.,-0.997858910039798));
#1581=DIRECTION('ref_axis',(0.997858910039798,0.,0.0654033306046869));
#1582=DIRECTION('',(0.,-1.,0.));
#1583=DIRECTION('center_axis',(-0.0654033306045814,0.,-0.997858910039805));
#1584=DIRECTION('ref_axis',(0.997858910039805,0.,-0.0654033306045814));
#1585=DIRECTION('',(0.,-1.,0.));
#1586=DIRECTION('center_axis',(-0.195090037437735,0.,-0.980785337009349));
#1587=DIRECTION('ref_axis',(0.980785337009349,0.,-0.195090037437735));
#1588=DIRECTION('',(0.,-1.,0.));
#1589=DIRECTION('center_axis',(-0.321439256774909,0.,-0.946930200280883));
#1590=DIRECTION('ref_axis',(0.946930200280883,0.,-0.321439256774909));
#1591=DIRECTION('',(0.,-1.,0.));
#1592=DIRECTION('center_axis',(-0.442288690486167,0.,-0.896872741400937));
#1593=DIRECTION('ref_axis',(0.896872741400937,0.,-0.442288690486167));
#1594=DIRECTION('',(0.,-1.,0.));
#1595=DIRECTION('center_axis',(-0.452676623316093,0.,-0.8916747583638));
#1596=DIRECTION('ref_axis',(0.8916747583638,0.,-0.452676623316093));
#1597=DIRECTION('',(0.,-1.,0.));
#1598=DIRECTION('center_axis',(-0.60876103544729,0.,-0.793353642281388));
#1599=DIRECTION('ref_axis',(0.793353642281388,0.,-0.608761035447289));
#1600=DIRECTION('',(0.,-1.,0.));
#1601=DIRECTION('center_axis',(-0.793353770568726,0.,-0.608760868259767));
#1602=DIRECTION('ref_axis',(0.608760868259767,0.,-0.793353770568726));
#1603=DIRECTION('',(0.,-1.,0.));
#1604=DIRECTION('center_axis',(-0.923879110314363,0.,-0.382684451637039));
#1605=DIRECTION('ref_axis',(0.382684451637039,0.,-0.923879110314363));
#1606=DIRECTION('',(0.,-1.,0.));
#1607=DIRECTION('center_axis',(-0.991445033780415,0.,-0.130524882655194));
#1608=DIRECTION('ref_axis',(0.130524882655194,0.,-0.991445033780415));
#1609=DIRECTION('',(0.,-1.,0.));
#1610=DIRECTION('center_axis',(-1.,0.,0.));
#1611=DIRECTION('ref_axis',(0.,0.,-1.));
#1612=DIRECTION('',(0.,1.,0.));
#1613=DIRECTION('center_axis',(0.,0.,1.));
#1614=DIRECTION('ref_axis',(-1.,0.,0.));
#1615=DIRECTION('',(0.,-1.,0.));
#1616=DIRECTION('',(-1.,0.,0.));
#1617=DIRECTION('',(0.,-1.,0.));
#1618=DIRECTION('center_axis',(1.,0.,0.));
#1619=DIRECTION('ref_axis',(0.,0.,1.));
#1620=DIRECTION('',(0.,-1.,0.));
#1621=DIRECTION('',(0.,0.,-1.));
#1622=DIRECTION('center_axis',(0.,-1.,0.));
#1623=DIRECTION('ref_axis',(3.46871606306658E-10,0.,-1.));
#1624=DIRECTION('',(0.,-1.,0.));
#1625=DIRECTION('center_axis',(0.,1.,0.));
#1626=DIRECTION('ref_axis',(1.,0.,2.00592546271596E-8));
#1627=DIRECTION('center_axis',(-1.,0.,0.));
#1628=DIRECTION('ref_axis',(0.,0.,-1.));
#1629=DIRECTION('',(0.,-1.,0.));
#1630=DIRECTION('',(0.,0.,1.));
#1631=DIRECTION('center_axis',(0.,0.,1.));
#1632=DIRECTION('ref_axis',(-1.,0.,0.));
#1633=DIRECTION('',(0.,-1.,0.));
#1634=DIRECTION('',(-1.,0.,0.));
#1635=DIRECTION('center_axis',(0.,-1.,0.));
#1636=DIRECTION('ref_axis',(-1.,0.,0.));
#1637=DIRECTION('',(0.,1.,0.));
#1638=DIRECTION('center_axis',(0.,-1.,0.));
#1639=DIRECTION('ref_axis',(-1.,0.,0.));
#1640=DIRECTION('center_axis',(0.,1.,0.));
#1641=DIRECTION('ref_axis',(-1.,0.,0.));
#1642=DIRECTION('',(0.866025403784439,0.,0.5));
#1643=DIRECTION('',(0.866025403784439,0.,-0.5));
#1644=DIRECTION('',(0.,0.,-1.));
#1645=DIRECTION('',(-0.866025403784439,0.,-0.5));
#1646=DIRECTION('',(-0.866025403784439,0.,0.5));
#1647=DIRECTION('',(0.,0.,1.));
#1648=DIRECTION('center_axis',(1.,0.,0.));
#1649=DIRECTION('ref_axis',(0.,0.,1.));
#1650=DIRECTION('',(0.,-1.,0.));
#1651=DIRECTION('',(0.,0.,-1.));
#1652=DIRECTION('',(0.,-1.,0.));
#1653=DIRECTION('center_axis',(0.5,0.,0.866025403784439));
#1654=DIRECTION('ref_axis',(-0.866025403784439,0.,0.5));
#1655=DIRECTION('',(0.,-1.,0.));
#1656=DIRECTION('',(0.866025403784439,0.,-0.5));
#1657=DIRECTION('center_axis',(-0.5,0.,0.866025403784439));
#1658=DIRECTION('ref_axis',(-0.866025403784439,0.,-0.5));
#1659=DIRECTION('',(0.,-1.,0.));
#1660=DIRECTION('',(0.866025403784439,0.,0.5));
#1661=DIRECTION('center_axis',(0.,-1.,0.));
#1662=DIRECTION('ref_axis',(-1.,0.,0.));
#1663=DIRECTION('',(0.,1.,0.));
#1664=DIRECTION('center_axis',(0.,-1.,0.));
#1665=DIRECTION('ref_axis',(-1.,0.,0.));
#1666=DIRECTION('center_axis',(0.,1.,0.));
#1667=DIRECTION('ref_axis',(-1.,0.,0.));
#1668=DIRECTION('',(-0.866025403784439,0.,-0.5));
#1669=DIRECTION('',(-0.866025403784439,0.,0.5));
#1670=DIRECTION('',(0.,0.,1.));
#1671=DIRECTION('',(0.866025403784439,0.,0.5));
#1672=DIRECTION('',(0.866025403784439,0.,-0.5));
#1673=DIRECTION('',(0.,0.,-1.));
#1674=DIRECTION('center_axis',(-1.,0.,0.));
#1675=DIRECTION('ref_axis',(0.,0.,-1.));
#1676=DIRECTION('',(0.,-1.,0.));
#1677=DIRECTION('',(0.,0.,1.));
#1678=DIRECTION('',(0.,-1.,0.));
#1679=DIRECTION('center_axis',(-0.5,0.,-0.866025403784439));
#1680=DIRECTION('ref_axis',(0.866025403784439,0.,-0.5));
#1681=DIRECTION('',(0.,-1.,0.));
#1682=DIRECTION('',(-0.866025403784439,0.,0.5));
#1683=DIRECTION('center_axis',(0.5,0.,-0.866025403784439));
#1684=DIRECTION('ref_axis',(0.866025403784439,0.,0.5));
#1685=DIRECTION('',(0.,-1.,0.));
#1686=DIRECTION('',(-0.866025403784439,0.,-0.5));
#1687=DIRECTION('center_axis',(1.,0.,0.));
#1688=DIRECTION('ref_axis',(0.,0.,1.));
#1689=DIRECTION('',(0.,-1.,0.));
#1690=DIRECTION('',(0.,0.,-1.));
#1691=DIRECTION('center_axis',(0.5,0.,0.866025403784439));
#1692=DIRECTION('ref_axis',(-0.866025403784439,0.,0.5));
#1693=DIRECTION('',(0.,-1.,0.));
#1694=DIRECTION('',(0.866025403784439,0.,-0.5));
#1695=DIRECTION('center_axis',(-0.5,0.,0.866025403784439));
#1696=DIRECTION('ref_axis',(-0.866025403784439,0.,-0.5));
#1697=DIRECTION('',(0.866025403784439,0.,0.5));
#1698=DIRECTION('center_axis',(-1.,0.,0.));
#1699=DIRECTION('ref_axis',(0.,0.,-1.));
#1700=DIRECTION('',(0.,-1.,0.));
#1701=DIRECTION('',(0.,0.,1.));
#1702=DIRECTION('center_axis',(-0.5,0.,-0.866025403784439));
#1703=DIRECTION('ref_axis',(0.866025403784439,0.,-0.5));
#1704=DIRECTION('',(0.,-1.,0.));
#1705=DIRECTION('',(-0.866025403784439,0.,0.5));
#1706=DIRECTION('center_axis',(0.5,0.,-0.866025403784439));
#1707=DIRECTION('ref_axis',(0.866025403784439,0.,0.5));
#1708=DIRECTION('',(-0.866025403784439,0.,-0.5));
#1709=DIRECTION('center_axis',(1.,0.,0.));
#1710=DIRECTION('ref_axis',(0.,0.,1.));
#1711=DIRECTION('',(0.,0.,1.));
#1712=DIRECTION('',(0.,-1.,0.));
#1713=DIRECTION('center_axis',(0.,0.,-1.));
#1714=DIRECTION('ref_axis',(1.,0.,0.));
#1715=DIRECTION('',(1.,0.,0.));
#1716=DIRECTION('',(0.,-1.,0.));
#1717=DIRECTION('center_axis',(-1.,0.,0.));
#1718=DIRECTION('ref_axis',(0.,0.,-1.));
#1719=DIRECTION('',(0.,0.,-1.));
#1720=DIRECTION('center_axis',(0.,1.,0.));
#1721=DIRECTION('ref_axis',(-1.,0.,0.));
#1722=CARTESIAN_POINT('',(0.,0.,0.));
#1723=CARTESIAN_POINT('Origin',(-25.000000372529,-6.50000024586916,-12.0999992370605));
#1724=CARTESIAN_POINT('',(-19.2264975946009,-12.0000004768372,-12.0999992370605));
#1725=CARTESIAN_POINT('',(-19.2264975946009,-6.00000008940697,-12.0999992370605));
#1726=CARTESIAN_POINT('',(-19.2264975946009,-6.00000008940697,-12.0999992370605));
#1727=CARTESIAN_POINT('',(-30.7735031504572,-12.0000004768372,-12.0999992370605));
#1728=CARTESIAN_POINT('',(-12.5000001862645,-12.,-12.0999992370605));
#1729=CARTESIAN_POINT('',(-30.7735031504572,-6.00000008940697,-12.0999992370605));
#1730=CARTESIAN_POINT('',(-30.7735031504572,-12.0000004768372,-12.0999992370605));
#1731=CARTESIAN_POINT('',(-27.8867517614931,-1.00000001490116,-12.0999992370605));
#1732=CARTESIAN_POINT('',(-27.8867517614931,-1.00000001490116,-12.0999992370605));
#1733=CARTESIAN_POINT('',(-22.113248983565,-1.00000001490116,-12.0999992370605));
#1734=CARTESIAN_POINT('',(-22.113248983565,-1.00000001490116,-12.0999992370605));
#1735=CARTESIAN_POINT('',(-19.2264975946009,-6.00000008940697,-12.0999992370605));
#1736=CARTESIAN_POINT('',(-28.250000372529,-6.00000008940697,-12.0999992370605));
#1737=CARTESIAN_POINT('Origin',(-25.000000372529,-6.00000008940697,-12.0999992370605));
#1738=CARTESIAN_POINT('Origin',(25.000000372529,-6.50000024586916,-12.0999992370605));
#1739=CARTESIAN_POINT('',(22.113248983565,-1.00000001490116,-12.0999992370605));
#1740=CARTESIAN_POINT('',(19.2264975946009,-6.00000008940697,-12.0999992370605));
#1741=CARTESIAN_POINT('',(19.2264975946009,-6.00000008940697,-12.0999992370605));
#1742=CARTESIAN_POINT('',(27.8867517614931,-1.00000001490116,-12.0999992370605));
#1743=CARTESIAN_POINT('',(22.113248983565,-1.00000001490116,-12.0999992370605));
#1744=CARTESIAN_POINT('',(30.7735031504572,-6.00000008940697,-12.0999992370605));
#1745=CARTESIAN_POINT('',(27.8867517614931,-1.00000001490116,-12.0999992370605));
#1746=CARTESIAN_POINT('',(30.7735031504572,-12.0000004768372,-12.0999992370605));
#1747=CARTESIAN_POINT('',(30.7735031504572,-6.00000008940697,-12.0999992370605));
#1748=CARTESIAN_POINT('',(19.2264975946009,-12.0000004768372,-12.0999992370605));
#1749=CARTESIAN_POINT('',(12.5000001862645,-12.,-12.0999992370605));
#1750=CARTESIAN_POINT('',(19.2264975946009,-12.0000004768372,-12.0999992370605));
#1751=CARTESIAN_POINT('',(21.750000372529,-6.00000008940697,-12.0999992370605));
#1752=CARTESIAN_POINT('Origin',(25.000000372529,-6.00000008940697,-12.0999992370605));
#1753=CARTESIAN_POINT('Origin',(0.,-12.,-8.29999953508377));
#1754=CARTESIAN_POINT('',(-24.7500000149012,-12.0000004768372,-0.0655428005323089));
#1755=CARTESIAN_POINT('',(-24.7500000149012,-12.0000004768372,6.70000016689301));
#1756=CARTESIAN_POINT('',(-24.7500000149012,-12.,-0.799999684095383));
#1757=CARTESIAN_POINT('',(-32.9999995231628,-12.,6.70000016689301));
#1758=CARTESIAN_POINT('',(-13.0000007152557,-12.,6.70000016689301));
#1759=CARTESIAN_POINT('',(-32.9999995231628,-12.,-23.2999992370605));
#1760=CARTESIAN_POINT('',(-32.9999995231628,-12.,6.70000016689301));
#1761=CARTESIAN_POINT('',(32.9999995231628,-12.,-23.2999992370605));
#1762=CARTESIAN_POINT('',(-32.9999995231628,-12.,-23.2999992370605));
#1763=CARTESIAN_POINT('',(32.9999995231628,-12.,6.70000016689301));
#1764=CARTESIAN_POINT('',(32.9999995231628,-12.,-23.2999992370605));
#1765=CARTESIAN_POINT('',(24.7500000149012,-12.0000004768372,6.70000016689301));
#1766=CARTESIAN_POINT('',(32.9999995231628,-12.,6.70000016689301));
#1767=CARTESIAN_POINT('',(24.7500000149012,-12.0000004768372,-0.0655428005187098));
#1768=CARTESIAN_POINT('',(24.7500000149012,-12.,-4.18277116780124));
#1769=CARTESIAN_POINT('',(24.5538918122992,-12.0000004768372,-1.5551476911734));
#1770=CARTESIAN_POINT('',(23.9083128899588,-12.,-6.45885649713993));
#1771=CARTESIAN_POINT('',(23.9536253510558,-12.0000004768372,-3.00431460086283));
#1772=CARTESIAN_POINT('',(21.2634966522691,-12.,-9.49883952403234));
#1773=CARTESIAN_POINT('',(22.9987438555176,-12.0000004768372,-4.24874221510342));
#1774=CARTESIAN_POINT('',(17.7588908253325,-12.,-11.0774616277143));
#1775=CARTESIAN_POINT('',(21.7852725865997,-12.0000004768372,-5.17987051247626));
#1776=CARTESIAN_POINT('',(14.1758852577154,-12.,-11.0187527745282));
#1777=CARTESIAN_POINT('',(7.19749787779252,-12.0000004768372,-12.5856477142399));
#1778=CARTESIAN_POINT('',(5.20112082583279,-12.,-13.5991486732725));
#1779=CARTESIAN_POINT('',(5.54973107715649,-12.0000004768372,-13.39823637575));
#1780=CARTESIAN_POINT('',(4.32885856048404,-12.,-14.0003040735665));
#1781=CARTESIAN_POINT('',(3.75343150032468,-12.0000004768372,-14.0079974761465));
#1782=CARTESIAN_POINT('',(2.93932576629738,-12.,-14.2843489347907));
#1783=CARTESIAN_POINT('',(1.89290980179999,-12.0000004768372,-14.3780776905649));
#1784=CARTESIAN_POINT('',(1.56397122857991,-12.,-14.4435075416676));
#1785=CARTESIAN_POINT('',(1.49213974509621E-12,-12.0000004768372,-14.5021459374145));
#1786=CARTESIAN_POINT('',(0.202386258835788,-12.,-14.4888808001659));
#1787=CARTESIAN_POINT('',(-1.89290980179994,-12.0000004768372,-14.3780776905649));
#1788=CARTESIAN_POINT('',(-1.14884115973468,-12.,-14.4268466767411));
#1789=CARTESIAN_POINT('',(-3.75343150032468,-12.0000004768372,-14.0079974761465));
#1790=CARTESIAN_POINT('',(-2.49423207784225,-12.,-14.2584674344584));
#1791=CARTESIAN_POINT('',(-5.54973107715649,-12.0000004768372,-13.39823637575));
#1792=CARTESIAN_POINT('',(-3.83747555471329,-12.,-13.9794683845925));
#1793=CARTESIAN_POINT('',(-7.19749787779256,-12.0000004768372,-12.5856477142399));
#1794=CARTESIAN_POINT('',(-5.15274196080207,-12.,-13.5940097428114));
#1795=CARTESIAN_POINT('',(-21.7852725865997,-12.0000004768372,-5.17987051247625));
#1796=CARTESIAN_POINT('',(-12.4950081802364,-12.,-9.89626007239067));
#1797=CARTESIAN_POINT('',(-22.9987438555176,-12.0000004768372,-4.24874221510342));
#1798=CARTESIAN_POINT('',(-14.7826208921744,-12.,-10.5531886258418));
#1799=CARTESIAN_POINT('',(-23.9536253510558,-12.0000004768372,-3.00431460086283));
#1800=CARTESIAN_POINT('',(-18.2363315731016,-12.,-10.455247820594));
#1801=CARTESIAN_POINT('',(-24.5538918122989,-12.0000004768372,-1.55514769117401));
#1802=CARTESIAN_POINT('',(-21.5636298828906,-12.,-8.77425606918792));
#1803=CARTESIAN_POINT('',(-24.0063669912514,-12.,-5.71405405183361));
#1804=CARTESIAN_POINT('',(19.2264975946009,-12.0000004768372,-17.2999992370605));
#1805=CARTESIAN_POINT('',(19.2264975946009,-12.,-12.7999993860722));
#1806=CARTESIAN_POINT('',(30.7735031504572,-12.0000004768372,-17.2999992370605));
#1807=CARTESIAN_POINT('',(30.7735031504572,-12.,-12.7999993860722));
#1808=CARTESIAN_POINT('',(12.5000001862645,-12.,-17.2999992370605));
#1809=CARTESIAN_POINT('',(-19.2264975946009,-12.0000004768372,-17.2999992370605));
#1810=CARTESIAN_POINT('',(-19.2264975946009,-12.,-12.7999993860722));
#1811=CARTESIAN_POINT('',(-30.7735031504572,-12.0000004768372,-17.2999992370605));
#1812=CARTESIAN_POINT('',(-12.5000001862645,-12.,-17.2999992370605));
#1813=CARTESIAN_POINT('',(-30.7735031504572,-12.,-12.7999993860722));
#1814=CARTESIAN_POINT('Origin',(-30.7735031504572,-6.00000008940697,-17.2999992370605));
#1815=CARTESIAN_POINT('',(-30.7735031504572,-6.00000008940697,-17.2999992370605));
#1816=CARTESIAN_POINT('',(-30.7735031504572,-12.0000004768372,-17.2999992370605));
#1817=CARTESIAN_POINT('',(-30.7735031504572,-6.00000008940697,-17.2999992370605));
#1818=CARTESIAN_POINT('Origin',(-27.8867517614931,-1.00000001490116,-17.2999992370605));
#1819=CARTESIAN_POINT('',(-27.8867517614931,-1.00000001490116,-17.2999992370605));
#1820=CARTESIAN_POINT('',(-27.8867517614931,-1.00000001490116,-17.2999992370605));
#1821=CARTESIAN_POINT('',(-27.8867517614931,-1.00000001490116,-17.2999992370605));
#1822=CARTESIAN_POINT('Origin',(-22.113248983565,-1.00000001490116,-17.2999992370605));
#1823=CARTESIAN_POINT('',(-22.113248983565,-1.00000001490116,-17.2999992370605));
#1824=CARTESIAN_POINT('',(-22.113248983565,-1.00000001490116,-17.2999992370605));
#1825=CARTESIAN_POINT('',(-22.113248983565,-1.00000001490116,-17.2999992370605));
#1826=CARTESIAN_POINT('Origin',(-19.2264975946009,-6.00000008940697,-17.2999992370605));
#1827=CARTESIAN_POINT('',(-19.2264975946009,-6.00000008940697,-17.2999992370605));
#1828=CARTESIAN_POINT('',(-19.2264975946009,-6.00000008940697,-17.2999992370605));
#1829=CARTESIAN_POINT('',(-19.2264975946009,-6.00000008940697,-17.2999992370605));
#1830=CARTESIAN_POINT('Origin',(-19.2264975946009,-12.0000004768372,-17.2999992370605));
#1831=CARTESIAN_POINT('',(-19.2264975946009,-6.00000008940697,-17.2999992370605));
#1832=CARTESIAN_POINT('Origin',(-25.000000372529,-6.50000024586916,-17.2999992370605));
#1833=CARTESIAN_POINT('',(-28.250000372529,-6.00000008940697,-17.2999992370605));
#1834=CARTESIAN_POINT('Origin',(-25.000000372529,-6.00000008940697,-17.2999992370605));
#1835=CARTESIAN_POINT('Origin',(27.8867517614931,-1.00000001490116,-17.2999992370605));
#1836=CARTESIAN_POINT('',(22.113248983565,-1.00000001490116,-17.2999992370605));
#1837=CARTESIAN_POINT('',(27.8867517614931,-1.00000001490116,-17.2999992370605));
#1838=CARTESIAN_POINT('',(22.113248983565,-1.00000001490116,-17.2999992370605));
#1839=CARTESIAN_POINT('',(27.8867517614931,-1.00000001490116,-17.2999992370605));
#1840=CARTESIAN_POINT('',(22.113248983565,-1.00000001490116,-17.2999992370605));
#1841=CARTESIAN_POINT('Origin',(30.7735031504572,-6.00000008940697,-17.2999992370605));
#1842=CARTESIAN_POINT('',(30.7735031504572,-6.00000008940697,-17.2999992370605));
#1843=CARTESIAN_POINT('',(27.8867517614931,-1.00000001490116,-17.2999992370605));
#1844=CARTESIAN_POINT('',(30.7735031504572,-6.00000008940697,-17.2999992370605));
#1845=CARTESIAN_POINT('Origin',(30.7735031504572,-12.0000004768372,-17.2999992370605));
#1846=CARTESIAN_POINT('',(30.7735031504572,-6.00000008940697,-17.2999992370605));
#1847=CARTESIAN_POINT('Origin',(19.2264975946009,-6.00000008940697,-17.2999992370605));
#1848=CARTESIAN_POINT('',(19.2264975946009,-6.00000008940697,-17.2999992370605));
#1849=CARTESIAN_POINT('',(19.2264975946009,-12.0000004768372,-17.2999992370605));
#1850=CARTESIAN_POINT('',(19.2264975946009,-6.00000008940697,-17.2999992370605));
#1851=CARTESIAN_POINT('Origin',(22.113248983565,-1.00000001490116,-17.2999992370605));
#1852=CARTESIAN_POINT('',(19.2264975946009,-6.00000008940697,-17.2999992370605));
#1853=CARTESIAN_POINT('Origin',(25.000000372529,-6.50000024586916,-17.2999992370605));
#1854=CARTESIAN_POINT('',(21.750000372529,-6.00000008940697,-17.2999992370605));
#1855=CARTESIAN_POINT('Origin',(25.000000372529,-6.00000008940697,-17.2999992370605));
#1856=CARTESIAN_POINT('Origin',(-25.000000372529,-6.00000008940697,-23.2999992370605));
#1857=CARTESIAN_POINT('',(-28.250000372529,-6.00000008940697,-8.29999923706055));
#1858=CARTESIAN_POINT('',(-28.250000372529,-6.00000008940697,-23.2999992370605));
#1859=CARTESIAN_POINT('Origin',(-25.000000372529,-6.00000008940697,-8.29999923706055));
#1860=CARTESIAN_POINT('Origin',(25.000000372529,-6.00000008940697,-23.2999992370605));
#1861=CARTESIAN_POINT('',(21.750000372529,-6.00000008940697,-8.29999923706055));
#1862=CARTESIAN_POINT('',(21.750000372529,-6.00000008940697,-23.2999992370605));
#1863=CARTESIAN_POINT('Origin',(25.000000372529,-6.00000008940697,-8.29999923706055));
#1864=CARTESIAN_POINT('Origin',(25.000000372529,-6.00000008940697,-23.2999992370605));
#1865=CARTESIAN_POINT('',(21.750000372529,-6.00000008940697,-23.2999992370605));
#1866=CARTESIAN_POINT('Origin',(25.000000372529,-6.00000008940697,-23.2999992370605));
#1867=CARTESIAN_POINT('',(21.750000372529,-6.00000008940697,-23.2999992370605));
#1868=CARTESIAN_POINT('Origin',(25.000000372529,-6.00000008940697,-8.29999923706055));
#1869=CARTESIAN_POINT('Origin',(-25.000000372529,-6.00000008940697,-23.2999992370605));
#1870=CARTESIAN_POINT('',(-28.250000372529,-6.00000008940697,-23.2999992370605));
#1871=CARTESIAN_POINT('Origin',(-25.000000372529,-6.00000008940697,-23.2999992370605));
#1872=CARTESIAN_POINT('',(-28.250000372529,-6.00000008940697,-23.2999992370605));
#1873=CARTESIAN_POINT('Origin',(-25.000000372529,-6.00000008940697,-8.29999923706055));
#1874=CARTESIAN_POINT('Origin',(0.,-7.80000047683716,-3.90107288526076));
#1875=CARTESIAN_POINT('',(-13.0000007152557,-7.80000047683716,6.70000016689301));
#1876=CARTESIAN_POINT('',(-13.0000007152544,-7.80000047683716,-9.01865924695529E-9));
#1877=CARTESIAN_POINT('',(-13.0000007152557,-7.80000047683716,-1.95053644263391));
#1878=CARTESIAN_POINT('',(-24.7500000149012,-7.80000047683716,6.70000016689301));
#1879=CARTESIAN_POINT('',(-6.50000035762787,-7.80000047683716,6.70000016689301));
#1880=CARTESIAN_POINT('',(-24.7500000149012,-7.80000047683716,-0.0655428005323089));
#1881=CARTESIAN_POINT('',(-24.7500000149012,-7.80000047683716,6.70000016689301));
#1882=CARTESIAN_POINT('',(-24.5538918122989,-7.80000047683716,-1.55514769117401));
#1883=CARTESIAN_POINT('',(-24.7500000149012,-7.80000047683716,-0.0655428005323089));
#1884=CARTESIAN_POINT('',(-23.9536253510558,-7.80000047683716,-3.00431460086283));
#1885=CARTESIAN_POINT('',(-24.5538918122989,-7.80000047683716,-1.55514769117401));
#1886=CARTESIAN_POINT('',(-22.9987438555176,-7.80000047683716,-4.24874221510342));
#1887=CARTESIAN_POINT('',(-23.9536253510558,-7.80000047683716,-3.00431460086283));
#1888=CARTESIAN_POINT('',(-21.7852725865997,-7.80000047683716,-5.17987051247626));
#1889=CARTESIAN_POINT('',(-22.9987438555176,-7.80000047683716,-4.24874221510342));
#1890=CARTESIAN_POINT('',(-7.19749787779256,-7.80000047683716,-12.5856477142399));
#1891=CARTESIAN_POINT('',(-21.7852725865997,-7.80000047683716,-5.17987051247626));
#1892=CARTESIAN_POINT('',(-5.54973107715649,-7.80000047683716,-13.39823637575));
#1893=CARTESIAN_POINT('',(-7.19749787779256,-7.80000047683716,-12.5856477142399));
#1894=CARTESIAN_POINT('',(-3.75343150032468,-7.80000047683716,-14.0079974761465));
#1895=CARTESIAN_POINT('',(-5.54973107715649,-7.80000047683716,-13.39823637575));
#1896=CARTESIAN_POINT('',(-1.89290980179994,-7.80000047683716,-14.3780776905649));
#1897=CARTESIAN_POINT('',(-3.75343150032468,-7.80000047683716,-14.0079974761465));
#1898=CARTESIAN_POINT('',(1.49019685480312E-12,-7.80000047683716,-14.5021459374145));
#1899=CARTESIAN_POINT('',(-1.89290980179994,-7.80000047683716,-14.3780776905649));
#1900=CARTESIAN_POINT('',(1.89290980179999,-7.80000047683716,-14.3780776905649));
#1901=CARTESIAN_POINT('',(1.49019685480312E-12,-7.80000047683716,-14.5021459374145));
#1902=CARTESIAN_POINT('',(3.75343150032468,-7.80000047683716,-14.0079974761465));
#1903=CARTESIAN_POINT('',(1.89290980179999,-7.80000047683716,-14.3780776905649));
#1904=CARTESIAN_POINT('',(5.54973107715649,-7.80000047683716,-13.39823637575));
#1905=CARTESIAN_POINT('',(3.75343150032468,-7.80000047683716,-14.0079974761465));
#1906=CARTESIAN_POINT('',(7.19749787779252,-7.80000047683716,-12.5856477142399));
#1907=CARTESIAN_POINT('',(5.54973107715649,-7.80000047683716,-13.39823637575));
#1908=CARTESIAN_POINT('',(21.7852725865997,-7.80000047683716,-5.17987051247626));
#1909=CARTESIAN_POINT('',(7.19749787779252,-7.80000047683716,-12.5856477142399));
#1910=CARTESIAN_POINT('',(22.9987438555176,-7.80000047683716,-4.24874221510342));
#1911=CARTESIAN_POINT('',(21.7852725865997,-7.80000047683716,-5.17987051247626));
#1912=CARTESIAN_POINT('',(23.9536253510558,-7.80000047683716,-3.00431460086283));
#1913=CARTESIAN_POINT('',(22.9987438555176,-7.80000047683716,-4.24874221510342));
#1914=CARTESIAN_POINT('',(24.5538918122992,-7.80000047683716,-1.5551476911734));
#1915=CARTESIAN_POINT('',(23.9536253510558,-7.80000047683716,-3.00431460086283));
#1916=CARTESIAN_POINT('',(24.7500000149012,-7.80000047683716,-0.0655428005187095));
#1917=CARTESIAN_POINT('',(24.5538918122992,-7.80000047683716,-1.5551476911734));
#1918=CARTESIAN_POINT('',(24.7500000149012,-7.80000047683716,6.70000016689301));
#1919=CARTESIAN_POINT('',(24.7500000149012,-7.80000047683716,-0.0655428005187095));
#1920=CARTESIAN_POINT('',(13.0000007152557,-7.80000047683716,6.70000016689301));
#1921=CARTESIAN_POINT('',(16.4999997615814,-7.80000047683716,6.70000016689301));
#1922=CARTESIAN_POINT('',(13.0000007152557,-7.80000047683716,3.60822483003176E-15));
#1923=CARTESIAN_POINT('',(13.0000007152557,-7.80000047683716,1.39946364081612));
#1924=CARTESIAN_POINT('Origin',(6.50590692430342E-13,-7.80000047683716,
-2.60770320892334E-7));
#1925=CARTESIAN_POINT('',(21.375,-7.80000047683716,3.2146978477618E-16));
#1926=CARTESIAN_POINT('Origin',(18.75,-7.80000047683716,0.));
#1927=CARTESIAN_POINT('',(-16.125,-7.80000047683716,3.2146978477618E-16));
#1928=CARTESIAN_POINT('Origin',(-18.75,-7.80000047683716,0.));
#1929=CARTESIAN_POINT('Origin',(24.7500000149012,-7.80000047683716,-0.0655428005187095));
#1930=CARTESIAN_POINT('',(24.7500000149012,-7.80000047683716,-0.0655428005187095));
#1931=CARTESIAN_POINT('',(24.7500000149012,-3.90000023841858,6.70000016689301));
#1932=CARTESIAN_POINT('Origin',(24.5538918122992,-7.80000047683716,-1.5551476911734));
#1933=CARTESIAN_POINT('',(24.5538918122992,-7.80000047683716,-1.5551476911734));
#1934=CARTESIAN_POINT('Origin',(23.9536253510558,-7.80000047683716,-3.00431460086283));
#1935=CARTESIAN_POINT('',(23.9536253510558,-7.80000047683716,-3.00431460086283));
#1936=CARTESIAN_POINT('Origin',(22.9987438555176,-7.80000047683716,-4.24874221510342));
#1937=CARTESIAN_POINT('',(22.9987438555176,-7.80000047683716,-4.24874221510342));
#1938=CARTESIAN_POINT('Origin',(21.7852725865997,-7.80000047683716,-5.17987051247626));
#1939=CARTESIAN_POINT('',(21.7852725865997,-7.80000047683716,-5.17987051247626));
#1940=CARTESIAN_POINT('Origin',(7.19749787779252,-7.80000047683716,-12.5856477142399));
#1941=CARTESIAN_POINT('',(7.19749787779252,-7.80000047683716,-12.5856477142399));
#1942=CARTESIAN_POINT('Origin',(5.54973107715649,-7.80000047683716,-13.39823637575));
#1943=CARTESIAN_POINT('',(5.54973107715649,-7.80000047683716,-13.39823637575));
#1944=CARTESIAN_POINT('Origin',(3.75343150032468,-7.80000047683716,-14.0079974761465));
#1945=CARTESIAN_POINT('',(3.75343150032468,-7.80000047683716,-14.0079974761465));
#1946=CARTESIAN_POINT('Origin',(1.89290980179999,-7.80000047683716,-14.3780776905649));
#1947=CARTESIAN_POINT('',(1.89290980179999,-7.80000047683716,-14.3780776905649));
#1948=CARTESIAN_POINT('Origin',(1.49019685480312E-12,-7.80000047683716,
-14.5021459374145));
#1949=CARTESIAN_POINT('',(1.49019685480312E-12,-7.80000047683716,-14.5021459374145));
#1950=CARTESIAN_POINT('Origin',(-1.89290980179994,-7.80000047683716,-14.3780776905649));
#1951=CARTESIAN_POINT('',(-1.89290980179994,-7.80000047683716,-14.3780776905649));
#1952=CARTESIAN_POINT('Origin',(-3.75343150032468,-7.80000047683716,-14.0079974761465));
#1953=CARTESIAN_POINT('',(-3.75343150032468,-7.80000047683716,-14.0079974761465));
#1954=CARTESIAN_POINT('Origin',(-5.54973107715649,-7.80000047683716,-13.39823637575));
#1955=CARTESIAN_POINT('',(-5.54973107715649,-7.80000047683716,-13.39823637575));
#1956=CARTESIAN_POINT('Origin',(-7.19749787779256,-7.80000047683716,-12.5856477142399));
#1957=CARTESIAN_POINT('',(-7.19749787779256,-7.80000047683716,-12.5856477142399));
#1958=CARTESIAN_POINT('Origin',(-21.7852725865997,-7.80000047683716,-5.17987051247626));
#1959=CARTESIAN_POINT('',(-21.7852725865997,-7.80000047683716,-5.17987051247626));
#1960=CARTESIAN_POINT('Origin',(-22.9987438555176,-7.80000047683716,-4.24874221510342));
#1961=CARTESIAN_POINT('',(-22.9987438555176,-7.80000047683716,-4.24874221510342));
#1962=CARTESIAN_POINT('Origin',(-23.9536253510558,-7.80000047683716,-3.00431460086283));
#1963=CARTESIAN_POINT('',(-23.9536253510558,-7.80000047683716,-3.00431460086283));
#1964=CARTESIAN_POINT('Origin',(-24.5538918122989,-7.80000047683716,-1.55514769117401));
#1965=CARTESIAN_POINT('',(-24.5538918122989,-7.80000047683716,-1.55514769117401));
#1966=CARTESIAN_POINT('Origin',(-24.7500000149012,-7.80000047683716,-0.0655428005323089));
#1967=CARTESIAN_POINT('',(-24.7500000149012,-7.80000047683716,-0.0655428005323089));
#1968=CARTESIAN_POINT('Origin',(-24.7500000149012,-7.80000047683716,6.70000016689301));
#1969=CARTESIAN_POINT('',(-24.7500000149012,-3.90000023841858,6.70000016689301));
#1970=CARTESIAN_POINT('Origin',(-13.0000007152557,5.82867087928207E-15,
6.70000016689301));
#1971=CARTESIAN_POINT('',(-13.0000007152557,5.82867087928207E-15,6.70000016689301));
#1972=CARTESIAN_POINT('',(-13.0000007152557,5.82867087928207E-15,6.70000016689301));
#1973=CARTESIAN_POINT('',(-32.9999995231628,5.82867087928207E-15,6.70000016689301));
#1974=CARTESIAN_POINT('',(-13.0000007152557,5.82867087928207E-15,6.70000016689301));
#1975=CARTESIAN_POINT('',(-32.9999995231628,5.82867087928207E-15,6.70000016689301));
#1976=CARTESIAN_POINT('Origin',(-13.0000007152557,5.82867087928207E-15,
-7.069900220813E-12));
#1977=CARTESIAN_POINT('',(-13.0000007152544,5.82867087928207E-15,-9.01865924695529E-9));
#1978=CARTESIAN_POINT('',(-13.0000007152544,5.82867087928207E-15,-9.01865924695529E-9));
#1979=CARTESIAN_POINT('',(-13.0000007152557,5.82867087928207E-15,6.70000016689301));
#1980=CARTESIAN_POINT('Origin',(6.50590692430342E-13,5.82867087928207E-15,
-2.60770320892334E-7));
#1981=CARTESIAN_POINT('',(13.0000007152557,5.82867087928207E-15,3.60822483003176E-15));
#1982=CARTESIAN_POINT('',(13.0000007152557,5.82867087928207E-15,3.60822483003176E-15));
#1983=CARTESIAN_POINT('Origin',(6.50590692430342E-13,5.82867087928207E-15,
-2.60770320892334E-7));
#1984=CARTESIAN_POINT('Origin',(13.0000007152557,5.82867087928207E-15,6.70000016689301));
#1985=CARTESIAN_POINT('',(13.0000007152557,5.82867087928207E-15,6.70000016689301));
#1986=CARTESIAN_POINT('',(13.0000007152557,5.82867087928207E-15,6.70000016689301));
#1987=CARTESIAN_POINT('',(13.0000007152557,5.82867087928207E-15,-7.069900220813E-12));
#1988=CARTESIAN_POINT('Origin',(32.9999995231628,5.82867087928207E-15,6.70000016689301));
#1989=CARTESIAN_POINT('',(32.9999995231628,5.82867087928207E-15,6.70000016689301));
#1990=CARTESIAN_POINT('',(32.9999995231628,5.82867087928207E-15,6.70000016689301));
#1991=CARTESIAN_POINT('',(32.9999995231628,5.82867087928207E-15,6.70000016689301));
#1992=CARTESIAN_POINT('Origin',(-18.75,-3.99999999999999,0.));
#1993=CARTESIAN_POINT('',(-16.125,-3.99999999999999,-3.2146978477618E-16));
#1994=CARTESIAN_POINT('',(-16.125,-3.99999999999999,3.2146978477618E-16));
#1995=CARTESIAN_POINT('Origin',(-18.75,-3.99999999999999,0.));
#1996=CARTESIAN_POINT('Origin',(-18.75,-3.99999999999999,-5.55111512312578E-16));
#1997=CARTESIAN_POINT('',(-18.75,-3.99999999999999,-4.61880215351701));
#1998=CARTESIAN_POINT('',(-14.75,-3.99999999999999,-2.3094010767585));
#1999=CARTESIAN_POINT('',(-15.75,-3.99999999999999,-2.88675134594813));
#2000=CARTESIAN_POINT('',(-22.75,-3.99999999999999,-2.3094010767585));
#2001=CARTESIAN_POINT('',(-19.75,-3.99999999999999,-4.04145188432738));
#2002=CARTESIAN_POINT('',(-22.75,-3.99999999999999,2.3094010767585));
#2003=CARTESIAN_POINT('',(-22.75,-3.99999999999999,-1.15470053837925));
#2004=CARTESIAN_POINT('',(-18.75,-3.99999999999999,4.61880215351701));
#2005=CARTESIAN_POINT('',(-21.75,-3.99999999999999,2.88675134594813));
#2006=CARTESIAN_POINT('',(-14.75,-3.99999999999999,2.3094010767585));
#2007=CARTESIAN_POINT('',(-17.75,-3.99999999999999,4.04145188432738));
#2008=CARTESIAN_POINT('',(-14.75,-3.99999999999999,1.15470053837925));
#2009=CARTESIAN_POINT('Origin',(-22.75,5.82867087928207E-15,-2.3094010767585));
#2010=CARTESIAN_POINT('',(-22.75,5.82867087928207E-15,-2.3094010767585));
#2011=CARTESIAN_POINT('',(-22.75,5.82867087928207E-15,-2.3094010767585));
#2012=CARTESIAN_POINT('',(-22.75,5.82867087928207E-15,2.3094010767585));
#2013=CARTESIAN_POINT('',(-22.75,5.82867087928207E-15,2.3094010767585));
#2014=CARTESIAN_POINT('',(-22.75,5.82867087928207E-15,2.3094010767585));
#2015=CARTESIAN_POINT('Origin',(-18.75,5.82867087928207E-15,-4.61880215351701));
#2016=CARTESIAN_POINT('',(-18.75,5.82867087928207E-15,-4.61880215351701));
#2017=CARTESIAN_POINT('',(-18.75,5.82867087928207E-15,-4.61880215351701));
#2018=CARTESIAN_POINT('',(-22.75,5.82867087928207E-15,-2.3094010767585));
#2019=CARTESIAN_POINT('Origin',(-14.75,5.82867087928207E-15,-2.30940107675851));
#2020=CARTESIAN_POINT('',(-14.75,5.82867087928207E-15,-2.3094010767585));
#2021=CARTESIAN_POINT('',(-14.75,5.82867087928207E-15,-2.3094010767585));
#2022=CARTESIAN_POINT('',(-18.75,5.82867087928207E-15,-4.61880215351701));
#2023=CARTESIAN_POINT('Origin',(18.75,-3.99999999999999,0.));
#2024=CARTESIAN_POINT('',(21.375,-3.99999999999999,-3.2146978477618E-16));
#2025=CARTESIAN_POINT('',(21.375,-3.99999999999999,3.2146978477618E-16));
#2026=CARTESIAN_POINT('Origin',(18.75,-3.99999999999999,0.));
#2027=CARTESIAN_POINT('Origin',(18.75,-3.99999999999999,-5.55111512312578E-16));
#2028=CARTESIAN_POINT('',(18.75,-3.99999999999999,4.61880215351701));
#2029=CARTESIAN_POINT('',(14.75,-3.99999999999999,2.3094010767585));
#2030=CARTESIAN_POINT('',(15.75,-3.99999999999999,2.88675134594813));
#2031=CARTESIAN_POINT('',(22.75,-3.99999999999999,2.3094010767585));
#2032=CARTESIAN_POINT('',(19.75,-3.99999999999999,4.04145188432738));
#2033=CARTESIAN_POINT('',(22.75,-3.99999999999999,-2.3094010767585));
#2034=CARTESIAN_POINT('',(22.75,-3.99999999999999,1.15470053837925));
#2035=CARTESIAN_POINT('',(18.75,-3.99999999999999,-4.61880215351701));
#2036=CARTESIAN_POINT('',(21.75,-3.99999999999999,-2.88675134594813));
#2037=CARTESIAN_POINT('',(14.75,-3.99999999999999,-2.3094010767585));
#2038=CARTESIAN_POINT('',(17.75,-3.99999999999999,-4.04145188432738));
#2039=CARTESIAN_POINT('',(14.75,-3.99999999999999,-1.15470053837925));
#2040=CARTESIAN_POINT('Origin',(22.75,5.82867087928207E-15,2.3094010767585));
#2041=CARTESIAN_POINT('',(22.75,5.82867087928207E-15,2.3094010767585));
#2042=CARTESIAN_POINT('',(22.75,5.82867087928207E-15,2.3094010767585));
#2043=CARTESIAN_POINT('',(22.75,5.82867087928207E-15,-2.3094010767585));
#2044=CARTESIAN_POINT('',(22.75,5.82867087928207E-15,2.3094010767585));
#2045=CARTESIAN_POINT('',(22.75,5.82867087928207E-15,-2.3094010767585));
#2046=CARTESIAN_POINT('Origin',(18.75,5.82867087928207E-15,4.61880215351701));
#2047=CARTESIAN_POINT('',(18.75,5.82867087928207E-15,4.61880215351701));
#2048=CARTESIAN_POINT('',(18.75,5.82867087928207E-15,4.61880215351701));
#2049=CARTESIAN_POINT('',(18.75,5.82867087928207E-15,4.61880215351701));
#2050=CARTESIAN_POINT('Origin',(14.75,5.82867087928207E-15,2.3094010767585));
#2051=CARTESIAN_POINT('',(14.75,5.82867087928207E-15,2.3094010767585));
#2052=CARTESIAN_POINT('',(14.75,5.82867087928207E-15,2.3094010767585));
#2053=CARTESIAN_POINT('',(14.75,5.82867087928207E-15,2.3094010767585));
#2054=CARTESIAN_POINT('Origin',(14.75,5.82867087928207E-15,-2.3094010767585));
#2055=CARTESIAN_POINT('',(14.75,5.82867087928207E-15,-2.3094010767585));
#2056=CARTESIAN_POINT('',(14.75,5.82867087928207E-15,-2.3094010767585));
#2057=CARTESIAN_POINT('',(14.75,5.82867087928207E-15,-2.3094010767585));
#2058=CARTESIAN_POINT('Origin',(18.75,5.82867087928207E-15,-4.61880215351701));
#2059=CARTESIAN_POINT('',(18.75,5.82867087928207E-15,-4.61880215351701));
#2060=CARTESIAN_POINT('',(18.75,5.82867087928207E-15,-4.61880215351701));
#2061=CARTESIAN_POINT('',(18.75,5.82867087928207E-15,-4.61880215351701));
#2062=CARTESIAN_POINT('Origin',(22.75,5.82867087928207E-15,-2.3094010767585));
#2063=CARTESIAN_POINT('',(22.75,5.82867087928207E-15,-2.3094010767585));
#2064=CARTESIAN_POINT('Origin',(-14.75,5.82867087928207E-15,2.3094010767585));
#2065=CARTESIAN_POINT('',(-14.75,5.82867087928207E-15,2.3094010767585));
#2066=CARTESIAN_POINT('',(-14.75,5.82867087928207E-15,2.3094010767585));
#2067=CARTESIAN_POINT('',(-14.75,5.82867087928207E-15,-2.3094010767585));
#2068=CARTESIAN_POINT('Origin',(-18.75,5.82867087928207E-15,4.61880215351701));
#2069=CARTESIAN_POINT('',(-18.75,5.82867087928207E-15,4.61880215351701));
#2070=CARTESIAN_POINT('',(-18.75,5.82867087928207E-15,4.61880215351701));
#2071=CARTESIAN_POINT('',(-14.75,5.82867087928207E-15,2.3094010767585));
#2072=CARTESIAN_POINT('Origin',(-22.75,5.82867087928207E-15,2.3094010767585));
#2073=CARTESIAN_POINT('',(-18.75,5.82867087928207E-15,4.61880215351701));
#2074=CARTESIAN_POINT('Origin',(32.9999995231628,5.82867087928207E-15,-23.2999992370605));
#2075=CARTESIAN_POINT('',(32.9999995231628,5.82867087928207E-15,-23.2999992370605));
#2076=CARTESIAN_POINT('',(32.9999995231628,5.82867087928207E-15,-23.2999992370605));
#2077=CARTESIAN_POINT('',(32.9999995231628,5.82867087928207E-15,-23.2999992370605));
#2078=CARTESIAN_POINT('Origin',(-32.9999995231628,5.82867087928207E-15,
-23.2999992370605));
#2079=CARTESIAN_POINT('',(-32.9999995231628,5.82867087928207E-15,-23.2999992370605));
#2080=CARTESIAN_POINT('',(-32.9999995231628,5.82867087928207E-15,-23.2999992370605));
#2081=CARTESIAN_POINT('',(-32.9999995231628,5.82867087928207E-15,-23.2999992370605));
#2082=CARTESIAN_POINT('Origin',(-32.9999995231628,5.82867087928207E-15,
6.70000016689301));
#2083=CARTESIAN_POINT('',(-32.9999995231628,5.82867087928207E-15,6.70000016689301));
#2084=CARTESIAN_POINT('Origin',(0.,5.82867087928207E-15,-8.29999953508377));
#2085=UNCERTAINTY_MEASURE_WITH_UNIT(LENGTH_MEASURE(0.01),#2089,
'DISTANCE_ACCURACY_VALUE',
'Maximum model space distance between geometric entities at asserted c
onnectivities');
#2086=UNCERTAINTY_MEASURE_WITH_UNIT(LENGTH_MEASURE(0.01),#2089,
'DISTANCE_ACCURACY_VALUE',
'Maximum model space distance between geometric entities at asserted c
onnectivities');
#2087=(
GEOMETRIC_REPRESENTATION_CONTEXT(3)
GLOBAL_UNCERTAINTY_ASSIGNED_CONTEXT((#2085))
GLOBAL_UNIT_ASSIGNED_CONTEXT((#2089,#2091,#2092))
REPRESENTATION_CONTEXT('','3D')
);
#2088=(
GEOMETRIC_REPRESENTATION_CONTEXT(3)
GLOBAL_UNCERTAINTY_ASSIGNED_CONTEXT((#2086))
GLOBAL_UNIT_ASSIGNED_CONTEXT((#2089,#2091,#2092))
REPRESENTATION_CONTEXT('','3D')
);
#2089=(
LENGTH_UNIT()
NAMED_UNIT(*)
SI_UNIT(.MILLI.,.METRE.)
);
#2090=(
LENGTH_UNIT()
NAMED_UNIT(*)
SI_UNIT($,.METRE.)
);
#2091=(
NAMED_UNIT(*)
PLANE_ANGLE_UNIT()
SI_UNIT($,.RADIAN.)
);
#2092=(
NAMED_UNIT(*)
SI_UNIT($,.STERADIAN.)
SOLID_ANGLE_UNIT()
);
#2093=SHAPE_DEFINITION_REPRESENTATION(#2094,#2095);
#2094=PRODUCT_DEFINITION_SHAPE('',$,#2097);
#2095=SHAPE_REPRESENTATION('',(#1313),#2087);
#2096=PRODUCT_DEFINITION_CONTEXT('part definition',#2101,'design');
#2097=PRODUCT_DEFINITION('M8_Bearing_Mount','M8_Bearing_Mount v4',#2098,
#2096);
#2098=PRODUCT_DEFINITION_FORMATION('',$,#2103);
#2099=PRODUCT_RELATED_PRODUCT_CATEGORY('M8_Bearing_Mount v4',
'M8_Bearing_Mount v4',(#2103));
#2100=APPLICATION_PROTOCOL_DEFINITION('international standard',
'automotive_design',2009,#2101);
#2101=APPLICATION_CONTEXT(
'Core Data for Automotive Mechanical Design Process');
#2102=PRODUCT_CONTEXT('part definition',#2101,'mechanical');
#2103=PRODUCT('M8_Bearing_Mount','M8_Bearing_Mount v4',$,(#2102));
#2104=PRESENTATION_STYLE_ASSIGNMENT((#2105));
#2105=SURFACE_STYLE_USAGE(.BOTH.,#2106);
#2106=SURFACE_SIDE_STYLE('',(#2107));
#2107=SURFACE_STYLE_FILL_AREA(#2108);
#2108=FILL_AREA_STYLE('Steel - Satin',(#2109));
#2109=FILL_AREA_STYLE_COLOUR('Steel - Satin',#2110);
#2110=COLOUR_RGB('Steel - Satin',0.627450980392157,0.627450980392157,0.627450980392157);
ENDSEC;
END-ISO-10303-21;
